<svg width="390" height="844" viewBox="0 0 390 844" fill="none" xmlns="http://www.w3.org/2000/svg">
  <!-- Background -->
  <rect width="390" height="844" fill="#F3F4F6"/>
  
  <!-- Header -->
  <g id="Header">
    <circle cx="54" cy="64" r="30" fill="white" stroke="#512BD4" stroke-width="3"/>
    <path d="M54 50C57.866 50 61 53.134 61 57C61 60.866 57.866 64 54 64C50.134 64 47 60.866 47 57C47 53.134 50.134 50 54 50ZM54 66C60.6274 66 66 69.3579 66 73.5V75H42V73.5C42 69.3579 47.3726 66 54 66Z" fill="#512BD4"/>
    <text x="96" y="62" fill="#111827" style="font-family: sans-serif; font-weight: bold; font-size: 20px;">Luka S.</text>
    <circle cx="100" cy="78" r="3" fill="#10B981"/>
    <text x="108" y="82" fill="#10B981" style="font-family: sans-serif; font-weight: bold; font-size: 11px; letter-spacing: 0.05em;">VERIFIED</text>
  </g>

  <!-- Tab Switcher -->
  <rect x="24" y="114" width="342" height="54" rx="27" fill="#E2E8F0"/>
  <rect x="28" y="118" width="167" height="46" rx="23" fill="white"/>
  <text x="111" y="147" fill="#512BD4" text-anchor="middle" style="font-family: sans-serif; font-weight: bold; font-size: 14px;">Wallet</text>
  <text x="281" y="147" fill="#64748B" text-anchor="middle" style="font-family: sans-serif; font-weight: bold; font-size: 14px;">Account</text>

  <!-- Wallet Content (Active) -->
  <g id="WalletView">
    <!-- Balance Card -->
    <defs>
      <linearGradient id="cardGrad" x1="0" y1="0" x2="360" y2="188" gradientUnits="userSpaceOnUse">
        <stop stop-color="#5F8FF5"/>
        <stop offset="0.55" stop-color="#5565EA"/>
        <stop offset="1" stop-color="#5A24D9"/>
      </linearGradient>
    </defs>
    <rect x="15" y="193" width="360" height="188" rx="24" fill="url(#cardGrad)"/>
    <text x="195" y="240" fill="white" fill-opacity="0.8" text-anchor="middle" style="font-family: sans-serif; font-weight: bold; font-size: 11px; letter-spacing: 0.1em;">CURRENT BALANCE</text>
    <text x="195" y="290" fill="white" text-anchor="middle" style="font-family: sans-serif; font-weight: bold; font-size: 34px;">€42,50</text>
    <text x="195" y="330" fill="white" fill-opacity="0.7" text-anchor="middle" style="font-family: sans-serif; font-size: 12px;">Tap the eye to hide your balance</text>
    
    <!-- Visibility Icon (Eye Open) -->
    <rect x="318" y="266" width="42" height="42" rx="21" fill="white" fill-opacity="0.2"/>
    <path d="M339 281C333 281 328 287 328 287C328 287 333 293 339 293C345 293 350 287 350 287C350 287 345 281 339 281ZM339 291.5C336.515 291.5 334.5 289.485 334.5 287C334.5 284.515 336.515 282.5 339 282.5C341.485 282.5 343.5 284.515 343.5 287C343.5 289.485 341.485 291.5 339 291.5ZM339 284C337.343 284 336 285.343 336 287C336 288.657 337.343 290 339 290C340.657 290 342 288.657 342 287C342 285.343 340.657 284 339 284Z" fill="white"/>

    <!-- Add Button -->
    <rect x="149" y="361" width="92" height="48" rx="24" fill="white"/>
    <text x="195" y="391" fill="#111827" text-anchor="middle" style="font-family: sans-serif; font-weight: bold; font-size: 16px;">Add</text>

    <!-- Recent Activity -->
    <text x="195" y="445" fill="#111827" text-anchor="middle" style="font-family: sans-serif; font-weight: bold; font-size: 16px;">Recent Activity</text>
    <rect x="0" y="465" width="390" height="379" rx="36" fill="white"/>
    <rect x="175" y="485" width="40" height="4" rx="2" fill="#E5E7EB"/>
    
    <!-- Activity Row 1 -->
    <rect x="24" y="510" width="342" height="60" rx="12" fill="#F8FAFC"/>
    <circle cx="50" cy="540" r="18" fill="#E2E8F0"/>
    <path d="M50 532L54 536H52V544H48V536H46L50 532Z" fill="#10B981"/> <!-- Arrow Up (Deposit) -->
    <text x="78" y="538" fill="#111827" style="font-family: sans-serif; font-weight: bold; font-size: 14px;">Wallet Top-up</text>
    <text x="78" y="552" fill="#94A3B8" style="font-family: sans-serif; font-size: 11px;">12 Apr 10:45</text>
    <text x="354" y="542" fill="#10B981" text-anchor="end" style="font-family: sans-serif; font-weight: bold; font-size: 14px;">+€20,00</text>

    <!-- Activity Row 2 -->
    <rect x="24" y="580" width="342" height="60" rx="12" fill="#F8FAFC"/>
    <circle cx="50" cy="610" r="18" fill="#E2E8F0"/>
    <path d="M50 618L46 614H48V606H52V614H54L50 618Z" fill="#EF4444"/> <!-- Arrow Down (Payment) -->
    <text x="78" y="608" fill="#111827" style="font-family: sans-serif; font-weight: bold; font-size: 14px;">ZET Bus Ticket</text>
    <text x="78" y="622" fill="#94A3B8" style="font-family: sans-serif; font-size: 11px;">10 Apr 18:20</text>
    <text x="354" y="612" fill="#EF4444" text-anchor="end" style="font-family: sans-serif; font-weight: bold; font-size: 14px;">-€1,40</text>
  </g>
</svg>
