<?xml version="1.0" encoding="utf-8"?>
<!-- Generator: Adobe Illustrator 27.3.1, SVG Export Plug-In . SVG Version: 6.00 Build 0)  -->
<svg version="1.1" id="Layer_1" xmlns="http://www.w3.org/2000/svg" xmlns:xlink="http://www.w3.org/1999/xlink" x="0px" y="0px"
	 viewBox="0 0 342 600" style="enable-background:new 0 0 342 600;" xml:space="preserve">
<style type="text/css">
	.st0{fill:#1F2937;}
	.st1{fill:#1F2937;stroke:#394859;stroke-miterlimit:10;}
	.st2{fill:#334155;}
</style>
<rect y="0" class="st0" width="342" height="600"/>
<path class="st1" d="M14,35.5h314c7.7,0,14,6.3,14,14v52c0,7.7-6.3,14-14,14H14c-7.7,0-14-6.3-14-14v-52C0,41.8,6.3,35.5,14,35.5z"
	/>
<circle class="st2" cx="40" cy="75.5" r="22"/>
<path class="st2" d="M84,81.5h82c2.2,0,4,1.8,4,4v4c0,2.2-1.8,4-4,4H84c-2.2,0-4-1.8-4-4v-4C80,83.3,81.8,81.5,84,81.5z"/>
<path class="st2" d="M268,61.5h44c4.4,0,8,3.6,8,8v12c0,4.4-3.6,8-8,8h-44c-4.4,0-8-3.6-8-8v-12C260,65.1,263.6,61.5,268,61.5z"/>
<path class="st1" d="M14,130.5h314c7.7,0,14,6.3,14,14v52c0,7.7-6.3,14-14,14H14c-7.7,0-14-6.3-14-14v-52
	C0,136.8,6.3,130.5,14,130.5z"/>
<circle class="st2" cx="40" cy="170.5" r="22"/>
<path class="st2" d="M84,176.5h92c2.2,0,4,1.8,4,4v4c0,2.2-1.8,4-4,4H84c-2.2,0-4-1.8-4-4v-4C80,178.3,81.8,176.5,84,176.5z"/>
<path class="st2" d="M268,156.5h44c4.4,0,8,3.6,8,8v12c0,4.4-3.6,8-8,8h-44c-4.4,0-8-3.6-8-8v-12C260,160.1,263.6,156.5,268,156.5z"
	/>
<path class="st1" d="M14,225.5h314c7.7,0,14,6.3,14,14v52c0,7.7-6.3,14-14,14H14c-7.7,0-14-6.3-14-14v-52
	C0,231.8,6.3,225.5,14,225.5z"/>
<circle class="st2" cx="40" cy="265.5" r="22"/>
<path class="st2" d="M85.7,249.5h112c2.2,0,4,1.8,4,4v8c0,2.2-1.8,4-4,4h-112c-2.2,0-4-1.8-4-4v-8C81.7,251.3,83.5,249.5,85.7,249.5
	z"/>
<path class="st2" d="M84,151.5h112c2.2,0,4,1.8,4,4v8c0,2.2-1.8,4-4,4H84c-2.2,0-4-1.8-4-4v-8C80,153.3,81.8,151.5,84,151.5z"/>
<path class="st2" d="M82.3,59.5h112c2.2,0,4,1.8,4,4v8c0,2.2-1.8,4-4,4h-112c-2.2,0-4-1.8-4-4v-8C78.3,61.3,80.1,59.5,82.3,59.5z"/>
<path class="st2" d="M84,271.5h72c2.2,0,4,1.8,4,4v4c0,2.2-1.8,4-4,4H84c-2.2,0-4-1.8-4-4v-4C80,273.3,81.8,271.5,84,271.5z"/>
<path class="st2" d="M268,251.5h44c4.4,0,8,3.6,8,8v12c0,4.4-3.6,8-8,8h-44c-4.4,0-8-3.6-8-8v-12C260,255.1,263.6,251.5,268,251.5z"
	/>
<path class="st1" d="M14,320.5h314c7.7,0,14,6.3,14,14v52c0,7.7-6.3,14-14,14H14c-7.7,0-14-6.3-14-14v-52
	C0,326.8,6.3,320.5,14,320.5z"/>
<circle class="st2" cx="40" cy="360.5" r="22"/>
<path class="st2" d="M84,366.5h82c2.2,0,4,1.8,4,4v4c0,2.2-1.8,4-4,4H84c-2.2,0-4-1.8-4-4v-4C80,368.3,81.8,366.5,84,366.5z"/>
<path class="st2" d="M268,346.5h44c4.4,0,8,3.6,8,8v12c0,4.4-3.6,8-8,8h-44c-4.4,0-8-3.6-8-8v-12C260,350.1,263.6,346.5,268,346.5z"
	/>
<path class="st2" d="M85.7,344.5h112c2.2,0,4,1.8,4,4v8c0,2.2-1.8,4-4,4h-112c-2.2,0-4-1.8-4-4v-8C81.7,346.3,83.5,344.5,85.7,344.5
	z"/>
</svg>
