<svg width="402" height="874" viewBox="0 0 402 874" fill="none" xmlns="http://www.w3.org/2000/svg">
<g clip-path="url(#clip0_3257_1200)">
<path d="M16.4561 51.7117H385.544C394.595 51.7117 402 60.8887 402 72.105V147.852C402 159.068 394.595 168.245 385.544 168.245H16.4561C7.40526 168.245 0 159.068 0 147.852V72.105C0 60.8887 7.40526 51.7117 16.4561 51.7117Z" fill="#1F2937" stroke="#394859" stroke-miterlimit="10"/>
<path d="M98.7369 118.718H195.123C197.709 118.718 199.825 121.34 199.825 124.545V130.372C199.825 133.576 197.709 136.198 195.123 136.198H98.7369C96.1509 136.198 94.0352 133.576 94.0352 130.372V124.545C94.0352 121.34 96.1509 118.718 98.7369 118.718Z" fill="#334155"/>
<path d="M315.018 89.585H366.737C371.909 89.585 376.141 94.829 376.141 101.238V118.718C376.141 125.128 371.909 130.372 366.737 130.372H315.018C309.846 130.372 305.614 125.128 305.614 118.718V101.238C305.614 94.829 309.846 89.585 315.018 89.585Z" fill="#334155"/>
<path d="M16.4561 190.095H385.544C394.595 190.095 402 199.272 402 210.488V286.235C402 297.451 394.595 306.628 385.544 306.628H16.4561C7.40526 306.628 0 297.451 0 286.235V210.488C0 199.272 7.40526 190.095 16.4561 190.095Z" fill="#1F2937" stroke="#394859" stroke-miterlimit="10"/>
<path d="M98.7369 257.102H206.877C209.463 257.102 211.579 259.724 211.579 262.928V268.755C211.579 271.96 209.463 274.582 206.877 274.582H98.7369C96.1509 274.582 94.0352 271.96 94.0352 268.755V262.928C94.0352 259.724 96.1509 257.102 98.7369 257.102Z" fill="#334155"/>
<path d="M315.018 227.968H366.737C371.909 227.968 376.141 233.212 376.141 239.622V257.102C376.141 263.511 371.909 268.755 366.737 268.755H315.018C309.846 268.755 305.614 263.511 305.614 257.102V239.622C305.614 233.212 309.846 227.968 315.018 227.968Z" fill="#334155"/>
<path d="M16.4561 328.478H385.544C394.595 328.478 402 337.655 402 348.872V424.618C402 435.835 394.595 445.012 385.544 445.012H16.4561C7.40526 445.012 0 435.835 0 424.618V348.872C0 337.655 7.40526 328.478 16.4561 328.478Z" fill="#1F2937" stroke="#394859" stroke-miterlimit="10"/>
<path d="M100.735 363.438H232.384C234.97 363.438 237.086 366.06 237.086 369.265V380.918C237.086 384.123 234.97 386.745 232.384 386.745H100.735C98.149 386.745 96.0332 384.123 96.0332 380.918V369.265C96.0332 366.06 98.149 363.438 100.735 363.438Z" fill="#334155"/>
<path d="M98.7369 220.685H230.386C232.972 220.685 235.088 223.307 235.088 226.512V238.165C235.088 241.37 232.972 243.992 230.386 243.992H98.7369C96.1509 243.992 94.0352 241.37 94.0352 238.165V226.512C94.0352 223.307 96.1509 220.685 98.7369 220.685Z" fill="#334155"/>
<path d="M96.7384 86.6716H228.387C230.973 86.6716 233.089 89.2936 233.089 92.4983V104.152C233.089 107.356 230.973 109.978 228.387 109.978H96.7384C94.1524 109.978 92.0366 107.356 92.0366 104.152V92.4983C92.0366 89.2936 94.1524 86.6716 96.7384 86.6716Z" fill="#334155"/>
<path d="M98.7369 395.485H183.368C185.954 395.485 188.07 398.107 188.07 401.312V407.138C188.07 410.343 185.954 412.965 183.368 412.965H98.7369C96.1509 412.965 94.0352 410.343 94.0352 407.138V401.312C94.0352 398.107 96.1509 395.485 98.7369 395.485Z" fill="#334155"/>
<path d="M315.018 366.352H366.737C371.909 366.352 376.141 371.596 376.141 378.005V395.485C376.141 401.894 371.909 407.138 366.737 407.138H315.018C309.846 407.138 305.614 401.894 305.614 395.485V378.005C305.614 371.596 309.846 366.352 315.018 366.352Z" fill="#334155"/>
<path d="M16.4561 466.862H385.544C394.595 466.862 402 476.039 402 487.255V563.002C402 574.218 394.595 583.395 385.544 583.395H16.4561C7.40526 583.395 0 574.218 0 563.002V487.255C0 476.039 7.40526 466.862 16.4561 466.862Z" fill="#1F2937" stroke="#394859" stroke-miterlimit="10"/>
<path d="M98.7369 533.868H195.123C197.709 533.868 199.825 536.49 199.825 539.695V545.522C199.825 548.726 197.709 551.348 195.123 551.348H98.7369C96.1509 551.348 94.0352 548.726 94.0352 545.522V539.695C94.0352 536.49 96.1509 533.868 98.7369 533.868Z" fill="#334155"/>
<path d="M315.018 504.735H366.737C371.909 504.735 376.141 509.979 376.141 516.388V533.868C376.141 540.278 371.909 545.522 366.737 545.522H315.018C309.846 545.522 305.614 540.278 305.614 533.868V516.388C305.614 509.979 309.846 504.735 315.018 504.735Z" fill="#334155"/>
<path d="M100.735 501.822H232.384C234.97 501.822 237.086 504.444 237.086 507.648V519.302C237.086 522.506 234.97 525.128 232.384 525.128H100.735C98.149 525.128 96.0332 522.506 96.0332 519.302V507.648C96.0332 504.444 98.149 501.822 100.735 501.822Z" fill="#334155"/>
<path d="M45.1304 139.527C61.2187 139.527 74.2609 126.425 74.2609 110.263C74.2609 94.1017 61.2187 81 45.1304 81C29.0421 81 16 94.1017 16 110.263C16 126.425 29.0421 139.527 45.1304 139.527Z" fill="#334155"/>
<path d="M45.1304 277.527C61.2187 277.527 74.2609 264.425 74.2609 248.263C74.2609 232.102 61.2187 219 45.1304 219C29.0421 219 16 232.102 16 248.263C16 264.425 29.0421 277.527 45.1304 277.527Z" fill="#334155"/>
<path d="M45.1304 416.527C61.2187 416.527 74.2609 403.425 74.2609 387.263C74.2609 371.102 61.2187 358 45.1304 358C29.0421 358 16 371.102 16 387.263C16 403.425 29.0421 416.527 45.1304 416.527Z" fill="#334155"/>
<path d="M45.1304 554.527C61.2187 554.527 74.2609 541.425 74.2609 525.263C74.2609 509.102 61.2187 496 45.1304 496C29.0421 496 16 509.102 16 525.263C16 541.425 29.0421 554.527 45.1304 554.527Z" fill="#334155"/>
</g>
<defs>
<clipPath id="clip0_3257_1200">
<rect width="402" height="874" fill="white"/>
</clipPath>
</defs>
</svg>
