<svg width="402" height="874" viewBox="0 0 402 874" fill="none" xmlns="http://www.w3.org/2000/svg">
<g clip-path="url(#clip0_3257_1135)">
<path d="M402 0H0V874H402V0Z" fill="#1F2937"/>
<path d="M147.303 67.0131C163.391 67.0131 176.433 53.9114 176.433 37.7497C176.433 21.588 163.391 8.48633 147.303 8.48633C131.215 8.48633 118.172 21.588 118.172 37.7497C118.172 53.9114 131.215 67.0131 147.303 67.0131Z" fill="#334155"/>
<path d="M200.709 20.1918H290.042C294.897 20.1918 298.781 24.0936 298.781 28.9708C298.781 33.848 294.897 37.7498 290.042 37.7498H200.709C195.854 37.7498 191.969 33.848 191.969 28.9708C191.969 24.0936 195.951 20.1918 200.709 20.1918Z" fill="#334155"/>
<path d="M197.796 43.6024H257.998C261.203 43.6024 263.825 46.2361 263.825 49.4551C263.825 52.6741 261.203 55.3078 257.998 55.3078H197.796C194.591 55.3078 191.969 52.6741 191.969 49.4551C191.969 46.2361 194.591 43.6024 197.796 43.6024Z" fill="#334155"/>
<path d="M47.5798 90.2288H354.42C367.82 90.2288 378.696 101.154 378.696 114.615C378.696 128.076 367.82 139.001 354.42 139.001H47.5798C34.1798 139.001 23.3044 128.076 23.3044 114.615C23.3044 101.154 34.1798 90.2288 47.5798 90.2288Z" fill="#334155"/>
<path d="M47.5798 93.6428H176.725C187.988 93.6428 197.116 102.812 197.116 114.127C197.116 125.442 187.988 134.612 176.725 134.612H47.5798C36.316 134.612 27.1885 125.442 27.1885 114.127C27.1885 102.812 36.316 93.6428 47.5798 93.6428Z" fill="#111827"/>
<path d="M49.5216 153.633H352.478C365.393 153.633 375.783 164.07 375.783 177.044V313.606C375.783 326.579 365.393 337.017 352.478 337.017H49.5216C36.6071 337.017 26.2173 326.579 26.2173 313.606V177.044C26.2173 164.07 36.6071 153.633 49.5216 153.633Z" fill="#334155"/>
<path d="M127.883 198.698H221.1C224.304 198.698 226.926 201.332 226.926 204.551C226.926 207.77 224.304 210.404 221.1 210.404H127.883C124.678 210.404 122.057 207.77 122.057 204.551C122.057 201.332 124.678 198.698 127.883 198.698Z" fill="#111827"/>
<path d="M108.462 232.839H240.52C245.861 232.839 250.23 237.229 250.23 242.594V256.25C250.23 261.615 245.861 266.004 240.52 266.004H108.462C103.122 266.004 98.7522 261.615 98.7522 256.25V242.594C98.7522 237.229 103.122 232.839 108.462 232.839Z" fill="#111827"/>
<path d="M123.998 275.759H224.984C228.188 275.759 230.81 278.392 230.81 281.611C230.81 284.83 228.188 287.464 224.984 287.464H123.998C120.794 287.464 118.172 284.83 118.172 281.611C118.172 278.392 120.794 275.759 123.998 275.759Z" fill="#111827"/>
<path d="M342.477 225.523C353.741 225.523 362.868 234.692 362.868 246.008C362.868 257.323 353.741 266.492 342.477 266.492C331.213 266.492 322.085 257.323 322.085 246.008C322.085 234.692 331.213 225.523 342.477 225.523Z" fill="#111827"/>
<path d="M179.638 319.459H222.362C235.277 319.459 245.667 329.896 245.667 342.869C245.667 355.843 235.277 366.28 222.362 366.28H179.638C166.723 366.28 156.333 355.843 156.333 342.869C156.333 329.896 166.723 319.459 179.638 319.459Z" fill="#111827"/>
<path d="M187.406 335.554H214.594C217.313 335.554 219.449 337.7 219.449 340.431C219.449 343.162 217.313 345.308 214.594 345.308H187.406C184.687 345.308 182.551 343.162 182.551 340.431C182.551 337.7 184.687 335.554 187.406 335.554Z" fill="#334155"/>
<path d="M0 415.54C0 396.129 15.6333 380.424 34.9565 380.424H367.043C386.367 380.424 402 396.129 402 415.54V874H0V415.54Z" fill="#111827"/>
<path d="M183.522 409.688H218.478C219.546 409.688 220.42 410.565 220.42 411.638C220.42 412.711 219.546 413.589 218.478 413.589H183.522C182.454 413.589 181.58 412.711 181.58 411.638C181.58 410.565 182.454 409.688 183.522 409.688Z" fill="#334155"/>
<path d="M34.9566 442.853H367.044C373.452 442.853 378.696 448.12 378.696 454.558V481.871C378.696 488.308 373.452 493.576 367.044 493.576H34.9566C28.5479 493.576 23.3044 488.308 23.3044 481.871V454.558C23.3044 448.12 28.5479 442.853 34.9566 442.853Z" fill="#1F2937"/>
<path d="M50.4927 450.656C60.1057 450.656 67.9709 458.557 67.9709 468.214C67.9709 477.871 60.1057 485.772 50.4927 485.772C40.8796 485.772 33.0144 477.871 33.0144 468.214C33.0144 458.557 40.8796 450.656 50.4927 450.656Z" fill="#334155"/>
<path d="M83.5072 459.435H176.725C179.929 459.435 182.551 462.069 182.551 465.288C182.551 468.507 179.929 471.141 176.725 471.141H83.5072C80.3029 471.141 77.6812 468.507 77.6812 465.288C77.6812 462.069 80.3029 459.435 83.5072 459.435Z" fill="#334155"/>
<path d="M82.5362 476.993H142.739C145.458 476.993 147.594 479.139 147.594 481.871C147.594 484.602 145.458 486.748 142.739 486.748H82.5362C79.8174 486.748 77.6812 484.602 77.6812 481.871C77.6812 479.139 79.8174 476.993 82.5362 476.993Z" fill="#334155"/>
<path d="M315.58 464.312H358.304C361.023 464.312 363.159 466.458 363.159 469.19C363.159 471.921 361.023 474.067 358.304 474.067H315.58C312.861 474.067 310.725 471.921 310.725 469.19C310.725 466.458 312.861 464.312 315.58 464.312Z" fill="#334155"/>
<path d="M34.9566 501.379H367.044C373.452 501.379 378.696 506.647 378.696 513.085V540.397C378.696 546.835 373.452 552.103 367.044 552.103H34.9566C28.5479 552.103 23.3044 546.835 23.3044 540.397V513.085C23.3044 506.647 28.5479 501.379 34.9566 501.379Z" fill="#1F2937"/>
<path d="M50.4927 509.183C60.1057 509.183 67.9709 517.084 67.9709 526.741C67.9709 536.398 60.1057 544.299 50.4927 544.299C40.8796 544.299 33.0144 536.398 33.0144 526.741C33.0144 517.084 40.8796 509.183 50.4927 509.183Z" fill="#334155"/>
<path d="M83.5072 517.962H192.261C195.465 517.962 198.087 520.596 198.087 523.815C198.087 527.034 195.465 529.667 192.261 529.667H83.5072C80.3029 529.667 77.6812 527.034 77.6812 523.815C77.6812 520.596 80.3029 517.962 83.5072 517.962Z" fill="#334155"/>
<path d="M82.5362 535.52H138.855C141.574 535.52 143.71 537.666 143.71 540.397C143.71 543.129 141.574 545.274 138.855 545.274H82.5362C79.8174 545.274 77.6812 543.129 77.6812 540.397C77.6812 537.666 79.8174 535.52 82.5362 535.52Z" fill="#334155"/>
<path d="M311.696 522.839H358.304C361.023 522.839 363.159 524.985 363.159 527.717C363.159 530.448 361.023 532.594 358.304 532.594H311.696C308.977 532.594 306.841 530.448 306.841 527.717C306.841 524.985 308.977 522.839 311.696 522.839Z" fill="#334155"/>
</g>
<defs>
<clipPath id="clip0_3257_1135">
<rect width="402" height="874" fill="white"/>
</clipPath>
</defs>
</svg>
