<svg width="402" height="874" viewBox="0 0 402 874" fill="none" xmlns="http://www.w3.org/2000/svg">
<g clip-path="url(#clip0_3257_1161)">
<path d="M402 1.95093H0V875.951H402V1.95093Z" fill="#1F2937"/>
<path d="M33.0145 175.58H368.986C376.462 175.58 382.58 181.726 382.58 189.237V265.321C382.58 272.832 376.462 278.978 368.986 278.978H33.0145C25.5377 278.978 19.4203 272.832 19.4203 265.321V189.237C19.4203 181.726 25.5377 175.58 33.0145 175.58Z" stroke="#394859" stroke-miterlimit="10"/>
<path d="M56.6102 190.7H118.755C121.474 190.7 123.61 192.846 123.61 195.577C123.61 198.308 121.474 200.454 118.755 200.454H56.6102C53.8914 200.454 51.7551 198.308 51.7551 195.577C51.7551 192.846 53.8914 190.7 56.6102 190.7Z" fill="#334155"/>
<path d="M57.2899 210.891H138.855C142.642 210.891 145.652 213.915 145.652 217.72C145.652 221.524 142.642 224.548 138.855 224.548H57.2899C53.5029 224.548 50.4928 221.524 50.4928 217.72C50.4928 214.013 53.5029 210.891 57.2899 210.891Z" fill="#334155"/>
<path d="M56.3188 235.083H139.826C142.545 235.083 144.681 237.229 144.681 239.96C144.681 242.691 142.545 244.837 139.826 244.837H56.3188C53.6 244.837 51.4637 242.691 51.4637 239.96C51.4637 237.229 53.6 235.083 56.3188 235.083Z" fill="#334155"/>
<path d="M58.2608 252.348H178.667C182.454 252.348 185.464 255.372 185.464 259.176C185.464 262.98 182.454 266.004 178.667 266.004H58.2608C54.4739 266.004 51.4637 262.98 51.4637 259.176C51.4637 255.372 54.4739 252.348 58.2608 252.348Z" fill="#334155"/>
<path d="M33.0145 321.897H368.986C376.462 321.897 382.58 328.043 382.58 335.554V487.723C382.58 495.234 376.462 501.379 368.986 501.379H33.0145C25.5377 501.379 19.4203 495.234 19.4203 487.723V335.554C19.4203 328.043 25.5377 321.897 33.0145 321.897Z" stroke="#394859" stroke-miterlimit="10"/>
<path d="M54.3768 351.161C59.7395 351.161 64.0869 346.794 64.0869 341.406C64.0869 336.019 59.7395 331.652 54.3768 331.652C49.014 331.652 44.6666 336.019 44.6666 341.406C44.6666 346.794 49.014 351.161 54.3768 351.161Z" fill="#334155"/>
<path d="M83.5072 335.554H190.319C193.523 335.554 196.145 338.187 196.145 341.406C196.145 344.625 193.523 347.259 190.319 347.259H83.5072C80.3029 347.259 77.6812 344.625 77.6812 341.406C77.6812 338.187 80.3029 335.554 83.5072 335.554Z" fill="#334155"/>
<path d="M374.812 357.989H50.4928V358.964H374.812V357.989Z" fill="#748593"/>
<path d="M54.3768 397.982C59.7395 397.982 64.0869 393.615 64.0869 388.228C64.0869 382.84 59.7395 378.473 54.3768 378.473C49.014 378.473 44.6666 382.84 44.6666 388.228C44.6666 393.615 49.014 397.982 54.3768 397.982Z" fill="#334155"/>
<path d="M83.5072 382.375H213.623C216.828 382.375 219.449 385.009 219.449 388.228C219.449 391.447 216.828 394.08 213.623 394.08H83.5072C80.3029 394.08 77.6812 391.447 77.6812 388.228C77.6812 385.009 80.3029 382.375 83.5072 382.375Z" fill="#334155"/>
<path d="M374.812 404.81H50.4928V405.786H374.812V404.81Z" fill="#748593"/>
<path d="M54.3768 444.804C59.7395 444.804 64.0869 440.436 64.0869 435.049C64.0869 429.662 59.7395 425.295 54.3768 425.295C49.014 425.295 44.6666 429.662 44.6666 435.049C44.6666 440.436 49.014 444.804 54.3768 444.804Z" fill="#334155"/>
<path d="M83.5072 429.196H215.565C218.77 429.196 221.391 431.83 221.391 435.049C221.391 438.268 218.77 440.902 215.565 440.902H83.5072C80.3029 440.902 77.6812 438.268 77.6812 435.049C77.6812 431.83 80.3029 429.196 83.5072 429.196Z" fill="#334155"/>
<path d="M374.812 451.632H50.4928V452.607H374.812V451.632Z" fill="#748593"/>
<path d="M54.3768 491.625C59.7395 491.625 64.0869 487.258 64.0869 481.871C64.0869 476.483 59.7395 472.116 54.3768 472.116C49.014 472.116 44.6666 476.483 44.6666 481.871C44.6666 487.258 49.014 491.625 54.3768 491.625Z" fill="#334155"/>
<path d="M83.5072 476.018H209.739C212.943 476.018 215.565 478.652 215.565 481.871C215.565 485.089 212.943 487.723 209.739 487.723H83.5072C80.3029 487.723 77.6812 485.089 77.6812 481.871C77.6812 478.652 80.3029 476.018 83.5072 476.018Z" fill="#334155"/>
<path d="M38.8406 544.299H363.159C373.841 544.299 382.58 553.078 382.58 563.808V667.205C382.58 677.935 373.841 686.714 363.159 686.714H38.8406C28.1594 686.714 19.4203 677.935 19.4203 667.205V563.808C19.4203 553.078 28.1594 544.299 38.8406 544.299Z" stroke="#394859" stroke-miterlimit="10"/>
<path d="M54.3768 581.366C59.7395 581.366 64.0869 576.999 64.0869 571.612C64.0869 566.224 59.7395 561.857 54.3768 561.857C49.014 561.857 44.6666 566.224 44.6666 571.612C44.6666 576.999 49.014 581.366 54.3768 581.366Z" fill="#334155"/>
<path d="M83.5072 565.759H196.145C199.349 565.759 201.971 568.393 201.971 571.612C201.971 574.831 199.349 577.464 196.145 577.464H83.5072C80.3029 577.464 77.6812 574.831 77.6812 571.612C77.6812 568.393 80.3029 565.759 83.5072 565.759Z" fill="#334155"/>
<path d="M361.217 589.17H36.8986V590.145H361.217V589.17Z" fill="#748593"/>
<path d="M54.3768 628.188C59.7395 628.188 64.0869 623.82 64.0869 618.433C64.0869 613.046 59.7395 608.679 54.3768 608.679C49.014 608.679 44.6666 613.046 44.6666 618.433C44.6666 623.82 49.014 628.188 54.3768 628.188Z" fill="#334155"/>
<path d="M83.5072 612.58H201.971C205.175 612.58 207.797 615.214 207.797 618.433C207.797 621.652 205.175 624.286 201.971 624.286H83.5072C80.3029 624.286 77.6812 621.652 77.6812 618.433C77.6812 615.214 80.3029 612.58 83.5072 612.58Z" fill="#334155"/>
<path d="M361.217 635.991H36.8986V636.967H361.217V635.991Z" fill="#748593"/>
<path d="M54.3768 676.96C59.7395 676.96 64.0869 672.593 64.0869 667.205C64.0869 661.818 59.7395 657.451 54.3768 657.451C49.014 657.451 44.6666 661.818 44.6666 667.205C44.6666 672.593 49.014 676.96 54.3768 676.96Z" fill="#F0D6D6"/>
<path d="M83.5072 661.353H155.362C158.567 661.353 161.188 663.986 161.188 667.205C161.188 670.424 158.567 673.058 155.362 673.058H83.5072C80.3029 673.058 77.6812 670.424 77.6812 667.205C77.6812 663.986 80.3029 661.353 83.5072 661.353Z" fill="#F0D6D6"/>
<path d="M182.551 22.4353H271.884C276.739 22.4353 280.623 26.3371 280.623 31.2143C280.623 36.0916 276.739 39.9933 271.884 39.9933H182.551C177.696 39.9933 173.812 36.0916 173.812 31.2143C173.812 26.3371 177.793 22.4353 182.551 22.4353Z" fill="#334155"/>
<path d="M179.638 45.8459H239.841C243.045 45.8459 245.667 48.4797 245.667 51.6986C245.667 54.9176 243.045 57.5513 239.841 57.5513H179.638C176.433 57.5513 173.812 54.9176 173.812 51.6986C173.812 48.4797 176.433 45.8459 179.638 45.8459Z" fill="#334155"/>
<path d="M47.5797 92.1797H354.42C367.82 92.1797 378.696 103.105 378.696 116.566C378.696 130.027 367.82 140.952 354.42 140.952H47.5797C34.1797 140.952 23.3043 130.027 23.3043 116.566C23.3043 103.105 34.1797 92.1797 47.5797 92.1797Z" fill="#334155"/>
<path d="M226.246 96.0814H355.391C366.655 96.0814 375.783 105.251 375.783 116.566C375.783 127.881 366.655 137.05 355.391 137.05H226.246C214.983 137.05 205.855 127.881 205.855 116.566C205.855 105.251 214.983 96.0814 226.246 96.0814Z" fill="#111827"/>
<path d="M130.13 75.5268C146.219 75.5268 159.261 62.4251 159.261 46.2634C159.261 30.1017 146.219 17 130.13 17C114.042 17 101 30.1017 101 46.2634C101 62.4251 114.042 75.5268 130.13 75.5268Z" fill="#334155"/>
</g>
<defs>
<clipPath id="clip0_3257_1161">
<rect width="402" height="874" fill="white"/>
</clipPath>
</defs>
</svg>
