<svg width="414" height="896" viewBox="0 0 414 896" fill="none" xmlns="http://www.w3.org/2000/svg">
  <defs>
    <filter id="lowShadow" x="-10%" y="-10%" width="120%" height="120%">
      <feDropShadow dx="0" dy="4" stdDeviation="8" flood-color="#000000" flood-opacity="0.08"/>
    </filter>
    <filter id="softShadow" x="-20%" y="-20%" width="140%" height="140%">
      <feDropShadow dx="0" dy="10" stdDeviation="15" flood-color="#000000" flood-opacity="0.10"/>
    </filter>
    <linearGradient id="balanceGrad" x1="27" y1="147" x2="387" y2="335" gradientUnits="userSpaceOnUse">
      <stop offset="0" stop-color="#5F8FF5"/>
      <stop offset="0.55" stop-color="#5565EA"/>
      <stop offset="1" stop-color="#5A24D9"/>
    </linearGradient>
  </defs>

  <rect width="414" height="896" fill="#F3F4F6"/>

  <circle cx="54" cy="46" r="30" fill="#F3F4F6" stroke="#512BD4" stroke-width="3"/>
  <path d="M54 31C57.866 31 61 34.134 61 38C61 41.866 57.866 45 54 45C50.134 45 47 41.866 47 38C47 34.134 50.134 31 54 31ZM54 48C61.732 48 68 52.477 68 57.999V60H40V57.999C40 52.477 46.268 48 54 48Z" fill="#9CA3AF"/>
  <text x="100" y="39" font-family="Segoe UI, Roboto, sans-serif" font-size="20" font-weight="700" fill="#000000">Luka S.</text>
  <text x="100" y="58" font-family="Segoe UI, Roboto, sans-serif" font-size="11" font-weight="700" fill="#10B981">● VERIFIED</text>

  <rect x="24" y="82" width="366" height="50" rx="25" fill="#E2E8F0"/>
  <rect x="28" y="86" width="175" height="42" rx="21" fill="#FFFFFF" filter="url(#lowShadow)"/>
  <text x="115.5" y="113" text-anchor="middle" font-family="Segoe UI, Roboto, sans-serif" font-size="16" font-weight="700" fill="#512BD4">Wallet</text>
  <text x="299" y="113" text-anchor="middle" font-family="Segoe UI, Roboto, sans-serif" font-size="16" font-weight="700" fill="#64748B">Account</text>

  <rect x="27" y="147" width="360" height="188" rx="24" fill="url(#balanceGrad)" filter="url(#softShadow)"/>
  <text x="179" y="199" text-anchor="middle" font-family="Segoe UI, Roboto, sans-serif" font-size="11" font-weight="700" fill="#FFFFFF" fill-opacity="0.72">CURRENT BALANCE</text>
  <text x="179" y="248" text-anchor="middle" font-family="Segoe UI, Roboto, sans-serif" font-size="34" font-weight="700" fill="#FFFFFF">€0,00</text>
  <text x="179" y="279" text-anchor="middle" font-family="Segoe UI, Roboto, sans-serif" font-size="12" fill="#FFFFFF" fill-opacity="0.68">Tap the eye to hide your balance</text>
  <rect x="331" y="220" width="42" height="42" rx="21" fill="#FFFFFF" fill-opacity="0.2"/>
  <path d="M352 232C345.6 232 340.8 239 340.8 239C340.8 239 345.6 246 352 246C358.4 246 363.2 239 363.2 239C363.2 239 358.4 232 352 232ZM352 243.4C349 243.4 346.3 241 344.8 239C346.3 237 349 234.6 352 234.6C355 234.6 357.7 237 359.2 239C357.7 241 355 243.4 352 243.4ZM352 236.5C350.6 236.5 349.5 237.6 349.5 239C349.5 240.4 350.6 241.5 352 241.5C353.4 241.5 354.5 240.4 354.5 239C354.5 237.6 353.4 236.5 352 236.5Z" fill="#FFFFFF"/>

  <rect x="161" y="317" width="92" height="48" rx="24" fill="#FFFFFF" filter="url(#lowShadow)"/>
  <text x="207" y="347" text-anchor="middle" font-family="Segoe UI, Roboto, sans-serif" font-size="16" font-weight="700" fill="#111827">Add</text>

  <text x="207" y="392" text-anchor="middle" font-family="Segoe UI, Roboto, sans-serif" font-size="16" font-weight="700" fill="#000000">Recent Activity</text>
  <path d="M0 426C0 406.118 16.118 390 36 390H378C397.882 390 414 406.118 414 426V896H0V426Z" fill="#FFFFFF" filter="url(#softShadow)"/>
  <rect x="187" y="420" width="40" height="4" rx="2" fill="#E5E7EB"/>
</svg>
