<svg width="414" height="896" viewBox="0 0 414 896" fill="none" xmlns="http://www.w3.org/2000/svg">
<g clip-path="url(#clip0_3012_246)">
<path d="M414 0H0V896H414V0Z" fill="#F8F9FA"/>
<g filter="url(#filter0_d_3012_246)">
<path d="M414 0H0V420H414V0Z" fill="url(#paint0_linear_3012_246)"/>
</g>
<path d="M146 108C152.627 108 158 102.627 158 96C158 89.3726 152.627 84 146 84C139.373 84 134 89.3726 134 96C134 102.627 139.373 108 146 108Z" fill="#009688"/>
<path d="M177.228 104.308C175.791 104.308 174.437 104.047 173.168 103.524C171.917 103.001 170.825 102.283 169.892 101.368C168.959 100.435 168.221 99.352 167.68 98.12C167.157 96.8693 166.896 95.5253 166.896 94.088C166.896 92.6507 167.167 91.316 167.708 90.084C168.249 88.852 168.996 87.7787 169.948 86.864C170.919 85.9307 172.048 85.212 173.336 84.708C174.624 84.1853 176.005 83.924 177.48 83.924C179.179 83.924 180.719 84.232 182.1 84.848C183.5 85.464 184.657 86.3133 185.572 87.396L182.576 90.392C181.941 89.5707 181.195 88.9547 180.336 88.544C179.477 88.1333 178.507 87.928 177.424 87.928C176.267 87.928 175.231 88.1893 174.316 88.712C173.401 89.216 172.683 89.9347 172.16 90.868C171.656 91.7827 171.404 92.856 171.404 94.088C171.404 95.32 171.656 96.4027 172.16 97.336C172.664 98.2693 173.355 98.9973 174.232 99.52C175.109 100.043 176.117 100.304 177.256 100.304C178.413 100.304 179.393 100.089 180.196 99.66C181.017 99.212 181.643 98.5773 182.072 97.756C182.52 96.916 182.744 95.8987 182.744 94.704L185.656 96.664L176.836 96.524V92.8H187.224V93.444C187.224 95.8147 186.795 97.812 185.936 99.436C185.096 101.041 183.92 102.255 182.408 103.076C180.915 103.897 179.188 104.308 177.228 104.308ZM196.216 104.308C194.742 104.308 193.426 104.009 192.268 103.412C191.13 102.796 190.234 101.947 189.58 100.864C188.927 99.7813 188.6 98.5587 188.6 97.196C188.6 95.8333 188.918 94.62 189.552 93.556C190.206 92.4733 191.083 91.624 192.184 91.008C193.286 90.392 194.527 90.084 195.908 90.084C197.252 90.084 198.438 90.3733 199.464 90.952C200.491 91.5307 201.294 92.3333 201.872 93.36C202.47 94.3867 202.768 95.5627 202.768 96.888C202.768 97.1307 202.75 97.392 202.712 97.672C202.694 97.9333 202.647 98.2413 202.572 98.596L190.84 98.624V95.684L200.752 95.656L198.904 96.888C198.886 96.104 198.764 95.46 198.54 94.956C198.316 94.4333 197.98 94.0413 197.532 93.78C197.103 93.5 196.571 93.36 195.936 93.36C195.264 93.36 194.676 93.5187 194.172 93.836C193.687 94.1347 193.304 94.564 193.024 95.124C192.763 95.684 192.632 96.3653 192.632 97.168C192.632 97.9707 192.772 98.6613 193.052 99.24C193.351 99.8 193.762 100.239 194.284 100.556C194.826 100.855 195.46 101.004 196.188 101.004C196.86 101.004 197.467 100.892 198.008 100.668C198.55 100.425 199.026 100.071 199.436 99.604L201.788 101.956C201.116 102.74 200.304 103.328 199.352 103.72C198.4 104.112 197.355 104.308 196.216 104.308ZM206.467 104V84.764H210.751V104H206.467ZM203.387 94.032V90.392H213.831V94.032H203.387ZM220.955 104V84.512H225.351V104H220.955ZM214.767 88.068V84.232H231.539V88.068H214.767ZM242.59 104V96.244C242.59 95.5347 242.366 94.9653 241.918 94.536C241.489 94.088 240.938 93.864 240.266 93.864C239.799 93.864 239.389 93.9667 239.034 94.172C238.679 94.3587 238.399 94.6387 238.194 95.012C237.989 95.3667 237.886 95.7773 237.886 96.244L236.234 95.432C236.234 94.368 236.458 93.4347 236.906 92.632C237.354 91.8293 237.979 91.2133 238.782 90.784C239.585 90.336 240.509 90.112 241.554 90.112C242.618 90.112 243.551 90.336 244.354 90.784C245.157 91.2133 245.773 91.82 246.202 92.604C246.65 93.3693 246.874 94.2653 246.874 95.292V104H242.59ZM233.602 104V83.672H237.886V104H233.602ZM256.345 104.308C254.871 104.308 253.555 104.009 252.397 103.412C251.259 102.796 250.363 101.947 249.709 100.864C249.056 99.7813 248.729 98.5587 248.729 97.196C248.729 95.8333 249.047 94.62 249.681 93.556C250.335 92.4733 251.212 91.624 252.313 91.008C253.415 90.392 254.656 90.084 256.037 90.084C257.381 90.084 258.567 90.3733 259.593 90.952C260.62 91.5307 261.423 92.3333 262.001 93.36C262.599 94.3867 262.897 95.5627 262.897 96.888C262.897 97.1307 262.879 97.392 262.841 97.672C262.823 97.9333 262.776 98.2413 262.701 98.596L250.969 98.624V95.684L260.881 95.656L259.033 96.888C259.015 96.104 258.893 95.46 258.669 94.956C258.445 94.4333 258.109 94.0413 257.661 93.78C257.232 93.5 256.7 93.36 256.065 93.36C255.393 93.36 254.805 93.5187 254.301 93.836C253.816 94.1347 253.433 94.564 253.153 95.124C252.892 95.684 252.761 96.3653 252.761 97.168C252.761 97.9707 252.901 98.6613 253.181 99.24C253.48 99.8 253.891 100.239 254.413 100.556C254.955 100.855 255.589 101.004 256.317 101.004C256.989 101.004 257.596 100.892 258.137 100.668C258.679 100.425 259.155 100.071 259.565 99.604L261.917 101.956C261.245 102.74 260.433 103.328 259.481 103.72C258.529 104.112 257.484 104.308 256.345 104.308ZM264.965 104V90.392H269.249V104H264.965ZM269.249 96.524L267.457 95.124C267.812 93.5373 268.409 92.3053 269.249 91.428C270.089 90.5507 271.256 90.112 272.749 90.112C273.402 90.112 273.972 90.2147 274.457 90.42C274.961 90.6067 275.4 90.9053 275.773 91.316L273.225 94.536C273.038 94.3307 272.805 94.172 272.525 94.06C272.245 93.948 271.928 93.892 271.573 93.892C270.864 93.892 270.294 94.116 269.865 94.564C269.454 94.9933 269.249 95.6467 269.249 96.524ZM283.252 104.308C281.777 104.308 280.461 104.009 279.304 103.412C278.165 102.796 277.269 101.947 276.616 100.864C275.962 99.7813 275.636 98.5587 275.636 97.196C275.636 95.8333 275.953 94.62 276.588 93.556C277.241 92.4733 278.118 91.624 279.22 91.008C280.321 90.392 281.562 90.084 282.944 90.084C284.288 90.084 285.473 90.3733 286.5 90.952C287.526 91.5307 288.329 92.3333 288.908 93.36C289.505 94.3867 289.804 95.5627 289.804 96.888C289.804 97.1307 289.785 97.392 289.748 97.672C289.729 97.9333 289.682 98.2413 289.608 98.596L277.876 98.624V95.684L287.788 95.656L285.94 96.888C285.921 96.104 285.8 95.46 285.576 94.956C285.352 94.4333 285.016 94.0413 284.568 93.78C284.138 93.5 283.606 93.36 282.972 93.36C282.3 93.36 281.712 93.5187 281.208 93.836C280.722 94.1347 280.34 94.564 280.06 95.124C279.798 95.684 279.668 96.3653 279.668 97.168C279.668 97.9707 279.808 98.6613 280.088 99.24C280.386 99.8 280.797 100.239 281.32 100.556C281.861 100.855 282.496 101.004 283.224 101.004C283.896 101.004 284.502 100.892 285.044 100.668C285.585 100.425 286.061 100.071 286.472 99.604L288.824 101.956C288.152 102.74 287.34 103.328 286.388 103.72C285.436 104.112 284.39 104.308 283.252 104.308Z" fill="white"/>
<g filter="url(#filter1_d_3012_246)">
<path d="M207 300C251.183 300 287 264.183 287 220C287 175.817 251.183 140 207 140C162.817 140 127 175.817 127 220C127 264.183 162.817 300 207 300Z" fill="#2C167A"/>
</g>
<g filter="url(#filter2_d_3012_246)">
<path d="M360 350H54C37.4315 350 24 363.431 24 380V740C24 756.569 37.4315 770 54 770H360C376.569 770 390 756.569 390 740V380C390 363.431 376.569 350 360 350Z" fill="white"/>
</g>
<path d="M225 366H189C187.895 366 187 366.895 187 368C187 369.105 187.895 370 189 370H225C226.105 370 227 369.105 227 368C227 366.895 226.105 366 225 366Z" fill="#E0E0E0"/>
<path d="M48.8849 410V399.818H55.7457V401.593H51.0376V404.019H55.3928V405.794H51.0376V408.225H55.7656V410H48.8849ZM57.4174 410V402.364H59.4359V403.711H59.5254C59.6845 403.263 59.9496 402.911 60.3208 402.652C60.6921 402.393 61.1362 402.264 61.6532 402.264C62.1769 402.264 62.6227 402.395 62.9906 402.657C63.3585 402.915 63.6038 403.267 63.7264 403.711H63.8059C63.9617 403.273 64.2434 402.924 64.6511 402.662C65.0621 402.397 65.5476 402.264 66.1078 402.264C66.8204 402.264 67.3987 402.491 67.8429 402.945C68.2903 403.396 68.514 404.036 68.514 404.864V410H66.4011V405.282C66.4011 404.858 66.2884 404.54 66.063 404.327C65.8377 404.115 65.5559 404.009 65.2179 404.009C64.8334 404.009 64.5334 404.132 64.318 404.377C64.1026 404.619 63.9949 404.939 63.9949 405.337V410H61.9416V405.237C61.9416 404.863 61.8339 404.564 61.6184 404.342C61.4063 404.12 61.1262 404.009 60.7782 404.009C60.5429 404.009 60.3308 404.069 60.1419 404.188C59.9563 404.304 59.8088 404.468 59.6994 404.68C59.59 404.889 59.5353 405.134 59.5353 405.416V410H57.4174ZM72.3645 410.144C71.8773 410.144 71.4431 410.06 71.062 409.891C70.6808 409.718 70.3792 409.465 70.1571 409.13C69.9384 408.792 69.829 408.371 69.829 407.867C69.829 407.443 69.9069 407.087 70.0627 406.798C70.2185 406.51 70.4306 406.278 70.699 406.102C70.9675 405.927 71.2724 405.794 71.6138 405.705C71.9585 405.615 72.3198 405.552 72.6976 405.516C73.1417 405.469 73.4997 405.426 73.7715 405.386C74.0433 405.343 74.2405 405.28 74.3631 405.197C74.4857 405.115 74.5471 404.992 74.5471 404.83V404.8C74.5471 404.485 74.4476 404.241 74.2488 404.069C74.0532 403.897 73.7748 403.81 73.4135 403.81C73.0324 403.81 72.7291 403.895 72.5037 404.064C72.2783 404.23 72.1292 404.438 72.0563 404.69L70.0975 404.531C70.1969 404.067 70.3925 403.666 70.6841 403.328C70.9758 402.987 71.352 402.725 71.8127 402.543C72.2767 402.357 72.8136 402.264 73.4235 402.264C73.8477 402.264 74.2537 402.314 74.6415 402.413C75.0326 402.513 75.379 402.667 75.6806 402.876C75.9855 403.085 76.2258 403.353 76.4015 403.681C76.5771 404.006 76.665 404.395 76.665 404.849V410H74.6564V408.941H74.5968C74.4741 409.18 74.3101 409.39 74.1046 409.572C73.8991 409.751 73.6522 409.892 73.3638 409.995C73.0755 410.094 72.7424 410.144 72.3645 410.144ZM72.9711 408.683C73.2826 408.683 73.5577 408.621 73.7963 408.499C74.035 408.373 74.2222 408.204 74.3581 407.991C74.494 407.779 74.562 407.539 74.562 407.271V406.46C74.4957 406.503 74.4045 406.543 74.2885 406.58C74.1758 406.613 74.0482 406.644 73.9057 406.674C73.7632 406.701 73.6207 406.725 73.4782 406.749C73.3356 406.768 73.2064 406.787 73.0904 406.803C72.8418 406.84 72.6247 406.898 72.4391 406.977C72.2535 407.057 72.1093 407.165 72.0066 407.3C71.9038 407.433 71.8525 407.599 71.8525 407.798C71.8525 408.086 71.9569 408.306 72.1657 408.459C72.3778 408.608 72.6462 408.683 72.9711 408.683ZM78.3081 410V402.364H80.426V410H78.3081ZM79.372 401.379C79.0571 401.379 78.787 401.275 78.5616 401.066C78.3395 400.854 78.2285 400.6 78.2285 400.305C78.2285 400.014 78.3395 399.763 78.5616 399.555C78.787 399.343 79.0571 399.237 79.372 399.237C79.6868 399.237 79.9553 399.343 80.1774 399.555C80.4028 399.763 80.5154 400.014 80.5154 400.305C80.5154 400.6 80.4028 400.854 80.1774 401.066C79.9553 401.275 79.6868 401.379 79.372 401.379ZM84.2404 399.818V410H82.1225V399.818H84.2404Z" fill="black"/>
<path d="M354 422H60C53.3726 422 48 427.373 48 434V458C48 464.627 53.3726 470 60 470H354C360.627 470 366 464.627 366 458V434C366 427.373 360.627 422 354 422Z" fill="white" stroke="#EBEBEC"/>
<path d="M65.233 452V441.818H71.3778V442.912H66.4659V446.352H71.0597V447.446H66.4659V450.906H71.4574V452H65.233ZM73.4411 452V444.364H74.5746V445.557H74.674C74.8331 445.149 75.09 444.833 75.4446 444.607C75.7992 444.379 76.2251 444.264 76.7223 444.264C77.2261 444.264 77.6454 444.379 77.9801 444.607C78.3182 444.833 78.5817 445.149 78.7706 445.557H78.8501C79.0457 445.162 79.339 444.849 79.7301 444.617C80.1212 444.382 80.5902 444.264 81.1371 444.264C81.8198 444.264 82.3783 444.478 82.8125 444.906C83.2467 445.33 83.4638 445.991 83.4638 446.889V452H82.2905V446.889C82.2905 446.326 82.1364 445.923 81.8281 445.681C81.5199 445.439 81.157 445.318 80.7393 445.318C80.2024 445.318 79.7865 445.481 79.4915 445.805C79.1965 446.127 79.049 446.535 79.049 447.028V452H77.8558V446.77C77.8558 446.336 77.715 445.986 77.4332 445.721C77.1515 445.452 76.7886 445.318 76.3445 445.318C76.0395 445.318 75.7545 445.399 75.4893 445.562C75.2275 445.724 75.0154 445.95 74.853 446.238C74.6939 446.523 74.6143 446.853 74.6143 447.227V452H73.4411ZM87.8562 452.179C87.3723 452.179 86.9331 452.088 86.5387 451.906C86.1443 451.72 85.8311 451.453 85.5991 451.105C85.3671 450.754 85.2511 450.33 85.2511 449.832C85.2511 449.395 85.3372 449.04 85.5096 448.768C85.6819 448.493 85.9123 448.278 86.2006 448.122C86.489 447.966 86.8072 447.85 87.1552 447.774C87.5065 447.695 87.8595 447.632 88.2141 447.585C88.6781 447.526 89.0543 447.481 89.3427 447.451C89.6344 447.418 89.8465 447.363 89.979 447.287C90.1149 447.211 90.1829 447.078 90.1829 446.889V446.849C90.1829 446.359 90.0487 445.978 89.7802 445.706C89.515 445.434 89.1123 445.298 88.5721 445.298C88.012 445.298 87.5728 445.421 87.2546 445.666C86.9364 445.911 86.7127 446.173 86.5835 446.452L85.4698 446.054C85.6687 445.59 85.9338 445.229 86.2653 444.97C86.6 444.708 86.9646 444.526 87.359 444.423C87.7567 444.317 88.1478 444.264 88.5323 444.264C88.7776 444.264 89.0593 444.294 89.3775 444.354C89.699 444.41 90.0089 444.528 90.3072 444.707C90.6088 444.886 90.859 445.156 91.0579 445.517C91.2567 445.878 91.3562 446.362 91.3562 446.969V452H90.1829V450.966H90.1232C90.0437 451.132 89.9111 451.309 89.7255 451.498C89.5399 451.687 89.293 451.848 88.9847 451.98C88.6765 452.113 88.3003 452.179 87.8562 452.179ZM88.0352 451.125C88.4992 451.125 88.8903 451.034 89.2085 450.852C89.5299 450.669 89.7719 450.434 89.9343 450.146C90.1 449.857 90.1829 449.554 90.1829 449.236V448.162C90.1332 448.222 90.0238 448.276 89.8548 448.326C89.689 448.372 89.4968 448.414 89.2781 448.45C89.0626 448.483 88.8522 448.513 88.6467 448.54C88.4445 448.563 88.2804 448.583 88.1545 448.599C87.8496 448.639 87.5645 448.704 87.2994 448.793C87.0375 448.879 86.8254 449.01 86.663 449.186C86.5039 449.358 86.4244 449.594 86.4244 449.892C86.4244 450.3 86.5752 450.608 86.8768 450.817C87.1817 451.022 87.5678 451.125 88.0352 451.125ZM93.4977 452V444.364H94.671V452H93.4977ZM94.0943 443.091C93.8656 443.091 93.6684 443.013 93.5027 442.857C93.3403 442.701 93.2591 442.514 93.2591 442.295C93.2591 442.077 93.3403 441.889 93.5027 441.734C93.6684 441.578 93.8656 441.5 94.0943 441.5C94.323 441.5 94.5185 441.578 94.6809 441.734C94.8467 441.889 94.9295 442.077 94.9295 442.295C94.9295 442.514 94.8467 442.701 94.6809 442.857C94.5185 443.013 94.323 443.091 94.0943 443.091ZM97.9933 441.818V452H96.82V441.818H97.9933Z" fill="#A0A0A0"/>
<path d="M48.8849 494V483.818H52.902C53.6742 483.818 54.3321 483.966 54.8757 484.261C55.4193 484.552 55.8336 484.958 56.1186 485.479C56.407 485.996 56.5511 486.592 56.5511 487.268C56.5511 487.945 56.4053 488.541 56.1136 489.058C55.822 489.575 55.3994 489.978 54.8459 490.266C54.2957 490.555 53.6295 490.699 52.8473 490.699H50.2869V488.974H52.4993C52.9136 488.974 53.255 488.902 53.5234 488.76C53.7952 488.614 53.9974 488.414 54.13 488.158C54.2659 487.9 54.3338 487.603 54.3338 487.268C54.3338 486.93 54.2659 486.635 54.13 486.384C53.9974 486.128 53.7952 485.931 53.5234 485.792C53.2517 485.649 52.907 485.578 52.4893 485.578H51.0376V494H48.8849ZM59.8821 494.144C59.3949 494.144 58.9607 494.06 58.5795 493.891C58.1984 493.718 57.8968 493.465 57.6747 493.13C57.456 492.792 57.3466 492.371 57.3466 491.867C57.3466 491.443 57.4245 491.087 57.5803 490.798C57.736 490.51 57.9482 490.278 58.2166 490.102C58.4851 489.927 58.79 489.794 59.1314 489.705C59.4761 489.615 59.8374 489.552 60.2152 489.516C60.6593 489.469 61.0173 489.426 61.2891 489.386C61.5608 489.343 61.758 489.28 61.8807 489.197C62.0033 489.115 62.0646 488.992 62.0646 488.83V488.8C62.0646 488.485 61.9652 488.241 61.7663 488.069C61.5708 487.897 61.2924 487.81 60.9311 487.81C60.55 487.81 60.2467 487.895 60.0213 488.064C59.7959 488.23 59.6468 488.438 59.5739 488.69L57.6151 488.531C57.7145 488.067 57.91 487.666 58.2017 487.328C58.4934 486.987 58.8696 486.725 59.3303 486.543C59.7943 486.357 60.3312 486.264 60.9411 486.264C61.3653 486.264 61.7713 486.314 62.1591 486.413C62.5502 486.513 62.8965 486.667 63.1982 486.876C63.5031 487.085 63.7434 487.353 63.919 487.681C64.0947 488.006 64.1825 488.395 64.1825 488.849V494H62.174V492.941H62.1143C61.9917 493.18 61.8277 493.39 61.6222 493.572C61.4167 493.751 61.1697 493.892 60.8814 493.995C60.593 494.094 60.2599 494.144 59.8821 494.144ZM60.4886 492.683C60.8002 492.683 61.0753 492.621 61.3139 492.499C61.5526 492.373 61.7398 492.204 61.8757 491.991C62.0116 491.779 62.0795 491.539 62.0795 491.271V490.46C62.0133 490.503 61.9221 490.543 61.8061 490.58C61.6934 490.613 61.5658 490.644 61.4233 490.674C61.2808 490.701 61.1383 490.725 60.9957 490.749C60.8532 490.768 60.724 490.787 60.608 490.803C60.3594 490.84 60.1423 490.898 59.9567 490.977C59.7711 491.057 59.6269 491.165 59.5241 491.3C59.4214 491.433 59.37 491.599 59.37 491.798C59.37 492.086 59.4744 492.306 59.6832 492.459C59.8954 492.608 60.1638 492.683 60.4886 492.683ZM72.1793 488.541L70.2404 488.661C70.2073 488.495 70.136 488.346 70.0266 488.213C69.9173 488.077 69.7731 487.969 69.5941 487.89C69.4184 487.807 69.208 487.766 68.9627 487.766C68.6346 487.766 68.3578 487.835 68.1325 487.974C67.9071 488.11 67.7944 488.293 67.7944 488.521C67.7944 488.704 67.8673 488.858 68.0131 488.984C68.159 489.11 68.4092 489.211 68.7638 489.287L70.146 489.565C70.8884 489.718 71.4419 489.963 71.8065 490.301C72.171 490.639 72.3533 491.083 72.3533 491.634C72.3533 492.134 72.2058 492.573 71.9109 492.951C71.6192 493.329 71.2182 493.624 70.7077 493.836C70.2006 494.045 69.6156 494.149 68.9528 494.149C67.9419 494.149 67.1365 493.939 66.5366 493.518C65.94 493.094 65.5903 492.517 65.4876 491.788L67.5707 491.678C67.6336 491.987 67.7861 492.222 68.0281 492.384C68.27 492.543 68.5799 492.623 68.9577 492.623C69.329 492.623 69.6272 492.552 69.8526 492.409C70.0813 492.263 70.1973 492.076 70.2006 491.847C70.1973 491.655 70.1161 491.498 69.957 491.375C69.7979 491.249 69.5527 491.153 69.2212 491.087L67.8988 490.823C67.1531 490.674 66.5979 490.415 66.2333 490.048C65.872 489.68 65.6914 489.211 65.6914 488.641C65.6914 488.15 65.824 487.728 66.0891 487.373C66.3576 487.018 66.7338 486.745 67.2177 486.553C67.7049 486.36 68.275 486.264 68.9279 486.264C69.8924 486.264 70.6514 486.468 71.2049 486.876C71.7617 487.283 72.0865 487.839 72.1793 488.541ZM80.0407 488.541L78.1017 488.661C78.0686 488.495 77.9973 488.346 77.888 488.213C77.7786 488.077 77.6344 487.969 77.4554 487.89C77.2798 487.807 77.0693 487.766 76.824 487.766C76.4959 487.766 76.2192 487.835 75.9938 487.974C75.7684 488.11 75.6557 488.293 75.6557 488.521C75.6557 488.704 75.7286 488.858 75.8745 488.984C76.0203 489.11 76.2705 489.211 76.6252 489.287L78.0073 489.565C78.7497 489.718 79.3032 489.963 79.6678 490.301C80.0324 490.639 80.2147 491.083 80.2147 491.634C80.2147 492.134 80.0672 492.573 79.7722 492.951C79.4805 493.329 79.0795 493.624 78.5691 493.836C78.062 494.045 77.477 494.149 76.8141 494.149C75.8032 494.149 74.9978 493.939 74.3979 493.518C73.8013 493.094 73.4516 492.517 73.3489 491.788L75.432 491.678C75.495 491.987 75.6474 492.222 75.8894 492.384C76.1313 492.543 76.4412 492.623 76.8191 492.623C77.1903 492.623 77.4886 492.552 77.714 492.409C77.9426 492.263 78.0587 492.076 78.062 491.847C78.0587 491.655 77.9775 491.498 77.8184 491.375C77.6593 491.249 77.414 491.153 77.0826 491.087L75.7601 490.823C75.0144 490.674 74.4592 490.415 74.0946 490.048C73.7334 489.68 73.5527 489.211 73.5527 488.641C73.5527 488.15 73.6853 487.728 73.9505 487.373C74.2189 487.018 74.5951 486.745 75.079 486.553C75.5662 486.36 76.1363 486.264 76.7892 486.264C77.7537 486.264 78.5127 486.468 79.0662 486.876C79.623 487.283 79.9479 487.839 80.0407 488.541ZM83.0547 494L80.9766 486.364H83.1193L84.3026 491.494H84.3722L85.6051 486.364H87.7081L88.9609 491.464H89.0256L90.1889 486.364H92.3267L90.2536 494H88.0114L86.6989 489.197H86.6044L85.2919 494H83.0547ZM96.7154 494.149C95.9431 494.149 95.2753 493.985 94.7118 493.657C94.1517 493.326 93.7192 492.865 93.4142 492.275C93.1093 491.682 92.9569 490.994 92.9569 490.212C92.9569 489.423 93.1093 488.733 93.4142 488.143C93.7192 487.55 94.1517 487.089 94.7118 486.761C95.2753 486.43 95.9431 486.264 96.7154 486.264C97.4876 486.264 98.1538 486.43 98.714 486.761C99.2774 487.089 99.7116 487.55 100.017 488.143C100.321 488.733 100.474 489.423 100.474 490.212C100.474 490.994 100.321 491.682 100.017 492.275C99.7116 492.865 99.2774 493.326 98.714 493.657C98.1538 493.985 97.4876 494.149 96.7154 494.149ZM96.7253 492.509C97.0766 492.509 97.37 492.409 97.6053 492.21C97.8406 492.008 98.0179 491.733 98.1373 491.385C98.2599 491.037 98.3212 490.641 98.3212 490.197C98.3212 489.753 98.2599 489.357 98.1373 489.009C98.0179 488.661 97.8406 488.385 97.6053 488.183C97.37 487.981 97.0766 487.88 96.7253 487.88C96.3707 487.88 96.0724 487.981 95.8304 488.183C95.5918 488.385 95.4112 488.661 95.2885 489.009C95.1692 489.357 95.1096 489.753 95.1096 490.197C95.1096 490.641 95.1692 491.037 95.2885 491.385C95.4112 491.733 95.5918 492.008 95.8304 492.21C96.0724 492.409 96.3707 492.509 96.7253 492.509ZM101.851 494V486.364H103.904V487.696H103.984C104.123 487.222 104.357 486.864 104.685 486.622C105.013 486.377 105.391 486.254 105.818 486.254C105.924 486.254 106.039 486.261 106.161 486.274C106.284 486.287 106.392 486.306 106.485 486.329V488.208C106.385 488.178 106.248 488.152 106.072 488.129C105.896 488.105 105.735 488.094 105.59 488.094C105.278 488.094 105 488.162 104.754 488.298C104.512 488.43 104.32 488.616 104.178 488.854C104.039 489.093 103.969 489.368 103.969 489.68V494H101.851ZM110.038 494.124C109.458 494.124 108.933 493.975 108.462 493.677C107.995 493.375 107.623 492.933 107.348 492.349C107.077 491.763 106.941 491.044 106.941 490.192C106.941 489.317 107.082 488.589 107.363 488.009C107.645 487.426 108.02 486.99 108.487 486.702C108.958 486.41 109.473 486.264 110.033 486.264C110.461 486.264 110.817 486.337 111.102 486.483C111.39 486.625 111.622 486.804 111.798 487.02C111.977 487.232 112.113 487.441 112.206 487.646H112.27V483.818H114.383V494H112.295V492.777H112.206C112.106 492.989 111.965 493.2 111.783 493.408C111.604 493.614 111.37 493.785 111.082 493.92C110.797 494.056 110.449 494.124 110.038 494.124ZM110.709 492.439C111.051 492.439 111.339 492.346 111.574 492.161C111.813 491.972 111.995 491.708 112.121 491.37C112.25 491.032 112.315 490.636 112.315 490.182C112.315 489.728 112.252 489.333 112.126 488.999C112 488.664 111.818 488.405 111.579 488.223C111.341 488.041 111.051 487.95 110.709 487.95C110.361 487.95 110.068 488.044 109.829 488.233C109.591 488.422 109.41 488.684 109.287 489.018C109.165 489.353 109.103 489.741 109.103 490.182C109.103 490.626 109.165 491.019 109.287 491.36C109.413 491.698 109.594 491.963 109.829 492.156C110.068 492.344 110.361 492.439 110.709 492.439Z" fill="black"/>
<path d="M354 506H60C53.3726 506 48 511.373 48 518V542C48 548.627 53.3726 554 60 554H354C360.627 554 366 548.627 366 542V518C366 511.373 360.627 506 354 506Z" fill="white" stroke="#EBEBEC"/>
<path d="M65.233 536V525.818H68.6733C69.4721 525.818 70.125 525.962 70.6321 526.251C71.1425 526.536 71.5204 526.922 71.7656 527.409C72.0109 527.896 72.1335 528.44 72.1335 529.04C72.1335 529.64 72.0109 530.185 71.7656 530.675C71.5237 531.166 71.1491 531.557 70.642 531.849C70.1349 532.137 69.4853 532.281 68.6932 532.281H66.2273V531.188H68.6534C69.2003 531.188 69.6394 531.093 69.9709 530.904C70.3023 530.715 70.5426 530.46 70.6918 530.138C70.8442 529.814 70.9205 529.447 70.9205 529.04C70.9205 528.632 70.8442 528.268 70.6918 527.946C70.5426 527.625 70.3007 527.373 69.9659 527.19C69.6312 527.005 69.187 526.912 68.6335 526.912H66.4659V536H65.233ZM76.2077 536.179C75.7238 536.179 75.2847 536.088 74.8903 535.906C74.4959 535.72 74.1826 535.453 73.9506 535.105C73.7186 534.754 73.6026 534.33 73.6026 533.832C73.6026 533.395 73.6888 533.04 73.8612 532.768C74.0335 532.493 74.2638 532.278 74.5522 532.122C74.8406 531.966 75.1587 531.85 75.5067 531.774C75.8581 531.695 76.2111 531.632 76.5657 531.585C77.0297 531.526 77.4059 531.481 77.6942 531.451C77.9859 531.418 78.198 531.363 78.3306 531.287C78.4665 531.211 78.5344 531.078 78.5344 530.889V530.849C78.5344 530.359 78.4002 529.978 78.1317 529.706C77.8666 529.434 77.4639 529.298 76.9237 529.298C76.3635 529.298 75.9244 529.421 75.6062 529.666C75.288 529.911 75.0643 530.173 74.935 530.452L73.8214 530.054C74.0202 529.59 74.2854 529.229 74.6168 528.97C74.9516 528.708 75.3162 528.526 75.7106 528.423C76.1083 528.317 76.4994 528.264 76.8839 528.264C77.1291 528.264 77.4109 528.294 77.729 528.354C78.0505 528.41 78.3604 528.528 78.6587 528.707C78.9603 528.886 79.2106 529.156 79.4094 529.517C79.6083 529.878 79.7077 530.362 79.7077 530.969V536H78.5344V534.966H78.4748C78.3952 535.132 78.2627 535.309 78.0771 535.498C77.8915 535.687 77.6445 535.848 77.3363 535.98C77.0281 536.113 76.6519 536.179 76.2077 536.179ZM76.3867 535.125C76.8507 535.125 77.2418 535.034 77.56 534.852C77.8815 534.669 78.1235 534.434 78.2859 534.146C78.4516 533.857 78.5344 533.554 78.5344 533.236V532.162C78.4847 532.222 78.3754 532.276 78.2063 532.326C78.0406 532.372 77.8484 532.414 77.6296 532.45C77.4142 532.483 77.2037 532.513 76.9982 532.54C76.796 532.563 76.632 532.583 76.506 532.599C76.2011 532.639 75.9161 532.704 75.6509 532.793C75.3891 532.879 75.177 533.01 75.0146 533.186C74.8555 533.358 74.7759 533.594 74.7759 533.892C74.7759 534.3 74.9267 534.608 75.2283 534.817C75.5333 535.022 75.9194 535.125 76.3867 535.125ZM87.2583 530.074L86.2044 530.372C86.1381 530.196 86.0403 530.026 85.911 529.86C85.7851 529.691 85.6127 529.552 85.394 529.442C85.1752 529.333 84.8952 529.278 84.5538 529.278C84.0865 529.278 83.697 529.386 83.3855 529.602C83.0772 529.814 82.9231 530.084 82.9231 530.412C82.9231 530.704 83.0292 530.934 83.2413 531.103C83.4534 531.272 83.7849 531.413 84.2356 531.526L85.3691 531.804C86.0519 531.97 86.5607 532.223 86.8954 532.565C87.2302 532.903 87.3975 533.339 87.3975 533.872C87.3975 534.31 87.2716 534.701 87.0197 535.045C86.7711 535.39 86.4231 535.662 85.9757 535.861C85.5282 536.06 85.0079 536.159 84.4146 536.159C83.6357 536.159 82.9911 535.99 82.4806 535.652C81.9702 535.314 81.6471 534.82 81.5112 534.17L82.6248 533.892C82.7309 534.303 82.9314 534.611 83.2264 534.817C83.5247 535.022 83.9141 535.125 84.3947 535.125C84.9416 535.125 85.3758 535.009 85.6973 534.777C86.0221 534.542 86.1845 534.26 86.1845 533.932C86.1845 533.667 86.0917 533.445 85.9061 533.266C85.7205 533.083 85.4354 532.947 85.051 532.858L83.7782 532.56C83.0789 532.394 82.5652 532.137 82.237 531.789C81.9122 531.438 81.7498 530.999 81.7498 530.472C81.7498 530.041 81.8708 529.66 82.1127 529.328C82.358 528.997 82.6911 528.737 83.112 528.548C83.5363 528.359 84.0169 528.264 84.5538 528.264C85.3095 528.264 85.9028 528.43 86.3336 528.761C86.7678 529.093 87.0761 529.53 87.2583 530.074ZM94.5728 530.074L93.5188 530.372C93.4525 530.196 93.3548 530.026 93.2255 529.86C93.0996 529.691 92.9272 529.552 92.7085 529.442C92.4897 529.333 92.2096 529.278 91.8683 529.278C91.4009 529.278 91.0115 529.386 90.6999 529.602C90.3917 529.814 90.2376 530.084 90.2376 530.412C90.2376 530.704 90.3436 530.934 90.5558 531.103C90.7679 531.272 91.0993 531.413 91.5501 531.526L92.6836 531.804C93.3664 531.97 93.8751 532.223 94.2099 532.565C94.5446 532.903 94.712 533.339 94.712 533.872C94.712 534.31 94.5861 534.701 94.3342 535.045C94.0856 535.39 93.7376 535.662 93.2901 535.861C92.8427 536.06 92.3223 536.159 91.729 536.159C90.9502 536.159 90.3055 535.99 89.7951 535.652C89.2847 535.314 88.9615 534.82 88.8256 534.17L89.9393 533.892C90.0453 534.303 90.2459 534.611 90.5408 534.817C90.8391 535.022 91.2286 535.125 91.7092 535.125C92.256 535.125 92.6902 535.009 93.0117 534.777C93.3365 534.542 93.4989 534.26 93.4989 533.932C93.4989 533.667 93.4061 533.445 93.2205 533.266C93.0349 533.083 92.7499 532.947 92.3654 532.858L91.0927 532.56C90.3933 532.394 89.8796 532.137 89.5515 531.789C89.2267 531.438 89.0643 530.999 89.0643 530.472C89.0643 530.041 89.1853 529.66 89.4272 529.328C89.6725 528.997 90.0056 528.737 90.4265 528.548C90.8507 528.359 91.3313 528.264 91.8683 528.264C92.6239 528.264 93.2172 528.43 93.6481 528.761C94.0823 529.093 94.3905 529.53 94.5728 530.074ZM98.2083 536L95.8816 528.364H97.1145L98.7651 534.21H98.8446L100.475 528.364H101.728L103.339 534.19H103.419L105.069 528.364H106.302L103.975 536H102.822L101.151 530.134H101.032L99.3617 536H98.2083ZM110.696 536.159C110.006 536.159 109.401 535.995 108.881 535.667C108.364 535.339 107.96 534.88 107.668 534.29C107.38 533.7 107.235 533.01 107.235 532.222C107.235 531.426 107.38 530.732 107.668 530.138C107.96 529.545 108.364 529.085 108.881 528.756C109.401 528.428 110.006 528.264 110.696 528.264C111.385 528.264 111.988 528.428 112.505 528.756C113.026 529.085 113.43 529.545 113.718 530.138C114.01 530.732 114.156 531.426 114.156 532.222C114.156 533.01 114.01 533.7 113.718 534.29C113.43 534.88 113.026 535.339 112.505 535.667C111.988 535.995 111.385 536.159 110.696 536.159ZM110.696 535.105C111.219 535.105 111.65 534.971 111.988 534.702C112.326 534.434 112.577 534.081 112.739 533.643C112.901 533.206 112.983 532.732 112.983 532.222C112.983 531.711 112.901 531.236 112.739 530.795C112.577 530.354 112.326 529.998 111.988 529.726C111.65 529.454 111.219 529.318 110.696 529.318C110.172 529.318 109.741 529.454 109.403 529.726C109.065 529.998 108.815 530.354 108.652 530.795C108.49 531.236 108.409 531.711 108.409 532.222C108.409 532.732 108.49 533.206 108.652 533.643C108.815 534.081 109.065 534.434 109.403 534.702C109.741 534.971 110.172 535.105 110.696 535.105ZM115.947 536V528.364H117.08V529.517H117.16C117.299 529.139 117.551 528.833 117.916 528.597C118.28 528.362 118.691 528.244 119.149 528.244C119.235 528.244 119.343 528.246 119.472 528.249C119.601 528.253 119.699 528.258 119.765 528.264V529.457C119.725 529.447 119.634 529.433 119.492 529.413C119.352 529.389 119.205 529.378 119.049 529.378C118.678 529.378 118.347 529.456 118.055 529.612C117.767 529.764 117.538 529.976 117.369 530.248C117.203 530.516 117.12 530.823 117.12 531.168V536H115.947ZM123.807 536.159C123.171 536.159 122.609 535.998 122.122 535.677C121.634 535.352 121.253 534.895 120.978 534.305C120.703 533.711 120.566 533.01 120.566 532.202C120.566 531.4 120.703 530.704 120.978 530.114C121.253 529.524 121.636 529.068 122.127 528.746C122.617 528.425 123.184 528.264 123.827 528.264C124.324 528.264 124.717 528.347 125.005 528.513C125.297 528.675 125.519 528.861 125.671 529.07C125.827 529.275 125.948 529.444 126.034 529.577H126.134V525.818H127.307V536H126.173V534.827H126.034C125.948 534.966 125.825 535.142 125.666 535.354C125.507 535.562 125.28 535.75 124.985 535.915C124.69 536.078 124.298 536.159 123.807 536.159ZM123.966 535.105C124.437 535.105 124.834 534.982 125.159 534.737C125.484 534.489 125.731 534.146 125.9 533.708C126.069 533.267 126.154 532.759 126.154 532.182C126.154 531.612 126.071 531.113 125.905 530.685C125.739 530.254 125.494 529.92 125.169 529.681C124.844 529.439 124.443 529.318 123.966 529.318C123.469 529.318 123.055 529.446 122.723 529.701C122.395 529.953 122.148 530.296 121.982 530.73C121.82 531.161 121.739 531.645 121.739 532.182C121.739 532.725 121.822 533.219 121.987 533.663C122.156 534.104 122.405 534.455 122.733 534.717C123.065 534.976 123.476 535.105 123.966 535.105Z" fill="#A0A0A0"/>
<g filter="url(#filter3_d_3012_246)">
<path d="M340 586H74C59.6406 586 48 597.641 48 612C48 626.359 59.6406 638 74 638H340C354.359 638 366 626.359 366 612C366 597.641 354.359 586 340 586Z" fill="#009688"/>
</g>
<path d="M187.793 608.71C187.747 608.252 187.552 607.896 187.207 607.642C186.863 607.388 186.395 607.261 185.804 607.261C185.402 607.261 185.063 607.318 184.787 607.432C184.51 607.542 184.298 607.695 184.151 607.892C184.007 608.089 183.935 608.312 183.935 608.562C183.927 608.771 183.971 608.953 184.065 609.108C184.164 609.263 184.298 609.398 184.469 609.511C184.639 609.621 184.836 609.718 185.06 609.801C185.283 609.881 185.522 609.949 185.776 610.006L186.821 610.256C187.329 610.369 187.795 610.521 188.219 610.71C188.643 610.9 189.01 611.133 189.321 611.409C189.632 611.686 189.872 612.011 190.043 612.386C190.217 612.761 190.306 613.191 190.31 613.676C190.306 614.388 190.124 615.006 189.764 615.528C189.408 616.047 188.893 616.451 188.219 616.739C187.548 617.023 186.74 617.165 185.793 617.165C184.853 617.165 184.035 617.021 183.338 616.733C182.645 616.445 182.103 616.019 181.713 615.455C181.327 614.886 181.124 614.184 181.105 613.347H183.486C183.512 613.737 183.624 614.062 183.821 614.324C184.022 614.581 184.289 614.777 184.622 614.909C184.959 615.038 185.34 615.102 185.764 615.102C186.181 615.102 186.543 615.042 186.849 614.92C187.16 614.799 187.401 614.631 187.571 614.415C187.741 614.199 187.827 613.951 187.827 613.67C187.827 613.409 187.749 613.189 187.594 613.011C187.442 612.833 187.219 612.682 186.923 612.557C186.632 612.432 186.274 612.318 185.849 612.216L184.582 611.898C183.601 611.659 182.827 611.286 182.259 610.778C181.69 610.271 181.408 609.587 181.412 608.727C181.408 608.023 181.596 607.407 181.974 606.881C182.357 606.354 182.882 605.943 183.548 605.648C184.215 605.352 184.973 605.205 185.821 605.205C186.685 605.205 187.438 605.352 188.082 605.648C188.73 605.943 189.234 606.354 189.594 606.881C189.954 607.407 190.139 608.017 190.151 608.71H187.793ZM191.919 617V608.273H194.339V617H191.919ZM193.135 607.148C192.775 607.148 192.466 607.028 192.209 606.79C191.955 606.547 191.828 606.258 191.828 605.92C191.828 605.587 191.955 605.301 192.209 605.062C192.466 604.82 192.775 604.699 193.135 604.699C193.495 604.699 193.802 604.82 194.055 605.062C194.313 605.301 194.442 605.587 194.442 605.92C194.442 606.258 194.313 606.547 194.055 606.79C193.802 607.028 193.495 607.148 193.135 607.148ZM200.21 620.455C199.426 620.455 198.754 620.347 198.193 620.131C197.636 619.919 197.193 619.629 196.864 619.261C196.534 618.894 196.32 618.481 196.222 618.023L198.46 617.722C198.528 617.896 198.636 618.059 198.784 618.21C198.932 618.362 199.127 618.483 199.369 618.574C199.616 618.669 199.915 618.716 200.267 618.716C200.794 618.716 201.227 618.587 201.568 618.33C201.913 618.076 202.085 617.65 202.085 617.051V615.455H201.983C201.877 615.697 201.718 615.926 201.506 616.142C201.294 616.358 201.021 616.534 200.688 616.67C200.354 616.807 199.956 616.875 199.494 616.875C198.839 616.875 198.242 616.723 197.705 616.42C197.17 616.114 196.744 615.646 196.426 615.017C196.112 614.384 195.955 613.585 195.955 612.619C195.955 611.631 196.116 610.805 196.438 610.142C196.759 609.479 197.188 608.983 197.722 608.653C198.259 608.324 198.848 608.159 199.489 608.159C199.977 608.159 200.386 608.242 200.716 608.409C201.045 608.572 201.311 608.777 201.511 609.023C201.716 609.265 201.873 609.504 201.983 609.739H202.074V608.273H204.477V617.085C204.477 617.828 204.295 618.449 203.932 618.949C203.568 619.449 203.064 619.824 202.42 620.074C201.78 620.328 201.044 620.455 200.21 620.455ZM200.261 615.057C200.652 615.057 200.981 614.96 201.25 614.767C201.523 614.57 201.731 614.29 201.875 613.926C202.023 613.559 202.097 613.119 202.097 612.608C202.097 612.097 202.025 611.653 201.881 611.278C201.737 610.9 201.528 610.606 201.256 610.398C200.983 610.189 200.652 610.085 200.261 610.085C199.864 610.085 199.528 610.193 199.256 610.409C198.983 610.621 198.777 610.917 198.636 611.295C198.496 611.674 198.426 612.112 198.426 612.608C198.426 613.112 198.496 613.547 198.636 613.915C198.78 614.278 198.987 614.561 199.256 614.761C199.528 614.958 199.864 615.057 200.261 615.057ZM208.824 611.955V617H206.403V608.273H208.71V609.812H208.812C209.006 609.305 209.33 608.903 209.784 608.608C210.239 608.309 210.79 608.159 211.438 608.159C212.044 608.159 212.572 608.292 213.023 608.557C213.473 608.822 213.824 609.201 214.074 609.693C214.324 610.182 214.449 610.765 214.449 611.443V617H212.028V611.875C212.032 611.341 211.896 610.924 211.619 610.625C211.343 610.322 210.962 610.17 210.477 610.17C210.152 610.17 209.864 610.241 209.614 610.381C209.367 610.521 209.174 610.725 209.034 610.994C208.898 611.259 208.828 611.58 208.824 611.955ZM222.565 605.364V617H220.105V605.364H222.565ZM226.964 611.955V617H224.544V608.273H226.851V609.812H226.953C227.146 609.305 227.47 608.903 227.925 608.608C228.379 608.309 228.93 608.159 229.578 608.159C230.184 608.159 230.713 608.292 231.163 608.557C231.614 608.822 231.964 609.201 232.214 609.693C232.464 610.182 232.589 610.765 232.589 611.443V617H230.169V611.875C230.173 611.341 230.036 610.924 229.76 610.625C229.483 610.322 229.103 610.17 228.618 610.17C228.292 610.17 228.004 610.241 227.754 610.381C227.508 610.521 227.315 610.725 227.175 610.994C227.038 611.259 226.968 611.58 226.964 611.955Z" fill="white"/>
<path d="M163.193 659.383H161.015C160.975 659.101 160.894 658.851 160.772 658.632C160.649 658.41 160.492 658.221 160.299 658.065C160.107 657.91 159.885 657.79 159.633 657.707C159.385 657.625 159.114 657.583 158.823 657.583C158.296 657.583 157.837 657.714 157.446 657.976C157.055 658.234 156.751 658.612 156.536 659.109C156.32 659.603 156.213 660.203 156.213 660.909C156.213 661.635 156.32 662.245 156.536 662.739C156.755 663.232 157.06 663.605 157.451 663.857C157.842 664.109 158.294 664.235 158.808 664.235C159.096 664.235 159.363 664.197 159.608 664.121C159.857 664.045 160.077 663.933 160.27 663.788C160.462 663.638 160.621 663.458 160.747 663.246C160.876 663.034 160.966 662.792 161.015 662.52L163.193 662.53C163.136 662.997 162.996 663.448 162.77 663.882C162.548 664.313 162.248 664.699 161.87 665.04C161.496 665.379 161.048 665.647 160.528 665.846C160.011 666.041 159.426 666.139 158.773 666.139C157.865 666.139 157.053 665.934 156.337 665.523C155.624 665.112 155.061 664.517 154.647 663.738C154.236 662.959 154.03 662.016 154.03 660.909C154.03 659.799 154.239 658.854 154.657 658.075C155.074 657.296 155.641 656.703 156.357 656.295C157.073 655.884 157.878 655.679 158.773 655.679C159.363 655.679 159.91 655.762 160.414 655.928C160.921 656.093 161.37 656.335 161.761 656.653C162.152 656.968 162.47 657.354 162.716 657.812C162.964 658.269 163.123 658.793 163.193 659.383ZM164.697 666V658.364H166.75V659.696H166.83C166.969 659.222 167.202 658.864 167.531 658.622C167.859 658.377 168.237 658.254 168.664 658.254C168.77 658.254 168.884 658.261 169.007 658.274C169.13 658.287 169.237 658.306 169.33 658.329V660.208C169.231 660.178 169.093 660.152 168.918 660.129C168.742 660.105 168.581 660.094 168.435 660.094C168.124 660.094 167.845 660.162 167.6 660.298C167.358 660.43 167.166 660.616 167.023 660.854C166.884 661.093 166.815 661.368 166.815 661.68V666H164.697ZM173.55 666.149C172.764 666.149 172.088 665.99 171.521 665.672C170.958 665.35 170.524 664.896 170.219 664.31C169.914 663.72 169.762 663.022 169.762 662.217C169.762 661.431 169.914 660.742 170.219 660.148C170.524 659.555 170.953 659.093 171.507 658.761C172.063 658.43 172.716 658.264 173.465 658.264C173.969 658.264 174.438 658.345 174.872 658.508C175.31 658.667 175.691 658.907 176.016 659.229C176.344 659.55 176.599 659.955 176.781 660.442C176.964 660.926 177.055 661.492 177.055 662.142V662.724H170.607V661.411H175.061C175.061 661.106 174.995 660.836 174.862 660.601C174.73 660.366 174.546 660.182 174.311 660.049C174.079 659.913 173.808 659.845 173.5 659.845C173.179 659.845 172.894 659.92 172.645 660.069C172.4 660.215 172.208 660.412 172.068 660.661C171.929 660.906 171.858 661.179 171.855 661.481V662.729C171.855 663.107 171.924 663.433 172.063 663.708C172.206 663.983 172.406 664.195 172.665 664.344C172.923 664.494 173.23 664.568 173.585 664.568C173.82 664.568 174.035 664.535 174.231 664.469C174.427 664.402 174.594 664.303 174.733 664.17C174.872 664.038 174.978 663.875 175.051 663.683L177.01 663.812C176.911 664.283 176.707 664.694 176.399 665.045C176.094 665.393 175.699 665.665 175.215 665.861C174.735 666.053 174.18 666.149 173.55 666.149ZM180.615 666.144C180.127 666.144 179.693 666.06 179.312 665.891C178.931 665.718 178.629 665.465 178.407 665.13C178.188 664.792 178.079 664.371 178.079 663.867C178.079 663.443 178.157 663.087 178.313 662.798C178.468 662.51 178.681 662.278 178.949 662.102C179.218 661.927 179.522 661.794 179.864 661.705C180.209 661.615 180.57 661.552 180.948 661.516C181.392 661.469 181.75 661.426 182.021 661.386C182.293 661.343 182.49 661.28 182.613 661.197C182.736 661.115 182.797 660.992 182.797 660.83V660.8C182.797 660.485 182.698 660.241 182.499 660.069C182.303 659.897 182.025 659.81 181.664 659.81C181.282 659.81 180.979 659.895 180.754 660.064C180.528 660.23 180.379 660.438 180.306 660.69L178.347 660.531C178.447 660.067 178.642 659.666 178.934 659.328C179.226 658.987 179.602 658.725 180.063 658.543C180.527 658.357 181.064 658.264 181.673 658.264C182.098 658.264 182.504 658.314 182.892 658.413C183.283 658.513 183.629 658.667 183.931 658.876C184.235 659.085 184.476 659.353 184.651 659.681C184.827 660.006 184.915 660.395 184.915 660.849V666H182.906V664.941H182.847C182.724 665.18 182.56 665.39 182.355 665.572C182.149 665.751 181.902 665.892 181.614 665.995C181.325 666.094 180.992 666.144 180.615 666.144ZM181.221 664.683C181.533 664.683 181.808 664.621 182.046 664.499C182.285 664.373 182.472 664.204 182.608 663.991C182.744 663.779 182.812 663.539 182.812 663.271V662.46C182.746 662.503 182.655 662.543 182.539 662.58C182.426 662.613 182.298 662.644 182.156 662.674C182.013 662.701 181.871 662.725 181.728 662.749C181.586 662.768 181.456 662.787 181.34 662.803C181.092 662.84 180.875 662.898 180.689 662.977C180.503 663.057 180.359 663.165 180.257 663.3C180.154 663.433 180.102 663.599 180.102 663.798C180.102 664.086 180.207 664.306 180.416 664.459C180.628 664.608 180.896 664.683 181.221 664.683ZM190.62 658.364V659.955H186.021V658.364H190.62ZM187.065 656.534H189.183V663.653C189.183 663.849 189.213 664.001 189.273 664.111C189.332 664.217 189.415 664.291 189.521 664.335C189.631 664.378 189.756 664.399 189.899 664.399C189.998 664.399 190.098 664.391 190.197 664.374C190.297 664.354 190.373 664.339 190.426 664.33L190.759 665.906C190.653 665.939 190.504 665.977 190.312 666.02C190.119 666.066 189.886 666.094 189.611 666.104C189.1 666.124 188.653 666.056 188.268 665.901C187.887 665.745 187.59 665.503 187.378 665.175C187.166 664.847 187.062 664.432 187.065 663.932V656.534ZM195.398 666.149C194.612 666.149 193.936 665.99 193.369 665.672C192.806 665.35 192.372 664.896 192.067 664.31C191.762 663.72 191.609 663.022 191.609 662.217C191.609 661.431 191.762 660.742 192.067 660.148C192.372 659.555 192.801 659.093 193.354 658.761C193.911 658.43 194.564 658.264 195.313 658.264C195.817 658.264 196.286 658.345 196.72 658.508C197.157 658.667 197.539 658.907 197.863 659.229C198.192 659.55 198.447 659.955 198.629 660.442C198.811 660.926 198.903 661.492 198.903 662.142V662.724H192.454V661.411H196.909C196.909 661.106 196.843 660.836 196.71 660.601C196.577 660.366 196.394 660.182 196.158 660.049C195.926 659.913 195.656 659.845 195.348 659.845C195.026 659.845 194.741 659.92 194.493 660.069C194.247 660.215 194.055 660.412 193.916 660.661C193.777 660.906 193.706 661.179 193.702 661.481V662.729C193.702 663.107 193.772 663.433 193.911 663.708C194.054 663.983 194.254 664.195 194.513 664.344C194.771 664.494 195.078 664.568 195.432 664.568C195.668 664.568 195.883 664.535 196.079 664.469C196.274 664.402 196.442 664.303 196.581 664.17C196.72 664.038 196.826 663.875 196.899 663.683L198.858 663.812C198.758 664.283 198.555 664.694 198.246 665.045C197.941 665.393 197.547 665.665 197.063 665.861C196.582 666.053 196.027 666.149 195.398 666.149ZM205.32 666H203.013L206.528 655.818H209.302L212.812 666H210.505L207.955 658.145H207.875L205.32 666ZM205.175 661.998H210.624V663.678H205.175V661.998ZM217.092 666.149C216.31 666.149 215.637 665.983 215.074 665.652C214.514 665.317 214.083 664.853 213.781 664.26C213.483 663.667 213.334 662.984 213.334 662.212C213.334 661.429 213.485 660.743 213.786 660.153C214.091 659.56 214.524 659.098 215.084 658.766C215.644 658.432 216.31 658.264 217.082 658.264C217.749 658.264 218.332 658.385 218.832 658.627C219.333 658.869 219.729 659.209 220.021 659.646C220.312 660.084 220.473 660.598 220.503 661.188H218.504C218.448 660.806 218.299 660.5 218.057 660.268C217.818 660.032 217.505 659.915 217.117 659.915C216.789 659.915 216.502 660.004 216.257 660.183C216.015 660.359 215.826 660.616 215.69 660.954C215.554 661.292 215.487 661.701 215.487 662.182C215.487 662.669 215.553 663.083 215.685 663.425C215.821 663.766 216.012 664.026 216.257 664.205C216.502 664.384 216.789 664.474 217.117 664.474C217.359 664.474 217.576 664.424 217.768 664.325C217.964 664.225 218.125 664.081 218.251 663.892C218.38 663.7 218.464 663.469 218.504 663.201H220.503C220.47 663.784 220.311 664.298 220.026 664.742C219.744 665.183 219.354 665.528 218.857 665.776C218.36 666.025 217.772 666.149 217.092 666.149ZM225.309 666.149C224.527 666.149 223.854 665.983 223.291 665.652C222.731 665.317 222.3 664.853 221.998 664.26C221.7 663.667 221.551 662.984 221.551 662.212C221.551 661.429 221.701 660.743 222.003 660.153C222.308 659.56 222.74 659.098 223.301 658.766C223.861 658.432 224.527 658.264 225.299 658.264C225.965 658.264 226.549 658.385 227.049 658.627C227.55 658.869 227.946 659.209 228.237 659.646C228.529 660.084 228.69 660.598 228.72 661.188H226.721C226.665 660.806 226.516 660.5 226.274 660.268C226.035 660.032 225.722 659.915 225.334 659.915C225.006 659.915 224.719 660.004 224.474 660.183C224.232 660.359 224.043 660.616 223.907 660.954C223.771 661.292 223.703 661.701 223.703 662.182C223.703 662.669 223.77 663.083 223.902 663.425C224.038 663.766 224.229 664.026 224.474 664.205C224.719 664.384 225.006 664.474 225.334 664.474C225.576 664.474 225.793 664.424 225.985 664.325C226.181 664.225 226.342 664.081 226.468 663.892C226.597 663.7 226.681 663.469 226.721 663.201H228.72C228.686 663.784 228.527 664.298 228.242 664.742C227.961 665.183 227.571 665.528 227.074 665.776C226.577 666.025 225.989 666.149 225.309 666.149ZM233.526 666.149C232.754 666.149 232.086 665.985 231.522 665.657C230.962 665.326 230.53 664.865 230.225 664.275C229.92 663.682 229.767 662.994 229.767 662.212C229.767 661.423 229.92 660.733 230.225 660.143C230.53 659.55 230.962 659.089 231.522 658.761C232.086 658.43 232.754 658.264 233.526 658.264C234.298 658.264 234.964 658.43 235.525 658.761C236.088 659.089 236.522 659.55 236.827 660.143C237.132 660.733 237.284 661.423 237.284 662.212C237.284 662.994 237.132 663.682 236.827 664.275C236.522 664.865 236.088 665.326 235.525 665.657C234.964 665.985 234.298 666.149 233.526 666.149ZM233.536 664.509C233.887 664.509 234.181 664.409 234.416 664.21C234.651 664.008 234.828 663.733 234.948 663.385C235.07 663.037 235.132 662.641 235.132 662.197C235.132 661.753 235.07 661.357 234.948 661.009C234.828 660.661 234.651 660.385 234.416 660.183C234.181 659.981 233.887 659.88 233.536 659.88C233.181 659.88 232.883 659.981 232.641 660.183C232.402 660.385 232.222 660.661 232.099 661.009C231.98 661.357 231.92 661.753 231.92 662.197C231.92 662.641 231.98 663.037 232.099 663.385C232.222 663.733 232.402 664.008 232.641 664.21C232.883 664.409 233.181 664.509 233.536 664.509ZM243.559 662.749V658.364H245.676V666H243.643V664.613H243.564C243.391 665.06 243.105 665.42 242.703 665.692C242.306 665.964 241.82 666.099 241.247 666.099C240.736 666.099 240.287 665.983 239.9 665.751C239.512 665.519 239.208 665.19 238.99 664.762C238.774 664.335 238.665 663.822 238.662 663.226V658.364H240.779V662.848C240.783 663.299 240.904 663.655 241.142 663.917C241.381 664.179 241.701 664.31 242.102 664.31C242.357 664.31 242.596 664.252 242.818 664.136C243.04 664.016 243.219 663.841 243.355 663.609C243.494 663.377 243.562 663.09 243.559 662.749ZM249.488 661.585V666H247.371V658.364H249.389V659.711H249.479C249.648 659.267 249.931 658.915 250.329 658.657C250.726 658.395 251.209 658.264 251.775 658.264C252.306 658.264 252.768 658.38 253.162 658.612C253.557 658.844 253.863 659.176 254.082 659.607C254.301 660.034 254.41 660.545 254.41 661.138V666H252.292V661.516C252.296 661.048 252.176 660.684 251.934 660.422C251.693 660.157 251.359 660.024 250.935 660.024C250.65 660.024 250.398 660.085 250.18 660.208C249.964 660.331 249.795 660.51 249.672 660.745C249.553 660.977 249.492 661.257 249.488 661.585ZM260.141 658.364V659.955H255.543V658.364H260.141ZM256.587 656.534H258.705V663.653C258.705 663.849 258.734 664.001 258.794 664.111C258.854 664.217 258.937 664.291 259.043 664.335C259.152 664.378 259.278 664.399 259.42 664.399C259.52 664.399 259.619 664.391 259.719 664.374C259.818 664.354 259.894 664.339 259.947 664.33L260.281 665.906C260.174 665.939 260.025 665.977 259.833 666.02C259.641 666.066 259.407 666.094 259.132 666.104C258.622 666.124 258.174 666.056 257.79 665.901C257.409 665.745 257.112 665.503 256.9 665.175C256.688 664.847 256.583 664.432 256.587 663.932V656.534Z" fill="#009688"/>
<path d="M177 736C188.046 736 197 727.046 197 716C197 704.954 188.046 696 177 696C165.954 696 157 704.954 157 716C157 727.046 165.954 736 177 736Z" fill="white" stroke="#EBEBEC"/>
<path d="M237 736C248.046 736 257 727.046 257 716C257 704.954 248.046 696 237 696C225.954 696 217 704.954 217 716C217 727.046 225.954 736 237 736Z" fill="white" stroke="#EBEBEC"/>
<path d="M179.641 713.125C179.562 712.848 179.45 712.604 179.306 712.392C179.162 712.176 178.986 711.994 178.778 711.847C178.573 711.695 178.338 711.58 178.073 711.5C177.812 711.42 177.522 711.381 177.204 711.381C176.609 711.381 176.086 711.528 175.636 711.824C175.189 712.119 174.84 712.549 174.59 713.114C174.34 713.674 174.215 714.36 174.215 715.17C174.215 715.981 174.338 716.67 174.585 717.239C174.831 717.807 175.179 718.241 175.63 718.54C176.081 718.835 176.613 718.983 177.227 718.983C177.783 718.983 178.259 718.884 178.653 718.688C179.05 718.487 179.353 718.205 179.562 717.841C179.774 717.477 179.88 717.047 179.88 716.551L180.38 716.625H177.38V714.773H182.249V716.239C182.249 717.261 182.033 718.14 181.602 718.875C181.17 719.606 180.575 720.17 179.817 720.568C179.06 720.962 178.192 721.159 177.215 721.159C176.124 721.159 175.166 720.919 174.34 720.438C173.514 719.953 172.871 719.265 172.408 718.375C171.95 717.481 171.721 716.42 171.721 715.193C171.721 714.25 171.857 713.409 172.13 712.67C172.406 711.928 172.793 711.299 173.289 710.784C173.785 710.269 174.363 709.877 175.022 709.608C175.681 709.339 176.395 709.205 177.164 709.205C177.823 709.205 178.437 709.301 179.005 709.494C179.573 709.684 180.077 709.953 180.516 710.301C180.96 710.65 181.321 711.064 181.602 711.545C181.882 712.023 182.062 712.549 182.141 713.125H179.641Z" fill="black"/>
<path d="M229.47 721H226.834L230.851 709.364H234.021L238.033 721H235.396L232.482 712.023H232.391L229.47 721ZM229.305 716.426H235.533V718.347H229.305V716.426ZM239.388 724.273V712.273H241.774V713.739H241.882C241.988 713.504 242.142 713.265 242.342 713.023C242.547 712.777 242.812 712.572 243.138 712.409C243.467 712.242 243.876 712.159 244.365 712.159C245.001 712.159 245.589 712.326 246.126 712.659C246.664 712.989 247.094 713.487 247.416 714.153C247.738 714.816 247.899 715.648 247.899 716.648C247.899 717.621 247.742 718.443 247.428 719.114C247.117 719.78 246.693 720.286 246.155 720.631C245.621 720.972 245.022 721.142 244.359 721.142C243.89 721.142 243.49 721.064 243.161 720.909C242.835 720.754 242.568 720.559 242.359 720.324C242.151 720.085 241.992 719.845 241.882 719.602H241.808V724.273H239.388ZM241.757 716.636C241.757 717.155 241.829 717.608 241.973 717.994C242.117 718.381 242.325 718.682 242.598 718.898C242.871 719.11 243.202 719.216 243.592 719.216C243.986 719.216 244.32 719.108 244.592 718.892C244.865 718.672 245.071 718.369 245.212 717.983C245.356 717.593 245.428 717.144 245.428 716.636C245.428 716.133 245.357 715.689 245.217 715.307C245.077 714.924 244.871 714.625 244.598 714.409C244.325 714.193 243.99 714.085 243.592 714.085C243.198 714.085 242.865 714.189 242.592 714.398C242.323 714.606 242.117 714.902 241.973 715.284C241.829 715.667 241.757 716.117 241.757 716.636Z" fill="black"/>
</g>
<defs>
<filter id="filter0_d_3012_246" x="-11.5" y="-6.5" width="437" height="443" filterUnits="userSpaceOnUse" color-interpolation-filters="sRGB">
<feFlood flood-opacity="0" result="BackgroundImageFix"/>
<feColorMatrix in="SourceAlpha" type="matrix" values="0 0 0 0 0 0 0 0 0 0 0 0 0 0 0 0 0 0 127 0" result="hardAlpha"/>
<feOffset dy="5"/>
<feGaussianBlur stdDeviation="5.75"/>
<feComposite in2="hardAlpha" operator="out"/>
<feColorMatrix type="matrix" values="0 0 0 0 0 0 0 0 0 0 0 0 0 0 0 0 0 0 0.47 0"/>
<feBlend mode="normal" in2="BackgroundImageFix" result="effect1_dropShadow_3012_246"/>
<feBlend mode="normal" in="SourceGraphic" in2="effect1_dropShadow_3012_246" result="shape"/>
</filter>
<filter id="filter1_d_3012_246" x="122.4" y="134.4" width="179.2" height="179.2" filterUnits="userSpaceOnUse" color-interpolation-filters="sRGB">
<feFlood flood-opacity="0" result="BackgroundImageFix"/>
<feColorMatrix in="SourceAlpha" type="matrix" values="0 0 0 0 0 0 0 0 0 0 0 0 0 0 0 0 0 0 127 0" result="hardAlpha"/>
<feOffset dx="5" dy="4"/>
<feGaussianBlur stdDeviation="4.8"/>
<feComposite in2="hardAlpha" operator="out"/>
<feColorMatrix type="matrix" values="0 0 0 0 0 0 0 0 0 0 0 0 0 0 0 0 0 0 0.61 0"/>
<feBlend mode="normal" in2="BackgroundImageFix" result="effect1_dropShadow_3012_246"/>
<feBlend mode="normal" in="SourceGraphic" in2="effect1_dropShadow_3012_246" result="shape"/>
</filter>
<filter id="filter2_d_3012_246" x="24" y="350" width="374" height="428" filterUnits="userSpaceOnUse" color-interpolation-filters="sRGB">
<feFlood flood-opacity="0" result="BackgroundImageFix"/>
<feColorMatrix in="SourceAlpha" type="matrix" values="0 0 0 0 0 0 0 0 0 0 0 0 0 0 0 0 0 0 127 0" result="hardAlpha"/>
<feOffset dx="4" dy="4"/>
<feGaussianBlur stdDeviation="2"/>
<feComposite in2="hardAlpha" operator="out"/>
<feColorMatrix type="matrix" values="0 0 0 0 0 0 0 0 0 0 0 0 0 0 0 0 0 0 0.25 0"/>
<feBlend mode="normal" in2="BackgroundImageFix" result="effect1_dropShadow_3012_246"/>
<feBlend mode="normal" in="SourceGraphic" in2="effect1_dropShadow_3012_246" result="shape"/>
</filter>
<filter id="filter3_d_3012_246" x="48" y="586" width="326" height="60" filterUnits="userSpaceOnUse" color-interpolation-filters="sRGB">
<feFlood flood-opacity="0" result="BackgroundImageFix"/>
<feColorMatrix in="SourceAlpha" type="matrix" values="0 0 0 0 0 0 0 0 0 0 0 0 0 0 0 0 0 0 127 0" result="hardAlpha"/>
<feOffset dx="4" dy="4"/>
<feGaussianBlur stdDeviation="2"/>
<feComposite in2="hardAlpha" operator="out"/>
<feColorMatrix type="matrix" values="0 0 0 0 0 0 0 0 0 0 0 0 0 0 0 0 0 0 0.25 0"/>
<feBlend mode="normal" in2="BackgroundImageFix" result="effect1_dropShadow_3012_246"/>
<feBlend mode="normal" in="SourceGraphic" in2="effect1_dropShadow_3012_246" result="shape"/>
</filter>
<linearGradient id="paint0_linear_3012_246" x1="207" y1="0" x2="207" y2="450" gradientUnits="userSpaceOnUse">
<stop stop-color="#4E85F2"/>
<stop offset="1" stop-color="#512BD4"/>
</linearGradient>
<clipPath id="clip0_3012_246">
<rect width="414" height="896" fill="white"/>
</clipPath>
</defs>
</svg>
