<svg width="414" height="896" viewBox="0 0 414 896" fill="none" xmlns="http://www.w3.org/2000/svg">
<g clip-path="url(#clip0_3012_360)">
<path d="M414 0H0V896H414V0Z" fill="#F8F9FA"/>
<g filter="url(#filter0_d_3012_360)">
<path d="M364.176 18H49.8235C39.4276 18 31 25.6112 31 35V205C31 214.389 39.4276 222 49.8235 222H364.176C374.572 222 383 214.389 383 205V35C383 25.6112 374.572 18 364.176 18Z" fill="url(#paint0_linear_3012_360)"/>
</g>
<path d="M161.969 114.108L160.281 117.841H137.491L138.872 114.108H161.969ZM158.713 121.25L156.855 125.068H137.491L138.872 121.25H158.713ZM166.401 104.784L163.673 110.614C163.219 110.295 162.668 109.949 162.02 109.574C161.384 109.187 160.651 108.864 159.821 108.602C159.003 108.33 158.094 108.193 157.094 108.193C155.514 108.193 154.139 108.591 152.969 109.386C151.798 110.182 150.889 111.42 150.241 113.102C149.605 114.784 149.287 116.943 149.287 119.58C149.287 122.239 149.605 124.403 150.241 126.074C150.889 127.733 151.798 128.955 152.969 129.739C154.139 130.511 155.514 130.898 157.094 130.898C158.094 130.898 159.003 130.767 159.821 130.506C160.639 130.244 161.355 129.932 161.969 129.568C162.594 129.205 163.116 128.869 163.537 128.562L166.298 134.392C165.06 135.415 163.656 136.187 162.088 136.71C160.52 137.222 158.855 137.477 157.094 137.477C154.116 137.477 151.48 136.773 149.185 135.364C146.901 133.943 145.111 131.903 143.815 129.244C142.52 126.574 141.872 123.352 141.872 119.58C141.872 115.818 142.52 112.597 143.815 109.915C145.111 107.233 146.901 105.182 149.185 103.761C151.48 102.33 154.116 101.614 157.094 101.614C158.923 101.614 160.616 101.886 162.173 102.432C163.73 102.977 165.139 103.761 166.401 104.784ZM185.564 137.767C182.632 137.756 180.109 137.034 177.996 135.602C175.893 134.17 174.274 132.097 173.138 129.381C172.013 126.665 171.456 123.398 171.467 119.58C171.467 115.773 172.03 112.528 173.155 109.847C174.291 107.165 175.911 105.125 178.013 103.727C180.126 102.318 182.643 101.614 185.564 101.614C188.484 101.614 190.996 102.318 193.098 103.727C195.212 105.136 196.837 107.182 197.973 109.864C199.109 112.534 199.672 115.773 199.661 119.58C199.661 123.409 199.092 126.682 197.956 129.398C196.831 132.114 195.217 134.187 193.115 135.619C191.013 137.051 188.496 137.767 185.564 137.767ZM185.564 131.648C187.564 131.648 189.161 130.642 190.354 128.631C191.547 126.619 192.138 123.602 192.126 119.58C192.126 116.932 191.854 114.727 191.308 112.966C190.774 111.205 190.013 109.881 189.024 108.994C188.047 108.108 186.893 107.665 185.564 107.665C183.575 107.665 181.984 108.659 180.791 110.648C179.598 112.636 178.996 115.614 178.984 119.58C178.984 122.261 179.251 124.5 179.786 126.295C180.331 128.08 181.098 129.42 182.087 130.318C183.075 131.205 184.234 131.648 185.564 131.648ZM211.477 132.227L211.29 134.102C211.142 135.602 210.858 137.097 210.438 138.585C210.028 140.085 209.597 141.443 209.142 142.659C208.699 143.875 208.341 144.83 208.068 145.523H203.364C203.534 144.852 203.767 143.915 204.062 142.71C204.358 141.517 204.636 140.176 204.898 138.688C205.159 137.199 205.324 135.682 205.392 134.136L205.477 132.227H211.477ZM230.33 137.767C227.398 137.756 224.875 137.034 222.761 135.602C220.659 134.17 219.04 132.097 217.903 129.381C216.778 126.665 216.222 123.398 216.233 119.58C216.233 115.773 216.795 112.528 217.92 109.847C219.057 107.165 220.676 105.125 222.778 103.727C224.892 102.318 227.409 101.614 230.33 101.614C233.25 101.614 235.761 102.318 237.864 103.727C239.977 105.136 241.602 107.182 242.739 109.864C243.875 112.534 244.438 115.773 244.426 119.58C244.426 123.409 243.858 126.682 242.722 129.398C241.597 132.114 239.983 134.187 237.881 135.619C235.778 137.051 233.261 137.767 230.33 137.767ZM230.33 131.648C232.33 131.648 233.926 130.642 235.119 128.631C236.313 126.619 236.903 123.602 236.892 119.58C236.892 116.932 236.619 114.727 236.074 112.966C235.54 111.205 234.778 109.881 233.79 108.994C232.812 108.108 231.659 107.665 230.33 107.665C228.341 107.665 226.75 108.659 225.557 110.648C224.364 112.636 223.761 115.614 223.75 119.58C223.75 122.261 224.017 124.5 224.551 126.295C225.097 128.08 225.864 129.42 226.852 130.318C227.841 131.205 229 131.648 230.33 131.648ZM263.376 137.767C260.445 137.756 257.922 137.034 255.808 135.602C253.706 134.17 252.087 132.097 250.95 129.381C249.825 126.665 249.268 123.398 249.28 119.58C249.28 115.773 249.842 112.528 250.967 109.847C252.104 107.165 253.723 105.125 255.825 103.727C257.939 102.318 260.456 101.614 263.376 101.614C266.297 101.614 268.808 102.318 270.911 103.727C273.024 105.136 274.649 107.182 275.786 109.864C276.922 112.534 277.484 115.773 277.473 119.58C277.473 123.409 276.905 126.682 275.768 129.398C274.643 132.114 273.03 134.187 270.928 135.619C268.825 137.051 266.308 137.767 263.376 137.767ZM263.376 131.648C265.376 131.648 266.973 130.642 268.166 128.631C269.359 126.619 269.95 123.602 269.939 119.58C269.939 116.932 269.666 114.727 269.121 112.966C268.587 111.205 267.825 109.881 266.837 108.994C265.859 108.108 264.706 107.665 263.376 107.665C261.388 107.665 259.797 108.659 258.604 110.648C257.411 112.636 256.808 115.614 256.797 119.58C256.797 122.261 257.064 124.5 257.598 126.295C258.143 128.08 258.911 129.42 259.899 130.318C260.888 131.205 262.047 131.648 263.376 131.648Z" fill="#2D2140"/>
<g filter="url(#filter1_d_3012_360)">
<path d="M207 260C223.569 260 237 246.569 237 230C237 213.431 223.569 200 207 200C190.431 200 177 213.431 177 230C177 246.569 190.431 260 207 260Z" fill="white"/>
<path d="M204.712 239.581V221.479H209.288V239.581H204.712ZM197.949 232.818V228.241H216.051V232.818H197.949Z" fill="black"/>
</g>
<path d="M175.847 300V286.909H178.615V292.31H184.233V286.909H186.994V300H184.233V294.592H178.615V300H175.847ZM189.225 300V290.182H191.948V300H189.225ZM190.593 288.916C190.188 288.916 189.841 288.782 189.551 288.513C189.266 288.241 189.123 287.915 189.123 287.536C189.123 287.161 189.266 286.839 189.551 286.57C189.841 286.298 190.188 286.161 190.593 286.161C190.998 286.161 191.343 286.298 191.629 286.57C191.919 286.839 192.063 287.161 192.063 287.536C192.063 287.915 191.919 288.241 191.629 288.513C191.343 288.782 190.998 288.916 190.593 288.916ZM202.299 292.982L199.806 293.135C199.763 292.922 199.672 292.73 199.531 292.56C199.39 292.385 199.205 292.246 198.975 292.144C198.749 292.038 198.478 291.984 198.163 291.984C197.741 291.984 197.385 292.074 197.096 292.253C196.806 292.428 196.661 292.662 196.661 292.956C196.661 293.19 196.755 293.388 196.942 293.55C197.13 293.712 197.451 293.842 197.907 293.94L199.684 294.298C200.639 294.494 201.35 294.81 201.819 295.244C202.288 295.679 202.522 296.25 202.522 296.957C202.522 297.601 202.333 298.165 201.953 298.651C201.578 299.137 201.063 299.516 200.407 299.789C199.755 300.058 199.002 300.192 198.15 300.192C196.85 300.192 195.815 299.921 195.044 299.38C194.277 298.835 193.827 298.093 193.695 297.156L196.373 297.015C196.454 297.411 196.65 297.714 196.961 297.923C197.272 298.127 197.671 298.229 198.157 298.229C198.634 298.229 199.017 298.138 199.307 297.955C199.601 297.767 199.75 297.526 199.755 297.232C199.75 296.985 199.646 296.783 199.441 296.625C199.237 296.463 198.922 296.339 198.495 296.254L196.795 295.915C195.836 295.724 195.123 295.391 194.654 294.918C194.189 294.445 193.957 293.842 193.957 293.109C193.957 292.479 194.127 291.935 194.468 291.479C194.814 291.023 195.297 290.672 195.919 290.425C196.546 290.178 197.279 290.054 198.118 290.054C199.358 290.054 200.334 290.316 201.046 290.84C201.762 291.364 202.179 292.078 202.299 292.982ZM209.459 290.182V292.227H203.547V290.182H209.459ZM204.889 287.83H207.612V296.983C207.612 297.234 207.65 297.43 207.727 297.571C207.804 297.707 207.91 297.803 208.047 297.859C208.187 297.914 208.349 297.942 208.532 297.942C208.66 297.942 208.788 297.931 208.916 297.91C209.044 297.884 209.142 297.865 209.21 297.852L209.638 299.879C209.502 299.921 209.31 299.97 209.063 300.026C208.816 300.085 208.515 300.121 208.162 300.134C207.506 300.16 206.93 300.072 206.436 299.872C205.946 299.672 205.564 299.361 205.292 298.939C205.019 298.517 204.885 297.984 204.889 297.341V287.83ZM215.564 300.192C214.571 300.192 213.712 299.981 212.988 299.559C212.268 299.133 211.711 298.54 211.319 297.782C210.927 297.019 210.731 296.135 210.731 295.129C210.731 294.115 210.927 293.229 211.319 292.47C211.711 291.707 212.268 291.115 212.988 290.693C213.712 290.267 214.571 290.054 215.564 290.054C216.557 290.054 217.413 290.267 218.133 290.693C218.858 291.115 219.416 291.707 219.808 292.47C220.2 293.229 220.396 294.115 220.396 295.129C220.396 296.135 220.2 297.019 219.808 297.782C219.416 298.54 218.858 299.133 218.133 299.559C217.413 299.981 216.557 300.192 215.564 300.192ZM215.577 298.082C216.028 298.082 216.405 297.955 216.708 297.699C217.01 297.439 217.238 297.085 217.392 296.638C217.55 296.19 217.628 295.681 217.628 295.11C217.628 294.539 217.55 294.03 217.392 293.582C217.238 293.135 217.01 292.781 216.708 292.521C216.405 292.261 216.028 292.131 215.577 292.131C215.121 292.131 214.737 292.261 214.426 292.521C214.119 292.781 213.887 293.135 213.729 293.582C213.576 294.03 213.499 294.539 213.499 295.11C213.499 295.681 213.576 296.19 213.729 296.638C213.887 297.085 214.119 297.439 214.426 297.699C214.737 297.955 215.121 298.082 215.577 298.082ZM222.167 300V290.182H224.807V291.895H224.909C225.088 291.286 225.388 290.825 225.81 290.514C226.232 290.199 226.718 290.041 227.268 290.041C227.404 290.041 227.551 290.05 227.709 290.067C227.866 290.084 228.005 290.107 228.124 290.137V292.553C227.996 292.515 227.819 292.481 227.594 292.451C227.368 292.421 227.161 292.406 226.974 292.406C226.573 292.406 226.215 292.494 225.9 292.668C225.589 292.839 225.341 293.077 225.158 293.384C224.979 293.691 224.89 294.045 224.89 294.445V300H222.167ZM231.512 303.682C231.167 303.682 230.843 303.654 230.54 303.599C230.242 303.548 229.995 303.482 229.799 303.401L230.412 301.368C230.732 301.466 231.02 301.519 231.275 301.528C231.535 301.536 231.759 301.477 231.947 301.349C232.138 301.221 232.294 301.004 232.413 300.697L232.573 300.281L229.051 290.182H231.915L233.947 297.392H234.05L236.101 290.182H238.984L235.168 301.061C234.985 301.589 234.736 302.05 234.42 302.442C234.109 302.838 233.715 303.143 233.238 303.356C232.76 303.573 232.185 303.682 231.512 303.682Z" fill="black"/>
<path d="M232 315H182V317H232V315Z" fill="#A0A0A0"/>
<g filter="url(#filter2_d_3012_360)">
<path d="M374 350H40C28.9543 350 20 358.954 20 370V480C20 491.046 28.9543 500 40 500H374C385.046 500 394 491.046 394 480V370C394 358.954 385.046 350 374 350Z" fill="white"/>
</g>
<path d="M157.816 418.364V430H156.452L150.112 420.864H149.998V430H148.589V418.364H149.952L156.316 427.523H156.43V418.364H157.816ZM163.999 430.182C163.211 430.182 162.52 429.994 161.925 429.619C161.335 429.244 160.872 428.72 160.539 428.045C160.21 427.371 160.045 426.583 160.045 425.682C160.045 424.773 160.21 423.979 160.539 423.301C160.872 422.623 161.335 422.097 161.925 421.722C162.52 421.347 163.211 421.159 163.999 421.159C164.787 421.159 165.477 421.347 166.067 421.722C166.662 422.097 167.124 422.623 167.454 423.301C167.787 423.979 167.954 424.773 167.954 425.682C167.954 426.583 167.787 427.371 167.454 428.045C167.124 428.72 166.662 429.244 166.067 429.619C165.477 429.994 164.787 430.182 163.999 430.182ZM163.999 428.977C164.598 428.977 165.09 428.824 165.477 428.517C165.863 428.21 166.149 427.807 166.335 427.307C166.52 426.807 166.613 426.265 166.613 425.682C166.613 425.098 166.52 424.555 166.335 424.051C166.149 423.547 165.863 423.14 165.477 422.83C165.09 422.519 164.598 422.364 163.999 422.364C163.401 422.364 162.908 422.519 162.522 422.83C162.136 423.14 161.85 423.547 161.664 424.051C161.478 424.555 161.386 425.098 161.386 425.682C161.386 426.265 161.478 426.807 161.664 427.307C161.85 427.807 162.136 428.21 162.522 428.517C162.908 428.824 163.401 428.977 163.999 428.977ZM174.501 430V421.273H175.842V430H174.501ZM175.183 419.818C174.921 419.818 174.696 419.729 174.506 419.551C174.321 419.373 174.228 419.159 174.228 418.909C174.228 418.659 174.321 418.445 174.506 418.267C174.696 418.089 174.921 418 175.183 418C175.444 418 175.667 418.089 175.853 418.267C176.042 418.445 176.137 418.659 176.137 418.909C176.137 419.159 176.042 419.373 175.853 419.551C175.667 419.729 175.444 419.818 175.183 419.818ZM182.093 421.273V422.409H177.57V421.273H182.093ZM178.888 419.182H180.229V427.5C180.229 427.879 180.284 428.163 180.394 428.352C180.508 428.538 180.652 428.663 180.826 428.727C181.004 428.788 181.192 428.818 181.388 428.818C181.536 428.818 181.657 428.811 181.752 428.795C181.847 428.777 181.923 428.761 181.979 428.75L182.252 429.955C182.161 429.989 182.034 430.023 181.871 430.057C181.709 430.095 181.502 430.114 181.252 430.114C180.873 430.114 180.502 430.032 180.138 429.869C179.779 429.706 179.479 429.458 179.241 429.125C179.006 428.792 178.888 428.371 178.888 427.864V419.182ZM187.675 430.182C186.835 430.182 186.109 429.996 185.499 429.625C184.893 429.25 184.425 428.727 184.096 428.057C183.77 427.383 183.607 426.598 183.607 425.705C183.607 424.811 183.77 424.023 184.096 423.341C184.425 422.655 184.884 422.121 185.471 421.739C186.062 421.352 186.751 421.159 187.539 421.159C187.994 421.159 188.442 421.235 188.886 421.386C189.329 421.538 189.732 421.784 190.096 422.125C190.46 422.462 190.749 422.909 190.965 423.466C191.181 424.023 191.289 424.708 191.289 425.523V426.091H184.562V424.932H189.925C189.925 424.439 189.827 424 189.63 423.614C189.437 423.227 189.16 422.922 188.8 422.699C188.444 422.475 188.024 422.364 187.539 422.364C187.005 422.364 186.543 422.496 186.153 422.761C185.766 423.023 185.469 423.364 185.261 423.784C185.052 424.205 184.948 424.655 184.948 425.136V425.909C184.948 426.568 185.062 427.127 185.289 427.585C185.52 428.04 185.84 428.386 186.249 428.625C186.658 428.86 187.134 428.977 187.675 428.977C188.028 428.977 188.346 428.928 188.63 428.83C188.918 428.727 189.166 428.576 189.374 428.375C189.583 428.17 189.744 427.917 189.857 427.614L191.153 427.977C191.016 428.417 190.787 428.803 190.465 429.136C190.143 429.466 189.746 429.723 189.272 429.909C188.799 430.091 188.266 430.182 187.675 430.182ZM193.329 430V421.273H194.624V422.636H194.738C194.92 422.17 195.213 421.809 195.619 421.551C196.024 421.29 196.511 421.159 197.079 421.159C197.655 421.159 198.134 421.29 198.516 421.551C198.903 421.809 199.204 422.17 199.42 422.636H199.511C199.734 422.186 200.069 421.828 200.516 421.562C200.963 421.294 201.499 421.159 202.124 421.159C202.905 421.159 203.543 421.403 204.039 421.892C204.535 422.377 204.783 423.133 204.783 424.159V430H203.442V424.159C203.442 423.515 203.266 423.055 202.914 422.778C202.562 422.502 202.147 422.364 201.67 422.364C201.056 422.364 200.581 422.549 200.244 422.92C199.906 423.288 199.738 423.754 199.738 424.318V430H198.374V424.023C198.374 423.527 198.213 423.127 197.891 422.824C197.569 422.517 197.155 422.364 196.647 422.364C196.299 422.364 195.973 422.456 195.67 422.642C195.371 422.828 195.128 423.085 194.942 423.415C194.761 423.741 194.67 424.117 194.67 424.545V430H193.329ZM213.417 423.227L212.212 423.568C212.137 423.367 212.025 423.172 211.877 422.983C211.733 422.79 211.536 422.631 211.286 422.506C211.036 422.381 210.716 422.318 210.326 422.318C209.792 422.318 209.347 422.441 208.991 422.688C208.638 422.93 208.462 423.239 208.462 423.614C208.462 423.947 208.584 424.21 208.826 424.403C209.068 424.597 209.447 424.758 209.962 424.886L211.258 425.205C212.038 425.394 212.62 425.684 213.002 426.074C213.385 426.46 213.576 426.958 213.576 427.568C213.576 428.068 213.432 428.515 213.144 428.909C212.86 429.303 212.462 429.614 211.951 429.841C211.44 430.068 210.845 430.182 210.167 430.182C209.277 430.182 208.54 429.989 207.957 429.602C207.373 429.216 207.004 428.652 206.849 427.909L208.121 427.591C208.243 428.061 208.472 428.413 208.809 428.648C209.15 428.883 209.595 429 210.144 429C210.769 429 211.265 428.867 211.633 428.602C212.004 428.333 212.19 428.011 212.19 427.636C212.19 427.333 212.084 427.08 211.871 426.875C211.659 426.667 211.334 426.511 210.894 426.409L209.44 426.068C208.64 425.879 208.053 425.585 207.678 425.188C207.307 424.786 207.121 424.284 207.121 423.682C207.121 423.189 207.26 422.754 207.536 422.375C207.817 421.996 208.197 421.699 208.678 421.483C209.163 421.267 209.712 421.159 210.326 421.159C211.19 421.159 211.868 421.348 212.36 421.727C212.856 422.106 213.209 422.606 213.417 423.227ZM223.981 421.273V422.409H219.276V421.273H223.981ZM220.685 430V420.068C220.685 419.568 220.803 419.152 221.038 418.818C221.272 418.485 221.577 418.235 221.952 418.068C222.327 417.902 222.723 417.818 223.14 417.818C223.469 417.818 223.738 417.845 223.947 417.898C224.155 417.951 224.31 418 224.413 418.045L224.026 419.205C223.958 419.182 223.863 419.153 223.742 419.119C223.625 419.085 223.469 419.068 223.276 419.068C222.833 419.068 222.513 419.18 222.316 419.403C222.123 419.627 222.026 419.955 222.026 420.386V430H220.685ZM229.046 430.182C228.258 430.182 227.567 429.994 226.972 429.619C226.381 429.244 225.919 428.72 225.586 428.045C225.256 427.371 225.092 426.583 225.092 425.682C225.092 424.773 225.256 423.979 225.586 423.301C225.919 422.623 226.381 422.097 226.972 421.722C227.567 421.347 228.258 421.159 229.046 421.159C229.834 421.159 230.523 421.347 231.114 421.722C231.709 422.097 232.171 422.623 232.501 423.301C232.834 423.979 233.001 424.773 233.001 425.682C233.001 426.583 232.834 427.371 232.501 428.045C232.171 428.72 231.709 429.244 231.114 429.619C230.523 429.994 229.834 430.182 229.046 430.182ZM229.046 428.977C229.645 428.977 230.137 428.824 230.523 428.517C230.91 428.21 231.196 427.807 231.381 427.307C231.567 426.807 231.66 426.265 231.66 425.682C231.66 425.098 231.567 424.555 231.381 424.051C231.196 423.547 230.91 423.14 230.523 422.83C230.137 422.519 229.645 422.364 229.046 422.364C228.448 422.364 227.955 422.519 227.569 422.83C227.183 423.14 226.897 423.547 226.711 424.051C226.525 424.555 226.433 425.098 226.433 425.682C226.433 426.265 226.525 426.807 226.711 427.307C226.897 427.807 227.183 428.21 227.569 428.517C227.955 428.824 228.448 428.977 229.046 428.977ZM240.548 426.432V421.273H241.888V430H240.548V428.523H240.457C240.252 428.966 239.934 429.343 239.502 429.653C239.07 429.96 238.525 430.114 237.866 430.114C237.32 430.114 236.835 429.994 236.411 429.756C235.987 429.513 235.654 429.15 235.411 428.665C235.169 428.176 235.048 427.561 235.048 426.818V421.273H236.388V426.727C236.388 427.364 236.567 427.871 236.923 428.25C237.282 428.629 237.741 428.818 238.298 428.818C238.631 428.818 238.97 428.733 239.315 428.562C239.663 428.392 239.955 428.131 240.19 427.778C240.428 427.426 240.548 426.977 240.548 426.432ZM245.685 424.75V430H244.344V421.273H245.64V422.636H245.754C245.958 422.193 246.269 421.837 246.685 421.568C247.102 421.295 247.64 421.159 248.299 421.159C248.89 421.159 249.407 421.28 249.85 421.523C250.293 421.761 250.638 422.125 250.884 422.614C251.13 423.098 251.254 423.712 251.254 424.455V430H249.913V424.545C249.913 423.86 249.735 423.326 249.379 422.943C249.022 422.557 248.534 422.364 247.913 422.364C247.485 422.364 247.102 422.456 246.765 422.642C246.432 422.828 246.168 423.098 245.975 423.455C245.782 423.811 245.685 424.242 245.685 424.75ZM256.999 430.182C256.272 430.182 255.63 429.998 255.073 429.631C254.516 429.259 254.081 428.737 253.766 428.062C253.452 427.384 253.295 426.583 253.295 425.659C253.295 424.742 253.452 423.947 253.766 423.273C254.081 422.598 254.518 422.078 255.079 421.71C255.639 421.343 256.287 421.159 257.022 421.159C257.59 421.159 258.039 421.254 258.369 421.443C258.702 421.629 258.956 421.841 259.13 422.08C259.308 422.314 259.446 422.508 259.545 422.659H259.658V418.364H260.999V430H259.704V428.659H259.545C259.446 428.818 259.306 429.019 259.124 429.261C258.942 429.5 258.683 429.714 258.346 429.903C258.009 430.089 257.56 430.182 256.999 430.182ZM257.181 428.977C257.719 428.977 258.174 428.837 258.545 428.557C258.916 428.273 259.198 427.881 259.391 427.381C259.585 426.877 259.681 426.295 259.681 425.636C259.681 424.985 259.586 424.415 259.397 423.926C259.208 423.434 258.927 423.051 258.556 422.778C258.185 422.502 257.727 422.364 257.181 422.364C256.613 422.364 256.139 422.509 255.761 422.801C255.386 423.089 255.103 423.481 254.914 423.977C254.728 424.47 254.636 425.023 254.636 425.636C254.636 426.258 254.73 426.822 254.92 427.33C255.113 427.833 255.397 428.235 255.772 428.534C256.151 428.83 256.621 428.977 257.181 428.977ZM264.619 430.091C264.338 430.091 264.098 429.991 263.897 429.79C263.696 429.589 263.596 429.348 263.596 429.068C263.596 428.788 263.696 428.547 263.897 428.347C264.098 428.146 264.338 428.045 264.619 428.045C264.899 428.045 265.139 428.146 265.34 428.347C265.541 428.547 265.641 428.788 265.641 429.068C265.641 429.254 265.594 429.424 265.499 429.58C265.408 429.735 265.285 429.86 265.13 429.955C264.978 430.045 264.808 430.091 264.619 430.091Z" fill="#888888"/>
<path d="M72.5 83C87.6878 83 100 70.6878 100 55.5C100 40.3122 87.6878 28 72.5 28C57.3122 28 45 40.3122 45 55.5C45 70.6878 57.3122 83 72.5 83Z" fill="#2C167A"/>
<path d="M389 800H27C12.6406 800 1 811.641 1 826V870C1 884.359 12.6406 896 27 896H389C403.359 896 415 884.359 415 870V826C415 811.641 403.359 800 389 800Z" fill="white"/>
<path d="M44 853C55.0457 853 64 844.046 64 833C64 821.954 55.0457 813 44 813C32.9543 813 24 821.954 24 833C24 844.046 32.9543 853 44 853Z" fill="#E0F2F1"/>
<path d="M126 850C137.046 850 146 841.046 146 830C146 818.954 137.046 810 126 810C114.954 810 106 818.954 106 830C106 841.046 114.954 850 126 850Z" fill="#F8F9FA"/>
<path d="M375 850C386.046 850 395 841.046 395 830C395 818.954 386.046 810 375 810C363.954 810 355 818.954 355 830C355 841.046 363.954 850 375 850Z" fill="#F8F9FA"/>
<path d="M215 850C226.046 850 235 841.046 235 830C235 818.954 226.046 810 215 810C203.954 810 195 818.954 195 830C195 841.046 203.954 850 215 850Z" fill="#F8F9FA"/>
<path d="M116.182 866.273H117.443L120.409 873.517H120.511L123.477 866.273H124.739V875H123.75V868.369H123.665L120.938 875H119.983L117.256 868.369H117.17V875H116.182V866.273ZM128.647 875.153C128.233 875.153 127.856 875.075 127.518 874.919C127.18 874.76 126.912 874.531 126.713 874.233C126.514 873.932 126.414 873.568 126.414 873.142C126.414 872.767 126.488 872.463 126.636 872.23C126.784 871.994 126.981 871.81 127.228 871.676C127.475 871.543 127.748 871.443 128.047 871.378C128.348 871.31 128.65 871.256 128.954 871.216C129.352 871.165 129.674 871.126 129.922 871.101C130.172 871.072 130.353 871.026 130.467 870.96C130.583 870.895 130.642 870.781 130.642 870.619V870.585C130.642 870.165 130.527 869.838 130.297 869.605C130.069 869.372 129.724 869.256 129.261 869.256C128.781 869.256 128.404 869.361 128.132 869.571C127.859 869.781 127.667 870.006 127.556 870.244L126.602 869.903C126.772 869.506 127 869.196 127.284 868.974C127.571 868.75 127.883 868.594 128.221 868.506C128.562 868.415 128.897 868.369 129.227 868.369C129.437 868.369 129.679 868.395 129.951 868.446C130.227 868.494 130.493 868.595 130.748 868.749C131.007 868.902 131.221 869.134 131.392 869.443C131.562 869.753 131.647 870.168 131.647 870.688V875H130.642V874.114H130.591C130.522 874.256 130.409 874.408 130.25 874.57C130.091 874.732 129.879 874.869 129.615 874.983C129.35 875.097 129.028 875.153 128.647 875.153ZM128.801 874.25C129.199 874.25 129.534 874.172 129.806 874.016C130.082 873.859 130.289 873.658 130.429 873.411C130.571 873.163 130.642 872.903 130.642 872.631V871.71C130.599 871.761 130.505 871.808 130.36 871.851C130.218 871.891 130.054 871.926 129.866 871.957C129.681 871.986 129.501 872.011 129.325 872.034C129.152 872.054 129.011 872.071 128.903 872.085C128.642 872.119 128.397 872.175 128.17 872.251C127.946 872.325 127.764 872.437 127.625 872.588C127.488 872.736 127.42 872.937 127.42 873.193C127.42 873.543 127.549 873.807 127.808 873.986C128.069 874.162 128.4 874.25 128.801 874.25ZM133.483 877.455V868.455H134.455V869.494H134.574C134.648 869.381 134.75 869.236 134.881 869.06C135.014 868.881 135.205 868.722 135.452 868.582C135.702 868.44 136.04 868.369 136.466 868.369C137.017 868.369 137.503 868.507 137.923 868.783C138.344 869.058 138.672 869.449 138.908 869.955C139.143 870.46 139.261 871.057 139.261 871.744C139.261 872.438 139.143 873.038 138.908 873.547C138.672 874.053 138.345 874.445 137.928 874.723C137.51 874.999 137.028 875.136 136.483 875.136C136.063 875.136 135.726 875.067 135.473 874.928C135.22 874.786 135.026 874.625 134.889 874.446C134.753 874.264 134.648 874.114 134.574 873.994H134.489V877.455H133.483ZM134.472 871.727C134.472 872.222 134.544 872.658 134.689 873.036C134.834 873.411 135.045 873.705 135.324 873.918C135.602 874.128 135.943 874.233 136.347 874.233C136.767 874.233 137.118 874.122 137.399 873.901C137.683 873.676 137.896 873.375 138.038 872.997C138.183 872.616 138.256 872.193 138.256 871.727C138.256 871.267 138.185 870.852 138.043 870.483C137.903 870.111 137.692 869.817 137.408 869.601C137.126 869.382 136.773 869.273 136.347 869.273C135.938 869.273 135.594 869.376 135.315 869.584C135.037 869.788 134.827 870.075 134.685 870.445C134.543 870.811 134.472 871.239 134.472 871.727Z" fill="#A0A0A0"/>
<path d="M206.222 868.455C206.171 868.023 205.964 867.688 205.6 867.449C205.236 867.21 204.79 867.091 204.262 867.091C203.876 867.091 203.537 867.153 203.248 867.278C202.961 867.403 202.736 867.575 202.574 867.794C202.415 868.013 202.336 868.261 202.336 868.54C202.336 868.773 202.391 868.973 202.502 869.141C202.616 869.305 202.76 869.443 202.937 869.554C203.113 869.662 203.297 869.751 203.491 869.822C203.684 869.891 203.861 869.946 204.023 869.989L204.91 870.227C205.137 870.287 205.39 870.369 205.668 870.474C205.949 870.58 206.218 870.723 206.474 870.905C206.732 871.084 206.945 871.314 207.113 871.595C207.28 871.876 207.364 872.222 207.364 872.631C207.364 873.102 207.241 873.528 206.993 873.909C206.749 874.29 206.391 874.592 205.92 874.817C205.451 875.041 204.881 875.153 204.211 875.153C203.586 875.153 203.045 875.053 202.587 874.851C202.133 874.649 201.775 874.368 201.513 874.007C201.255 873.646 201.108 873.227 201.074 872.75H202.165C202.194 873.08 202.305 873.352 202.498 873.568C202.694 873.781 202.941 873.94 203.239 874.045C203.54 874.148 203.864 874.199 204.211 874.199C204.614 874.199 204.976 874.134 205.297 874.003C205.618 873.869 205.873 873.685 206.06 873.449C206.248 873.21 206.341 872.932 206.341 872.614C206.341 872.324 206.26 872.088 206.099 871.906C205.937 871.724 205.724 871.577 205.459 871.463C205.195 871.349 204.91 871.25 204.603 871.165L203.529 870.858C202.847 870.662 202.307 870.382 201.91 870.018C201.512 869.655 201.313 869.179 201.313 868.591C201.313 868.102 201.445 867.676 201.709 867.312C201.976 866.946 202.334 866.662 202.783 866.46C203.235 866.256 203.739 866.153 204.296 866.153C204.858 866.153 205.358 866.254 205.796 866.456C206.233 866.655 206.58 866.928 206.836 867.274C207.094 867.621 207.231 868.014 207.245 868.455H206.222ZM209.971 871.062V875H208.965V866.273H209.971V869.477H210.056C210.21 869.139 210.44 868.871 210.747 868.672C211.056 868.47 211.468 868.369 211.982 868.369C212.428 868.369 212.819 868.459 213.154 868.638C213.49 868.814 213.749 869.085 213.934 869.452C214.122 869.815 214.215 870.278 214.215 870.841V875H213.21V870.909C213.21 870.389 213.075 869.987 212.805 869.703C212.538 869.416 212.167 869.273 211.693 869.273C211.363 869.273 211.068 869.342 210.806 869.482C210.548 869.621 210.343 869.824 210.193 870.091C210.045 870.358 209.971 870.682 209.971 871.062ZM218.714 875.136C218.123 875.136 217.605 874.996 217.159 874.714C216.716 874.433 216.369 874.04 216.119 873.534C215.872 873.028 215.748 872.437 215.748 871.761C215.748 871.08 215.872 870.484 216.119 869.976C216.369 869.467 216.716 869.072 217.159 868.791C217.605 868.51 218.123 868.369 218.714 868.369C219.305 868.369 219.822 868.51 220.265 868.791C220.711 869.072 221.058 869.467 221.305 869.976C221.555 870.484 221.68 871.08 221.68 871.761C221.68 872.437 221.555 873.028 221.305 873.534C221.058 874.04 220.711 874.433 220.265 874.714C219.822 874.996 219.305 875.136 218.714 875.136ZM218.714 874.233C219.163 874.233 219.532 874.118 219.822 873.888C220.112 873.658 220.327 873.355 220.466 872.98C220.605 872.605 220.675 872.199 220.675 871.761C220.675 871.324 220.605 870.916 220.466 870.538C220.327 870.161 220.112 869.855 219.822 869.622C219.532 869.389 219.163 869.273 218.714 869.273C218.265 869.273 217.896 869.389 217.606 869.622C217.317 869.855 217.102 870.161 216.963 870.538C216.824 870.916 216.754 871.324 216.754 871.761C216.754 872.199 216.824 872.605 216.963 872.98C217.102 873.355 217.317 873.658 217.606 873.888C217.896 874.118 218.265 874.233 218.714 874.233ZM223.215 877.455V868.455H224.187V869.494H224.306C224.38 869.381 224.482 869.236 224.613 869.06C224.747 868.881 224.937 868.722 225.184 868.582C225.434 868.44 225.772 868.369 226.198 868.369C226.749 868.369 227.235 868.507 227.656 868.783C228.076 869.058 228.404 869.449 228.64 869.955C228.876 870.46 228.994 871.057 228.994 871.744C228.994 872.438 228.876 873.038 228.64 873.547C228.404 874.053 228.078 874.445 227.66 874.723C227.242 874.999 226.761 875.136 226.215 875.136C225.795 875.136 225.458 875.067 225.205 874.928C224.953 874.786 224.758 874.625 224.622 874.446C224.485 874.264 224.38 874.114 224.306 873.994H224.221V877.455H223.215ZM224.204 871.727C224.204 872.222 224.276 872.658 224.421 873.036C224.566 873.411 224.778 873.705 225.056 873.918C225.335 874.128 225.676 874.233 226.079 874.233C226.499 874.233 226.85 874.122 227.132 873.901C227.416 873.676 227.629 873.375 227.771 872.997C227.916 872.616 227.988 872.193 227.988 871.727C227.988 871.267 227.917 870.852 227.775 870.483C227.636 870.111 227.424 869.817 227.14 869.601C226.859 869.382 226.505 869.273 226.079 869.273C225.67 869.273 225.326 869.376 225.048 869.584C224.769 869.788 224.559 870.075 224.417 870.445C224.275 870.811 224.204 871.239 224.204 871.727Z" fill="#A0A0A0"/>
<path d="M281.078 869.21V868.273H287.623V869.21H284.879V877H283.822V869.21H281.078ZM289.118 877V870.455H290.123V877H289.118ZM289.629 869.364C289.433 869.364 289.264 869.297 289.122 869.163C288.983 869.03 288.913 868.869 288.913 868.682C288.913 868.494 288.983 868.334 289.122 868.2C289.264 868.067 289.433 868 289.629 868C289.825 868 289.993 868.067 290.132 868.2C290.274 868.334 290.345 868.494 290.345 868.682C290.345 868.869 290.274 869.03 290.132 869.163C289.993 869.297 289.825 869.364 289.629 869.364ZM294.624 877.136C294.011 877.136 293.482 876.991 293.039 876.702C292.596 876.412 292.255 876.013 292.017 875.504C291.778 874.996 291.659 874.415 291.659 873.761C291.659 873.097 291.781 872.51 292.025 872.001C292.272 871.49 292.616 871.091 293.056 870.804C293.499 870.514 294.017 870.369 294.607 870.369C295.068 870.369 295.482 870.455 295.852 870.625C296.221 870.795 296.524 871.034 296.759 871.341C296.995 871.648 297.142 872.006 297.198 872.415H296.193C296.116 872.116 295.945 871.852 295.681 871.622C295.42 871.389 295.068 871.273 294.624 871.273C294.232 871.273 293.889 871.375 293.593 871.58C293.301 871.781 293.072 872.067 292.907 872.436C292.745 872.803 292.664 873.233 292.664 873.727C292.664 874.233 292.744 874.673 292.903 875.048C293.065 875.423 293.292 875.714 293.585 875.922C293.88 876.129 294.227 876.233 294.624 876.233C294.886 876.233 295.123 876.188 295.336 876.097C295.549 876.006 295.73 875.875 295.877 875.705C296.025 875.534 296.13 875.33 296.193 875.091H297.198C297.142 875.477 297.001 875.825 296.776 876.135C296.555 876.442 296.261 876.686 295.894 876.868C295.531 877.047 295.107 877.136 294.624 877.136ZM299.606 874.614L299.589 873.369H299.794L302.657 870.455H303.901L300.85 873.54H300.765L299.606 874.614ZM298.669 877V868.273H299.674V877H298.669ZM302.828 877L300.271 873.761L300.987 873.062L304.106 877H302.828ZM307.671 877.136C307.04 877.136 306.496 876.997 306.039 876.719C305.584 876.438 305.233 876.045 304.986 875.543C304.742 875.037 304.619 874.449 304.619 873.778C304.619 873.108 304.742 872.517 304.986 872.006C305.233 871.491 305.577 871.091 306.017 870.804C306.46 870.514 306.977 870.369 307.568 870.369C307.909 870.369 308.246 870.426 308.578 870.54C308.911 870.653 309.213 870.838 309.486 871.094C309.759 871.347 309.976 871.682 310.138 872.099C310.3 872.517 310.381 873.031 310.381 873.642V874.068H305.335V873.199H309.358C309.358 872.83 309.284 872.5 309.137 872.21C308.992 871.92 308.784 871.692 308.514 871.524C308.247 871.357 307.932 871.273 307.568 871.273C307.168 871.273 306.821 871.372 306.529 871.571C306.239 871.767 306.016 872.023 305.86 872.338C305.703 872.653 305.625 872.991 305.625 873.352V873.932C305.625 874.426 305.71 874.845 305.881 875.189C306.054 875.53 306.294 875.79 306.601 875.969C306.908 876.145 307.264 876.233 307.671 876.233C307.935 876.233 308.173 876.196 308.387 876.122C308.602 876.045 308.789 875.932 308.945 875.781C309.101 875.628 309.222 875.437 309.307 875.21L310.279 875.483C310.176 875.812 310.004 876.102 309.763 876.352C309.521 876.599 309.223 876.793 308.868 876.932C308.513 877.068 308.114 877.136 307.671 877.136ZM314.757 870.455V871.307H311.365V870.455H314.757ZM312.354 868.886H313.36V875.125C313.36 875.409 313.401 875.622 313.483 875.764C313.568 875.903 313.676 875.997 313.807 876.045C313.941 876.091 314.081 876.114 314.229 876.114C314.34 876.114 314.431 876.108 314.502 876.097C314.573 876.082 314.629 876.071 314.672 876.062L314.877 876.966C314.808 876.991 314.713 877.017 314.591 877.043C314.469 877.071 314.314 877.085 314.127 877.085C313.843 877.085 313.564 877.024 313.291 876.902C313.021 876.78 312.797 876.594 312.618 876.344C312.442 876.094 312.354 875.778 312.354 875.398V868.886ZM320.789 871.92L319.886 872.176C319.829 872.026 319.745 871.879 319.634 871.737C319.526 871.592 319.379 871.473 319.191 871.379C319.004 871.286 318.764 871.239 318.471 871.239C318.07 871.239 317.737 871.331 317.47 871.516C317.205 871.697 317.073 871.929 317.073 872.21C317.073 872.46 317.164 872.658 317.346 872.803C317.528 872.947 317.812 873.068 318.198 873.165L319.17 873.403C319.755 873.545 320.191 873.763 320.478 874.055C320.765 874.345 320.909 874.719 320.909 875.176C320.909 875.551 320.801 875.886 320.585 876.182C320.372 876.477 320.073 876.71 319.69 876.881C319.306 877.051 318.86 877.136 318.352 877.136C317.684 877.136 317.132 876.991 316.694 876.702C316.257 876.412 315.98 875.989 315.863 875.432L316.818 875.193C316.909 875.545 317.08 875.81 317.333 875.986C317.589 876.162 317.923 876.25 318.335 876.25C318.803 876.25 319.176 876.151 319.451 875.952C319.73 875.75 319.869 875.509 319.869 875.227C319.869 875 319.789 874.81 319.63 874.656C319.471 874.5 319.227 874.384 318.897 874.307L317.806 874.051C317.207 873.909 316.767 873.689 316.485 873.391C316.207 873.089 316.068 872.713 316.068 872.261C316.068 871.892 316.171 871.565 316.379 871.281C316.589 870.997 316.874 870.774 317.235 870.612C317.599 870.45 318.011 870.369 318.471 870.369C319.119 870.369 319.627 870.511 319.997 870.795C320.369 871.08 320.633 871.455 320.789 871.92Z" fill="#A0A0A0"/>
<path d="M357.927 870.455C357.876 870.023 357.669 869.688 357.305 869.449C356.941 869.21 356.495 869.091 355.967 869.091C355.581 869.091 355.243 869.153 354.953 869.278C354.666 869.403 354.441 869.575 354.279 869.794C354.12 870.013 354.041 870.261 354.041 870.54C354.041 870.773 354.096 870.973 354.207 871.141C354.321 871.305 354.466 871.443 354.642 871.554C354.818 871.662 355.002 871.751 355.196 871.822C355.389 871.891 355.566 871.946 355.728 871.989L356.615 872.227C356.842 872.287 357.095 872.369 357.373 872.474C357.654 872.58 357.923 872.723 358.179 872.905C358.437 873.084 358.65 873.314 358.818 873.595C358.985 873.876 359.069 874.222 359.069 874.631C359.069 875.102 358.946 875.528 358.699 875.909C358.454 876.29 358.096 876.592 357.625 876.817C357.156 877.041 356.586 877.153 355.916 877.153C355.291 877.153 354.75 877.053 354.292 876.851C353.838 876.649 353.48 876.368 353.218 876.007C352.96 875.646 352.814 875.227 352.779 874.75H353.87C353.899 875.08 354.01 875.352 354.203 875.568C354.399 875.781 354.646 875.94 354.944 876.045C355.245 876.148 355.569 876.199 355.916 876.199C356.319 876.199 356.681 876.134 357.002 876.003C357.324 875.869 357.578 875.685 357.765 875.449C357.953 875.21 358.047 874.932 358.047 874.614C358.047 874.324 357.966 874.088 357.804 873.906C357.642 873.724 357.429 873.577 357.164 873.463C356.9 873.349 356.615 873.25 356.308 873.165L355.234 872.858C354.552 872.662 354.012 872.382 353.615 872.018C353.217 871.655 353.018 871.179 353.018 870.591C353.018 870.102 353.15 869.676 353.414 869.312C353.681 868.946 354.039 868.662 354.488 868.46C354.94 868.256 355.444 868.153 356.001 868.153C356.564 868.153 357.064 868.254 357.501 868.456C357.939 868.655 358.285 868.928 358.541 869.274C358.799 869.621 358.936 870.014 358.95 870.455H357.927ZM363.415 877.136C362.784 877.136 362.24 876.997 361.783 876.719C361.328 876.438 360.977 876.045 360.73 875.543C360.486 875.037 360.364 874.449 360.364 873.778C360.364 873.108 360.486 872.517 360.73 872.006C360.977 871.491 361.321 871.091 361.761 870.804C362.205 870.514 362.722 870.369 363.312 870.369C363.653 870.369 363.99 870.426 364.322 870.54C364.655 870.653 364.957 870.838 365.23 871.094C365.503 871.347 365.72 871.682 365.882 872.099C366.044 872.517 366.125 873.031 366.125 873.642V874.068H361.08V873.199H365.102C365.102 872.83 365.028 872.5 364.881 872.21C364.736 871.92 364.528 871.692 364.259 871.524C363.991 871.357 363.676 871.273 363.312 871.273C362.912 871.273 362.565 871.372 362.273 871.571C361.983 871.767 361.76 872.023 361.604 872.338C361.447 872.653 361.369 872.991 361.369 873.352V873.932C361.369 874.426 361.455 874.845 361.625 875.189C361.798 875.53 362.038 875.79 362.345 875.969C362.652 876.145 363.009 876.233 363.415 876.233C363.679 876.233 363.918 876.196 364.131 876.122C364.347 876.045 364.533 875.932 364.689 875.781C364.845 875.628 364.966 875.437 365.051 875.21L366.023 875.483C365.92 875.812 365.749 876.102 365.507 876.352C365.266 876.599 364.967 876.793 364.612 876.932C364.257 877.068 363.858 877.136 363.415 877.136ZM370.501 870.455V871.307H367.109V870.455H370.501ZM368.098 868.886H369.104V875.125C369.104 875.409 369.145 875.622 369.227 875.764C369.313 875.903 369.42 875.997 369.551 876.045C369.685 876.091 369.825 876.114 369.973 876.114C370.084 876.114 370.175 876.108 370.246 876.097C370.317 876.082 370.374 876.071 370.416 876.062L370.621 876.966C370.553 876.991 370.457 877.017 370.335 877.043C370.213 877.071 370.058 877.085 369.871 877.085C369.587 877.085 369.308 877.024 369.036 876.902C368.766 876.78 368.541 876.594 368.362 876.344C368.186 876.094 368.098 875.778 368.098 875.398V868.886ZM374.861 870.455V871.307H371.469V870.455H374.861ZM372.457 868.886H373.463V875.125C373.463 875.409 373.504 875.622 373.587 875.764C373.672 875.903 373.78 875.997 373.911 876.045C374.044 876.091 374.185 876.114 374.332 876.114C374.443 876.114 374.534 876.108 374.605 876.097C374.676 876.082 374.733 876.071 374.776 876.062L374.98 876.966C374.912 876.991 374.817 877.017 374.695 877.043C374.572 877.071 374.418 877.085 374.23 877.085C373.946 877.085 373.668 877.024 373.395 876.902C373.125 876.78 372.901 876.594 372.722 876.344C372.545 876.094 372.457 875.778 372.457 875.398V868.886ZM376.374 877V870.455H377.379V877H376.374ZM376.885 869.364C376.689 869.364 376.52 869.297 376.378 869.163C376.239 869.03 376.169 868.869 376.169 868.682C376.169 868.494 376.239 868.334 376.378 868.2C376.52 868.067 376.689 868 376.885 868C377.081 868 377.249 868.067 377.388 868.2C377.53 868.334 377.601 868.494 377.601 868.682C377.601 868.869 377.53 869.03 377.388 869.163C377.249 869.297 377.081 869.364 376.885 869.364ZM380.227 873.062V877H379.221V870.455H380.193V871.477H380.278C380.431 871.145 380.664 870.878 380.977 870.676C381.289 870.472 381.693 870.369 382.187 870.369C382.63 870.369 383.018 870.46 383.35 870.642C383.683 870.821 383.941 871.094 384.126 871.46C384.311 871.824 384.403 872.284 384.403 872.841V877H383.397V872.909C383.397 872.395 383.264 871.994 382.997 871.707C382.73 871.418 382.363 871.273 381.897 871.273C381.576 871.273 381.289 871.342 381.037 871.482C380.787 871.621 380.589 871.824 380.444 872.091C380.299 872.358 380.227 872.682 380.227 873.062ZM388.883 879.591C388.397 879.591 387.979 879.528 387.63 879.403C387.281 879.281 386.989 879.119 386.756 878.918C386.526 878.719 386.343 878.506 386.207 878.278L387.008 877.716C387.099 877.835 387.214 877.972 387.353 878.125C387.492 878.281 387.683 878.416 387.924 878.53C388.168 878.646 388.488 878.705 388.883 878.705C389.411 878.705 389.847 878.577 390.191 878.321C390.535 878.065 390.707 877.665 390.707 877.119V875.79H390.621C390.548 875.909 390.442 876.057 390.306 876.233C390.173 876.406 389.979 876.561 389.727 876.697C389.477 876.831 389.138 876.898 388.712 876.898C388.184 876.898 387.71 876.773 387.289 876.523C386.871 876.273 386.54 875.909 386.296 875.432C386.055 874.955 385.934 874.375 385.934 873.693C385.934 873.023 386.052 872.439 386.288 871.942C386.523 871.442 386.852 871.055 387.272 870.783C387.692 870.507 388.178 870.369 388.729 870.369C389.156 870.369 389.494 870.44 389.744 870.582C389.996 870.722 390.19 870.881 390.323 871.06C390.46 871.236 390.565 871.381 390.638 871.494H390.741V870.455H391.712V877.188C391.712 877.75 391.585 878.207 391.329 878.56C391.076 878.915 390.735 879.175 390.306 879.339C389.88 879.507 389.406 879.591 388.883 879.591ZM388.849 875.994C389.252 875.994 389.593 875.902 389.871 875.717C390.15 875.533 390.362 875.267 390.506 874.92C390.651 874.574 390.724 874.159 390.724 873.676C390.724 873.205 390.653 872.788 390.511 872.428C390.369 872.067 390.158 871.784 389.88 871.58C389.602 871.375 389.258 871.273 388.849 871.273C388.423 871.273 388.067 871.381 387.783 871.597C387.502 871.812 387.29 872.102 387.148 872.466C387.009 872.83 386.94 873.233 386.94 873.676C386.94 874.131 387.011 874.533 387.153 874.882C387.298 875.229 387.511 875.501 387.792 875.7C388.076 875.896 388.428 875.994 388.849 875.994ZM398.19 871.92L397.286 872.176C397.229 872.026 397.146 871.879 397.035 871.737C396.927 871.592 396.779 871.473 396.592 871.379C396.404 871.286 396.164 871.239 395.871 871.239C395.471 871.239 395.137 871.331 394.87 871.516C394.606 871.697 394.474 871.929 394.474 872.21C394.474 872.46 394.565 872.658 394.746 872.803C394.928 872.947 395.212 873.068 395.599 873.165L396.57 873.403C397.156 873.545 397.592 873.763 397.879 874.055C398.165 874.345 398.309 874.719 398.309 875.176C398.309 875.551 398.201 875.886 397.985 876.182C397.772 876.477 397.474 876.71 397.09 876.881C396.707 877.051 396.261 877.136 395.752 877.136C395.085 877.136 394.532 876.991 394.094 876.702C393.657 876.412 393.38 875.989 393.263 875.432L394.218 875.193C394.309 875.545 394.481 875.81 394.734 875.986C394.989 876.162 395.323 876.25 395.735 876.25C396.204 876.25 396.576 876.151 396.852 875.952C397.13 875.75 397.269 875.509 397.269 875.227C397.269 875 397.19 874.81 397.031 874.656C396.871 874.5 396.627 874.384 396.298 874.307L395.207 874.051C394.607 873.909 394.167 873.689 393.886 873.391C393.607 873.089 393.468 872.713 393.468 872.261C393.468 871.892 393.572 871.565 393.779 871.281C393.989 870.997 394.275 870.774 394.636 870.612C394.999 870.45 395.411 870.369 395.871 870.369C396.519 870.369 397.028 870.511 397.397 870.795C397.769 871.08 398.033 871.455 398.19 871.92Z" fill="#A0A0A0"/>
<path d="M26.2214 875V866.273H29.6646C30.3265 866.273 30.8904 866.399 31.3564 866.652C31.8223 866.902 32.1774 867.25 32.4217 867.696C32.6689 868.139 32.7924 868.651 32.7924 869.23C32.7924 869.81 32.6674 870.321 32.4174 870.764C32.1674 871.207 31.8052 871.553 31.3308 871.8C30.8592 872.047 30.2882 872.17 29.6177 872.17H27.4231V870.692H29.3194C29.6745 870.692 29.9672 870.631 30.1973 870.509C30.4302 870.384 30.6035 870.212 30.7172 869.993C30.8336 869.771 30.8919 869.517 30.8919 869.23C30.8919 868.94 30.8336 868.687 30.7172 868.472C30.6035 868.253 30.4302 868.084 30.1973 867.964C29.9643 867.842 29.6689 867.781 29.3109 867.781H28.0666V875H26.2214ZM33.9569 875V868.455H35.7168V869.597H35.785C35.9043 869.19 36.1046 868.884 36.3858 868.676C36.6671 868.466 36.9909 868.361 37.3574 868.361C37.4483 868.361 37.5463 868.366 37.6515 868.378C37.7566 868.389 37.8489 868.405 37.9284 868.425V870.036C37.8432 870.01 37.7253 869.987 37.5748 869.967C37.4242 869.947 37.2864 869.938 37.1614 869.938C36.8944 869.938 36.6557 869.996 36.4455 870.112C36.2381 870.226 36.0733 870.385 35.9512 870.589C35.8319 870.794 35.7722 871.03 35.7722 871.297V875H33.9569ZM41.5197 875.128C40.8578 875.128 40.2853 874.987 39.8024 874.706C39.3223 874.422 38.9515 874.027 38.6902 873.521C38.4288 873.013 38.2981 872.423 38.2981 871.753C38.2981 871.077 38.4288 870.486 38.6902 869.98C38.9515 869.472 39.3223 869.077 39.8024 868.795C40.2853 868.511 40.8578 868.369 41.5197 868.369C42.1816 868.369 42.7527 868.511 43.2328 868.795C43.7157 869.077 44.0879 869.472 44.3493 869.98C44.6106 870.486 44.7413 871.077 44.7413 871.753C44.7413 872.423 44.6106 873.013 44.3493 873.521C44.0879 874.027 43.7157 874.422 43.2328 874.706C42.7527 874.987 42.1816 875.128 41.5197 875.128ZM41.5282 873.722C41.8294 873.722 42.0808 873.636 42.2825 873.466C42.4842 873.293 42.6362 873.057 42.7385 872.759C42.8436 872.46 42.8961 872.121 42.8961 871.74C42.8961 871.359 42.8436 871.02 42.7385 870.722C42.6362 870.423 42.4842 870.187 42.2825 870.014C42.0808 869.841 41.8294 869.754 41.5282 869.754C41.2243 869.754 40.9686 869.841 40.7612 870.014C40.5566 870.187 40.4018 870.423 40.2967 870.722C40.1944 871.02 40.1433 871.359 40.1433 871.74C40.1433 872.121 40.1944 872.46 40.2967 872.759C40.4018 873.057 40.5566 873.293 40.7612 873.466C40.9686 873.636 41.2243 873.722 41.5282 873.722ZM49.4416 868.455V869.818H45.4018V868.455H49.4416ZM46.3265 875V867.982C46.3265 867.507 46.4189 867.114 46.6035 866.801C46.791 866.489 47.0467 866.254 47.3706 866.098C47.6944 865.942 48.0623 865.864 48.4743 865.864C48.7527 865.864 49.0069 865.885 49.237 865.928C49.47 865.97 49.6433 866.009 49.7569 866.043L49.4331 867.406C49.362 867.384 49.274 867.362 49.1689 867.342C49.0666 867.322 48.9615 867.312 48.8535 867.312C48.5865 867.312 48.4004 867.375 48.2953 867.5C48.1902 867.622 48.1376 867.794 48.1376 868.016V875H46.3265ZM50.5506 875V868.455H52.3659V875H50.5506ZM51.4625 867.611C51.1926 867.611 50.9611 867.521 50.7679 867.342C50.5776 867.161 50.4824 866.943 50.4824 866.69C50.4824 866.44 50.5776 866.226 50.7679 866.047C50.9611 865.865 51.1926 865.774 51.4625 865.774C51.7324 865.774 51.9625 865.865 52.1529 866.047C52.3461 866.226 52.4426 866.44 52.4426 866.69C52.4426 866.943 52.3461 867.161 52.1529 867.342C51.9625 867.521 51.7324 867.611 51.4625 867.611ZM55.6355 866.273V875H53.8201V866.273H55.6355ZM60.0726 875.128C59.3993 875.128 58.8198 874.991 58.334 874.719C57.851 874.443 57.4789 874.054 57.2175 873.551C56.9561 873.045 56.8255 872.447 56.8255 871.757C56.8255 871.084 56.9561 870.493 57.2175 869.984C57.4789 869.476 57.8468 869.08 58.3212 868.795C58.7985 868.511 59.3581 868.369 60.0002 868.369C60.432 868.369 60.834 868.439 61.2061 868.578C61.5811 868.714 61.9078 868.92 62.1863 869.196C62.4675 869.472 62.6863 869.818 62.8425 870.236C62.9988 870.651 63.0769 871.136 63.0769 871.693V872.192H57.5499V871.067H61.3681C61.3681 870.805 61.3113 870.574 61.1976 870.372C61.084 870.17 60.9263 870.013 60.7246 869.899C60.5257 869.783 60.2942 869.724 60.03 869.724C59.7544 869.724 59.5101 869.788 59.2971 869.916C59.0868 870.041 58.9221 870.21 58.8027 870.423C58.6834 870.634 58.6223 870.868 58.6195 871.126V872.196C58.6195 872.52 58.6792 872.8 58.7985 873.036C58.9206 873.271 59.0925 873.453 59.3141 873.581C59.5357 873.709 59.7985 873.773 60.1025 873.773C60.3042 873.773 60.4888 873.744 60.6564 873.688C60.824 873.631 60.9675 873.545 61.0868 873.432C61.2061 873.318 61.2971 873.179 61.3596 873.014L63.0385 873.125C62.9533 873.528 62.7786 873.881 62.5144 874.182C62.253 874.48 61.915 874.713 61.5002 874.881C61.0882 875.045 60.6124 875.128 60.0726 875.128Z" fill="#009688"/>
<path fill-rule="evenodd" clip-rule="evenodd" d="M48.083 828C48.083 825.794 46.2517 824 43.9999 824C41.748 824 39.9167 825.794 39.9167 828C39.9167 830.206 41.748 832 43.9999 832C46.2517 832 48.083 830.206 48.083 828ZM51.9456 842H50.1246C49.5611 842 49.1038 841.552 49.1038 841C49.1038 840.448 49.5611 840 50.1246 840H50.5625C51.2688 840 51.7905 839.303 51.523 838.662C50.2869 835.698 47.3837 834 43.9999 834C40.616 834 37.7129 835.698 36.4767 838.662C36.2093 839.303 36.7309 840 37.4373 840H37.8752C38.4387 840 38.896 840.448 38.896 841C38.896 841.552 38.4387 842 37.8752 842H36.0541C34.7781 842 33.7737 840.857 34.0442 839.636C34.7873 836.277 37.1076 833.798 40.1638 832.673C38.7694 831.574 37.8752 829.89 37.8752 828C37.8752 824.449 41.0233 821.619 44.7338 822.042C47.4225 822.348 49.6499 824.447 50.0531 827.07C50.4002 829.331 49.4559 831.396 47.836 832.673C50.8922 833.798 53.2124 836.277 53.9555 839.636C54.2261 840.857 53.2216 842 51.9456 842Z" fill="black"/>
<path d="M375 833.188C376.582 833.188 377.864 831.928 377.864 830.375C377.864 828.822 376.582 827.562 375 827.562C373.418 827.562 372.136 828.822 372.136 830.375C372.136 831.928 373.418 833.188 375 833.188Z" stroke="black" stroke-width="1.3"/>
<path d="M367.04 829.099C367.491 829.378 367.781 829.852 367.781 830.375C367.781 830.898 367.491 831.372 367.04 831.651C366.733 831.84 366.535 831.991 366.395 832.172C366.086 832.566 365.95 833.065 366.016 833.558C366.066 833.927 366.288 834.306 366.733 835.062C367.178 835.819 367.4 836.197 367.702 836.424C368.103 836.727 368.611 836.861 369.113 836.796C369.342 836.766 369.575 836.674 369.895 836.507C370.366 836.263 370.929 836.253 371.391 836.515C371.852 836.776 372.125 837.26 372.145 837.783C372.159 838.139 372.193 838.383 372.282 838.593C372.476 839.052 372.847 839.417 373.315 839.607C373.666 839.75 374.111 839.75 375 839.75C375.89 839.75 376.334 839.75 376.685 839.607C377.153 839.417 377.525 839.052 377.719 838.593C377.807 838.383 377.842 838.139 377.855 837.783C377.875 837.26 378.148 836.776 378.61 836.515C379.071 836.253 379.634 836.263 380.105 836.507C380.426 836.674 380.658 836.766 380.887 836.796C381.389 836.861 381.897 836.727 382.299 836.424C382.6 836.197 382.822 835.819 383.267 835.062C383.465 834.726 383.619 834.464 383.733 834.244M382.96 831.651C382.509 831.372 382.219 830.898 382.219 830.375C382.219 829.852 382.509 829.378 382.96 829.099C383.267 828.91 383.465 828.758 383.606 828.578C383.914 828.184 384.05 827.685 383.984 827.192C383.934 826.822 383.712 826.444 383.267 825.688C382.822 824.931 382.6 824.553 382.299 824.326C381.897 824.023 381.389 823.889 380.887 823.954C380.658 823.984 380.426 824.076 380.105 824.243C379.634 824.487 379.071 824.497 378.609 824.235C378.148 823.974 377.875 823.49 377.855 822.967C377.842 822.611 377.807 822.367 377.719 822.157C377.525 821.698 377.153 821.333 376.685 821.143C376.334 821 375.89 821 375 821C374.111 821 373.666 821 373.315 821.143C372.847 821.333 372.476 821.698 372.282 822.157C372.193 822.367 372.159 822.611 372.145 822.967C372.125 823.49 371.852 823.974 371.391 824.235C370.929 824.497 370.366 824.487 369.895 824.243C369.575 824.076 369.342 823.984 369.113 823.954C368.611 823.889 368.103 824.023 367.702 824.326C367.4 824.553 367.178 824.931 366.733 825.688C366.535 826.024 366.381 826.286 366.267 826.506" stroke="black" stroke-width="1.3" stroke-linecap="round"/>
<path d="M301 850C312.046 850 321 841.046 321 830C321 818.954 312.046 810 301 810C289.954 810 281 818.954 281 830C281 841.046 289.954 850 301 850Z" fill="#F8F9FA"/>
<path d="M297.875 819.875C298.107 819.875 298.33 819.967 298.494 820.131C298.658 820.295 298.75 820.518 298.75 820.75C298.75 821.214 298.935 821.659 299.263 821.987C299.591 822.315 300.036 822.5 300.5 822.5C300.964 822.5 301.409 822.315 301.737 821.987C302.065 821.659 302.25 821.214 302.25 820.75C302.25 820.518 302.342 820.295 302.506 820.131C302.67 819.967 302.893 819.875 303.125 819.875H305.75C306.446 819.875 307.114 820.151 307.606 820.644C308.099 821.136 308.375 821.804 308.375 822.5V836.5C308.375 837.196 308.099 837.864 307.606 838.356C307.114 838.849 306.446 839.125 305.75 839.125H295.25C294.554 839.125 293.886 838.849 293.394 838.356C292.901 837.864 292.625 837.196 292.625 836.5V822.5C292.625 821.804 292.901 821.136 293.394 820.644C293.886 820.151 294.554 819.875 295.25 819.875H297.875ZM295.25 821.625C295.018 821.625 294.795 821.717 294.631 821.881C294.467 822.045 294.375 822.268 294.375 822.5V826H295.146C295.378 826 295.602 826.092 295.766 826.256C295.93 826.42 296.021 826.643 296.021 826.875C296.021 827.107 295.93 827.33 295.766 827.494C295.602 827.658 295.378 827.75 295.146 827.75H294.375V836.5C294.375 836.732 294.467 836.955 294.631 837.119C294.795 837.283 295.018 837.375 295.25 837.375H305.75C305.982 837.375 306.205 837.283 306.369 837.119C306.533 836.955 306.625 836.732 306.625 836.5V827.75H305.854C305.622 827.75 305.398 827.658 305.234 827.494C305.07 827.33 304.979 827.107 304.979 826.875C304.979 826.643 305.07 826.42 305.234 826.256C305.398 826.092 305.622 826 305.854 826H306.625V822.5C306.625 822.268 306.533 822.045 306.369 821.881C306.205 821.717 305.982 821.625 305.75 821.625H303.89C303.696 822.377 303.258 823.044 302.645 823.52C302.031 823.995 301.276 824.254 300.5 824.254C299.724 824.254 298.969 823.995 298.355 823.52C297.742 823.044 297.304 822.377 297.11 821.625H295.25ZM299.265 826C299.496 826 299.719 826.092 299.883 826.256C300.047 826.42 300.14 826.643 300.14 826.875C300.14 827.107 300.047 827.33 299.883 827.494C299.719 827.658 299.496 827.75 299.265 827.75H297.618C297.386 827.75 297.163 827.658 296.999 827.494C296.835 827.33 296.743 827.107 296.743 826.875C296.743 826.643 296.835 826.42 296.999 826.256C297.163 826.092 297.386 826 297.618 826H299.265ZM303.382 826C303.614 826 303.837 826.092 304.001 826.256C304.165 826.42 304.257 826.643 304.257 826.875C304.257 827.107 304.165 827.33 304.001 827.494C303.837 827.658 303.614 827.75 303.382 827.75H301.735C301.504 827.75 301.281 827.658 301.117 827.494C300.953 827.33 300.86 827.107 300.86 826.875C300.86 826.643 300.953 826.42 301.117 826.256C301.281 826.092 301.504 826 301.735 826H303.382Z" fill="black"/>
<path d="M297.875 819.875C298.107 819.875 298.33 819.967 298.494 820.131C298.658 820.295 298.75 820.518 298.75 820.75C298.75 821.214 298.935 821.659 299.263 821.987C299.591 822.315 300.036 822.5 300.5 822.5C300.964 822.5 301.409 822.315 301.737 821.987C302.065 821.659 302.25 821.214 302.25 820.75C302.25 820.518 302.342 820.295 302.506 820.131C302.67 819.967 302.893 819.875 303.125 819.875H305.75C306.446 819.875 307.114 820.151 307.606 820.644C308.099 821.136 308.375 821.804 308.375 822.5V836.5C308.375 837.196 308.099 837.864 307.606 838.356C307.114 838.849 306.446 839.125 305.75 839.125H295.25C294.554 839.125 293.886 838.849 293.394 838.356C292.901 837.864 292.625 837.196 292.625 836.5V822.5C292.625 821.804 292.901 821.136 293.394 820.644C293.886 820.151 294.554 819.875 295.25 819.875H297.875ZM295.25 821.625C295.018 821.625 294.795 821.717 294.631 821.881C294.467 822.045 294.375 822.268 294.375 822.5V826H295.146C295.378 826 295.602 826.092 295.766 826.256C295.93 826.42 296.021 826.643 296.021 826.875C296.021 827.107 295.93 827.33 295.766 827.494C295.602 827.658 295.378 827.75 295.146 827.75H294.375V836.5C294.375 836.732 294.467 836.955 294.631 837.119C294.795 837.283 295.018 837.375 295.25 837.375H305.75C305.982 837.375 306.205 837.283 306.369 837.119C306.533 836.955 306.625 836.732 306.625 836.5V827.75H305.854C305.622 827.75 305.398 827.658 305.234 827.494C305.07 827.33 304.979 827.107 304.979 826.875C304.979 826.643 305.07 826.42 305.234 826.256C305.398 826.092 305.622 826 305.854 826H306.625V822.5C306.625 822.268 306.533 822.045 306.369 821.881C306.205 821.717 305.982 821.625 305.75 821.625H303.89C303.696 822.377 303.258 823.044 302.645 823.52C302.031 823.995 301.276 824.254 300.5 824.254C299.724 824.254 298.969 823.995 298.355 823.52C297.742 823.044 297.304 822.377 297.11 821.625H295.25ZM299.265 826C299.496 826 299.719 826.092 299.883 826.256C300.047 826.42 300.14 826.643 300.14 826.875C300.14 827.107 300.047 827.33 299.883 827.494C299.719 827.658 299.496 827.75 299.265 827.75H297.618C297.386 827.75 297.163 827.658 296.999 827.494C296.835 827.33 296.743 827.107 296.743 826.875C296.743 826.643 296.835 826.42 296.999 826.256C297.163 826.092 297.386 826 297.618 826H299.265ZM303.382 826C303.614 826 303.837 826.092 304.001 826.256C304.165 826.42 304.257 826.643 304.257 826.875C304.257 827.107 304.165 827.33 304.001 827.494C303.837 827.658 303.614 827.75 303.382 827.75H301.735C301.504 827.75 301.281 827.658 301.117 827.494C300.953 827.33 300.86 827.107 300.86 826.875C300.86 826.643 300.953 826.42 301.117 826.256C301.281 826.092 301.504 826 301.735 826H303.382Z" stroke="black"/>
<path d="M207 825.468H222V836.918C222 837.735 221.703 838.519 221.174 839.097C220.645 839.675 219.928 840 219.18 840H209.82C209.072 840 208.355 839.675 207.826 839.097C207.297 838.519 207 837.735 207 836.918V825.468Z" stroke="#020202" stroke-width="2" stroke-miterlimit="10"/>
<path d="M211.165 828.197V823.645C211.165 822.678 211.516 821.751 212.142 821.068C212.767 820.384 213.615 820 214.5 820C215.385 820 216.233 820.384 216.858 821.068C217.484 821.751 217.835 822.678 217.835 823.645V828.197" stroke="#020202" stroke-width="2" stroke-miterlimit="10"/>
<path d="M118.15 833C116.206 833.741 115 834.774 115 835.916C115 838.172 119.701 840 125.5 840C131.299 840 136 838.172 136 835.916C136 834.774 134.794 833.741 132.85 833M125.5 826H125.512M132.5 826C132.5 830.741 127.25 833 125.5 836.5C123.75 833 118.5 830.741 118.5 826C118.5 822.134 121.634 819 125.5 819C129.366 819 132.5 822.134 132.5 826ZM126.667 826C126.667 826.644 126.144 827.167 125.5 827.167C124.856 827.167 124.333 826.644 124.333 826C124.333 825.356 124.856 824.833 125.5 824.833C126.144 824.833 126.667 825.356 126.667 826Z" stroke="black" stroke-width="2" stroke-linecap="round" stroke-linejoin="round"/>
<g filter="url(#filter3_i_3012_360)">
<g filter="url(#filter4_i_3012_360)">
<path d="M389 800H27C12.6406 800 1 811.641 1 826V870C1 884.359 12.6406 896 27 896H389C403.359 896 415 884.359 415 870V826C415 811.641 403.359 800 389 800Z" fill="#EFEFEF" fill-opacity="0.2"/>
</g>
<path d="M44 853C55.0457 853 64 844.046 64 833C64 821.954 55.0457 813 44 813C32.9543 813 24 821.954 24 833C24 844.046 32.9543 853 44 853Z" fill="#E0F2F1"/>
<path d="M126 850C137.046 850 146 841.046 146 830C146 818.954 137.046 810 126 810C114.954 810 106 818.954 106 830C106 841.046 114.954 850 126 850Z" fill="#F8F9FA"/>
<path d="M375 850C386.046 850 395 841.046 395 830C395 818.954 386.046 810 375 810C363.954 810 355 818.954 355 830C355 841.046 363.954 850 375 850Z" fill="#F8F9FA"/>
<path d="M215 850C226.046 850 235 841.046 235 830C235 818.954 226.046 810 215 810C203.954 810 195 818.954 195 830C195 841.046 203.954 850 215 850Z" fill="#F8F9FA"/>
<path d="M116.182 866.273H117.443L120.409 873.517H120.511L123.477 866.273H124.739V875H123.75V868.369H123.665L120.938 875H119.983L117.256 868.369H117.17V875H116.182V866.273ZM128.647 875.153C128.233 875.153 127.856 875.075 127.518 874.919C127.18 874.76 126.912 874.531 126.713 874.233C126.514 873.932 126.414 873.568 126.414 873.142C126.414 872.767 126.488 872.463 126.636 872.23C126.784 871.994 126.981 871.81 127.228 871.676C127.475 871.543 127.748 871.443 128.047 871.378C128.348 871.31 128.65 871.256 128.954 871.216C129.352 871.165 129.674 871.126 129.922 871.101C130.172 871.072 130.353 871.026 130.467 870.96C130.583 870.895 130.642 870.781 130.642 870.619V870.585C130.642 870.165 130.527 869.838 130.297 869.605C130.069 869.372 129.724 869.256 129.261 869.256C128.781 869.256 128.404 869.361 128.132 869.571C127.859 869.781 127.667 870.006 127.556 870.244L126.602 869.903C126.772 869.506 127 869.196 127.284 868.974C127.571 868.75 127.883 868.594 128.221 868.506C128.562 868.415 128.897 868.369 129.227 868.369C129.437 868.369 129.679 868.395 129.951 868.446C130.227 868.494 130.493 868.595 130.748 868.749C131.007 868.902 131.221 869.134 131.392 869.443C131.562 869.753 131.647 870.168 131.647 870.688V875H130.642V874.114H130.591C130.522 874.256 130.409 874.408 130.25 874.57C130.091 874.732 129.879 874.869 129.615 874.983C129.35 875.097 129.028 875.153 128.647 875.153ZM128.801 874.25C129.199 874.25 129.534 874.172 129.806 874.016C130.082 873.859 130.289 873.658 130.429 873.411C130.571 873.163 130.642 872.903 130.642 872.631V871.71C130.599 871.761 130.505 871.808 130.36 871.851C130.218 871.891 130.054 871.926 129.866 871.957C129.681 871.986 129.501 872.011 129.325 872.034C129.152 872.054 129.011 872.071 128.903 872.085C128.642 872.119 128.397 872.175 128.17 872.251C127.946 872.325 127.764 872.437 127.625 872.588C127.488 872.736 127.42 872.937 127.42 873.193C127.42 873.543 127.549 873.807 127.808 873.986C128.069 874.162 128.4 874.25 128.801 874.25ZM133.483 877.455V868.455H134.455V869.494H134.574C134.648 869.381 134.75 869.236 134.881 869.06C135.014 868.881 135.205 868.722 135.452 868.582C135.702 868.44 136.04 868.369 136.466 868.369C137.017 868.369 137.503 868.507 137.923 868.783C138.344 869.058 138.672 869.449 138.908 869.955C139.143 870.46 139.261 871.057 139.261 871.744C139.261 872.438 139.143 873.038 138.908 873.547C138.672 874.053 138.345 874.445 137.928 874.723C137.51 874.999 137.028 875.136 136.483 875.136C136.063 875.136 135.726 875.067 135.473 874.928C135.22 874.786 135.026 874.625 134.889 874.446C134.753 874.264 134.648 874.114 134.574 873.994H134.489V877.455H133.483ZM134.472 871.727C134.472 872.222 134.544 872.658 134.689 873.036C134.834 873.411 135.045 873.705 135.324 873.918C135.602 874.128 135.943 874.233 136.347 874.233C136.767 874.233 137.118 874.122 137.399 873.901C137.683 873.676 137.896 873.375 138.038 872.997C138.183 872.616 138.256 872.193 138.256 871.727C138.256 871.267 138.185 870.852 138.043 870.483C137.903 870.111 137.692 869.817 137.408 869.601C137.126 869.382 136.773 869.273 136.347 869.273C135.938 869.273 135.594 869.376 135.315 869.584C135.037 869.788 134.827 870.075 134.685 870.445C134.543 870.811 134.472 871.239 134.472 871.727Z" fill="#A0A0A0"/>
<path d="M206.222 868.455C206.171 868.023 205.964 867.688 205.6 867.449C205.236 867.21 204.79 867.091 204.262 867.091C203.876 867.091 203.537 867.153 203.248 867.278C202.961 867.403 202.736 867.575 202.574 867.794C202.415 868.013 202.336 868.261 202.336 868.54C202.336 868.773 202.391 868.973 202.502 869.141C202.616 869.305 202.76 869.443 202.937 869.554C203.113 869.662 203.297 869.751 203.491 869.822C203.684 869.891 203.861 869.946 204.023 869.989L204.91 870.227C205.137 870.287 205.39 870.369 205.668 870.474C205.949 870.58 206.218 870.723 206.474 870.905C206.732 871.084 206.945 871.314 207.113 871.595C207.28 871.876 207.364 872.222 207.364 872.631C207.364 873.102 207.241 873.528 206.993 873.909C206.749 874.29 206.391 874.592 205.92 874.817C205.451 875.041 204.881 875.153 204.211 875.153C203.586 875.153 203.045 875.053 202.587 874.851C202.133 874.649 201.775 874.368 201.513 874.007C201.255 873.646 201.108 873.227 201.074 872.75H202.165C202.194 873.08 202.305 873.352 202.498 873.568C202.694 873.781 202.941 873.94 203.239 874.045C203.54 874.148 203.864 874.199 204.211 874.199C204.614 874.199 204.976 874.134 205.297 874.003C205.618 873.869 205.873 873.685 206.06 873.449C206.248 873.21 206.341 872.932 206.341 872.614C206.341 872.324 206.26 872.088 206.099 871.906C205.937 871.724 205.724 871.577 205.459 871.463C205.195 871.349 204.91 871.25 204.603 871.165L203.529 870.858C202.847 870.662 202.307 870.382 201.91 870.018C201.512 869.655 201.313 869.179 201.313 868.591C201.313 868.102 201.445 867.676 201.709 867.312C201.976 866.946 202.334 866.662 202.783 866.46C203.235 866.256 203.739 866.153 204.296 866.153C204.858 866.153 205.358 866.254 205.796 866.456C206.233 866.655 206.58 866.928 206.836 867.274C207.094 867.621 207.231 868.014 207.245 868.455H206.222ZM209.971 871.062V875H208.965V866.273H209.971V869.477H210.056C210.21 869.139 210.44 868.871 210.747 868.672C211.056 868.47 211.468 868.369 211.982 868.369C212.428 868.369 212.819 868.459 213.154 868.638C213.49 868.814 213.749 869.085 213.934 869.452C214.122 869.815 214.215 870.278 214.215 870.841V875H213.21V870.909C213.21 870.389 213.075 869.987 212.805 869.703C212.538 869.416 212.167 869.273 211.693 869.273C211.363 869.273 211.068 869.342 210.806 869.482C210.548 869.621 210.343 869.824 210.193 870.091C210.045 870.358 209.971 870.682 209.971 871.062ZM218.714 875.136C218.123 875.136 217.605 874.996 217.159 874.714C216.716 874.433 216.369 874.04 216.119 873.534C215.872 873.028 215.748 872.437 215.748 871.761C215.748 871.08 215.872 870.484 216.119 869.976C216.369 869.467 216.716 869.072 217.159 868.791C217.605 868.51 218.123 868.369 218.714 868.369C219.305 868.369 219.822 868.51 220.265 868.791C220.711 869.072 221.058 869.467 221.305 869.976C221.555 870.484 221.68 871.08 221.68 871.761C221.68 872.437 221.555 873.028 221.305 873.534C221.058 874.04 220.711 874.433 220.265 874.714C219.822 874.996 219.305 875.136 218.714 875.136ZM218.714 874.233C219.163 874.233 219.532 874.118 219.822 873.888C220.112 873.658 220.327 873.355 220.466 872.98C220.605 872.605 220.675 872.199 220.675 871.761C220.675 871.324 220.605 870.916 220.466 870.538C220.327 870.161 220.112 869.855 219.822 869.622C219.532 869.389 219.163 869.273 218.714 869.273C218.265 869.273 217.896 869.389 217.606 869.622C217.317 869.855 217.102 870.161 216.963 870.538C216.824 870.916 216.754 871.324 216.754 871.761C216.754 872.199 216.824 872.605 216.963 872.98C217.102 873.355 217.317 873.658 217.606 873.888C217.896 874.118 218.265 874.233 218.714 874.233ZM223.215 877.455V868.455H224.187V869.494H224.306C224.38 869.381 224.482 869.236 224.613 869.06C224.747 868.881 224.937 868.722 225.184 868.582C225.434 868.44 225.772 868.369 226.198 868.369C226.749 868.369 227.235 868.507 227.656 868.783C228.076 869.058 228.404 869.449 228.64 869.955C228.876 870.46 228.994 871.057 228.994 871.744C228.994 872.438 228.876 873.038 228.64 873.547C228.404 874.053 228.078 874.445 227.66 874.723C227.242 874.999 226.761 875.136 226.215 875.136C225.795 875.136 225.458 875.067 225.205 874.928C224.953 874.786 224.758 874.625 224.622 874.446C224.485 874.264 224.38 874.114 224.306 873.994H224.221V877.455H223.215ZM224.204 871.727C224.204 872.222 224.276 872.658 224.421 873.036C224.566 873.411 224.778 873.705 225.056 873.918C225.335 874.128 225.676 874.233 226.079 874.233C226.499 874.233 226.85 874.122 227.132 873.901C227.416 873.676 227.629 873.375 227.771 872.997C227.916 872.616 227.988 872.193 227.988 871.727C227.988 871.267 227.917 870.852 227.775 870.483C227.636 870.111 227.424 869.817 227.14 869.601C226.859 869.382 226.505 869.273 226.079 869.273C225.67 869.273 225.326 869.376 225.048 869.584C224.769 869.788 224.559 870.075 224.417 870.445C224.275 870.811 224.204 871.239 224.204 871.727Z" fill="#A0A0A0"/>
<path d="M281.078 869.21V868.273H287.623V869.21H284.879V877H283.822V869.21H281.078ZM289.118 877V870.455H290.123V877H289.118ZM289.629 869.364C289.433 869.364 289.264 869.297 289.122 869.163C288.983 869.03 288.913 868.869 288.913 868.682C288.913 868.494 288.983 868.334 289.122 868.2C289.264 868.067 289.433 868 289.629 868C289.825 868 289.993 868.067 290.132 868.2C290.274 868.334 290.345 868.494 290.345 868.682C290.345 868.869 290.274 869.03 290.132 869.163C289.993 869.297 289.825 869.364 289.629 869.364ZM294.624 877.136C294.011 877.136 293.482 876.991 293.039 876.702C292.596 876.412 292.255 876.013 292.017 875.504C291.778 874.996 291.659 874.415 291.659 873.761C291.659 873.097 291.781 872.51 292.025 872.001C292.272 871.49 292.616 871.091 293.056 870.804C293.499 870.514 294.017 870.369 294.607 870.369C295.068 870.369 295.482 870.455 295.852 870.625C296.221 870.795 296.524 871.034 296.759 871.341C296.995 871.648 297.142 872.006 297.198 872.415H296.193C296.116 872.116 295.945 871.852 295.681 871.622C295.42 871.389 295.068 871.273 294.624 871.273C294.232 871.273 293.889 871.375 293.593 871.58C293.301 871.781 293.072 872.067 292.907 872.436C292.745 872.803 292.664 873.233 292.664 873.727C292.664 874.233 292.744 874.673 292.903 875.048C293.065 875.423 293.292 875.714 293.585 875.922C293.88 876.129 294.227 876.233 294.624 876.233C294.886 876.233 295.123 876.188 295.336 876.097C295.549 876.006 295.73 875.875 295.877 875.705C296.025 875.534 296.13 875.33 296.193 875.091H297.198C297.142 875.477 297.001 875.825 296.776 876.135C296.555 876.442 296.261 876.686 295.894 876.868C295.531 877.047 295.107 877.136 294.624 877.136ZM299.606 874.614L299.589 873.369H299.794L302.657 870.455H303.901L300.85 873.54H300.765L299.606 874.614ZM298.669 877V868.273H299.674V877H298.669ZM302.828 877L300.271 873.761L300.987 873.062L304.106 877H302.828ZM307.671 877.136C307.04 877.136 306.496 876.997 306.039 876.719C305.584 876.438 305.233 876.045 304.986 875.543C304.742 875.037 304.619 874.449 304.619 873.778C304.619 873.108 304.742 872.517 304.986 872.006C305.233 871.491 305.577 871.091 306.017 870.804C306.46 870.514 306.977 870.369 307.568 870.369C307.909 870.369 308.246 870.426 308.578 870.54C308.911 870.653 309.213 870.838 309.486 871.094C309.759 871.347 309.976 871.682 310.138 872.099C310.3 872.517 310.381 873.031 310.381 873.642V874.068H305.335V873.199H309.358C309.358 872.83 309.284 872.5 309.137 872.21C308.992 871.92 308.784 871.692 308.514 871.524C308.247 871.357 307.932 871.273 307.568 871.273C307.168 871.273 306.821 871.372 306.529 871.571C306.239 871.767 306.016 872.023 305.86 872.338C305.703 872.653 305.625 872.991 305.625 873.352V873.932C305.625 874.426 305.71 874.845 305.881 875.189C306.054 875.53 306.294 875.79 306.601 875.969C306.908 876.145 307.264 876.233 307.671 876.233C307.935 876.233 308.173 876.196 308.387 876.122C308.602 876.045 308.789 875.932 308.945 875.781C309.101 875.628 309.222 875.437 309.307 875.21L310.279 875.483C310.176 875.812 310.004 876.102 309.763 876.352C309.521 876.599 309.223 876.793 308.868 876.932C308.513 877.068 308.114 877.136 307.671 877.136ZM314.757 870.455V871.307H311.365V870.455H314.757ZM312.354 868.886H313.36V875.125C313.36 875.409 313.401 875.622 313.483 875.764C313.568 875.903 313.676 875.997 313.807 876.045C313.941 876.091 314.081 876.114 314.229 876.114C314.34 876.114 314.431 876.108 314.502 876.097C314.573 876.082 314.629 876.071 314.672 876.062L314.877 876.966C314.808 876.991 314.713 877.017 314.591 877.043C314.469 877.071 314.314 877.085 314.127 877.085C313.843 877.085 313.564 877.024 313.291 876.902C313.021 876.78 312.797 876.594 312.618 876.344C312.442 876.094 312.354 875.778 312.354 875.398V868.886ZM320.789 871.92L319.886 872.176C319.829 872.026 319.745 871.879 319.634 871.737C319.526 871.592 319.379 871.473 319.191 871.379C319.004 871.286 318.764 871.239 318.471 871.239C318.07 871.239 317.737 871.331 317.47 871.516C317.205 871.697 317.073 871.929 317.073 872.21C317.073 872.46 317.164 872.658 317.346 872.803C317.528 872.947 317.812 873.068 318.198 873.165L319.17 873.403C319.755 873.545 320.191 873.763 320.478 874.055C320.765 874.345 320.909 874.719 320.909 875.176C320.909 875.551 320.801 875.886 320.585 876.182C320.372 876.477 320.073 876.71 319.69 876.881C319.306 877.051 318.86 877.136 318.352 877.136C317.684 877.136 317.132 876.991 316.694 876.702C316.257 876.412 315.98 875.989 315.863 875.432L316.818 875.193C316.909 875.545 317.08 875.81 317.333 875.986C317.589 876.162 317.923 876.25 318.335 876.25C318.803 876.25 319.176 876.151 319.451 875.952C319.73 875.75 319.869 875.509 319.869 875.227C319.869 875 319.789 874.81 319.63 874.656C319.471 874.5 319.227 874.384 318.897 874.307L317.806 874.051C317.207 873.909 316.767 873.689 316.485 873.391C316.207 873.089 316.068 872.713 316.068 872.261C316.068 871.892 316.171 871.565 316.379 871.281C316.589 870.997 316.874 870.774 317.235 870.612C317.599 870.45 318.011 870.369 318.471 870.369C319.119 870.369 319.627 870.511 319.997 870.795C320.369 871.08 320.633 871.455 320.789 871.92Z" fill="#A0A0A0"/>
<path d="M357.927 870.455C357.876 870.023 357.669 869.688 357.305 869.449C356.941 869.21 356.495 869.091 355.967 869.091C355.581 869.091 355.243 869.153 354.953 869.278C354.666 869.403 354.441 869.575 354.279 869.794C354.12 870.013 354.041 870.261 354.041 870.54C354.041 870.773 354.096 870.973 354.207 871.141C354.321 871.305 354.466 871.443 354.642 871.554C354.818 871.662 355.002 871.751 355.196 871.822C355.389 871.891 355.566 871.946 355.728 871.989L356.615 872.227C356.842 872.287 357.095 872.369 357.373 872.474C357.654 872.58 357.923 872.723 358.179 872.905C358.437 873.084 358.65 873.314 358.818 873.595C358.985 873.876 359.069 874.222 359.069 874.631C359.069 875.102 358.946 875.528 358.699 875.909C358.454 876.29 358.096 876.592 357.625 876.817C357.156 877.041 356.586 877.153 355.916 877.153C355.291 877.153 354.75 877.053 354.292 876.851C353.838 876.649 353.48 876.368 353.218 876.007C352.96 875.646 352.814 875.227 352.779 874.75H353.87C353.899 875.08 354.01 875.352 354.203 875.568C354.399 875.781 354.646 875.94 354.944 876.045C355.245 876.148 355.569 876.199 355.916 876.199C356.319 876.199 356.681 876.134 357.002 876.003C357.324 875.869 357.578 875.685 357.765 875.449C357.953 875.21 358.047 874.932 358.047 874.614C358.047 874.324 357.966 874.088 357.804 873.906C357.642 873.724 357.429 873.577 357.164 873.463C356.9 873.349 356.615 873.25 356.308 873.165L355.234 872.858C354.552 872.662 354.012 872.382 353.615 872.018C353.217 871.655 353.018 871.179 353.018 870.591C353.018 870.102 353.15 869.676 353.414 869.312C353.681 868.946 354.039 868.662 354.488 868.46C354.94 868.256 355.444 868.153 356.001 868.153C356.564 868.153 357.064 868.254 357.501 868.456C357.939 868.655 358.285 868.928 358.541 869.274C358.799 869.621 358.936 870.014 358.95 870.455H357.927ZM363.415 877.136C362.784 877.136 362.24 876.997 361.783 876.719C361.328 876.438 360.977 876.045 360.73 875.543C360.486 875.037 360.364 874.449 360.364 873.778C360.364 873.108 360.486 872.517 360.73 872.006C360.977 871.491 361.321 871.091 361.761 870.804C362.205 870.514 362.722 870.369 363.312 870.369C363.653 870.369 363.99 870.426 364.322 870.54C364.655 870.653 364.957 870.838 365.23 871.094C365.503 871.347 365.72 871.682 365.882 872.099C366.044 872.517 366.125 873.031 366.125 873.642V874.068H361.08V873.199H365.102C365.102 872.83 365.028 872.5 364.881 872.21C364.736 871.92 364.528 871.692 364.259 871.524C363.991 871.357 363.676 871.273 363.312 871.273C362.912 871.273 362.565 871.372 362.273 871.571C361.983 871.767 361.76 872.023 361.604 872.338C361.447 872.653 361.369 872.991 361.369 873.352V873.932C361.369 874.426 361.455 874.845 361.625 875.189C361.798 875.53 362.038 875.79 362.345 875.969C362.652 876.145 363.009 876.233 363.415 876.233C363.679 876.233 363.918 876.196 364.131 876.122C364.347 876.045 364.533 875.932 364.689 875.781C364.845 875.628 364.966 875.437 365.051 875.21L366.023 875.483C365.92 875.812 365.749 876.102 365.507 876.352C365.266 876.599 364.967 876.793 364.612 876.932C364.257 877.068 363.858 877.136 363.415 877.136ZM370.501 870.455V871.307H367.109V870.455H370.501ZM368.098 868.886H369.104V875.125C369.104 875.409 369.145 875.622 369.227 875.764C369.313 875.903 369.42 875.997 369.551 876.045C369.685 876.091 369.825 876.114 369.973 876.114C370.084 876.114 370.175 876.108 370.246 876.097C370.317 876.082 370.374 876.071 370.416 876.062L370.621 876.966C370.553 876.991 370.457 877.017 370.335 877.043C370.213 877.071 370.058 877.085 369.871 877.085C369.587 877.085 369.308 877.024 369.036 876.902C368.766 876.78 368.541 876.594 368.362 876.344C368.186 876.094 368.098 875.778 368.098 875.398V868.886ZM374.861 870.455V871.307H371.469V870.455H374.861ZM372.457 868.886H373.463V875.125C373.463 875.409 373.504 875.622 373.587 875.764C373.672 875.903 373.78 875.997 373.911 876.045C374.044 876.091 374.185 876.114 374.332 876.114C374.443 876.114 374.534 876.108 374.605 876.097C374.676 876.082 374.733 876.071 374.776 876.062L374.98 876.966C374.912 876.991 374.817 877.017 374.695 877.043C374.572 877.071 374.418 877.085 374.23 877.085C373.946 877.085 373.668 877.024 373.395 876.902C373.125 876.78 372.901 876.594 372.722 876.344C372.545 876.094 372.457 875.778 372.457 875.398V868.886ZM376.374 877V870.455H377.379V877H376.374ZM376.885 869.364C376.689 869.364 376.52 869.297 376.378 869.163C376.239 869.03 376.169 868.869 376.169 868.682C376.169 868.494 376.239 868.334 376.378 868.2C376.52 868.067 376.689 868 376.885 868C377.081 868 377.249 868.067 377.388 868.2C377.53 868.334 377.601 868.494 377.601 868.682C377.601 868.869 377.53 869.03 377.388 869.163C377.249 869.297 377.081 869.364 376.885 869.364ZM380.227 873.062V877H379.221V870.455H380.193V871.477H380.278C380.431 871.145 380.664 870.878 380.977 870.676C381.289 870.472 381.693 870.369 382.187 870.369C382.63 870.369 383.018 870.46 383.35 870.642C383.683 870.821 383.941 871.094 384.126 871.46C384.311 871.824 384.403 872.284 384.403 872.841V877H383.397V872.909C383.397 872.395 383.264 871.994 382.997 871.707C382.73 871.418 382.363 871.273 381.897 871.273C381.576 871.273 381.289 871.342 381.037 871.482C380.787 871.621 380.589 871.824 380.444 872.091C380.299 872.358 380.227 872.682 380.227 873.062ZM388.883 879.591C388.397 879.591 387.979 879.528 387.63 879.403C387.281 879.281 386.989 879.119 386.756 878.918C386.526 878.719 386.343 878.506 386.207 878.278L387.008 877.716C387.099 877.835 387.214 877.972 387.353 878.125C387.492 878.281 387.683 878.416 387.924 878.53C388.168 878.646 388.488 878.705 388.883 878.705C389.411 878.705 389.847 878.577 390.191 878.321C390.535 878.065 390.707 877.665 390.707 877.119V875.79H390.621C390.548 875.909 390.442 876.057 390.306 876.233C390.173 876.406 389.979 876.561 389.727 876.697C389.477 876.831 389.138 876.898 388.712 876.898C388.184 876.898 387.71 876.773 387.289 876.523C386.871 876.273 386.54 875.909 386.296 875.432C386.055 874.955 385.934 874.375 385.934 873.693C385.934 873.023 386.052 872.439 386.288 871.942C386.523 871.442 386.852 871.055 387.272 870.783C387.692 870.507 388.178 870.369 388.729 870.369C389.156 870.369 389.494 870.44 389.744 870.582C389.996 870.722 390.19 870.881 390.323 871.06C390.46 871.236 390.565 871.381 390.638 871.494H390.741V870.455H391.712V877.188C391.712 877.75 391.585 878.207 391.329 878.56C391.076 878.915 390.735 879.175 390.306 879.339C389.88 879.507 389.406 879.591 388.883 879.591ZM388.849 875.994C389.252 875.994 389.593 875.902 389.871 875.717C390.15 875.533 390.362 875.267 390.506 874.92C390.651 874.574 390.724 874.159 390.724 873.676C390.724 873.205 390.653 872.788 390.511 872.428C390.369 872.067 390.158 871.784 389.88 871.58C389.602 871.375 389.258 871.273 388.849 871.273C388.423 871.273 388.067 871.381 387.783 871.597C387.502 871.812 387.29 872.102 387.148 872.466C387.009 872.83 386.94 873.233 386.94 873.676C386.94 874.131 387.011 874.533 387.153 874.882C387.298 875.229 387.511 875.501 387.792 875.7C388.076 875.896 388.428 875.994 388.849 875.994ZM398.19 871.92L397.286 872.176C397.229 872.026 397.146 871.879 397.035 871.737C396.927 871.592 396.779 871.473 396.592 871.379C396.404 871.286 396.164 871.239 395.871 871.239C395.471 871.239 395.137 871.331 394.87 871.516C394.606 871.697 394.474 871.929 394.474 872.21C394.474 872.46 394.565 872.658 394.746 872.803C394.928 872.947 395.212 873.068 395.599 873.165L396.57 873.403C397.156 873.545 397.592 873.763 397.879 874.055C398.165 874.345 398.309 874.719 398.309 875.176C398.309 875.551 398.201 875.886 397.985 876.182C397.772 876.477 397.474 876.71 397.09 876.881C396.707 877.051 396.261 877.136 395.752 877.136C395.085 877.136 394.532 876.991 394.094 876.702C393.657 876.412 393.38 875.989 393.263 875.432L394.218 875.193C394.309 875.545 394.481 875.81 394.734 875.986C394.989 876.162 395.323 876.25 395.735 876.25C396.204 876.25 396.576 876.151 396.852 875.952C397.13 875.75 397.269 875.509 397.269 875.227C397.269 875 397.19 874.81 397.031 874.656C396.871 874.5 396.627 874.384 396.298 874.307L395.207 874.051C394.607 873.909 394.167 873.689 393.886 873.391C393.607 873.089 393.468 872.713 393.468 872.261C393.468 871.892 393.572 871.565 393.779 871.281C393.989 870.997 394.275 870.774 394.636 870.612C394.999 870.45 395.411 870.369 395.871 870.369C396.519 870.369 397.028 870.511 397.397 870.795C397.769 871.08 398.033 871.455 398.19 871.92Z" fill="#A0A0A0"/>
<path d="M26.2214 875V866.273H29.6646C30.3265 866.273 30.8904 866.399 31.3564 866.652C31.8223 866.902 32.1774 867.25 32.4217 867.696C32.6689 868.139 32.7924 868.651 32.7924 869.23C32.7924 869.81 32.6674 870.321 32.4174 870.764C32.1674 871.207 31.8052 871.553 31.3308 871.8C30.8592 872.047 30.2882 872.17 29.6177 872.17H27.4231V870.692H29.3194C29.6745 870.692 29.9672 870.631 30.1973 870.509C30.4302 870.384 30.6035 870.212 30.7172 869.993C30.8336 869.771 30.8919 869.517 30.8919 869.23C30.8919 868.94 30.8336 868.687 30.7172 868.472C30.6035 868.253 30.4302 868.084 30.1973 867.964C29.9643 867.842 29.6689 867.781 29.3109 867.781H28.0666V875H26.2214ZM33.9569 875V868.455H35.7168V869.597H35.785C35.9043 869.19 36.1046 868.884 36.3858 868.676C36.6671 868.466 36.9909 868.361 37.3574 868.361C37.4483 868.361 37.5463 868.366 37.6515 868.378C37.7566 868.389 37.8489 868.405 37.9284 868.425V870.036C37.8432 870.01 37.7253 869.987 37.5748 869.967C37.4242 869.947 37.2864 869.938 37.1614 869.938C36.8944 869.938 36.6557 869.996 36.4455 870.112C36.2381 870.226 36.0733 870.385 35.9512 870.589C35.8319 870.794 35.7722 871.03 35.7722 871.297V875H33.9569ZM41.5197 875.128C40.8578 875.128 40.2853 874.987 39.8024 874.706C39.3223 874.422 38.9515 874.027 38.6902 873.521C38.4288 873.013 38.2981 872.423 38.2981 871.753C38.2981 871.077 38.4288 870.486 38.6902 869.98C38.9515 869.472 39.3223 869.077 39.8024 868.795C40.2853 868.511 40.8578 868.369 41.5197 868.369C42.1816 868.369 42.7527 868.511 43.2328 868.795C43.7157 869.077 44.0879 869.472 44.3493 869.98C44.6106 870.486 44.7413 871.077 44.7413 871.753C44.7413 872.423 44.6106 873.013 44.3493 873.521C44.0879 874.027 43.7157 874.422 43.2328 874.706C42.7527 874.987 42.1816 875.128 41.5197 875.128ZM41.5282 873.722C41.8294 873.722 42.0808 873.636 42.2825 873.466C42.4842 873.293 42.6362 873.057 42.7385 872.759C42.8436 872.46 42.8961 872.121 42.8961 871.74C42.8961 871.359 42.8436 871.02 42.7385 870.722C42.6362 870.423 42.4842 870.187 42.2825 870.014C42.0808 869.841 41.8294 869.754 41.5282 869.754C41.2243 869.754 40.9686 869.841 40.7612 870.014C40.5566 870.187 40.4018 870.423 40.2967 870.722C40.1944 871.02 40.1433 871.359 40.1433 871.74C40.1433 872.121 40.1944 872.46 40.2967 872.759C40.4018 873.057 40.5566 873.293 40.7612 873.466C40.9686 873.636 41.2243 873.722 41.5282 873.722ZM49.4416 868.455V869.818H45.4018V868.455H49.4416ZM46.3265 875V867.982C46.3265 867.507 46.4189 867.114 46.6035 866.801C46.791 866.489 47.0467 866.254 47.3706 866.098C47.6944 865.942 48.0623 865.864 48.4743 865.864C48.7527 865.864 49.0069 865.885 49.237 865.928C49.47 865.97 49.6433 866.009 49.7569 866.043L49.4331 867.406C49.362 867.384 49.274 867.362 49.1689 867.342C49.0666 867.322 48.9615 867.312 48.8535 867.312C48.5865 867.312 48.4004 867.375 48.2953 867.5C48.1902 867.622 48.1376 867.794 48.1376 868.016V875H46.3265ZM50.5506 875V868.455H52.3659V875H50.5506ZM51.4625 867.611C51.1926 867.611 50.9611 867.521 50.7679 867.342C50.5776 867.161 50.4824 866.943 50.4824 866.69C50.4824 866.44 50.5776 866.226 50.7679 866.047C50.9611 865.865 51.1926 865.774 51.4625 865.774C51.7324 865.774 51.9625 865.865 52.1529 866.047C52.3461 866.226 52.4426 866.44 52.4426 866.69C52.4426 866.943 52.3461 867.161 52.1529 867.342C51.9625 867.521 51.7324 867.611 51.4625 867.611ZM55.6355 866.273V875H53.8201V866.273H55.6355ZM60.0726 875.128C59.3993 875.128 58.8198 874.991 58.334 874.719C57.851 874.443 57.4789 874.054 57.2175 873.551C56.9561 873.045 56.8255 872.447 56.8255 871.757C56.8255 871.084 56.9561 870.493 57.2175 869.984C57.4789 869.476 57.8468 869.08 58.3212 868.795C58.7985 868.511 59.3581 868.369 60.0002 868.369C60.432 868.369 60.834 868.439 61.2061 868.578C61.5811 868.714 61.9078 868.92 62.1863 869.196C62.4675 869.472 62.6863 869.818 62.8425 870.236C62.9988 870.651 63.0769 871.136 63.0769 871.693V872.192H57.5499V871.067H61.3681C61.3681 870.805 61.3113 870.574 61.1976 870.372C61.084 870.17 60.9263 870.013 60.7246 869.899C60.5257 869.783 60.2942 869.724 60.03 869.724C59.7544 869.724 59.5101 869.788 59.2971 869.916C59.0868 870.041 58.9221 870.21 58.8027 870.423C58.6834 870.634 58.6223 870.868 58.6195 871.126V872.196C58.6195 872.52 58.6792 872.8 58.7985 873.036C58.9206 873.271 59.0925 873.453 59.3141 873.581C59.5357 873.709 59.7985 873.773 60.1025 873.773C60.3042 873.773 60.4888 873.744 60.6564 873.688C60.824 873.631 60.9675 873.545 61.0868 873.432C61.2061 873.318 61.2971 873.179 61.3596 873.014L63.0385 873.125C62.9533 873.528 62.7786 873.881 62.5144 874.182C62.253 874.48 61.915 874.713 61.5002 874.881C61.0882 875.045 60.6124 875.128 60.0726 875.128Z" fill="#009688"/>
<path fill-rule="evenodd" clip-rule="evenodd" d="M48.083 828C48.083 825.794 46.2517 824 43.9999 824C41.748 824 39.9167 825.794 39.9167 828C39.9167 830.206 41.748 832 43.9999 832C46.2517 832 48.083 830.206 48.083 828ZM51.9456 842H50.1246C49.5611 842 49.1038 841.552 49.1038 841C49.1038 840.448 49.5611 840 50.1246 840H50.5625C51.2688 840 51.7905 839.303 51.523 838.662C50.2869 835.698 47.3837 834 43.9999 834C40.616 834 37.7129 835.698 36.4767 838.662C36.2093 839.303 36.7309 840 37.4373 840H37.8752C38.4387 840 38.896 840.448 38.896 841C38.896 841.552 38.4387 842 37.8752 842H36.0541C34.7781 842 33.7737 840.857 34.0442 839.636C34.7873 836.277 37.1076 833.798 40.1638 832.673C38.7694 831.574 37.8752 829.89 37.8752 828C37.8752 824.449 41.0233 821.619 44.7338 822.042C47.4225 822.348 49.6499 824.447 50.0531 827.07C50.4002 829.331 49.4559 831.396 47.836 832.673C50.8922 833.798 53.2124 836.277 53.9555 839.636C54.2261 840.857 53.2216 842 51.9456 842Z" fill="black"/>
<path d="M375 833.188C376.582 833.188 377.864 831.928 377.864 830.375C377.864 828.822 376.582 827.562 375 827.562C373.418 827.562 372.136 828.822 372.136 830.375C372.136 831.928 373.418 833.188 375 833.188Z" stroke="black" stroke-width="1.3"/>
<path d="M367.04 829.099C367.491 829.378 367.781 829.852 367.781 830.375C367.781 830.898 367.491 831.372 367.04 831.651C366.733 831.84 366.535 831.991 366.395 832.172C366.086 832.566 365.95 833.065 366.016 833.558C366.066 833.927 366.288 834.306 366.733 835.062C367.178 835.819 367.4 836.197 367.702 836.424C368.103 836.727 368.611 836.861 369.113 836.796C369.342 836.766 369.575 836.674 369.895 836.507C370.366 836.263 370.929 836.253 371.391 836.515C371.852 836.776 372.125 837.26 372.145 837.783C372.159 838.139 372.193 838.383 372.282 838.593C372.476 839.052 372.847 839.417 373.315 839.607C373.666 839.75 374.111 839.75 375 839.75C375.89 839.75 376.334 839.75 376.685 839.607C377.153 839.417 377.525 839.052 377.719 838.593C377.807 838.383 377.842 838.139 377.855 837.783C377.875 837.26 378.148 836.776 378.61 836.515C379.071 836.253 379.634 836.263 380.105 836.507C380.426 836.674 380.658 836.766 380.887 836.796C381.389 836.861 381.897 836.727 382.299 836.424C382.6 836.197 382.822 835.819 383.267 835.062C383.465 834.726 383.619 834.464 383.733 834.244M382.96 831.651C382.509 831.372 382.219 830.898 382.219 830.375C382.219 829.852 382.509 829.378 382.96 829.099C383.267 828.91 383.465 828.758 383.606 828.578C383.914 828.184 384.05 827.685 383.984 827.192C383.934 826.822 383.712 826.444 383.267 825.688C382.822 824.931 382.6 824.553 382.299 824.326C381.897 824.023 381.389 823.889 380.887 823.954C380.658 823.984 380.426 824.076 380.105 824.243C379.634 824.487 379.071 824.497 378.609 824.235C378.148 823.974 377.875 823.49 377.855 822.967C377.842 822.611 377.807 822.367 377.719 822.157C377.525 821.698 377.153 821.333 376.685 821.143C376.334 821 375.89 821 375 821C374.111 821 373.666 821 373.315 821.143C372.847 821.333 372.476 821.698 372.282 822.157C372.193 822.367 372.159 822.611 372.145 822.967C372.125 823.49 371.852 823.974 371.391 824.235C370.929 824.497 370.366 824.487 369.895 824.243C369.575 824.076 369.342 823.984 369.113 823.954C368.611 823.889 368.103 824.023 367.702 824.326C367.4 824.553 367.178 824.931 366.733 825.688C366.535 826.024 366.381 826.286 366.267 826.506" stroke="black" stroke-width="1.3" stroke-linecap="round"/>
<path d="M301 850C312.046 850 321 841.046 321 830C321 818.954 312.046 810 301 810C289.954 810 281 818.954 281 830C281 841.046 289.954 850 301 850Z" fill="#F8F9FA"/>
<path d="M297.875 819.875C298.107 819.875 298.33 819.967 298.494 820.131C298.658 820.295 298.75 820.518 298.75 820.75C298.75 821.214 298.935 821.659 299.263 821.987C299.591 822.315 300.036 822.5 300.5 822.5C300.964 822.5 301.409 822.315 301.737 821.987C302.065 821.659 302.25 821.214 302.25 820.75C302.25 820.518 302.342 820.295 302.506 820.131C302.67 819.967 302.893 819.875 303.125 819.875H305.75C306.446 819.875 307.114 820.151 307.606 820.644C308.099 821.136 308.375 821.804 308.375 822.5V836.5C308.375 837.196 308.099 837.864 307.606 838.356C307.114 838.849 306.446 839.125 305.75 839.125H295.25C294.554 839.125 293.886 838.849 293.394 838.356C292.901 837.864 292.625 837.196 292.625 836.5V822.5C292.625 821.804 292.901 821.136 293.394 820.644C293.886 820.151 294.554 819.875 295.25 819.875H297.875ZM295.25 821.625C295.018 821.625 294.795 821.717 294.631 821.881C294.467 822.045 294.375 822.268 294.375 822.5V826H295.146C295.378 826 295.602 826.092 295.766 826.256C295.93 826.42 296.021 826.643 296.021 826.875C296.021 827.107 295.93 827.33 295.766 827.494C295.602 827.658 295.378 827.75 295.146 827.75H294.375V836.5C294.375 836.732 294.467 836.955 294.631 837.119C294.795 837.283 295.018 837.375 295.25 837.375H305.75C305.982 837.375 306.205 837.283 306.369 837.119C306.533 836.955 306.625 836.732 306.625 836.5V827.75H305.854C305.622 827.75 305.398 827.658 305.234 827.494C305.07 827.33 304.979 827.107 304.979 826.875C304.979 826.643 305.07 826.42 305.234 826.256C305.398 826.092 305.622 826 305.854 826H306.625V822.5C306.625 822.268 306.533 822.045 306.369 821.881C306.205 821.717 305.982 821.625 305.75 821.625H303.89C303.696 822.377 303.258 823.044 302.645 823.52C302.031 823.995 301.276 824.254 300.5 824.254C299.724 824.254 298.969 823.995 298.355 823.52C297.742 823.044 297.304 822.377 297.11 821.625H295.25ZM299.265 826C299.496 826 299.719 826.092 299.883 826.256C300.047 826.42 300.14 826.643 300.14 826.875C300.14 827.107 300.047 827.33 299.883 827.494C299.719 827.658 299.496 827.75 299.265 827.75H297.618C297.386 827.75 297.163 827.658 296.999 827.494C296.835 827.33 296.743 827.107 296.743 826.875C296.743 826.643 296.835 826.42 296.999 826.256C297.163 826.092 297.386 826 297.618 826H299.265ZM303.382 826C303.614 826 303.837 826.092 304.001 826.256C304.165 826.42 304.257 826.643 304.257 826.875C304.257 827.107 304.165 827.33 304.001 827.494C303.837 827.658 303.614 827.75 303.382 827.75H301.735C301.504 827.75 301.281 827.658 301.117 827.494C300.953 827.33 300.86 827.107 300.86 826.875C300.86 826.643 300.953 826.42 301.117 826.256C301.281 826.092 301.504 826 301.735 826H303.382Z" fill="black"/>
<path d="M297.875 819.875C298.107 819.875 298.33 819.967 298.494 820.131C298.658 820.295 298.75 820.518 298.75 820.75C298.75 821.214 298.935 821.659 299.263 821.987C299.591 822.315 300.036 822.5 300.5 822.5C300.964 822.5 301.409 822.315 301.737 821.987C302.065 821.659 302.25 821.214 302.25 820.75C302.25 820.518 302.342 820.295 302.506 820.131C302.67 819.967 302.893 819.875 303.125 819.875H305.75C306.446 819.875 307.114 820.151 307.606 820.644C308.099 821.136 308.375 821.804 308.375 822.5V836.5C308.375 837.196 308.099 837.864 307.606 838.356C307.114 838.849 306.446 839.125 305.75 839.125H295.25C294.554 839.125 293.886 838.849 293.394 838.356C292.901 837.864 292.625 837.196 292.625 836.5V822.5C292.625 821.804 292.901 821.136 293.394 820.644C293.886 820.151 294.554 819.875 295.25 819.875H297.875ZM295.25 821.625C295.018 821.625 294.795 821.717 294.631 821.881C294.467 822.045 294.375 822.268 294.375 822.5V826H295.146C295.378 826 295.602 826.092 295.766 826.256C295.93 826.42 296.021 826.643 296.021 826.875C296.021 827.107 295.93 827.33 295.766 827.494C295.602 827.658 295.378 827.75 295.146 827.75H294.375V836.5C294.375 836.732 294.467 836.955 294.631 837.119C294.795 837.283 295.018 837.375 295.25 837.375H305.75C305.982 837.375 306.205 837.283 306.369 837.119C306.533 836.955 306.625 836.732 306.625 836.5V827.75H305.854C305.622 827.75 305.398 827.658 305.234 827.494C305.07 827.33 304.979 827.107 304.979 826.875C304.979 826.643 305.07 826.42 305.234 826.256C305.398 826.092 305.622 826 305.854 826H306.625V822.5C306.625 822.268 306.533 822.045 306.369 821.881C306.205 821.717 305.982 821.625 305.75 821.625H303.89C303.696 822.377 303.258 823.044 302.645 823.52C302.031 823.995 301.276 824.254 300.5 824.254C299.724 824.254 298.969 823.995 298.355 823.52C297.742 823.044 297.304 822.377 297.11 821.625H295.25ZM299.265 826C299.496 826 299.719 826.092 299.883 826.256C300.047 826.42 300.14 826.643 300.14 826.875C300.14 827.107 300.047 827.33 299.883 827.494C299.719 827.658 299.496 827.75 299.265 827.75H297.618C297.386 827.75 297.163 827.658 296.999 827.494C296.835 827.33 296.743 827.107 296.743 826.875C296.743 826.643 296.835 826.42 296.999 826.256C297.163 826.092 297.386 826 297.618 826H299.265ZM303.382 826C303.614 826 303.837 826.092 304.001 826.256C304.165 826.42 304.257 826.643 304.257 826.875C304.257 827.107 304.165 827.33 304.001 827.494C303.837 827.658 303.614 827.75 303.382 827.75H301.735C301.504 827.75 301.281 827.658 301.117 827.494C300.953 827.33 300.86 827.107 300.86 826.875C300.86 826.643 300.953 826.42 301.117 826.256C301.281 826.092 301.504 826 301.735 826H303.382Z" stroke="black"/>
<path d="M207 825.468H222V836.918C222 837.735 221.703 838.519 221.174 839.097C220.645 839.675 219.928 840 219.18 840H209.82C209.072 840 208.355 839.675 207.826 839.097C207.297 838.519 207 837.735 207 836.918V825.468Z" stroke="#020202" stroke-width="2" stroke-miterlimit="10"/>
<path d="M211.165 828.197V823.645C211.165 822.678 211.516 821.751 212.142 821.068C212.767 820.384 213.615 820 214.5 820C215.385 820 216.233 820.384 216.858 821.068C217.484 821.751 217.835 822.678 217.835 823.645V828.197" stroke="#020202" stroke-width="2" stroke-miterlimit="10"/>
<path d="M118.15 833C116.206 833.741 115 834.774 115 835.916C115 838.172 119.701 840 125.5 840C131.299 840 136 838.172 136 835.916C136 834.774 134.794 833.741 132.85 833M125.5 826H125.512M132.5 826C132.5 830.741 127.25 833 125.5 836.5C123.75 833 118.5 830.741 118.5 826C118.5 822.134 121.634 819 125.5 819C129.366 819 132.5 822.134 132.5 826ZM126.667 826C126.667 826.644 126.144 827.167 125.5 827.167C124.856 827.167 124.333 826.644 124.333 826C124.333 825.356 124.856 824.833 125.5 824.833C126.144 824.833 126.667 825.356 126.667 826Z" stroke="black" stroke-width="2" stroke-linecap="round" stroke-linejoin="round"/>
</g>
</g>
<defs>
<filter id="filter0_d_3012_360" x="31" y="18" width="360" height="212" filterUnits="userSpaceOnUse" color-interpolation-filters="sRGB">
<feFlood flood-opacity="0" result="BackgroundImageFix"/>
<feColorMatrix in="SourceAlpha" type="matrix" values="0 0 0 0 0 0 0 0 0 0 0 0 0 0 0 0 0 0 127 0" result="hardAlpha"/>
<feOffset dx="4" dy="4"/>
<feGaussianBlur stdDeviation="2"/>
<feComposite in2="hardAlpha" operator="out"/>
<feColorMatrix type="matrix" values="0 0 0 0 0 0 0 0 0 0 0 0 0 0 0 0 0 0 0.25 0"/>
<feBlend mode="normal" in2="BackgroundImageFix" result="effect1_dropShadow_3012_360"/>
<feBlend mode="normal" in="SourceGraphic" in2="effect1_dropShadow_3012_360" result="shape"/>
</filter>
<filter id="filter1_d_3012_360" x="177" y="200" width="68" height="68" filterUnits="userSpaceOnUse" color-interpolation-filters="sRGB">
<feFlood flood-opacity="0" result="BackgroundImageFix"/>
<feColorMatrix in="SourceAlpha" type="matrix" values="0 0 0 0 0 0 0 0 0 0 0 0 0 0 0 0 0 0 127 0" result="hardAlpha"/>
<feOffset dx="4" dy="4"/>
<feGaussianBlur stdDeviation="2"/>
<feComposite in2="hardAlpha" operator="out"/>
<feColorMatrix type="matrix" values="0 0 0 0 0 0 0 0 0 0 0 0 0 0 0 0 0 0 0.25 0"/>
<feBlend mode="normal" in2="BackgroundImageFix" result="effect1_dropShadow_3012_360"/>
<feBlend mode="normal" in="SourceGraphic" in2="effect1_dropShadow_3012_360" result="shape"/>
</filter>
<filter id="filter2_d_3012_360" x="20" y="350" width="382" height="158" filterUnits="userSpaceOnUse" color-interpolation-filters="sRGB">
<feFlood flood-opacity="0" result="BackgroundImageFix"/>
<feColorMatrix in="SourceAlpha" type="matrix" values="0 0 0 0 0 0 0 0 0 0 0 0 0 0 0 0 0 0 127 0" result="hardAlpha"/>
<feOffset dx="4" dy="4"/>
<feGaussianBlur stdDeviation="2"/>
<feComposite in2="hardAlpha" operator="out"/>
<feColorMatrix type="matrix" values="0 0 0 0 0 0 0 0 0 0 0 0 0 0 0 0 0 0 0.25 0"/>
<feBlend mode="normal" in2="BackgroundImageFix" result="effect1_dropShadow_3012_360"/>
<feBlend mode="normal" in="SourceGraphic" in2="effect1_dropShadow_3012_360" result="shape"/>
</filter>
<filter id="filter3_i_3012_360" x="1" y="800" width="414" height="98" filterUnits="userSpaceOnUse" color-interpolation-filters="sRGB">
<feFlood flood-opacity="0" result="BackgroundImageFix"/>
<feBlend mode="normal" in="SourceGraphic" in2="BackgroundImageFix" result="shape"/>
<feColorMatrix in="SourceAlpha" type="matrix" values="0 0 0 0 0 0 0 0 0 0 0 0 0 0 0 0 0 0 127 0" result="hardAlpha"/>
<feOffset dy="2"/>
<feGaussianBlur stdDeviation="1.25"/>
<feComposite in2="hardAlpha" operator="arithmetic" k2="-1" k3="1"/>
<feColorMatrix type="matrix" values="0 0 0 0 0.396267 0 0 0 0 0.396267 0 0 0 0 0.396267 0 0 0 0.25 0"/>
<feBlend mode="color-dodge" in2="shape" result="effect1_innerShadow_3012_360"/>
</filter>
<filter id="filter4_i_3012_360" x="1" y="800" width="416" height="100" filterUnits="userSpaceOnUse" color-interpolation-filters="sRGB">
<feFlood flood-opacity="0" result="BackgroundImageFix"/>
<feBlend mode="normal" in="SourceGraphic" in2="BackgroundImageFix" result="shape"/>
<feColorMatrix in="SourceAlpha" type="matrix" values="0 0 0 0 0 0 0 0 0 0 0 0 0 0 0 0 0 0 127 0" result="hardAlpha"/>
<feOffset dx="2" dy="4"/>
<feGaussianBlur stdDeviation="2"/>
<feComposite in2="hardAlpha" operator="arithmetic" k2="-1" k3="1"/>
<feColorMatrix type="matrix" values="0 0 0 0 0 0 0 0 0 0 0 0 0 0 0 0 0 0 0.25 0"/>
<feBlend mode="normal" in2="shape" result="effect1_innerShadow_3012_360"/>
</filter>
<linearGradient id="paint0_linear_3012_360" x1="12.1765" y1="-67" x2="363.484" y2="308.837" gradientUnits="userSpaceOnUse">
<stop stop-color="#C1B8F3"/>
<stop offset="1" stop-color="#FDE1A9"/>
</linearGradient>
<clipPath id="clip0_3012_360">
<rect width="414" height="896" fill="white"/>
</clipPath>
</defs>
</svg>
