<svg width="390" height="844" viewBox="0 0 390 844" fill="none" xmlns="http://www.w3.org/2000/svg">
  <defs>
    <linearGradient id="bg" x1="25" y1="32" x2="351" y2="820" gradientUnits="userSpaceOnUse">
      <stop stop-color="#D9E7FF"/>
      <stop offset="0.55" stop-color="#F2ECFF"/>
      <stop offset="1" stop-color="#E2D4FF"/>
    </linearGradient>
  </defs>

  <rect width="390" height="844" fill="url(#bg)"/>

  <circle cx="131" cy="35" r="22" fill="#E6E8F0"/>
  <rect x="162" y="20" width="84" height="16" rx="8" fill="#E6E8F0"/>
  <rect x="162" y="44" width="58" height="10" rx="5" fill="#E6E8F0"/>

  <rect x="64" y="84" width="262" height="48" rx="24" fill="#E8EDF5"/>
  <rect x="202" y="88" width="120" height="40" rx="20" fill="#F8FAFC"/>
  <rect x="103" y="102" width="50" height="12" rx="6" fill="#D9DFEC"/>
  <rect x="237" y="102" width="50" height="12" rx="6" fill="#D9DFEC"/>

  <rect x="14" y="152" width="150" height="16" rx="8" fill="#D8DDEB"/>
  <rect x="14" y="180" width="362" height="92" rx="18" fill="#F8FAFC"/>
  <rect x="30" y="205" width="74" height="10" rx="5" fill="#E5E7EB"/>
  <rect x="30" y="223" width="86" height="14" rx="7" fill="#D6DCE8"/>
  <rect x="30" y="250" width="96" height="10" rx="5" fill="#E5E7EB"/>
  <rect x="30" y="268" width="132" height="14" rx="7" fill="#D6DCE8"/>

  <rect x="14" y="296" width="174" height="16" rx="8" fill="#D8DDEB"/>
  <rect x="14" y="324" width="362" height="246" rx="18" fill="#F8FAFC"/>
  <rect x="32" y="347" width="20" height="20" rx="10" fill="#D8DDEB"/>
  <rect x="68" y="349" width="122" height="12" rx="6" fill="#D8DDEB"/>
  <rect x="321" y="345" width="28" height="28" rx="14" fill="#E8ECF3"/>
  <rect x="30" y="387" width="320" height="1" fill="#EEF2F6"/>

  <rect x="32" y="403" width="20" height="20" rx="10" fill="#D8DDEB"/>
  <rect x="68" y="405" width="146" height="12" rx="6" fill="#D8DDEB"/>
  <rect x="321" y="401" width="28" height="28" rx="14" fill="#E8ECF3"/>
  <rect x="30" y="443" width="320" height="1" fill="#EEF2F6"/>

  <rect x="32" y="459" width="20" height="20" rx="10" fill="#D8DDEB"/>
  <rect x="68" y="461" width="148" height="12" rx="6" fill="#D8DDEB"/>
  <rect x="321" y="457" width="28" height="28" rx="14" fill="#E8ECF3"/>
  <rect x="30" y="499" width="320" height="1" fill="#EEF2F6"/>

  <rect x="32" y="515" width="20" height="20" rx="10" fill="#D8DDEB"/>
  <rect x="68" y="517" width="142" height="12" rx="6" fill="#D8DDEB"/>
  <rect x="321" y="513" width="28" height="28" rx="14" fill="#E8ECF3"/>

  <rect x="14" y="596" width="150" height="16" rx="8" fill="#D8DDEB"/>
  <rect x="14" y="624" width="362" height="176" rx="22" fill="#F8FAFC"/>
  <rect x="32" y="647" width="20" height="20" rx="10" fill="#D8DDEB"/>
  <rect x="68" y="649" width="128" height="12" rx="6" fill="#D8DDEB"/>
  <rect x="321" y="645" width="28" height="28" rx="14" fill="#E8ECF3"/>
  <rect x="30" y="687" width="320" height="1" fill="#EEF2F6"/>

  <rect x="32" y="703" width="20" height="20" rx="10" fill="#D8DDEB" fill-opacity="0.75"/>
  <rect x="68" y="705" width="134" height="12" rx="6" fill="#D8DDEB"/>
  <rect x="321" y="701" width="28" height="28" rx="14" fill="#E8ECF3"/>
  <rect x="30" y="743" width="320" height="1" fill="#EEF2F6"/>

  <rect x="32" y="759" width="20" height="20" rx="10" fill="#F0D6D6"/>
  <rect x="68" y="761" width="86" height="12" rx="6" fill="#F0D6D6"/>
</svg>
