<svg width="390" height="844" viewBox="0 0 390 844" fill="none" xmlns="http://www.w3.org/2000/svg">
  <defs>
    <linearGradient id="bg" x1="32" y1="60" x2="334" y2="786" gradientUnits="userSpaceOnUse">
      <stop stop-color="#D9E7FF"/>
      <stop offset="0.55" stop-color="#F2ECFF"/>
      <stop offset="1" stop-color="#E2D4FF"/>
    </linearGradient>
    <linearGradient id="wallet" x1="62" y1="158" x2="328" y2="400" gradientUnits="userSpaceOnUse">
      <stop stop-color="#E2E8F8"/>
      <stop offset="1" stop-color="#D7DDF3"/>
    </linearGradient>
  </defs>

  <rect width="390" height="844" fill="url(#bg)"/>

  <circle cx="131" cy="35" r="22" fill="#E6E8F0"/>
  <rect x="162" y="20" width="84" height="16" rx="8" fill="#E6E8F0"/>
  <rect x="162" y="44" width="58" height="10" rx="5" fill="#E6E8F0"/>

  <rect x="64" y="84" width="262" height="48" rx="24" fill="#E8EDF5"/>
  <rect x="68" y="88" width="120" height="40" rx="20" fill="#F8FAFC"/>
  <rect x="103" y="102" width="50" height="12" rx="6" fill="#D9DFEC"/>
  <rect x="233" y="102" width="60" height="12" rx="6" fill="#D9DFEC"/>

  <rect x="62" y="148" width="266" height="196" rx="30" fill="url(#wallet)"/>
  <rect x="155" y="196" width="80" height="12" rx="6" fill="#EEF2F8"/>
  <rect x="110" y="229" width="140" height="32" rx="16" fill="#F8FAFC"/>
  <circle cx="282" cy="245" r="22" fill="#EEF2F8"/>
  <rect x="133" y="286" width="124" height="12" rx="6" fill="#EEF2F8"/>

  <rect x="145" y="328" width="100" height="44" rx="22" fill="#FFFFFF"/>

  <rect x="128" y="410" width="134" height="18" rx="9" fill="#E6E8F0"/>
  <rect x="168" y="438" width="54" height="6" rx="3" fill="#E6E8F0"/>

  <rect x="10" y="456" width="370" height="354" rx="34" fill="#FFFFFF"/>
  <rect x="172" y="470" width="46" height="6" rx="3" fill="#E5E7EB"/>

  <g opacity="0.98">
    <rect x="20" y="504" width="350" height="64" rx="18" fill="#FDFDFE"/>
    <circle cx="42" cy="536" r="16" fill="#F0F2F6"/>
    <rect x="68" y="520" width="180" height="14" rx="7" fill="#E5E7EB"/>
    <rect x="68" y="541" width="92" height="10" rx="5" fill="#ECEFF4"/>
    <rect x="300" y="522" width="52" height="14" rx="7" fill="#E8ECF3"/>
  </g>

  <g opacity="0.98">
    <rect x="20" y="580" width="350" height="64" rx="18" fill="#FDFDFE"/>
    <circle cx="42" cy="612" r="16" fill="#F0F2F6"/>
    <rect x="68" y="596" width="162" height="14" rx="7" fill="#E5E7EB"/>
    <rect x="68" y="617" width="88" height="10" rx="5" fill="#ECEFF4"/>
    <rect x="286" y="598" width="66" height="14" rx="7" fill="#E8ECF3"/>
  </g>

  <g opacity="0.98">
    <rect x="20" y="656" width="350" height="64" rx="18" fill="#FDFDFE"/>
    <circle cx="42" cy="688" r="16" fill="#F0F2F6"/>
    <rect x="68" y="672" width="174" height="14" rx="7" fill="#E5E7EB"/>
    <rect x="68" y="693" width="96" height="10" rx="5" fill="#ECEFF4"/>
    <rect x="300" y="674" width="52" height="14" rx="7" fill="#E8ECF3"/>
  </g>
</svg>
