<svg width="342" height="600" viewBox="0 0 342 600" fill="none" xmlns="http://www.w3.org/2000/svg">
  <!-- card 1 -->
  <rect x="0" y="0" width="342" height="120" rx="20" fill="#F1F5F9" />
  <rect x="20" y="20" width="100" height="20" rx="4" fill="#E2E8F0" />
  <rect x="20" y="90" width="60" height="12" rx="4" fill="#E2E8F0" />
  <rect x="290" y="20" width="30" height="30" rx="15" fill="#E2E8F0" />
  
  <!-- card 2 -->
  <rect x="0" y="140" width="342" height="120" rx="20" fill="#F1F5F9" />
  <rect x="20" y="160" width="140" height="20" rx="4" fill="#E2E8F0" />
  <rect x="20" y="230" width="70" height="12" rx="4" fill="#E2E8F0" />
  <rect x="290" y="160" width="30" height="30" rx="15" fill="#E2E8F0" />

  <!-- card 3 -->
  <rect x="0" y="280" width="342" height="120" rx="20" fill="#F1F5F9" />
  <rect x="20" y="300" width="120" height="20" rx="4" fill="#E2E8F0" />
  <rect x="20" y="370" width="60" height="12" rx="4" fill="#E2E8F0" />
  <rect x="290" y="300" width="30" height="30" rx="15" fill="#E2E8F0" />

  <!-- card 4 -->
  <rect x="0" y="420" width="342" height="120" rx="20" fill="#F1F5F9" />
  <rect x="20" y="440" width="90" height="20" rx="4" fill="#E2E8F0" />
  <rect x="20" y="510" width="50" height="12" rx="4" fill="#E2E8F0" />
  <rect x="290" y="440" width="30" height="30" rx="15" fill="#E2E8F0" />
</svg>
