<svg width="414" height="896" viewBox="0 0 414 896" fill="none" xmlns="http://www.w3.org/2000/svg">
<defs>
    <filter id="softShadow" x="-20%" y="-20%" width="140%" height="140%">
      <feDropShadow dx="0" dy="10" stdDeviation="15" flood-color="#000000" flood-opacity="0.10"/>
    </filter>
    <filter id="lowShadow" x="-10%" y="-10%" width="120%" height="120%">
      <feDropShadow dx="0" dy="4" stdDeviation="8" flood-color="#000000" flood-opacity="0.08"/>
    </filter>
    <linearGradient id="cardGrad" x1="0%" y1="0%" x2="100%" y2="100%">
      <stop offset="0%" stop-color="#5F8FF5" />
      <stop offset="55%" stop-color="#5565EA" />
      <stop offset="100%" stop-color="#5A24D9" />
    </linearGradient>
</defs>
<rect width="414" height="896" fill="#F3F4F6"/>
    <!-- Header -->
    <circle cx="50" cy="70" r="26" fill="#E5E7EB" stroke="#512BD4" stroke-width="3"/>
    
    <!-- User Icon Path -->
    <path d="M50 56C53.3137 56 56 58.6863 56 62C56 65.3137 53.3137 68 50 68C46.6863 68 44 65.3137 44 62C44 58.6863 46.6863 56 50 56ZM50 71C56.6274 71 62 74.5817 62 79V80H38V79C38 74.5817 43.3726 71 50 71Z" fill="#9CA3AF"/>
    
    <text x="95" y="65" font-family="'Segoe UI', Roboto, sans-serif" font-size="22" font-weight="900" fill="#111827">Luka S.</text>
    <circle cx="100" cy="81" r="4" fill="#10B981"/>
    <text x="110" y="85" font-family="'Segoe UI', Roboto, sans-serif" font-size="12" font-weight="bold" fill="#10B981">VERIFIED</text>
    <!-- Tab Switcher Active Account -->
    <rect x="20" y="130" width="374" height="54" rx="27" fill="#E2E8F0"/>
    <rect x="205" y="134" width="185" height="46" rx="23" fill="#FFFFFF" filter="url(#lowShadow)"/>
    <text x="116" y="162" font-family="sans-serif" font-size="16" font-weight="bold" fill="#64748B" text-anchor="middle">Wallet</text>
    <text x="303" y="162" font-family="sans-serif" font-size="16" font-weight="bold" fill="#512BD4" text-anchor="middle">Account</text>
    
    <text x="20" y="235" font-family="sans-serif" font-size="18" font-weight="bold" fill="#111827">Personal Information</text>
    <rect x="20" y="250" width="374" height="130" rx="18" fill="#FFFFFF" filter="url(#lowShadow)"/>
    <text x="40" y="285" font-family="sans-serif" font-size="11" font-weight="bold" fill="#94A3B8">FULL NAME</text>
    <text x="40" y="305" font-family="sans-serif" font-size="17" font-weight="bold" fill="#111827">Luka Luksa</text>
    <text x="40" y="340" font-family="sans-serif" font-size="11" font-weight="bold" fill="#94A3B8">EMAIL ADDRESS</text>
    <text x="40" y="360" font-family="sans-serif" font-size="17" font-weight="bold" fill="#111827">luksa@getthere.com</text>

    <text x="20" y="425" font-family="sans-serif" font-size="18" font-weight="bold" fill="#111827">Settings &amp; Security</text>
    <rect x="20" y="440" width="374" height="165" rx="18" fill="#FFFFFF" filter="url(#lowShadow)"/>
    <text x="40" y="475" font-family="sans-serif" font-size="16" fill="#111827">Account Privacy</text>
    <!-- Arrow vector instead of unicode -->
    <path d="M370 468L376 472L370 476" stroke="#D1D5DB" stroke-width="2" stroke-linecap="round" fill="none"/>
    <rect x="40" y="495" width="330" height="1" fill="#F1F5F9"/>

    <text x="40" y="530" font-family="sans-serif" font-size="16" fill="#111827">Payment Methods</text>
    <!-- Arrow vector instead of unicode -->
    <path d="M370 523L376 527L370 531" stroke="#D1D5DB" stroke-width="2" stroke-linecap="round" fill="none"/>
    <rect x="40" y="550" width="330" height="1" fill="#F1F5F9"/>

    <text x="40" y="585" font-family="sans-serif" font-size="16" fill="#111827">Change Password</text>
    <!-- Arrow vector instead of unicode -->
    <path d="M370 578L376 582L370 586" stroke="#D1D5DB" stroke-width="2" stroke-linecap="round" fill="none"/>

    <text x="20" y="655" font-family="sans-serif" font-size="18" font-weight="bold" fill="#111827">Support &amp; More</text>
    <rect x="20" y="670" width="374" height="110" rx="18" fill="#FFFFFF" filter="url(#lowShadow)"/>
    <text x="40" y="705" font-family="sans-serif" font-size="16" fill="#111827">Help Center</text>
    <rect x="40" y="725" width="330" height="1" fill="#F1F5F9"/>
    <text x="40" y="760" font-family="sans-serif" font-size="16" font-weight="bold" fill="#991B1B">Sign Out</text>
</svg>
