<?xml version="1.0" encoding="utf-8"?>
<svg version="1.1" xmlns="http://www.w3.org/2000/svg" viewBox="0 0 414 896">
<style type="text/css">.st0{fill:url(#SVGID_1_);}.st1{fill:#E6E8F0;}.st2{fill:#E8EDF5;}.st3{fill:#F8FAFC;}.st4{fill:#D9DFEC;}.st5{fill:#D8DDEB;}.st6{fill:#E5E7EB;}.st7{fill:#D6DCE8;}.st8{fill:#E8ECF3;}.st9{fill:#EEF2F6;}.st10{fill:#D8DDEB;fill-opacity:0.75;}.st11{fill:#F0D6D6;}</style>
<linearGradient id="SVGID_1_" gradientUnits="userSpaceOnUse" x1="33.4519" y1="869.4966" x2="359.4519" y2="81.4966" gradientTransform="matrix(1 0 0 -1 0 898)"><stop offset="0" style="stop-color:#D9E7FF"/><stop offset="0.55" style="stop-color:#F2ECFF"/><stop offset="1" style="stop-color:#E2D4FF"/></linearGradient>
<rect class="st0" width="414" height="896"/>
<circle class="st1" cx="154.9" cy="41" r="30"/>
<path class="st1" d="M208.9,23h68c4.4,0,8,3.6,8,8l0,0c0,4.4-3.6,8-8,8h-68c-4.4,0-8-3.6-8-8l0,0C200.9,26.6,204.5,23,208.9,23z"/>
<path class="st1" d="M205.9,47h48c2.8,0,5,2.2,5,5l0,0c0,2.8-2.2,5-5,5h-48c-2.8,0-5-2.2-5-5l0,0C200.9,49.2,203.1,47,205.9,47z"/>
<path class="st2" d="M49,82h316c13.8,0,25,11.2,25,25l0,0c0,13.8-11.2,25-25,25H49c-13.8,0-25-11.2-25-25l0,0C24,93.2,35.2,82,49,82z"/>
<path class="st3" d="M232,86h133c11.6,0,21,9.4,21,21l0,0c0,11.6-9.4,21-21,21H232c-11.6,0-21-9.4-21-21l0,0C211,95.4,220.4,86,232,86z"/>
<path class="st4" d="M91,100h48c3.3,0,6,2.7,6,6l0,0c0,3.3-2.7,6-6,6H91c-3.3,0-6-2.7-6-6l0,0C85,102.7,87.7,100,91,100z"/>
<path class="st4" d="M273,100h52c3.3,0,6,2.7,6,6l0,0c0,3.3-2.7,6-6,6h-52c-3.3,0-6-2.7-6-6l0,0C267,102.7,269.7,100,273,100z"/>
<path class="st5" d="M28,152h134c4.4,0,8,3.6,8,8l0,0c0,4.4-3.6,8-8,8H28c-4.4,0-8-3.6-8-8l0,0C20,155.6,23.6,152,28,152z"/>
<path class="st3" d="M34,180h346c7.7,0,14,6.3,14,14v78c0,7.7-6.3,14-14,14H34c-7.7,0-14-6.3-14-14v-78C20,186.3,26.3,180,34,180z"/>
<path class="st6" d="M38.3,191h64c2.8,0,5,2.2,5,5l0,0c0,2.8-2.2,5-5,5h-64c-2.8,0-5-2.2-5-5l0,0C33.3,193.2,35.6,191,38.3,191z"/>
<path class="st7" d="M40.3,209h84c3.9,0,7,3.1,7,7l0,0c0,3.9-3.1,7-7,7h-84c-3.9,0-7-3.1-7-7l0,0C33.3,212.1,36.5,209,40.3,209z"/>
<path class="st6" d="M38.3,239h86c2.8,0,5,2.2,5,5l0,0c0,2.8-2.2,5-5,5h-86c-2.8,0-5-2.2-5-5l0,0C33.3,241.2,35.6,239,38.3,239z"/>
<path class="st7" d="M40.3,257h124c3.9,0,7,3.1,7,7l0,0c0,3.9-3.1,7-7,7h-124c-3.9,0-7-3.1-7-7l0,0C33.3,260.1,36.5,257,40.3,257z"/>
<path class="st3" d="M34,330h346c7.7,0,14,6.3,14,14v156c0,7.7-6.3,14-14,14H34c-7.7,0-14-6.3-14-14V344C20,336.3,26.3,330,34,330z"/>
<circle class="st5" cx="44" cy="361" r="10"/><path class="st5" d="M74,355h110c3.3,0,6,2.7,6,6l0,0c0,3.3-2.7,6-6,6H74c-3.3,0-6-2.7-6-6l0,0C68,357.7,70.7,355,74,355z"/><circle class="st8" cx="370" cy="361" r="14"/><rect x="40" y="378" class="st9" width="334" height="1"/>
<circle class="st5" cx="44" cy="409" r="10"/><path class="st5" d="M74,403h134c3.3,0,6,2.7,6,6l0,0c0,3.3-2.7,6-6,6H74c-3.3,0-6-2.7-6-6l0,0C68,405.7,70.7,403,74,403z"/><circle class="st8" cx="370" cy="409" r="14"/><rect x="40" y="426" class="st9" width="334" height="1"/>
<circle class="st5" cx="44" cy="457" r="10"/><path class="st5" d="M74,451h136c3.3,0,6,2.7,6,6l0,0c0,3.3-2.7,6-6,6H74c-3.3,0-6-2.7-6-6l0,0C68,453.7,70.7,451,74,451z"/><circle class="st8" cx="370" cy="457" r="14"/><rect x="40" y="474" class="st9" width="334" height="1"/>
<circle class="st5" cx="44" cy="499" r="10"/><path class="st5" d="M74,493h130c3.3,0,6,2.7,6,6l0,0c0,3.3-2.7,6-6,6H74c-3.3,0-6-2.7-6-6l0,0C68,495.7,70.7,493,74,493z"/><circle class="st8" cx="370" cy="505" r="14"/>
<path class="st3" d="M40,558h334c11,0,20,9,20,20v106c0,11-9,20-20,20H40c-11,0-20-9-20-20V578C20,567,29,558,40,558z"/>
<circle class="st5" cx="44" cy="591" r="10"/><path class="st5" d="M74,585h116c3.3,0,6,2.7,6,6l0,0c0,3.3-2.7,6-6,6H74c-3.3,0-6-2.7-6-6l0,0C68,587.7,70.7,585,74,585z"/><circle class="st8" cx="370" cy="591" r="14"/><rect x="40" y="608" class="st9" width="334" height="1"/>
<circle class="st10" cx="44" cy="639" r="10"/><path class="st5" d="M74,633h122c3.3,0,6,2.7,6,6l0,0c0,3.3-2.7,6-6,6H74c-3.3,0-6-2.7-6-6l0,0C68,635.7,70.7,633,74,633z"/><circle class="st8" cx="370" cy="639" r="14"/><rect x="40" y="656" class="st9" width="334" height="1"/>
<circle class="st11" cx="44" cy="687" r="10"/><path class="st11" d="M74,681h74c3.3,0,6,2.7,6,6l0,0c0,3.3-2.7,6-6,6H74c-3.3,0-6-2.7-6-6l0,0C68,683.7,70.7,681,74,681z"/>
</svg>
