<?xml version="1.0" encoding="utf-8"?>
<!-- Generator: Adobe Illustrator 27.3.1, SVG Export Plug-In . SVG Version: 6.00 Build 0)  -->
<svg version="1.1" id="Layer_1" xmlns="http://www.w3.org/2000/svg" xmlns:xlink="http://www.w3.org/1999/xlink" x="0px" y="0px"
	 viewBox="0 0 414 896" style="enable-background:new 0 0 414 896;" xml:space="preserve">
<style type="text/css">
	.st0{fill:url(#SVGID_1_);}
	.st1{fill:#E6E8F0;}
	.st2{fill:#E8EDF5;}
	.st3{fill:#F8FAFC;}
	.st4{fill:#D9DFEC;}
	.st5{fill:#D8DDEB;}
	.st6{fill:#E5E7EB;}
	.st7{fill:#D6DCE8;}
	.st8{fill:#E8ECF3;}
	.st9{fill:#EEF2F6;}
	.st10{fill:#D8DDEB;fill-opacity:0.75;}
	.st11{fill:#F0D6D6;}
</style>
<linearGradient id="SVGID_1_" gradientUnits="userSpaceOnUse" x1="33.4519" y1="212.5034" x2="359.4519" y2="1000.5034" gradientTransform="matrix(1 0 0 1 0 -182)">
	<stop  offset="0" style="stop-color:#D9E7FF"/>
	<stop  offset="0.55" style="stop-color:#F2ECFF"/>
	<stop  offset="1" style="stop-color:#E2D4FF"/>
</linearGradient>
<rect y="2" class="st0" width="414" height="896"/>
<circle class="st1" cx="154.9" cy="116" r="30"/>
<path class="st1" d="M208.9,98h68c4.4,0,8,3.6,8,8l0,0c0,4.4-3.6,8-8,8h-68c-4.4,0-8-3.6-8-8l0,0C200.9,101.6,204.5,98,208.9,98z"/>
<path class="st1" d="M205.9,122h48c2.8,0,5,2.2,5,5l0,0c0,2.8-2.2,5-5,5h-48c-2.8,0-5-2.2-5-5l0,0C200.9,124.2,203.1,122,205.9,122z
	"/>
<path class="st2" d="M49,157h316c13.8,0,25,11.2,25,25l0,0c0,13.8-11.2,25-25,25H49c-13.8,0-25-11.2-25-25l0,0
	C24,168.2,35.2,157,49,157z"/>
<path class="st3" d="M232,161h133c11.6,0,21,9.4,21,21l0,0c0,11.6-9.4,21-21,21H232c-11.6,0-21-9.4-21-21l0,0
	C211,170.4,220.4,161,232,161z"/>
<path class="st4" d="M91,175h48c3.3,0,6,2.7,6,6l0,0c0,3.3-2.7,6-6,6H91c-3.3,0-6-2.7-6-6l0,0C85,177.7,87.7,175,91,175z"/>
<path class="st4" d="M273,175h52c3.3,0,6,2.7,6,6l0,0c0,3.3-2.7,6-6,6h-52c-3.3,0-6-2.7-6-6l0,0C267,177.7,269.7,175,273,175z"/>
<path class="st5" d="M28,227h134c4.4,0,8,3.6,8,8l0,0c0,4.4-3.6,8-8,8H28c-4.4,0-8-3.6-8-8l0,0C20,230.6,23.6,227,28,227z"/>
<path class="st3" d="M34,255h346c7.7,0,14,6.3,14,14v78c0,7.7-6.3,14-14,14H34c-7.7,0-14-6.3-14-14v-78C20,261.3,26.3,255,34,255z"
	/>
<path class="st6" d="M38.3,266h64c2.8,0,5,2.2,5,5l0,0c0,2.8-2.2,5-5,5h-64c-2.8,0-5-2.2-5-5l0,0C33.3,268.2,35.6,266,38.3,266z"/>
<path class="st7" d="M40.3,284h84c3.9,0,7,3.1,7,7l0,0c0,3.9-3.1,7-7,7h-84c-3.9,0-7-3.1-7-7l0,0C33.3,287.1,36.5,284,40.3,284z"/>
<path class="st6" d="M38.3,314h86c2.8,0,5,2.2,5,5l0,0c0,2.8-2.2,5-5,5h-86c-2.8,0-5-2.2-5-5l0,0C33.3,316.2,35.6,314,38.3,314z"/>
<path class="st7" d="M40.3,332h124c3.9,0,7,3.1,7,7l0,0c0,3.9-3.1,7-7,7h-124c-3.9,0-7-3.1-7-7l0,0C33.3,335.1,36.5,332,40.3,332z"
	/>
<path class="st3" d="M34,405h346c7.7,0,14,6.3,14,14v156c0,7.7-6.3,14-14,14H34c-7.7,0-14-6.3-14-14V419C20,411.3,26.3,405,34,405z"
	/>
<circle class="st5" cx="44" cy="436" r="10"/>
<path class="st5" d="M74,430h110c3.3,0,6,2.7,6,6l0,0c0,3.3-2.7,6-6,6H74c-3.3,0-6-2.7-6-6l0,0C68,432.7,70.7,430,74,430z"/>
<circle class="st8" cx="370" cy="436" r="14"/>
<rect x="40" y="453" class="st9" width="334" height="1"/>
<circle class="st5" cx="44" cy="484" r="10"/>
<path class="st5" d="M74,478h134c3.3,0,6,2.7,6,6l0,0c0,3.3-2.7,6-6,6H74c-3.3,0-6-2.7-6-6l0,0C68,480.7,70.7,478,74,478z"/>
<circle class="st8" cx="370" cy="484" r="14"/>
<rect x="40" y="501" class="st9" width="334" height="1"/>
<circle class="st5" cx="44" cy="532" r="10"/>
<path class="st5" d="M74,526h136c3.3,0,6,2.7,6,6l0,0c0,3.3-2.7,6-6,6H74c-3.3,0-6-2.7-6-6l0,0C68,528.7,70.7,526,74,526z"/>
<circle class="st8" cx="370" cy="532" r="14"/>
<rect x="40" y="549" class="st9" width="334" height="1"/>
<circle class="st5" cx="44" cy="574" r="10"/>
<path class="st5" d="M74,568h130c3.3,0,6,2.7,6,6l0,0c0,3.3-2.7,6-6,6H74c-3.3,0-6-2.7-6-6l0,0C68,570.7,70.7,568,74,568z"/>
<circle class="st8" cx="370" cy="580" r="14"/>
<path class="st3" d="M40,633h334c11,0,20,9,20,20v106c0,11-9,20-20,20H40c-11,0-20-9-20-20V653C20,642,29,633,40,633z"/>
<circle class="st5" cx="44" cy="666" r="10"/>
<path class="st5" d="M74,660h116c3.3,0,6,2.7,6,6l0,0c0,3.3-2.7,6-6,6H74c-3.3,0-6-2.7-6-6l0,0C68,662.7,70.7,660,74,660z"/>
<circle class="st8" cx="370" cy="666" r="14"/>
<rect x="40" y="683" class="st9" width="334" height="1"/>
<circle class="st10" cx="44" cy="714" r="10"/>
<path class="st5" d="M74,708h122c3.3,0,6,2.7,6,6l0,0c0,3.3-2.7,6-6,6H74c-3.3,0-6-2.7-6-6l0,0C68,710.7,70.7,708,74,708z"/>
<circle class="st8" cx="370" cy="714" r="14"/>
<rect x="40" y="731" class="st9" width="334" height="1"/>
<circle class="st11" cx="44" cy="762" r="10"/>
<path class="st11" d="M74,756h74c3.3,0,6,2.7,6,6l0,0c0,3.3-2.7,6-6,6H74c-3.3,0-6-2.7-6-6l0,0C68,758.7,70.7,756,74,756z"/>
</svg>
