<?xml version="1.0" encoding="utf-8"?>
<!-- Generator: Adobe Illustrator 27.3.1, SVG Export Plug-In . SVG Version: 6.00 Build 0)  -->
<svg version="1.1" id="Layer_1" xmlns="http://www.w3.org/2000/svg" xmlns:xlink="http://www.w3.org/1999/xlink" x="0px" y="0px"
	 viewBox="0 0 414 896" style="enable-background:new 0 0 414 896;" xml:space="preserve">
<style type="text/css">
	.st0{fill:#E5E7EB;}
	.st1{fill:#E2E8F0;}
	.st2{fill:#FFFFFF;}
	.st3{fill:#D8DEE8;}
	.st4{fill:#F8FAFC;}
</style>
<circle class="st0" cx="140" cy="115" r="30"/>
<path class="st0" d="M195,97h92c5,0,9,4,9,9l0,0c0,5-4,9-9,9h-92c-5,0-9-4-9-9l0,0C186,101,190,97,195,97z"/>
<path class="st0" d="M192,121h62c3.3,0,6,2.7,6,6l0,0c0,3.3-2.7,6-6,6h-62c-3.3,0-6-2.7-6-6l0,0C186,123.7,188.7,121,192,121z"/>
<path class="st1" d="M49,169h316c13.8,0,25,11.2,25,25l0,0c0,13.8-11.2,25-25,25H49c-13.8,0-25-11.2-25-25l0,0
	C24,180.2,35.2,169,49,169z"/>
<path class="st2" d="M49,173h133c11.6,0,21,9.4,21,21l0,0c0,11.6-9.4,21-21,21H49c-11.6,0-21-9.4-21-21l0,0
	C28,182.4,37.4,173,49,173z"/>
<path class="st0" d="M51,234h312c13.3,0,24,10.7,24,24v140c0,13.3-10.7,24-24,24H51c-13.3,0-24-10.7-24-24V258
	C27,244.7,37.7,234,51,234z"/>
<path class="st3" d="M131,280h96c3.3,0,6,2.7,6,6l0,0c0,3.3-2.7,6-6,6h-96c-3.3,0-6-2.7-6-6l0,0C125,282.7,127.7,280,131,280z"/>
<path class="st3" d="M111,315h136c5.5,0,10,4.5,10,10v14c0,5.5-4.5,10-10,10H111c-5.5,0-10-4.5-10-10v-14
	C101,319.5,105.5,315,111,315z"/>
<path class="st3" d="M127,359h104c3.3,0,6,2.7,6,6l0,0c0,3.3-2.7,6-6,6H127c-3.3,0-6-2.7-6-6l0,0C121,361.7,123.7,359,127,359z"/>
<path class="st3" d="M352,307L352,307c11.6,0,21,9.4,21,21l0,0c0,11.6-9.4,21-21,21l0,0c-11.6,0-21-9.4-21-21l0,0
	C331,316.4,340.4,307,352,307z"/>
<path class="st2" d="M185,404h44c13.3,0,24,10.7,24,24l0,0c0,13.3-10.7,24-24,24h-44c-13.3,0-24-10.7-24-24l0,0
	C161,414.7,171.7,404,185,404z"/>
<path class="st0" d="M193,421h28c2.8,0,5,2.2,5,5l0,0c0,2.8-2.2,5-5,5h-28c-2.8,0-5-2.2-5-5l0,0C188,423.2,190.2,421,193,421z"/>
<path class="st0" d="M152,475h110c3.3,0,6,2.7,6,6l0,0c0,3.3-2.7,6-6,6H152c-3.3,0-6-2.7-6-6l0,0C146,477.7,148.7,475,152,475z"/>
<path class="st2" d="M0,513c0-19.9,16.1-36,36-36h342c19.9,0,36,16.1,36,36v470H0V513z"/>
<path class="st0" d="M189,507h36c1.1,0,2,0.9,2,2l0,0c0,1.1-0.9,2-2,2h-36c-1.1,0-2-0.9-2-2l0,0C187,507.9,187.9,507,189,507z"/>
<path class="st4" d="M36,541h342c6.6,0,12,5.4,12,12v28c0,6.6-5.4,12-12,12H36c-6.6,0-12-5.4-12-12v-28C24,546.4,29.4,541,36,541z"
	/>
<path class="st1" d="M52,549L52,549c9.9,0,18,8.1,18,18l0,0c0,9.9-8.1,18-18,18l0,0c-9.9,0-18-8.1-18-18l0,0
	C34,557.1,42.1,549,52,549z"/>
<path class="st1" d="M86,558h96c3.3,0,6,2.7,6,6l0,0c0,3.3-2.7,6-6,6H86c-3.3,0-6-2.7-6-6l0,0C80,560.7,82.7,558,86,558z"/>
<path class="st1" d="M85,576h62c2.8,0,5,2.2,5,5l0,0c0,2.8-2.2,5-5,5H85c-2.8,0-5-2.2-5-5l0,0C80,578.2,82.2,576,85,576z"/>
<path class="st1" d="M325,563h44c2.8,0,5,2.2,5,5l0,0c0,2.8-2.2,5-5,5h-44c-2.8,0-5-2.2-5-5l0,0C320,565.2,322.2,563,325,563z"/>
<path class="st4" d="M36,601h342c6.6,0,12,5.4,12,12v28c0,6.6-5.4,12-12,12H36c-6.6,0-12-5.4-12-12v-28C24,606.4,29.4,601,36,601z"
	/>
<path class="st1" d="M52,609L52,609c9.9,0,18,8.1,18,18l0,0c0,9.9-8.1,18-18,18l0,0c-9.9,0-18-8.1-18-18l0,0
	C34,617.1,42.1,609,52,609z"/>
<path class="st1" d="M86,618h112c3.3,0,6,2.7,6,6l0,0c0,3.3-2.7,6-6,6H86c-3.3,0-6-2.7-6-6l0,0C80,620.7,82.7,618,86,618z"/>
<path class="st1" d="M85,636h58c2.8,0,5,2.2,5,5l0,0c0,2.8-2.2,5-5,5H85c-2.8,0-5-2.2-5-5l0,0C80,638.2,82.2,636,85,636z"/>
<path class="st1" d="M321,623h48c2.8,0,5,2.2,5,5l0,0c0,2.8-2.2,5-5,5h-48c-2.8,0-5-2.2-5-5l0,0C316,625.2,318.2,623,321,623z"/>
</svg>
