<?xml version="1.0" encoding="utf-8"?>
<!-- Generator: Adobe Illustrator 27.3.1, SVG Export Plug-In . SVG Version: 6.00 Build 0)  -->
<svg version="1.1" id="Layer_1" xmlns="http://www.w3.org/2000/svg" xmlns:xlink="http://www.w3.org/1999/xlink" x="0px" y="0px"
	 viewBox="0 0 390 844" style="enable-background:new 0 0 390 844;" xml:space="preserve">
<style type="text/css">
	.st0{fill:#E5E7EB;}
</style>
<path class="st0" d="M39.3,46h297.3c8.5,0,15.3,5.1,15.3,11.4v48.3c0,6.3-6.9,11.4-15.3,11.4H39.3c-8.5,0-15.3-5.1-15.3-11.4V57.4
	C24,51.1,30.9,46,39.3,46z"/>
<path class="st0" d="M39.3,135h297.3c8.5,0,15.3,5.1,15.3,11.4v48.3c0,6.3-6.9,11.4-15.3,11.4H39.3c-8.5,0-15.3-5.1-15.3-11.4v-48.3
	C24,140.1,30.9,135,39.3,135z"/>
<path class="st0" d="M39.3,224h297.3c8.5,0,15.3,5.1,15.3,11.4v48.3c0,6.3-6.9,11.4-15.3,11.4H39.3c-8.5,0-15.3-5.1-15.3-11.4v-48.3
	C24,229.1,30.9,224,39.3,224z"/>
</svg>
