<?xml version="1.0" encoding="utf-8"?>
<!-- Generator: Adobe Illustrator 27.3.1, SVG Export Plug-In . SVG Version: 6.00 Build 0)  -->
<svg version="1.1" id="Layer_1" xmlns="http://www.w3.org/2000/svg" xmlns:xlink="http://www.w3.org/1999/xlink" x="0px" y="0px"
	 viewBox="0 0 414 896" style="enable-background:new 0 0 414 896;" xml:space="preserve">
<style type="text/css">
	.st0{fill:#1F2937;}
	.st1{fill:none;stroke:#394859;stroke-miterlimit:10;}
	.st2{fill:#334155;}
	.st3{fill:#748593;}
	.st4{fill:#F0D6D6;}
	.st5{fill:#111827;}
</style>
<rect class="st0" width="414" height="896"/>
<path class="st1" d="M35,243h346c7.7,0,14,6.3,14,14v78c0,7.7-6.3,14-14,14H35c-7.7,0-14-6.3-14-14v-78C21,249.3,27.3,243,35,243z"
	/>
<path class="st2" d="M59.3,258.5h64c2.8,0,5,2.2,5,5l0,0c0,2.8-2.2,5-5,5h-64c-2.8,0-5-2.2-5-5l0,0
	C54.3,260.7,56.5,258.5,59.3,258.5z"/>
<path class="st2" d="M60,279.2h84c3.9,0,7,3.1,7,7l0,0c0,3.9-3.1,7-7,7H60c-3.9,0-7-3.1-7-7l0,0C53,282.4,56.1,279.2,60,279.2z"/>
<path class="st2" d="M59,304h86c2.8,0,5,2.2,5,5l0,0c0,2.8-2.2,5-5,5H59c-2.8,0-5-2.2-5-5l0,0C54,306.2,56.2,304,59,304z"/>
<path class="st2" d="M61,321.7h124c3.9,0,7,3.1,7,7l0,0c0,3.9-3.1,7-7,7H61c-3.9,0-7-3.1-7-7l0,0C54,324.8,57.1,321.7,61,321.7z"/>
<path class="st1" d="M35,393h346c7.7,0,14,6.3,14,14v156c0,7.7-6.3,14-14,14H35c-7.7,0-14-6.3-14-14V407C21,399.3,27.3,393,35,393z"
	/>
<circle class="st2" cx="57" cy="413" r="10"/>
<path class="st2" d="M87,407h110c3.3,0,6,2.7,6,6l0,0c0,3.3-2.7,6-6,6H87c-3.3,0-6-2.7-6-6l0,0C81,409.7,83.7,407,87,407z"/>
<rect x="53" y="430" class="st3" width="334" height="1"/>
<circle class="st2" cx="57" cy="461" r="10"/>
<path class="st2" d="M87,455h134c3.3,0,6,2.7,6,6l0,0c0,3.3-2.7,6-6,6H87c-3.3,0-6-2.7-6-6l0,0C81,457.7,83.7,455,87,455z"/>
<rect x="53" y="478" class="st3" width="334" height="1"/>
<circle class="st2" cx="57" cy="509" r="10"/>
<path class="st2" d="M87,503h136c3.3,0,6,2.7,6,6l0,0c0,3.3-2.7,6-6,6H87c-3.3,0-6-2.7-6-6l0,0C81,505.7,83.7,503,87,503z"/>
<rect x="53" y="526" class="st3" width="334" height="1"/>
<circle class="st2" cx="57" cy="557" r="10"/>
<path class="st2" d="M87,551h130c3.3,0,6,2.7,6,6l0,0c0,3.3-2.7,6-6,6H87c-3.3,0-6-2.7-6-6l0,0C81,553.7,83.7,551,87,551z"/>
<path class="st1" d="M41,621h334c11,0,20,9,20,20v106c0,11-9,20-20,20H41c-11,0-20-9-20-20V641C21,630,30,621,41,621z"/>
<circle class="st2" cx="57" cy="649" r="10"/>
<path class="st2" d="M87,643h116c3.3,0,6,2.7,6,6l0,0c0,3.3-2.7,6-6,6H87c-3.3,0-6-2.7-6-6l0,0C81,645.7,83.7,643,87,643z"/>
<rect x="39" y="667" class="st3" width="334" height="1"/>
<circle class="st2" cx="57" cy="697" r="10"/>
<path class="st2" d="M87,691h122c3.3,0,6,2.7,6,6l0,0c0,3.3-2.7,6-6,6H87c-3.3,0-6-2.7-6-6l0,0C81,693.7,83.7,691,87,691z"/>
<rect x="39" y="715" class="st3" width="334" height="1"/>
<circle class="st4" cx="57" cy="747" r="10"/>
<path class="st4" d="M87,741h74c3.3,0,6,2.7,6,6l0,0c0,3.3-2.7,6-6,6H87c-3.3,0-6-2.7-6-6l0,0C81,743.7,83.7,741,87,741z"/>
<circle class="st2" cx="134" cy="104" r="30"/>
<path class="st2" d="M189,86h92c5,0,9,4,9,9l0,0c0,5-4,9-9,9h-92c-5,0-9-4-9-9l0,0C180,90,184.1,86,189,86z"/>
<path class="st2" d="M186,110h62c3.3,0,6,2.7,6,6l0,0c0,3.3-2.7,6-6,6h-62c-3.3,0-6-2.7-6-6l0,0C180,112.7,182.7,110,186,110z"/>
<path class="st2" d="M50,157.5h316c13.8,0,25,11.2,25,25l0,0c0,13.8-11.2,25-25,25H50c-13.8,0-25-11.2-25-25l0,0
	C25,168.7,36.2,157.5,50,157.5z"/>
<path class="st5" d="M234,161.5h133c11.6,0,21,9.4,21,21l0,0c0,11.6-9.4,21-21,21H234c-11.6,0-21-9.4-21-21l0,0
	C213,170.9,222.4,161.5,234,161.5z"/>
</svg>
