<svg width="342" height="600" viewBox="0 0 342 600" fill="none" xmlns="http://www.w3.org/2000/svg">
  <!-- row 1 -->
  <rect x="0" y="0" width="342" height="80" rx="14" fill="#F1F5F9" />
  <circle cx="40" cy="40" r="22" fill="#E2E8F0" />
  <rect x="80" y="20" width="160" height="16" rx="4" fill="#E2E8F0" />
  <rect x="80" y="46" width="90" height="12" rx="4" fill="#E2E8F0" />
  <rect x="260" y="26" width="60" height="28" rx="8" fill="#E2E8F0" />
  <!-- row 2 -->
  <rect x="0" y="95" width="342" height="80" rx="14" fill="#F1F5F9" />
  <circle cx="40" cy="135" r="22" fill="#E2E8F0" />
  <rect x="80" y="115" width="180" height="16" rx="4" fill="#E2E8F0" />
  <rect x="80" y="141" width="100" height="12" rx="4" fill="#E2E8F0" />
  <rect x="260" y="121" width="60" height="28" rx="8" fill="#E2E8F0" />
  <!-- row 3 -->
  <rect x="0" y="190" width="342" height="80" rx="14" fill="#F1F5F9" />
  <circle cx="40" cy="230" r="22" fill="#E2E8F0" />
  <rect x="80" y="210" width="120" height="16" rx="4" fill="#E2E8F0" />
  <rect x="80" y="236" width="80" height="12" rx="4" fill="#E2E8F0" />
  <rect x="260" y="216" width="60" height="28" rx="8" fill="#E2E8F0" />
  <!-- row 4 -->
  <rect x="0" y="285" width="342" height="80" rx="14" fill="#F1F5F9" />
  <circle cx="40" cy="325" r="22" fill="#E2E8F0" />
  <rect x="80" y="305" width="140" height="16" rx="4" fill="#E2E8F0" />
  <rect x="80" y="331" width="90" height="12" rx="4" fill="#E2E8F0" />
  <rect x="260" y="311" width="60" height="28" rx="8" fill="#E2E8F0" />
</svg>
