<?xml version="1.0" encoding="utf-8"?>
<!-- Generator: Adobe Illustrator 27.3.1, SVG Export Plug-In . SVG Version: 6.00 Build 0)  -->
<svg version="1.1" id="Layer_1" xmlns="http://www.w3.org/2000/svg" xmlns:xlink="http://www.w3.org/1999/xlink" x="0px" y="0px"
	 viewBox="0 0 414 896" style="enable-background:new 0 0 414 896;" xml:space="preserve">
<style type="text/css">
	.st0{fill:#1F2937;}
	.st1{fill:#334155;}
	.st2{fill:#111827;}
</style>
<rect class="st0" width="414" height="896"/>
<circle class="st1" cx="151.7" cy="112.7" r="30"/>
<path class="st1" d="M206.7,94.7h92c5,0,9,4,9,9l0,0c0,5-4,9-9,9h-92c-5,0-9-4-9-9l0,0C197.7,98.7,201.8,94.7,206.7,94.7z"/>
<path class="st1" d="M203.7,118.7h62c3.3,0,6,2.7,6,6l0,0c0,3.3-2.7,6-6,6h-62c-3.3,0-6-2.7-6-6l0,0
	C197.7,121.4,200.4,118.7,203.7,118.7z"/>
<path class="st1" d="M49,175.5h316c13.8,0,25,11.2,25,25l0,0c0,13.8-11.2,25-25,25H49c-13.8,0-25-11.2-25-25l0,0
	C24,186.7,35.2,175.5,49,175.5z"/>
<path class="st2" d="M49,179h133c11.6,0,21,9.4,21,21l0,0c0,11.6-9.4,21-21,21H49c-11.6,0-21-9.4-21-21l0,0
	C28,188.4,37.4,179,49,179z"/>
<path class="st1" d="M51,240.5h312c13.3,0,24,10.7,24,24v140c0,13.3-10.7,24-24,24H51c-13.3,0-24-10.7-24-24v-140
	C27,251.2,37.7,240.5,51,240.5z"/>
<path class="st2" d="M131.7,286.7h96c3.3,0,6,2.7,6,6l0,0c0,3.3-2.7,6-6,6h-96c-3.3,0-6-2.7-6-6l0,0
	C125.7,289.4,128.4,286.7,131.7,286.7z"/>
<path class="st2" d="M111.7,321.7h136c5.5,0,10,4.5,10,10v14c0,5.5-4.5,10-10,10h-136c-5.5,0-10-4.5-10-10v-14
	C101.7,326.2,106.2,321.7,111.7,321.7z"/>
<path class="st2" d="M127.7,365.7h104c3.3,0,6,2.7,6,6l0,0c0,3.3-2.7,6-6,6h-104c-3.3,0-6-2.7-6-6l0,0
	C121.7,368.4,124.4,365.7,127.7,365.7z"/>
<path class="st2" d="M352.7,314.2L352.7,314.2c11.6,0,21,9.4,21,21l0,0c0,11.6-9.4,21-21,21l0,0c-11.6,0-21-9.4-21-21l0,0
	C331.7,323.6,341.1,314.2,352.7,314.2z"/>
<path class="st2" d="M185,410.5h44c13.3,0,24,10.7,24,24l0,0c0,13.3-10.7,24-24,24h-44c-13.3,0-24-10.7-24-24l0,0
	C161,421.2,171.7,410.5,185,410.5z"/>
<path class="st1" d="M193,427h28c2.8,0,5,2.2,5,5l0,0c0,2.8-2.2,5-5,5h-28c-2.8,0-5-2.2-5-5l0,0C188,429.2,190.2,427,193,427z"/>
<path class="st2" d="M0,509c0-19.9,16.1-36,36-36h342c19.9,0,36,16.1,36,36v470H0V509z"/>
<path class="st1" d="M189,503h36c1.1,0,2,0.9,2,2l0,0c0,1.1-0.9,2-2,2h-36c-1.1,0-2-0.9-2-2l0,0C187,503.9,187.9,503,189,503z"/>
<path class="st0" d="M36,537h342c6.6,0,12,5.4,12,12v28c0,6.6-5.4,12-12,12H36c-6.6,0-12-5.4-12-12v-28C24,542.4,29.4,537,36,537z"
	/>
<path class="st1" d="M52,545L52,545c9.9,0,18,8.1,18,18l0,0c0,9.9-8.1,18-18,18l0,0c-9.9,0-18-8.1-18-18l0,0
	C34,553.1,42.1,545,52,545z"/>
<path class="st1" d="M86,554h96c3.3,0,6,2.7,6,6l0,0c0,3.3-2.7,6-6,6H86c-3.3,0-6-2.7-6-6l0,0C80,556.7,82.7,554,86,554z"/>
<path class="st1" d="M85,572h62c2.8,0,5,2.2,5,5l0,0c0,2.8-2.2,5-5,5H85c-2.8,0-5-2.2-5-5l0,0C80,574.2,82.2,572,85,572z"/>
<path class="st1" d="M325,559h44c2.8,0,5,2.2,5,5l0,0c0,2.8-2.2,5-5,5h-44c-2.8,0-5-2.2-5-5l0,0C320,561.2,322.2,559,325,559z"/>
<path class="st0" d="M36,597h342c6.6,0,12,5.4,12,12v28c0,6.6-5.4,12-12,12H36c-6.6,0-12-5.4-12-12v-28C24,602.4,29.4,597,36,597z"
	/>
<path class="st1" d="M52,605L52,605c9.9,0,18,8.1,18,18l0,0c0,9.9-8.1,18-18,18l0,0c-9.9,0-18-8.1-18-18l0,0
	C34,613.1,42.1,605,52,605z"/>
<path class="st1" d="M86,614h112c3.3,0,6,2.7,6,6l0,0c0,3.3-2.7,6-6,6H86c-3.3,0-6-2.7-6-6l0,0C80,616.7,82.7,614,86,614z"/>
<path class="st1" d="M85,632h58c2.8,0,5,2.2,5,5l0,0c0,2.8-2.2,5-5,5H85c-2.8,0-5-2.2-5-5l0,0C80,634.2,82.2,632,85,632z"/>
<path class="st1" d="M321,619h48c2.8,0,5,2.2,5,5l0,0c0,2.8-2.2,5-5,5h-48c-2.8,0-5-2.2-5-5l0,0C316,621.2,318.2,619,321,619z"/>
</svg>
