<?xml version="1.0" encoding="utf-8"?>
<!-- Generator: Adobe Illustrator 27.3.1, SVG Export Plug-In . SVG Version: 6.00 Build 0)  -->
<svg version="1.1" id="Layer_1" xmlns="http://www.w3.org/2000/svg" xmlns:xlink="http://www.w3.org/1999/xlink" x="0px" y="0px"
	 viewBox="0 0 390 844" style="enable-background:new 0 0 390 844;" xml:space="preserve">
<style type="text/css">
	.st0{fill:none;}
	.st1{fill:#334155;}
</style>
<rect class="st0" width="390" height="844"/>
<path class="st1" d="M46.3,53h297.3c8.5,0,15.3,5.1,15.3,11.4v48.3c0,6.3-6.9,11.4-15.3,11.4H46.3c-8.5,0-15.3-5.1-15.3-11.4V64.4
	C31,58.1,37.9,53,46.3,53z"/>
<path class="st1" d="M46.3,144h297.3c8.5,0,15.3,5.1,15.3,11.4v48.3c0,6.3-6.9,11.4-15.3,11.4H46.3c-8.5,0-15.3-5.1-15.3-11.4v-48.3
	C31,149.1,37.9,144,46.3,144z"/>
<path class="st1" d="M46.3,235h297.3c8.5,0,15.3,5.1,15.3,11.4v48.3c0,6.3-6.9,11.4-15.3,11.4H46.3c-8.5,0-15.3-5.1-15.3-11.4v-48.3
	C31,240.1,37.9,235,46.3,235z"/>
</svg>
