<?xml version="1.0" encoding="utf-8"?>
<svg version="1.1" xmlns="http://www.w3.org/2000/svg" viewBox="0 0 414 896">
<style type="text/css">.st0{fill:#1F2937;}.st1{fill:none;stroke:#394859;stroke-miterlimit:10;}.st2{fill:#334155;}.st3{fill:#748593;}.st4{fill:#F0D6D6;}.st5{fill:#111827;}</style>
<rect y="2" class="st0" width="414" height="896"/>
<path class="st1" d="M34,180h346c7.7,0,14,6.3,14,14v78c0,7.7-6.3,14-14,14H34c-7.7,0-14-6.3-14-14v-78C20,186.3,26.3,180,34,180z"/>
<path class="st2" d="M58.3,195.5h64c2.8,0,5,2.2,5,5l0,0c0,2.8-2.2,5-5,5h-64c-2.8,0-5-2.2-5-5l0,0C53.3,197.7,55.5,195.5,58.3,195.5z"/>
<path class="st2" d="M59,216.2h84c3.9,0,7,3.1,7,7l0,0c0,3.9-3.1,7-7,7H59c-3.9,0-7-3.1-7-7l0,0C52,219.4,55.1,216.2,59,216.2z"/>
<path class="st2" d="M58,241h86c2.8,0,5,2.2,5,5l0,0c0,2.8-2.2,5-5,5H58c-2.8,0-5-2.2-5-5l0,0C53,243.2,55.2,241,58,241z"/>
<path class="st2" d="M60,258.7h124c3.9,0,7,3.1,7,7l0,0c0,3.9-3.1,7-7,7H60c-3.9,0-7-3.1-7-7l0,0C53,261.8,56.1,258.7,60,258.7z"/>
<path class="st1" d="M34,330h346c7.7,0,14,6.3,14,14v156c0,7.7-6.3,14-14,14H34c-7.7,0-14-6.3-14-14V344C20,336.3,26.3,330,34,330z"/>
<circle class="st2" cx="56" cy="350" r="10"/><path class="st2" d="M86,344h110c3.3,0,6,2.7,6,6l0,0c0,3.3-2.7,6-6,6H86c-3.3,0-6-2.7-6-6l0,0C80,346.7,82.7,344,86,344z"/><rect x="52" y="367" class="st3" width="334" height="1"/>
<circle class="st2" cx="56" cy="398" r="10"/><path class="st2" d="M86,392h134c3.3,0,6,2.7,6,6l0,0c0,3.3-2.7,6-6,6H86c-3.3,0-6-2.7-6-6l0,0C80,394.7,82.7,392,86,392z"/><rect x="52" y="415" class="st3" width="334" height="1"/>
<circle class="st2" cx="56" cy="446" r="10"/><path class="st2" d="M86,440h136c3.3,0,6,2.7,6,6l0,0c0,3.3-2.7,6-6,6H86c-3.3,0-6-2.7-6-6l0,0C80,442.7,82.7,440,86,440z"/><rect x="52" y="463" class="st3" width="334" height="1"/>
<circle class="st2" cx="56" cy="494" r="10"/><path class="st2" d="M86,488h130c3.3,0,6,2.7,6,6l0,0c0,3.3-2.7,6-6,6H86c-3.3,0-6-2.7-6-6l0,0C80,490.7,82.7,488,86,488z"/>
<path class="st1" d="M40,558h334c11,0,20,9,20,20v106c0,11-9,20-20,20H40c-11,0-20-9-20-20V578C20,567,29,558,40,558z"/>
<circle class="st2" cx="56" cy="586" r="10"/><path class="st2" d="M86,580h116c3.3,0,6,2.7,6,6l0,0c0,3.3-2.7,6-6,6H86c-3.3,0-6-2.7-6-6l0,0C80,582.7,82.7,580,86,580z"/><rect x="38" y="604" class="st3" width="334" height="1"/>
<circle class="st2" cx="56" cy="634" r="10"/><path class="st2" d="M86,628h122c3.3,0,6,2.7,6,6l0,0c0,3.3-2.7,6-6,6H86c-3.3,0-6-2.7-6-6l0,0C80,630.7,82.7,628,86,628z"/><rect x="38" y="652" class="st3" width="334" height="1"/>
<circle class="st4" cx="56" cy="684" r="10"/><path class="st4" d="M86,678h74c3.3,0,6,2.7,6,6l0,0c0,3.3-2.7,6-6,6H86c-3.3,0-6-2.7-6-6l0,0C80,680.7,82.7,678,86,678z"/>
<circle class="st2" cx="133" cy="41" r="30"/><path class="st2" d="M188,23h92c5,0,9,4,9,9l0,0c0,5-4,9-9,9h-92c-5,0-9-4-9-9l0,0C179,27,183.1,23,188,23z"/><path class="st2" d="M185,47h62c3.3,0,6,2.7,6,6l0,0c0,3.3-2.7,6-6,6h-62c-3.3,0-6-2.7-6-6l0,0C179,49.7,181.7,47,185,47z"/>
<path class="st2" d="M49,94.5h316c13.8,0,25,11.2,25,25l0,0c0,13.8-11.2,25-25,25H49c-13.8,0-25-11.2-25-25l0,0C24,105.7,35.2,94.5,49,94.5z"/>
<path class="st5" d="M233,98.5h133c11.6,0,21,9.4,21,21l0,0c0,11.6-9.4,21-21,21H233c-11.6,0-21-9.4-21-21l0,0C212,107.9,221.4,98.5,233,98.5z"/>
</svg>
