<?xml version="1.0" encoding="utf-8"?>
<!-- Generator: Adobe Illustrator 27.3.1, SVG Export Plug-In . SVG Version: 6.00 Build 0)  -->
<svg version="1.1" id="Layer_1" xmlns="http://www.w3.org/2000/svg" xmlns:xlink="http://www.w3.org/1999/xlink" x="0px" y="0px"
	 viewBox="0 0 159 162.5" style="enable-background:new 0 0 159 162.5;" xml:space="preserve">
<style type="text/css">
	.st0{fill:#FFFFFF;}
</style>
<path class="st0" d="M159,79.5c-0.2,23-6.9,41.3-20.9,56.8C126.4,149.2,112,157.6,95,161c-15.8,3.1-31.3,1.6-46.2-4.8
	c-10-4.3-18.9-10.5-26.4-18.4C10.2,124.9,3,109.7,0.7,92.1c-2.1-16.3,0.5-31.9,7.5-46.8C14.1,32.8,22.8,22.6,34,14.5
	C44.6,6.8,56.5,2.2,69.6,0.6c12.5-1.5,24.7-0.3,36.6,4c10.8,3.9,20.3,9.9,28.5,18c12.5,12.4,20,27.3,23.1,44.5
	C158.6,71.8,158.7,76.8,159,79.5z M77,22c-8.8,0.1-19.2,3.1-28.7,9.3c-8.4,5.5-15,12.7-19.7,21.5c-4.1,7.7-6.5,16-7.1,24.7
	c-0.9,12.9,2,24.8,8.9,35.8c6.8,10.9,16.2,18.8,28.2,23.6c12.8,5,25.7,5.4,38.7,1.1c9.4-3.1,17.5-8.4,24.3-15.7
	c8.2-8.8,13.2-19.2,15.3-31c1.4-8.1,0.9-16.1-1.1-24.1c-3.5-14.4-11.2-26-23.2-34.6C102.8,25.5,91.6,22,77,22z M82.2,19.8
	c2.5,0.3,4.7,0.5,6.8,0.8c10,1.5,19,5.6,27,11.8c12,9.4,19.3,21.6,22.4,36.4c0.6,3,0.8,6.1,1.3,9.2c0.8,4.6,4.9,7.6,9.4,7
	s7.7-4.4,7.3-9c-0.2-3.2-0.6-6.3-1.1-9.4c-1.7-9.2-5-17.8-9.7-25.9c-5.9-10.3-13.9-18.8-23.7-25.5c-9-6.2-19-10.1-29.8-11.9
	c-3.2-0.5-6.4-0.7-9.7-1.1c-0.1,0.1-0.1,0.2-0.2,0.4c2.8,2.2,4.2,5.2,4.2,8.6C86.5,14.5,85.1,17.4,82.2,19.8L82.2,19.8z M78.3,143
	c-0.5,0-0.8-0.1-1-0.1c-6.8-0.3-13.5-1.6-19.8-4.2c-9.8-4-18-10.1-24.7-18.4c-5.9-7.3-10-15.5-12-24.7c-0.8-3.6-1.1-7.3-1.8-11
	c-0.7-4.4-4.9-7.3-9.4-6.8c-4.3,0.5-7.5,4.3-7.3,8.6c0.1,1.9,0.3,3.8,0.5,5.7c1.3,10.5,4.7,20.3,10.1,29.5c5.9,10,13.6,18.4,23.1,25
	c11.3,7.9,23.9,12.3,37.6,13.5c1.5,0.1,3.1,0.1,5,0.2c-2.9-2.4-4.3-5.2-4.3-8.6C74.4,148.3,75.7,145.5,78.3,143L78.3,143z M19,79.4
	c0.4-3.2,0.7-6.4,1.3-9.6c2.9-15,10.1-27.5,22.1-37c9.7-7.7,20.7-12.1,33.1-12.8c4.3-0.3,7.8-3.1,8.6-7c1.2-5.9-3.2-11-9.3-10.7
	C63.3,3,52.5,6.1,42.5,11.7C30,18.7,20.2,28.6,13,40.9c-5.6,9.6-9,20-10.3,31c-0.3,2.4-0.4,4.9-0.6,7.6C9.1,74.2,13.4,74.2,19,79.4
	L19,79.4z M140,83.5c-0.4,3-0.6,5.9-1.1,8.8c-2,11.5-6.9,21.6-14.7,30.4c-8.4,9.5-18.8,15.8-31.2,18.8c-3.2,0.8-6.5,1-9.8,1.6
	c-4.3,0.8-7.5,5.4-6.8,9.7c0.8,4.9,4.5,7.9,9.4,7.5c10.7-1,20.9-4,30.3-9.2c8.7-4.8,16.1-11,22.5-18.6c4.7-5.7,8.5-11.8,11.5-18.5
	c3.9-8.6,5.9-17.7,6.6-27.1c0.1-1.2,0-2.3,0-3.6C150.2,88.5,147.1,88.6,140,83.5L140,83.5z"/>
<path class="st0" d="M126.4,25.2c0.1,0.6,0.3,1.2,0.3,1.7c-0.1,1,0.2,1.6,0.9,2.3c0.7,0.7,1.3,1.6,1.9,2.4c0.1-0.1,0.3-0.2,0.5-0.4
	c0.8-1.6,1.6-3.3,2.5-5c1,0.5,1.3,1.1,1.1,2c-0.3,1.8-0.6,3.6-0.8,5.4c-0.1,0.4,0.2,0.9,0.4,1.2c0.7,0.9,1.6,1.7,2.1,2.7
	c0.3,0.5,0.1,1.2,0.2,1.8c-0.6-0.1-1.4,0-1.9-0.4c-0.7-0.5-1.3-1.2-1.9-1.8c-0.6-0.7-1.2-1-2.2-0.9c-1.8,0.2-3.6,0.2-5.3,0.2
	c-0.6,0-1.1-0.5-1.7-0.7c0-0.2,0.1-0.4,0.1-0.5c1.8-0.7,3.5-1.3,5.4-2c-0.9-1.1-1.7-2.2-2.7-3.2c-0.4-0.3-1.2-0.2-1.8-0.2
	c-0.7,0-1.4,0-1.5-1.1c2.1-0.2,3.4-1.3,3.8-3.6C126,25.1,126.2,25.2,126.4,25.2L126.4,25.2z"/>
<path class="st0" d="M148.3,82.6c-0.2-2.6-0.3-5.1-0.6-7.7c-1.1-9.8-4.1-19-9-27.5c-0.9-1.5-1.8-3-2.6-4.5c-0.3-0.6-0.7-1.2,0.1-1.7
	s1.1,0.1,1.5,0.7c4.8,7.9,8.2,16.4,9.7,25.5c0.8,4.7,0.9,9.6,1.3,14.4c0,0.3-0.1,0.5-0.1,0.8C148.5,82.6,148.4,82.6,148.3,82.6
	L148.3,82.6z"/>
<path class="st0" d="M152.3,80.7c-0.2-2.3-0.4-4.5-0.6-6.8c-0.9-7.2-2.5-14.2-5.6-20.8c-2-4.3-4.4-8.4-6.6-12.6
	c-0.3-0.6-0.9-1.2,0.1-1.7c0.8-0.4,1.1,0.2,1.5,0.8c6,9.9,9.8,20.5,11,32.1c0.3,2.6,0.4,5.2,0.5,7.9c0,0.4,0,0.8,0,1.2L152.3,80.7
	L152.3,80.7z"/>
<path class="st0" d="M87.3,6.8c3.1,0.5,6.2,1,9.3,1.6c9.8,2.1,18.7,6.3,26.8,12.3c0.6,0.4,1.8,0.7,1,1.8c-0.7,1.1-1.4,0.1-2-0.4
	c-6.6-5-13.7-9.2-21.7-11.7c-4.1-1.3-8.3-2-12.4-3c-0.4-0.1-0.7-0.1-1.1-0.2C87.3,7.1,87.3,6.9,87.3,6.8L87.3,6.8z"/>
<path class="st0" d="M144.4,81.4c-0.2-1.8-0.4-3.7-0.6-5.5c-1.1-10.3-4.4-19.8-9.9-28.7c-0.4-0.7-1-1.4-1.3-2.2
	c-0.2-0.4-0.1-1.2,0.1-1.5c0.6-0.5,1,0.1,1.4,0.6c3.4,5.5,6,11.5,7.8,17.7c1.7,6.1,2.6,12.3,2.7,18.7
	C144.6,80.8,144.5,81.1,144.4,81.4C144.5,81.4,144.5,81.4,144.4,81.4L144.4,81.4z"/>
<path class="st0" d="M87.4,11.2c2.4,0.4,4.8,0.6,7.2,1.1c9.7,1.9,18.5,5.9,26.5,11.7c0.3,0.2,0.7,0.4,0.9,0.7c0.2,0.3,0.2,0.8,0,1.1
	c-0.1,0.2-0.7,0.3-1,0.2c-0.3,0-0.6-0.4-0.8-0.6c-9.3-7.2-19.7-12-31.4-13.6c-0.4-0.1-0.9-0.2-1.3-0.3
	C87.3,11.5,87.4,11.3,87.4,11.2L87.4,11.2z"/>
<path class="st0" d="M86.8,15.6c0.8,0.1,1.6,0.1,2.4,0.2c10.1,1.2,19.3,4.9,27.7,10.5c0.7,0.5,1.4,0.9,2,1.5
	c0.2,0.2,0.2,0.8,0.3,1.2c-0.4,0.1-1,0.3-1.3,0.2c-1.3-0.8-2.5-1.8-3.7-2.6c-7.8-5.4-16.4-8.9-25.8-10.3c-0.6-0.1-1.1-0.2-1.7-0.4
	C86.8,15.8,86.8,15.7,86.8,15.6L86.8,15.6z"/>
<path class="st0" d="M30.4,136.7c1-1.5,1-2.8,0.2-3.7s-1.8-0.9-3.6-0.1c-1.7-1.9-3.4-3.8-5.1-5.7c1.2-1.4,1.4-2.4,0.7-3.4
	c-0.7-1.1-1.6-1.2-3.4-0.8c-0.4,0.1-1.2-0.6-1.5-1.1c-0.2-0.3,0-1.2,0.3-1.5c1.2-1.1,2.4-2.1,3.7-3.1c1.5-1.2,2.4-1.1,3.7,0.4
	c3.8,4.2,7.7,8.5,11.5,12.7c1,1.1,1,2.1,0.4,3.2c-0.7,1.3-1.3,2.7-2.8,3.2c-0.1,0-0.2,0.1-0.3,0.2c-1,1.6-1.8,1.7-3.1,0.3
	C30.8,137.3,30.6,137,30.4,136.7L30.4,136.7z M23.8,122.4c0.9,0.9,1.6,1.7,2.3,2.5c0.6-0.5,1.1-0.8,1.5-1.3c0.2-0.2,0.3-0.8,0.1-1
	c-0.5-0.7-1.1-1.3-1.8-2.1C25.2,121.1,24.6,121.7,23.8,122.4L23.8,122.4z M31.4,126.1c-0.9-0.7-1.7-1.4-2.5-2.1
	c-1.5,1-1.7,2.2-0.5,3.4c0.2,0.3,0.4,0.6,0.7,1.2C30,127.7,30.5,127,31.4,126.1z M32,127.2c-0.8,0.7-1.4,1.3-2,1.8
	c2.3,2.9,2.2,3.2,4.2,0.7C33.5,128.9,32.8,128.1,32,127.2L32,127.2z M25.1,119.7c-1.6-2.3-2.1-2.4-3.9-0.3
	C23,121.9,23.2,121.9,25.1,119.7z M33,132.4c0.8,0.9,1.4,1.6,2.1,2.2c1.8-1.6,1.8-2.7-0.2-4C34.3,131.2,33.7,131.8,33,132.4z"/>
<path class="st0" d="M74.1,157.2c-2.2-0.3-4.4-0.4-6.6-0.8c-11.9-2.1-22.7-6.7-32.4-14.1c-0.3-0.2-0.8-0.7-0.7-0.9
	c0.4-1,0.9-0.3,1.3,0c3.2,2.1,6.3,4.4,9.7,6.3c8.4,4.7,17.5,7.4,27.1,8.4C73.4,156,73.9,156.5,74.1,157.2z"/>
<path class="st0" d="M6.1,81.7c0.2,2.7,0.3,5.5,0.6,8.2c0.8,8.6,3.2,16.8,6.9,24.5c0.6,1.3,1.3,2.5,1.9,3.7c0.2,0.4,0,0.9,0,1.3
	c-0.2,0-0.3,0.1-0.5,0.1c-1.1-2.2-2.3-4.3-3.3-6.5c-4.3-9.3-6.3-19.2-6.6-29.4c0-0.7,0.3-1.4,0.6-2.1C5.8,81.7,6,81.7,6.1,81.7
	L6.1,81.7z"/>
<path class="st0" d="M73.4,148.5c0.2,1.2-0.6,1-1.2,0.9c-3.7-0.8-7.5-1.3-11.2-2.3c-7.7-2.1-14.7-5.8-21.1-10.6
	c-0.2-0.1-0.4-0.3-0.6-0.5c0.3-1.1,0.8-0.7,1.3-0.3c3.1,2,6.2,4.1,9.5,5.9c6.8,3.7,14.2,5.8,21.9,6.8
	C72.6,148.4,73,148.5,73.4,148.5L73.4,148.5z"/>
<path class="st0" d="M21.1,114.7C15,103.9,12.5,92.3,12.8,80c1.1-0.2,1.1,0.4,1.1,1.1c0,5.9,0.5,11.8,2,17.5
	c1.3,5.1,3.1,10.1,5.8,14.7C22,114,22.1,114.4,21.1,114.7L21.1,114.7z"/>
<path class="st0" d="M22.3,125.2c0,1.1-0.7,1.9-1.8,1.9c-1.1,0-2-0.8-2-1.9s0.8-1.9,1.9-1.9C21.6,123.4,22.3,124.1,22.3,125.2
	L22.3,125.2z M20.4,124.2c-0.3,0.5-0.6,0.8-0.6,1c0.1,0.3,0.5,0.6,0.8,0.6c0.2,0,0.6-0.5,0.6-0.7S20.7,124.7,20.4,124.2L20.4,124.2z
	"/>
<path class="st0" d="M30.7,134.7c0,1.1-0.7,1.9-1.8,1.9c-1,0-1.9-0.7-1.9-1.8c-0.1-1.1,0.7-2,1.8-2
	C29.9,132.9,30.7,133.7,30.7,134.7z M28.9,135.8c0.3-0.5,0.7-0.8,0.6-1c0-0.2-0.5-0.7-0.7-0.6c-0.3,0-0.7,0.4-0.7,0.7
	C28.1,135.1,28.5,135.3,28.9,135.8L28.9,135.8z"/>
<path class="st0" d="M10.6,91.9c-0.1,0.1-0.3,0.3-0.4,0.6c-0.2-0.2-0.6-0.4-0.6-0.6c-0.2-0.7-0.2-1.5-0.3-2.2c0-0.2,0.3-0.4,0.4-0.7
	c0.2,0.2,0.6,0.4,0.6,0.6C10.5,90.3,10.5,91,10.6,91.9L10.6,91.9z"/>
<path class="st0" d="M10.1,95.3c0.1-0.2,0.3-0.4,0.4-0.7c0.2,0.2,0.6,0.4,0.6,0.6c0.2,0.7,0.4,1.4,0.5,2.1c0,0.2-0.2,0.5-0.3,0.7
	c-0.2-0.2-0.6-0.3-0.7-0.5C10.4,96.9,10.3,96.1,10.1,95.3L10.1,95.3z"/>
<path class="st0" d="M13.1,106.2c0.1-0.2,0.2-0.6,0.3-0.6c0.2,0,0.6,0.1,0.7,0.3c0.3,0.7,0.6,1.5,0.8,2.2c0.1,0.2-0.2,0.4-0.2,0.6
	c-0.2-0.1-0.6-0.2-0.7-0.4C13.6,107.7,13.4,107,13.1,106.2L13.1,106.2z"/>
<path class="st0" d="M11.8,100.1c0.2,0.1,0.4,0.1,0.4,0.2c0.3,1,0.6,2,0.8,3c-0.3,0.1-0.8,0.2-0.8,0.2c-0.3-0.9-0.6-1.9-0.8-2.9
	C11.4,100.4,11.6,100.2,11.8,100.1z"/>
<path class="st0" d="M10.3,85.1c-0.3,0.7-0.5,1.2-0.7,1.7c-0.2-0.5-0.6-1-0.6-1.6s0.3-1.3,0.4-1.9C9.7,83.9,10,84.5,10.3,85.1z"/>
<path class="st0" d="M15.6,110.6c0.2,0.2,0.4,0.3,0.5,0.4c0.4,0.7,0.7,1.4,1,2.2c0.1,0.2-0.1,0.5-0.2,0.7c-0.1,0.1-0.5,0-0.5-0.1
	c-0.4-0.8-0.9-1.7-1.2-2.6C15.2,111.1,15.5,110.9,15.6,110.6z"/>
<path class="st0" d="M41.1,140.6c0.9,0.7,1.7,1.1,2.3,1.7c0,0-0.3,0.5-0.5,0.7c-0.7-0.5-1.5-0.9-2.2-1.4
	C40.7,141.5,41,141,41.1,140.6L41.1,140.6z"/>
<path class="st0" d="M62.5,150.8c-0.2,0.2-0.3,0.5-0.4,0.4c-0.9-0.2-1.7-0.5-2.6-0.8c-0.1,0-0.1-0.4-0.1-0.5s0.3-0.3,0.4-0.2
	c0.8,0.2,1.6,0.4,2.4,0.7C62.4,150.4,62.4,150.6,62.5,150.8L62.5,150.8z"/>
<path class="st0" d="M66.9,152.4c-0.8-0.2-1.4-0.3-2-0.5c-0.2-0.1-0.3-0.4-0.5-0.6c0.2-0.1,0.5-0.4,0.7-0.4c0.7,0.1,1.3,0.2,2,0.4
	c0.2,0.1,0.5,0.5,0.4,0.6C67.4,152.2,67.1,152.3,66.9,152.4z"/>
<path class="st0" d="M71.8,153.2c-0.7-0.1-1.2-0.2-1.7-0.3c-0.2-0.1-0.4-0.4-0.6-0.6c0.3-0.1,0.5-0.4,0.8-0.4c0.5,0,0.9,0,1.4,0.2
	c0.4,0.1,0.7,0.4,1,0.7C72.4,153,72,153.1,71.8,153.2L71.8,153.2z"/>
<path class="st0" d="M48.3,145c-0.9,0.6-3.1-0.1-3.2-0.9c0-0.2,0.5-0.6,0.7-0.6C46.6,144,47.4,144.5,48.3,145z"/>
<path class="st0" d="M50.3,145.9c0.8,0.4,1.5,0.7,2.2,1.1c0.1,0.1,0.2,0.4,0.2,0.5c-0.1,0.2-0.4,0.4-0.6,0.3c-0.7-0.3-1.5-0.6-2.2-1
	c-0.1-0.1-0.3-0.4-0.2-0.5C49.8,146.1,50.1,146,50.3,145.9L50.3,145.9z"/>
<path class="st0" d="M56.8,149.7c-0.8-0.3-1.4-0.4-2-0.7c-0.2-0.1-0.2-0.4-0.4-0.7c0.2-0.1,0.5-0.3,0.7-0.2c0.6,0.1,1.2,0.4,1.8,0.6
	c0.2,0.1,0.3,0.4,0.5,0.6C57.2,149.5,57,149.6,56.8,149.7z"/>
<path class="st0" d="M39.5,139.5c-0.4,0.3-0.7,0.5-0.8,0.5c-0.5-0.4-1-0.9-1.6-1.3c0.2-0.1,0.4-0.5,0.5-0.4
	C38.3,138.6,38.8,139,39.5,139.5z"/>
<path class="st0" d="M24.4,39.2c-0.6-0.2-1.2-0.4-2-0.7c4.2-4.3,8.3-8.5,12.4-12.8c0.3,0.5,0.6,0.9,1,1.5c0.4-0.9,0.8-1.7,1.1-2.5
	c0.9-2.1,2.5-3.3,4.9-3c1.5,0.2,2.6-0.5,3.3-1.9c1.6-3.2,2.5-3.7,5.9-3.4c0.5-0.5,0.7-0.9,1.1-1.1c5.2-1.9,10.3-3.8,15.5-5.7
	c0.3-0.1,0.6-0.1,0.8-0.2c0.2,1.8-0.9,4.6-2.6,6.5c1.7,0.6,3.3,0.6,4.9-0.2c0.7-0.3,1.2-0.7,1.9-1c0.3-0.1,0.8,0.1,1.2,0.2
	c-0.1,0.4-0.2,0.9-0.4,1c-2.3,1.4-4.8,2.3-7.6,1.5c-1.1-0.3-2.1-0.6-3.2-0.8c-1.8-0.3-3.2,0.3-4.2,1.8c-1.5,2.5-3.5,3.7-6.6,3.2
	c-1.7-0.3-2.3,0.2-3,1.8c-1.2,2.6-2.2,3.3-5.1,3.2c-1.8,0-2.5,0.3-3,2c-0.8,2.8-2.7,4.2-5.5,4.7c-2.5,0.4-3.6,1.7-3.8,4.3
	c-0.2,2.4-1.3,4.3-3.7,5.2c-1.9,0.7-2.8,1.9-2.7,4.1c0.1,1.8-0.7,3.3-2.4,4.1c-1.8,0.9-2.7,2.1-2.2,4.3s-0.4,4-2.2,5.3
	c-1.8,1.4-2.1,2.2-1.4,4.4c0.8,2.5,0.6,4.7-1.3,6.7c-0.6,0.6-0.9,1.5-1.4,2.3c-0.3-0.1-0.7-0.3-1.3-0.5c0.6-1.1,1-2.2,1.8-3.1
	c1.2-1.5,1.5-3,0.9-4.7c-1-3.3-0.7-4.3,2-6.5c1.2-1,1.8-2.1,1.4-3.7c-0.6-2.6,0.2-4.6,2.7-5.8c1.3-0.6,1.9-1.8,1.9-3.2
	c-0.2-2.5,1-4.2,3.3-5.1c2-0.8,3-2.2,2.9-4.3c-0.1,0-0.2-0.1-0.2-0.1c-1.8,1.9-3.9,3.1-6.3,4c-1.3,0.5-1.8,1.5-1.7,2.8
	c0.3,2.6-0.9,4.3-3.1,5.6c-2.2,1.2-2.4,1.7-1.8,4.1c0.5,2.1-0.1,3.7-1.6,5.1c-2.5,2.2-2.6,3-1.5,6.1c0.6,1.8,0.6,3.6-0.8,5.1
	c-0.1,0.1-0.1,0.1-0.1,0.2c-0.5,0.8-0.9,1.8-1.6,2.4c-0.6,0.5-1.6,0.6-2.6,1c0.3-1.6,0.6-3,0.9-4.5c0.5-2.2,1.1-4.4,1.7-6.6
	c0.5-1.9,1.3-3.5,2.8-4.7c1.4-1.1,1.7-2.4,1.3-4.2c-0.6-2.4,0.1-4.1,2.2-5.2c1.9-1,2.9-2.2,2.7-4.5c-0.1-1.9,0.9-3.4,2.7-4.2
	C23.2,39.7,23.8,39.5,24.4,39.2L24.4,39.2z M56.7,18.2c-1.9,0-3.7,0.2-5.5,0c-2.8-0.4-3.5-0.2-4.6,2.3c-1,2.1-2.6,3-4.8,2.9
	c-2-0.1-2.7,0.4-3.5,2.3c-0.4,0.9-0.7,2-1.4,2.7c-1.1,1-1.2,2.3-1.5,3.6c1.9-0.3,3.2-1.1,3.7-2.9c0.1-0.3,0.2-0.6,0.4-0.9
	c0.8-1.9,2.2-2.8,4.2-2.6c2,0.2,3.1-0.6,3.9-2.3c1.2-2.5,2.5-3.1,5.2-2.7C54.6,20.7,55.8,20,56.7,18.2z"/>
<path class="st0" d="M58.4,7.6c0.3,1.4,1.1,1.6,2.2,0.9c0.1-0.1,0.3-0.2,0.5-0.2C62,8.4,62.9,8.4,64,8.5c0.1,0.2,0.3,0.8,0.6,1.5
	c-3.8,1.4-7.4,2.7-11.1,4.1c-1-1.6-1-1.9,0.6-2.5c0.2-0.1,0.4-0.2,0.6-0.4c0.3-0.3,0.6-0.8,1-0.9c0.7-0.3,1.2-0.5,0.9-1.4
	C56.4,8.2,56.5,8.2,58.4,7.6L58.4,7.6z"/>
<path class="st0" d="M23.7,35.9c-0.4-0.4-0.8-0.8-1.2-1.3c0.4-0.8,1.4-1.3,1-2.5c-0.1-0.3,1-0.9,1.5-1.4c-0.4-0.5-0.7-1-1.1-1.4
	c0.4-0.4,0.8-0.8,1.2-1.2c0.5,0.3,0.9,0.5,1.5,0.8c0.5-0.6,1.1-1.1,1.6-1.7c1.3,1,1.6-0.6,2.6-1.1c0.3,0.3,0.7,0.7,1.4,1.3
	c-3.1,2.8-6,5.4-8.8,8C23.5,35.6,23.6,35.8,23.7,35.9z"/>
<path class="st0" d="M8.4,69.7c-0.9-0.4-1.6-0.8-1.2-1.8c0.3-1.2-0.6-1.3-1.4-1.6c0.2-0.6,0.3-1.1,0.4-1.8c0.6,0.1,1.1,0.1,1.7,0.2
	c0.8-0.8,0.4-2.7,2.5-2.5C9.6,64.7,9,67.2,8.4,69.7z"/>
<path class="st0" d="M70.1,13.9c-0.2-0.2-0.5-0.3-0.6-0.5c0-0.3,0-0.8,0.2-0.9c1.2-0.6,2.4-1.2,3.6-1.8c0.2-0.1,0.6,0.2,0.7,0.4
	s0.1,0.7-0.1,0.8C72.7,12.6,71.4,13.2,70.1,13.9z"/>
<path class="st0" d="M136.2,122c-0.7,0.9-1.2,1.6-1.8,2.2c-1.9-1.2-1.9-1.2-1-3.5c-3.4,3.7-6.8,7.3-10.3,11c0.3,0.4,0.7,0.9,1.2,1.5
	c0.6,0.7,0.5,1.4-0.2,2c-1.9,1.4-3.8,2.9-5.7,4.3c-0.3,0.2-0.6,0.4-0.7,0.8c7.6-4.4,13.6-10.6,18.8-17.6c1.9,1.2,1.1,2.8,0.4,4.3
	c1.5-0.1,1.2-2.6,3.2-2c-5.6,8.3-12.7,14.8-20.8,20.2c-0.9-0.8-0.4-1.1,0.2-1.4c0.5-0.3,1-0.7,1.5-1.4c-0.4,0-0.8-0.1-1.2,0
	c-2.9,0.6-4.2-0.6-3.9-3.5c0.3-3.2,1.6-5.8,4.1-7.8c3.7-3,7.1-6.4,10.1-10.2c1.1-1.5,1.7-1.5,3.3-0.5
	C134.4,120.8,135.2,121.3,136.2,122L136.2,122z M117.2,137.9c2.5-0.5,4.1-2.6,3.4-4.4C118,134.1,117.2,135.2,117.2,137.9z
	 M133.7,131.6c-0.1-0.1-0.2-0.3-0.3-0.4c-0.3,0.2-0.7,0.3-0.9,0.5c-2.2,2-4.4,4.1-6.5,6.2c-0.3,0.3-0.4,0.7-0.5,1l0.4,0.3
	C128.5,136.6,131.1,134.1,133.7,131.6L133.7,131.6z"/>
<path class="st0" d="M118.8,143.4c-0.8,0.6-1.6,1.1-2.4,1.7c0.2,0.6,0.9,1.4-0.4,1.6c-0.2-0.3-0.4-0.6-0.7-1
	c-0.7,0.4-1.4,0.8-2.2,1.2c0.1,0.4,0.3,0.8,0.4,1.2c-0.3,0.2-0.5,0.3-0.9,0.6c-0.3-0.4-0.5-0.7-0.8-1.1c-0.6,0.3-1.3,0.7-2,1
	c0.1,0.4,0.2,0.8,0.3,1.2c-0.3,0.2-0.6,0.3-0.9,0.5c-0.2-0.4-0.4-0.7-0.7-1.2c-0.7,0.3-1.5,0.6-2.2,1c0.1,0.4,0.2,0.8,0.3,1.1
	c-0.9,0.9-1.2,0.1-1.6-0.6c-0.8,0.3-1.4,0.6-2.2,0.8c-0.1,0.6,0.6,1.6-0.8,1.5c-0.2-0.3-0.3-0.6-0.6-1.1c-0.7,0.2-1.4,0.4-2.2,0.7
	c0.1,0.4,0.1,0.8,0.2,1.2c-1,0.8-1.3,0-1.5-0.8c-0.8,0.2-1.5,0.4-1.9,0.5c-0.4,0.7-0.7,1.1-0.9,1.4c-0.3-0.3-0.7-0.6-1.2-1
	c-0.5,0.1-1.2,0.2-1.9,0.4v1.3c-0.4,0-1,0.1-1,0c-0.5-1.9-1.8-0.7-2.7-0.8c-0.2,0.6,0.2,1.7-1.2,1.3c-0.1-0.3-0.2-0.7-0.3-1.1h-2.2
	c-0.2,0.7,0,1.8-1.3,1.2c-0.1-0.3-0.1-0.7-0.2-1.1h-2c-0.4,0.5-0.8,1-1.1,1.4c-0.7-0.9-1.2-1.6-1.8-2.4c1.3,0.1,1.5-0.6,1.4-1.4
	c0-0.6,0.1-1.1,0-1.6c-0.1-0.4-0.4-0.6-0.7-1c-0.2-0.3-0.3-0.5-0.5-0.8c0.8-0.2,1.2-0.8,1.6-1.4l1.1,0.8c-0.1,0.1-0.1,0.2-0.2,0.3
	h1.9c0.1-0.4,0.1-0.7,0.2-1.6c0.6,0.5,1,0.9,1.3,1.2l-0.2,0.3c0.7-0.1,1.3-0.1,1.7-0.2c0.5-0.6,0.8-1,1.3-1.7
	c0.2,0.8,0.3,1.1,0.4,1.5c0.6-0.1,1.2-0.1,1.7-0.2c0.3-0.5,0.6-0.9,0.8-1.3c0.3,0.3,0.7,0.5,1.2,1c0.3-0.1,0.9-0.1,1.6-0.2V146
	c0.7,0.5,1.1,0.8,1.8,1.3c0.3-0.1,0.9-0.2,1.4-0.3c0.3-0.6,0.4-1,0.6-1.4c0.4,0.2,0.7,0.5,1.3,0.8c0.3-0.1,0.9-0.3,1.3-0.4
	c0.2-0.6,0.4-1,0.6-1.5c0.4,0.2,0.8,0.5,1.4,0.9c0.3-0.1,1-0.3,1.6-0.6c-0.1-0.4-0.2-0.8-0.3-1.6c0.8,0.3,1.2,0.5,1.7,0.8
	c0,0.1,0,0.2-0.1,0.3c0.6-0.3,1.2-0.5,1.9-0.8c-0.1-0.4-0.2-0.8-0.3-1.1c0.9-0.9,1.2-0.1,1.6,0.5c0.6-0.3,1.2-0.6,1.4-0.7
	c0.2-0.8,0.4-1.3,0.6-2.1c0.5,0.6,0.8,0.9,1.1,1.2c0.8-0.5,2.2-0.5,1.4-2.1c0.7-0.9,1.1-0.3,1.4,0.4c0.5-0.3,1-0.5,1.5-0.8
	c0.3,0.6,0,1.2-0.7,2c0.5,1,1.1,1.9,1.6,2.9C116.7,143.9,117.4,142.2,118.8,143.4L118.8,143.4z M83,154.2c-0.1-1.6-0.2-2.7-0.3-4.2
	c-0.8,0.2-2,0.3-2.1,0.6c-0.2,1-0.3,2.2,0,3.2C80.7,154.1,82.1,154,83,154.2L83,154.2z M86.7,153.7c-0.1-1.3-0.3-2.5-0.4-3.8
	c-0.8,0.1-1.5,0.2-2.1,0.2v3.8C85.1,153.9,85.8,153.8,86.7,153.7z M100,147.3c-1.5,0.3-2.1,1.2-1.7,2.5c0.1,0.5,0.3,1,0.5,1.7
	c0.8-0.2,1.6-0.4,2.4-0.7C100.7,149.5,100.4,148.4,100,147.3L100,147.3z M91.6,153.2c0.8-0.1,1.6-0.3,2.4-0.4
	c-0.3-1.3-0.5-2.5-0.8-3.8c-0.9,0.2-1.5,0.3-2.3,0.5C91.2,150.7,91.3,151.8,91.6,153.2z M112.8,141.5c-0.8,0.4-1.4,0.7-2.1,1.1
	c0.6,1.2,1.1,2.2,1.7,3.4c0.8-0.5,1.4-0.9,2.1-1.2C114,143.7,113.5,142.7,112.8,141.5z M106.5,144.7c-0.8,0.4-1.4,0.6-2.1,0.9
	c0.5,1.2,0.9,2.3,1.3,3.5c0.8-0.4,1.6-0.7,2.3-1.1C107.5,146.9,107,145.9,106.5,144.7L106.5,144.7z M107.6,144.3
	c0.6,1.2,1.1,2.2,1.6,3.4c0.8-0.4,1.5-0.7,2.2-1.1c-0.6-1.2-1.2-2.2-1.8-3.3C108.9,143.6,108.3,143.9,107.6,144.3L107.6,144.3z
	 M87.9,153.7c0.9-0.1,1.7-0.2,2.5-0.4c-0.2-1.3-0.4-2.5-0.6-3.7c-0.8,0.1-1.4,0.2-2.2,0.3C87.6,151.2,87.7,152.4,87.9,153.7z
	 M95.2,152.5c0.9-0.2,1.6-0.5,2.4-0.7c-0.4-1.3-0.7-2.4-1-3.6c-0.8,0.2-1.4,0.4-2.1,0.6C94.7,150,94.9,151.2,95.2,152.5L95.2,152.5z
	 M104.5,149.7c-0.2-0.7-0.4-1.2-0.6-1.7c-0.5-1.3-1.3-1.7-2.7-1.1c-0.1,0-0.1,0.1-0.2,0.2c0.4,1.1,0.8,2.1,1.2,3.3
	C103.1,150.2,103.7,150,104.5,149.7z"/>
<path class="st0" d="M137.4,114.7c0.4-0.6,0.6-1.1,0.8-1.5c-0.2-0.6-0.4-1-0.6-1.4c0.4-0.1,0.8-0.2,1.5-0.4c0.1-0.3,0.4-0.9,0.7-1.5
	c-0.4-0.3-0.6-0.5-0.9-0.7c0-1.1,0.6-1,1.4-0.5c0.3-0.7,0.5-1.3,0.7-1.7c-0.3-0.5-0.5-1-0.7-1.4c0.4-0.1,0.8-0.2,1.4-0.4
	c0.1-0.4,0.4-1,0.6-1.7c-0.4-0.2-0.7-0.4-1.3-0.8c0.6-0.3,1-0.6,1.4-0.8c0.1,0.1,0.2,0.2,0.2,0.2c0.2-0.6,0.3-1.2,0.5-1.9
	c-0.3-0.2-0.6-0.3-1.2-0.7c0.6-0.4,1.1-0.7,1.7-1.1c0-0.5,1.1-1.5-0.6-2c-0.1,0-0.1-0.5,0-0.6c0.4-0.2,0.8-0.3,1.3-0.6
	c0.1-0.4,0.2-1,0.4-1.7c-0.4-0.1-0.7-0.3-1.4-0.5c0.6-0.5,1-0.8,1.7-1.4c0.4-1.4,0.4-1.5-1.2-2c0.5-0.5,0.9-0.8,1.3-1.1
	c0.6-0.3-0.1-1.7,1.4-1.2v1.6c1.2,0.1,2.4,0.2,3.4,0.3c0.9-0.6-0.2-2.2,1.5-2.1v2.2c0.4,0.1,0.8,0.2,1.6,0.5c-0.6,0.5-1,0.8-1.4,1.2
	c-0.1-0.1-0.2-0.1-0.2-0.2c-0.1,0.7-0.2,1.4-0.3,1.9c0.5,0.6,0.8,0.9,1.1,1.3c-0.4,0.2-0.8,0.4-1.4,0.8c-0.1,0.4-0.2,1.1-0.3,1.6
	c0.4,0.6,0.7,1,1,1.4c-0.4,0.2-0.8,0.3-1.4,0.6c-0.1,0.3-0.3,0.8-0.4,1.3c0,0.3,0.3,0.6,0.4,1c0.2,0.3,0.3,0.7,0.6,1.3
	c-0.8-0.1-1.1-0.2-1.6-0.2c-0.2,0.8-0.4,1.5-0.6,2.2c0.4,0.2,0.7,0.4,1.5,0.7c-0.7,0.4-1.1,0.7-1.6,0.9c-0.1-0.1-0.1-0.2-0.2-0.3
	c-0.3,0.7-0.6,1.4-0.9,2.1c0.4,0.2,0.7,0.5,1.1,0.7c-0.1,0.3-0.2,0.6-0.4,1c-0.4-0.1-0.8-0.2-1.2-0.3c-0.3,0.7-0.6,1.4-0.9,2.2
	c0.3,0.3,0.6,0.5,1.2,1c-0.7,0.3-1.2,0.5-1.7,0.6c-0.1-0.1-0.1-0.2-0.1-0.3c-0.3,0.6-0.6,1.3-1,2c0.3,0.3,0.6,0.5,1,0.8
	c-0.2,0.3-0.3,0.6-0.5,0.9c-0.4-0.1-0.7-0.2-1.1-0.4c-0.4,0.6-0.7,1.3-1.1,2c0.3,0.3,0.6,0.5,0.9,0.8c-0.1,0.3-0.3,0.6-0.4,1
	c-0.4-0.2-0.7-0.4-1-0.5c-1.5,1.5-1.6,1.9-0.3,3.1c-0.7,0.2-1.2,0.3-1.8,0.4c0-0.1-0.1-0.2-0.1-0.3c-0.4,0.4-0.8,0.9-1.1,1.3
	c-0.5-0.4-0.5-1.2,0.1-2.2c-0.8-0.5-1.6-1.1-2.4-1.6c-0.2-0.2-0.6-0.1-1,0c-0.4,0-0.8,0.1-0.8,0.1c-0.2-0.8-0.4-1.3-0.5-1.7
	c0-0.2,0-0.6,0.1-0.6c0.4-0.1,0.8,0,1.4,0c0.3-0.4,0.6-0.9,1-1.5c-0.3-0.3-0.6-0.5-0.9-0.8c0.1-0.3,0.3-0.5,0.5-0.9
	C136.7,114.4,137,114.5,137.4,114.7L137.4,114.7z M139.9,112.3c1.2,0.6,2.2,1.2,3.4,1.8c0.4-0.8,0.8-1.4,1.1-2.2
	c-1.2-0.6-2.3-1.1-3.5-1.6C140.6,111,140.3,111.6,139.9,112.3L139.9,112.3z M148.2,101.4c-1.3-0.3-2.4-0.6-3.7-0.9
	c-0.2,0.8-0.4,1.4-0.6,2.2c1.2,0.4,2.3,0.8,3.6,1.2C147.7,103,147.9,102.3,148.2,101.4L148.2,101.4z M136.5,118.4
	c1.1,0.7,2.1,1.4,3.2,2.1c0.5-0.8,0.8-1.4,1.3-2.1c-1.2-0.7-2.2-1.2-3.3-1.8C137.3,117.2,136.9,117.7,136.5,118.4L136.5,118.4z
	 M149.2,96.7c0.1-0.7,0.3-1.2,0.4-1.7c0-0.2-0.2-0.7-0.4-0.8c-1-0.2-2.1-0.3-3.2-0.5c-0.1,0.8-0.2,1.5-0.4,2.2
	C146.9,96.2,148,96.4,149.2,96.7L149.2,96.7z M143.5,103.8c-0.3,0.8-0.5,1.4-0.8,2.2c1.2,0.4,2.4,0.8,3.6,1.2
	c0.3-0.8,0.6-1.5,0.9-2.2C145.9,104.6,144.8,104.2,143.5,103.8L143.5,103.8z M141.3,109.1c1.3,0.6,2.4,1.1,3.7,1.7
	c0.2-0.9,0.7-2.1,0.4-2.3c-0.9-0.6-2-0.9-3-1.1C142.2,107.3,141.8,108.3,141.3,109.1L141.3,109.1z M141.7,117.3
	c0.4-0.8,0.7-1.4,1.1-2.2c-1.2-0.6-2.2-1.1-3.4-1.7c-0.4,0.7-0.7,1.3-1,2C139.5,116.1,140.5,116.7,141.7,117.3L141.7,117.3z
	 M146.5,90.3c-0.1,0.8-0.2,1.5-0.3,2.2c1.3,0.2,2.4,0.4,3.7,0.6c0.1-0.8,0.2-1.5,0.3-2.4C148.9,90.6,147.8,90.4,146.5,90.3
	L146.5,90.3z M145.3,97.2c-0.1,0.3-0.1,0.5-0.2,0.8c-0.5,1.1-0.1,1.6,1.1,1.7c0.7,0.1,1.4,0.3,2.3,0.5c0.2-0.8,0.3-1.5,0.5-2.3
	C147.7,97.6,146.5,97.4,145.3,97.2L145.3,97.2z"/>
<path class="st0" d="M126.4,129.2c0.6,0.7,1.2,1.3,1.7,1.9c-1.4,2.5-2.3,2.5-3.9,0.2c0.2-0.2,0.3-0.5,0.5-0.7
	C125.3,130.2,125.8,129.7,126.4,129.2L126.4,129.2z"/>
<path class="st0" d="M127.2,128.6c2-2.5,1.9-2.9,3.9-0.1c-0.7,0.6-1.4,1.2-2.4,1.9C128.3,129.9,127.7,129.3,127.2,128.6z"/>
<path class="st0" d="M133.9,125c-0.8,1-1.4,1.7-2.3,2.8c-0.6-0.8-1.5-1.5-1.5-2.2s0.9-1.7,1.5-1.8
	C132.3,123.6,133.1,124.5,133.9,125z"/>
</svg>
