<?xml version="1.0" encoding="UTF-8"?>
<svg id="Layer_1" data-name="Layer 1" xmlns="http://www.w3.org/2000/svg" viewBox="0 0 629.46 644.67">
  <g fill="#FFFFFF">
  <path d="m312.12,43.11c0,12.68,0,25.37,0,38.05,0,3.84-1.01,4.92-4.7,5.11-73.02,3.86-131.31,35.66-175.44,93.46-25.8,33.8-41,72.2-46.56,114.37-.74,5.6-1.12,11.25-1.6,16.89-.25,2.99-1.34,4.18-4.42,4.19-24.88.04-49.76.05-74.64.04-3.69,0-4.76-1.2-4.74-5.05.15-28.1,4.51-55.58,12.46-82.5,16.55-56.09,46.11-104.29,88.5-144.52C140.76,45.39,188.06,21.44,241.07,8.32,262.55,3,284.36.04,306.52,0c4.71,0,5.62.91,5.62,5.64,0,12.49,0,24.98,0,37.47,0,0-.01,0-.02,0Zm-7.66-35.62c-87.85,5.8-162,38.61-219.86,105.64C36.41,168.96,11.51,233.88,7.9,307.56h68.04c5.26-61.17,28.29-114.24,71.26-157.93,43.09-43.81,95.65-67.57,157.25-71.16V7.49Z"/>
  <path d="m311.45,602c0,12.39,0,24.78,0,37.18,0,4.61-1.05,5.64-5.75,5.48-44.16-1.49-86.04-12.21-125.59-31.72-58.31-28.76-103.85-71.47-136.66-127.5C16.1,438.73,1.82,388.11.34,333.94c-.13-4.92.77-5.79,5.73-5.8,24.1-.02,48.2-.04,72.3-.05,4.05,0,5.18,1.08,5.31,4.84,1.43,40.2,12.17,77.76,33.2,112.05,25.9,42.24,61.61,73.74,106.74,94.29,26.48,12.05,54.35,18.62,83.45,19.79,3.19.13,4.34,1.37,4.35,4.88.03,12.68.01,25.37.01,38.05h.02Zm-7.63,34.38v-69.59c-61.94-3.94-114.4-28.45-157.97-72.16-43.72-43.87-66.39-97.12-69.89-158.8H8.71c2.99,158.33,137.39,295.04,295.11,300.56Z"/>
  <path d="m324.41,43.25c0-12.49,0-24.98,0-37.47,0-4.54,1.19-5.71,5.73-5.62,54.98,1.19,105.56,17.04,152.34,45.63,27.99,17.11,52.43,38.5,73.21,63.7,14.06,17.05,26.18,35.66,36.5,55.34,23.7,45.22,36.37,93.22,36.91,144.34.05,4.6-.81,5.46-5.46,5.47-23.91.06-47.81.11-71.72.15-4,0-4.95-.95-5.17-4.95-2.58-45.44-15.5-87.61-42.13-124.7-36.73-51.15-85.57-84.4-148.17-95.84-8.7-1.59-17.62-2.01-26.46-2.77-4.68-.4-5.6-1.13-5.6-5.82,0-12.49,0-24.98,0-37.47h.01Zm7.62,35.5c.85.08,1.42.15,1.99.18,17.84.78,35.22,4.11,52.27,9.32,33.82,10.34,63.29,28.22,89.24,51.99,48.11,44.06,73.79,98.95,78.47,163.84.19,2.58.95,3.21,3.45,3.2,20.1-.12,40.2-.09,60.31-.12,1.12,0,2.24-.14,3.69-.24-3.81-89.38-38.46-164.35-104.17-224.13C465.12,35.36,402.56,11.75,332.03,7.94v70.81Z"/>
  <path d="m323.71,601.76c0-12.59,0-25.17,0-37.76,0-3.92.77-4.83,4.72-5.06,29.57-1.67,57.77-8.87,84.46-21.6,39.71-18.94,71.36-47.24,95.75-83.74,20.12-30.11,32.33-63.24,36.87-99.16.92-7.24,1.11-14.58,1.54-21.88.22-3.74,1.19-4.84,4.99-4.84,24.2-.03,48.4-.04,72.59-.05,3.63,0,4.78,1.21,4.81,4.99.37,39.82-6.84,78.24-21.61,115.19-26.06,65.2-69.35,115.92-129.42,152.09-44.96,27.07-93.89,41.72-146.33,44.57-8.23.45-8.4.29-8.4-7.93,0-11.61,0-23.22,0-34.83h.02Zm7.58,35.12c86.54-6.58,159.59-40.44,216.67-105.97,48.63-55.82,72.42-121.52,74.05-195.54h-67.19c-2.99,61.34-25.64,114.05-67.97,158.11-42.45,44.18-94.57,68.33-155.57,73.24v70.15Z"/>
  <path d="m97.53,154.63c-3.33-.68-6.2-1.27-9.1-1.86,16.59-16.88,32.87-33.46,49.13-50.01,4.91,4.1,5.38,11.54,1.66,21.99,5.92.95,11.68-2.6,14.11-8.74.75-1.9,1.29-3.9,2.13-5.75,3.28-7.22,9.45-10.9,17.37-10.33,5.6.4,9.56-1.96,12.21-6.81,1.26-2.31,2.41-4.7,3.91-6.84,3.71-5.28,8.79-7.44,15.25-6.35,2.48.42,5.06.86,7.52.59,5.11-.57,7.77-4.38,10.3-9.11-1.89.09-3.48-.03-5,.27-6.13,1.2-12.15,1.13-18.22-.61-6.47-1.86-10.27-.03-13.47,5.94-.97,1.8-1.8,3.68-2.79,5.47-3.81,6.9-9.8,9.78-17.52,9.22-6.18-.45-9.25,1.16-12,6.63-.57,1.13-1.19,2.25-1.6,3.45-.68,1.98-2.13,3.25-3.88,2.15-1.2-.76-2.34-2.92-2.17-4.29.82-6.75,7.58-13.53,14.03-14.43,1.42-.2,2.92-.05,4.36.12,6.2.75,10.89-1.46,13.91-6.98.84-1.54,1.55-3.15,2.33-4.71,4.23-8.43,10.35-11.27,19.49-9.04.56.14,1.11.27,1.32-.33,1.5-1.06,2.86-2.51,4.53-3.11,20.46-7.35,40.97-14.59,61.47-21.81.95-.33,2.02-.31,3.04-.46-.09,1.09,0,2.23-.29,3.27-.76,2.72-1.7,5.4-2.54,8.09-1.72,5.47-3.86,10.66-9.32,14.05,5.42,3.14,10.77,3.72,16.3,2.04,3.53-1.07,6.91-2.66,10.43-3.76,1.15-.36,2.8-.31,3.77.28,1.86,1.12,1.32,3.78-.96,4.9-11.01,5.41-22.11,7.87-33.96,2.11-3.56-1.73-7.8-2.67-11.77-2.8-5.43-.18-9.87,2.67-13.15,7.06-1.23,1.64-2.37,3.34-3.59,4.99-4.58,6.18-10.46,8.96-18.3,7.65-8.84-1.48-11.22-.11-15.14,8.06-3.91,8.17-10.08,12.32-19.35,11.66-5.23-.37-8.68,1.98-10.82,6.8-.95,2.14-1.8,4.32-2.74,6.46-3.32,7.57-9.48,11.16-17.38,12.04-10.94,1.21-15.78,5.79-16.92,16.83-.67,6.51-2.18,12.63-7.43,16.94-2.51,2.06-5.53,3.64-8.54,4.92-7.51,3.2-9.73,6.08-9.69,14.16.05,8.46-3.75,14.47-10.98,18.63-1.99,1.14-3.92,2.59-5.43,4.3-2.23,2.54-2.99,5.73-2.06,9.05,2.88,10.39-.7,18.23-9.1,24.47-6.53,4.85-7.93,9.8-4.86,17.43,3.87,9.59,2.37,17.96-4.32,25.83-2.18,2.57-3.45,5.99-4.79,9.17-.76,1.81-1.77,2.85-3.64,2.61-2.02-.26-2.97-1.77-2.33-3.61,1.13-3.27,2.42-6.52,4-9.59.96-1.87,2.68-3.34,3.91-5.09,2.96-4.24,3.9-8.85,2.24-13.87-.76-2.31-1.6-4.61-2.16-6.98-1.79-7.53.49-13.84,6.07-19.04,1.07-.99,2.29-1.82,3.43-2.74,5.08-4.1,7.5-9.31,5.75-15.76-2.58-9.54,1.59-17.31,10.1-21.51,5.31-2.62,7.85-6.99,7.93-12.94.15-11.73,3.38-16.25,14.3-20.36,8.08-3.04,11.34-8.62,10.42-18.56-2.35,2.43-4.4,4.59-6.49,6.71-4.26,4.33-9.25,7.35-15.14,9.04-7.96,2.28-11.38,7.07-10.86,15.41.53,8.53-3.21,14.37-10.5,18.32-1.88,1.02-3.84,1.99-5.47,3.34-3.53,2.93-4.69,6.82-3.85,11.31.34,1.82.75,3.63,1.1,5.45,1.1,5.68-.48,10.64-4.26,14.89-1.61,1.81-3.46,3.44-5.32,5.01-5.96,5.02-7.8,11.16-5.43,18.61.97,3.05,2.11,6.12,2.54,9.27.93,6.79-1.12,12.78-6.21,17.47-3.3,3.05-5.27,6.67-5.99,11.08-.49,3.01-4.57,5-7.35,3.67-1.81-.87-1.61-2.37-1.2-4.01,2.72-10.88,5.42-21.76,8.06-32.66,1.19-4.92,2.25-9.88,3.29-14.84,1.13-5.37,3.63-10.01,8.11-13.14,6.91-4.82,8.98-10.83,6.75-19.03-2.35-8.61,1.47-16.05,9.41-20.25,1.64-.87,3.3-1.7,4.86-2.69,3.6-2.29,5.57-5.72,5.12-9.88-1.42-13.31,6.48-21.59,17.78-23.86.42-.09.82-.31,1.64-.62Z"/>
  <path d="m92.73,141.62c-1.61-1.87-2.92-3.06-3.77-4.53-.37-.63-.08-2.04.42-2.7,1.42-1.87,3.74-2.89,3.58-6.04-.07-1.35,2.14-2.84,3.36-4.23,1.09-1.23,2.25-2.39,3.41-3.62-1.01-2.47-5.06-3.99-1.12-7.51,3.85-3.44,4.86,1.36,8.34,1.72.74-.91,1.79-2.45,3.08-3.75,1.4-1.42,2.43-3.45,5.26-2.71.83.22,2.25-1.6,3.32-2.57,3.4-3.1,3.38-3.11,6.67-.09.43.39.93.71,1.37,1.05-11.37,11.72-22.51,23.21-33.93,34.99Zm20.99-28.6c.8,2.18,1.9,1.79,2.87.66.91-1.06,3.42-1.68,1.37-4.11-1.45,1.18-2.78,2.26-4.24,3.45Zm-18.66,21.46c4.02-2.88,4.11-3.08,2.5-4.92-3.3,2.47-3.6,3.03-2.5,4.92Zm9.56-12.64c-1.59,1.43-2.5,2.14-3.25,3-.28.33-.3,1.01-.21,1.49.05.26.74.68.85.61.99-.71,2.05-1.4,2.8-2.32.32-.4-.06-1.35-.18-2.77Zm7.23-3.42c-.1-.43-.2-.87-.31-1.3-.81.09-1.87-.1-2.38.34-.48.42-.38,1.5-.53,2.28,1.07-.44,2.14-.88,3.22-1.32Z"/>
  <path d="m209.29,54.95c-.44-1.25-.76-2.05-1-2.87q-1.14-3.89,2.62-5.21c1.62-.56,2.83-1.22,3.94-2.89,1.01-1.53,3.55-2.21,5.55-2.89,2.59-.89,3.7-2.23,2.59-4.96-1.26-3.07,1.33-3.27,3.11-4.06,1.94-.86,3.38-.55,4.16,1.64.35.99.89,1.92,1.49,3.18,2.63-.84,5.16-1.8,7.76-2.42,1.05-.25,2.26.29,3.4.35.98.06,2.05.18,2.95-.11,5.67-1.83,5.84-1.75,7.09,4.68-14.41,5.13-28.87,10.28-43.67,15.55Zm5.62-7.72c.69,3.38,2.27,2.09,3.39,1.55.53-.25.72-1.21,1.06-1.85-1.39.09-2.79.19-4.45.3Zm14.52-2.77c-1.16-.72-1.79-1.4-2.15-1.28-1.19.4-2.29,1.09-3.42,1.66.49.45,1.08,1.35,1.45,1.26,1.2-.27,2.33-.89,4.12-1.65Zm4.41-.96c1.25-.81,2.25-1.46,3.24-2.11-.46-.48-1.11-1.46-1.34-1.37-1.09.43-2.06,1.15-3.08,1.76.34.49.68.98,1.18,1.71Zm12.09-4.84c-1.26-.64-1.89-1.23-2.27-1.09-1,.35-1.89,1.02-2.83,1.56.51.42,1.11,1.27,1.52,1.19,1.01-.21,1.93-.85,3.58-1.65Z"/>
  <path d="m31.74,275.04c-1.53-1.28-3.03-2.07-3.78-3.31-.51-.85-.15-2.38.13-3.53.94-3.97.93-4.28-3.07-5.27-2.64-.65-2.87-2.1-2.31-4.33.57-2.24,1.35-3.74,4.18-3.1,4.01.91,4.04.76,5.19-3.26.51-1.78.84-3.72,1.84-5.2.7-1.05,2.46-2.11,3.6-1.97,1.82.22,1.58,1.92,1.17,3.51-2.07,8.12-4.03,16.27-6.06,24.4-.15.62-.51,1.19-.89,2.06Z"/>
  <path d="m275.11,57.35c-.53-.51-1.89-1.31-1.79-1.8.31-1.48.83-3.59,1.91-4.11,3.92-1.89,8.09-3.25,12.18-4.76,1.89-.7,3.57-.28,4.34,1.69.79,2.01-.56,3.08-2.21,3.75-3.59,1.46-7.19,2.9-10.82,4.28-.99.38-2.06.55-3.61.94Z"/>
  <path d="m70.3,476.01c.79.6,1.47,1.11,2.26,1.7.74-.62,1.4-1.16,2.15-1.78-.53-.84-.98-1.55-1.46-2.31.17-.25.28-.53.49-.7,3.6-3.15,7.2-6.3,10.82-9.41,3.41-2.92,6.9-2.86,10.12.36,2.96,2.97,5.74,6.12,8.62,9.17,14.31,15.2,28.64,30.4,42.95,45.61,4.37,4.65,4.76,7.75.94,12.93-2.81,3.82-6.17,7.23-9.35,10.89-1.13-.76-1.83-1.23-2.7-1.81-.4.29-1.15.56-1.23.96-.19.97-.06,2-.06,3.58-2.15,2.82-4.73,3.12-7.89.38-1.98-1.72-3.93-3.47-5.76-5.08,4.03-6.2,4.22-10.08,1.07-13.31-3.18-3.26-6.63-3.17-12.3.44-7.55-8.07-15.14-16.17-22.68-24.23,4.32-6.32,4.57-9.96,1.05-13.46-3.6-3.59-7.11-3.56-12.75.25-2.11-2.35-4.36-4.63-6.35-7.13-1.86-2.34-1.2-4.41,2.06-7.05Zm39.73,12.47c-3.56-3.79-6.91-7.35-10.46-11.11-2.85,2.64-5.43,5.03-8.13,7.54,3.34,3.51,6.3,6.71,9.41,9.77.43.43,1.89.48,2.36.09,2.29-1.91,4.4-4.03,6.82-6.29Zm18.65,33.99c2.2-2.07,4.65-4.37,7.49-7.05-4.05-3.5-7.78-6.72-11.69-10.1-1.93,1.85-4.38,4.18-7.16,6.85,3.83,3.47,7.47,6.77,11.36,10.3Zm-5.92-20.42c-3.56-3.83-6.78-7.3-10.24-11.03-2.74,2.58-5.31,5-8.21,7.74,3.91,3.49,7.5,6.71,11.27,10.07,2.09-1.97,4.55-4.29,7.19-6.79Zm-25.61-27.29c-2.74-2.95-5.2-5.69-7.82-8.29-.39-.39-1.74-.4-2.21-.03-2.44,1.89-4.74,3.97-7.34,6.2,3.42,3.13,6.55,6,9.86,9.04,2.23-2.05,4.78-4.4,7.52-6.92Zm41.42,43.47c-2.75,2.62-5.19,4.94-7.83,7.46,3.2,2.76,6.24,5.38,9.51,8.2,1.3-1.65,3.16-3.76,4.68-6.09.45-.7.33-2.34-.2-3-1.82-2.25-3.94-4.25-6.16-6.57Z"/>
  <path d="m286.76,622.38c-19.78-1.54-38.27-5.38-56.39-11.01-33.49-10.41-64.19-26.15-91.43-48.39-.23-.18-.47-.35-.69-.55-1.06-.94-2.84-1.81-1.5-3.41.38-.45,2.68.08,3.59.8,22.19,17.74,46.6,31.57,73.07,41.79,22.86,8.82,46.47,14.55,70.85,17.02.68.07,1.46-.02,2.01.29.89.49,1.62,1.26,2.42,1.9-.8.64-1.61,1.28-1.94,1.54Z"/>
  <path d="m293.26,596.22c-18.19-1.43-35.19-4.99-51.85-10.21-30.8-9.65-59.02-24.24-84.07-44.86-.21-.17-.43-.33-.63-.51-.97-.87-2.61-1.68-1.38-3.16.35-.42,2.47.07,3.3.74,20.4,16.44,42.84,29.27,67.18,38.74,21.01,8.18,42.72,13.49,65.14,15.78.62.06,1.34-.01,1.85.27.81.46,1.49,1.16,2.23,1.77-.74.59-1.48,1.19-1.78,1.43Z"/>
  <path d="m20.58,358.8c-.07-1.56-.34-3.14-.15-4.66.11-.87.96-1.64,1.48-2.46.63.82,1.71,1.58,1.82,2.46.84,6.67,1.31,13.38,2.23,20.04,3.67,26.43,11.28,51.71,22.62,75.86,2.15,4.58,4.51,9.07,6.77,13.59.66,1.32,1.67,2.88-.27,3.66-.6.24-2.3-1.05-2.82-2.01-18.05-33.25-28.84-68.68-31.68-106.47Z"/>
  <path d="m51.98,353.57c-.07-1.44-.31-2.9-.14-4.31.1-.8.89-1.52,1.37-2.28.58.76,1.58,1.46,1.69,2.28.78,6.16,1.21,12.37,2.06,18.52,3.39,24.43,10.43,47.8,20.91,70.12,1.99,4.24,4.17,8.38,6.26,12.57.61,1.22,1.54,2.66-.25,3.38-.55.22-2.13-.97-2.61-1.86-16.68-30.74-26.66-63.49-29.29-98.42Z"/>
  <path d="m74.72,495.84c.06-3.68,3.1-6.76,6.7-6.77,3.7-.02,6.59,3.15,6.51,7.15-.07,3.6-2.95,6.37-6.63,6.37-3.76,0-6.65-2.96-6.58-6.74Zm7.15-3.17c-.4.02-.81.03-1.21.05-.65,1.09-1.97,2.32-1.78,3.24.2.99,1.76,2.23,2.83,2.34.72.07,2.28-1.64,2.27-2.54-.01-1.04-1.34-2.06-2.1-3.09Z"/>
  <path d="m108.93,533.36c-.02-3.7,2.88-6.77,6.5-6.88,3.37-.1,6.5,3.05,6.49,6.53-.02,3.5-3.23,6.71-6.73,6.73-3.38.01-6.24-2.9-6.25-6.38Zm6.48,3.42c1.16-1.68,2.55-2.84,2.36-3.63-.25-1.06-1.73-1.83-2.67-2.72-.8.93-2.19,1.84-2.24,2.81-.05.92,1.3,1.91,2.55,3.54Z"/>
  <g>
    <path d="m34.73,355.48c.52-1.5,1.12-4.32,1.56-4.3,2.75.16,1.73,2.68,1.99,4.3.5,3.17.88,6.38,1.06,9.59.05.94-.71,1.93-1.1,2.9-.62-.81-1.63-1.54-1.79-2.43-.58-3.26-.88-6.56-1.29-9.85-.14-.07-.29-.14-.43-.2Z"/>
    <path d="m43.76,395.56c.96,1.3,1.65,1.87,1.87,2.58,1.19,3.88,2.34,7.79,3.33,11.73.18.72-.47,1.65-.74,2.48-.7-.48-1.83-.82-2.04-1.46-1.3-4.05-2.47-8.15-3.51-12.28-.17-.66.52-1.55,1.09-3.05Z"/>
    <path d="m43.31,388.91c-.31.36-.73,1.26-1.24,1.31-.56.05-1.63-.58-1.73-1.07-.94-4.36-1.76-8.74-2.47-13.14-.08-.48.81-1.11,1.25-1.68.55.44,1.48.79,1.6,1.33.92,4.26,1.7,8.56,2.59,13.25Z"/>
    <path d="m51.25,418.28c.45.66,1.04,1.27,1.34,2,1.37,3.42,2.75,6.85,3.93,10.35.27.81-.21,1.87-.34,2.82-.78-.5-1.97-.83-2.28-1.54-1.54-3.56-2.93-7.2-4.19-10.87-.26-.76.28-1.79.46-2.7.36-.02.72-.04,1.08-.06Z"/>
    <path d="m66.67,452.88c-.25.26-.57.87-.87.86-.6-.02-1.5-.22-1.72-.64-2.05-3.84-4.02-7.73-5.88-11.66-.21-.44.24-1.6.69-1.84.43-.23,1.66.09,1.88.51,2,3.87,3.85,7.81,5.73,11.74.12.25.1.56.17,1.03Z"/>
  </g>
  <g>
    <path d="m273.11,603.18c4.38.57,8.13.99,11.85,1.62.71.12,1.28,1.08,1.91,1.65-.75.43-1.53,1.28-2.24,1.22-3.76-.31-7.51-.78-11.23-1.38-.69-.11-1.24-1.13-1.86-1.73.63-.56,1.26-1.11,1.55-1.37Z"/>
    <path d="m253.17,599.37c3.99.8,7.42,1.41,10.81,2.24.62.15,1.05,1.14,1.56,1.74-.68.37-1.43,1.14-2.04,1.04-3.44-.53-6.87-1.19-10.25-2-.71-.17-1.22-1.16-1.83-1.78.68-.49,1.37-.97,1.75-1.25Z"/>
    <path d="m243.9,600.19c-3.78-1.11-7.15-2.03-10.45-3.15-.59-.2-.9-1.23-1.34-1.88.74-.29,1.57-.96,2.2-.81,3.39.8,6.76,1.73,10.07,2.79.57.18,1.25,1.34,1.14,1.89-.1.53-1.18.86-1.63,1.15Z"/>
    <path d="m214.78,587.26c3.82,1.5,7.46,2.87,11.03,4.38.38.16.77,1.43.57,1.65-.42.47-1.36.95-1.86.78-3.41-1.15-6.78-2.41-10.1-3.78-.51-.21-.97-1.18-.96-1.79,0-.42.86-.83,1.33-1.23Z"/>
    <path d="m162.43,558.98c.64.34,1.17.56,1.65.88,2.66,1.77,5.35,3.5,7.91,5.4.57.43.67,1.5.99,2.27-.78.07-1.76.47-2.3.14-2.97-1.81-5.87-3.74-8.71-5.76-.49-.35-.74-1.27-.76-1.94,0-.32.78-.66,1.23-1Z"/>
    <path d="m208.39,585.9c-.87.35-1.72,1.03-2.2.83-3.39-1.41-6.73-2.97-10.03-4.6-.4-.2-.75-1.23-.58-1.65.18-.45,1.19-1.01,1.55-.86,3.47,1.47,6.89,3.07,10.3,4.7.34.16.48.76.96,1.57Z"/>
    <path d="m179.33,569.92c.9.45,1.68.82,2.44,1.24,2.54,1.4,5.12,2.74,7.57,4.29.51.32.54,1.39.79,2.12-.68.13-1.54.6-2.02.34-3.17-1.65-6.28-3.42-9.35-5.26-.42-.25-.7-1.14-.64-1.69.04-.38.77-.69,1.21-1.05Z"/>
    <path d="m151.32,549.94c1.9,1.63,3.74,3.15,5.48,4.79.19.18-.08,1.26-.42,1.48-.46.29-1.36.42-1.77.16-1.54-1-3.02-2.12-4.39-3.35-.38-.34-.48-1.24-.35-1.8.1-.42.77-.71,1.45-1.27Z"/>
  </g>
  <path d="m505.33,131.96c-3.92-4.56-7.62-8.93-11.42-13.2-.51-.58-1.54-.83-2.37-.97-1.73-.3-3.57-.16-5.19-.72-1.24-.43-2.2-1.65-3.29-2.52.93-.72,1.79-1.9,2.82-2.08,3.34-.58,5.35-2.47,6.65-5.45.41-.95,1.12-1.78,2-3.14,3,3.79,5.5,7.52,8.59,10.67,3.2,3.26,6.97,5.96,10.48,8.9-.21.42-.42.84-.63,1.26.48-.86,1.06-1.67,1.43-2.57,1.68-4.05,3.29-8.13,4.97-12.19.37-.89.82-1.78,1.39-2.56,1.28-1.78,2.77-1.98,3.78.13.82,1.71,1.72,3.64,1.67,5.45-.13,4.76-.46,9.57-1.27,14.25-.92,5.34.39,9.74,3.82,13.82,2.94,3.49,5.62,7.21,8.37,10.87.52.69,1.09,1.55,1.1,2.34.02,1.35.03,3.07-.74,3.96-.65.75-2.72,1.12-3.62.64-3.24-1.72-6.74-3.38-9.25-5.93-10.12-10.31-7.38-8.66-20.98-8.82-3.61-.04-7.22-.04-10.83-.13-1.26-.03-2.69.05-3.72-.5-1.24-.67-2.63-1.82-3-3.05-.19-.65,1.48-2.37,2.61-2.8,4.55-1.72,9.23-3.13,13.86-4.66.8-.27,1.6-.57,2.78-1Z"/>
  <path d="m345.16,43.97c.99-.08,1.99-.29,2.97-.22,31.4,2.18,60.91,10.96,88.72,25.57,15.85,8.33,30.49,18.51,44.38,29.78,1.51,1.23,4.49,2.43,2.51,4.95-1.94,2.47-3.63-.24-5.06-1.36-18.59-14.49-37.97-27.69-59.69-37.14-22.58-9.82-46-16.61-70.49-19.57-1.16-.14-2.28-.58-3.42-.88.03-.38.06-.75.09-1.13Z"/>
  <path d="m345.6,26.48c1.19,0,2.38-.09,3.56.01,42.06,3.66,80.75,16.96,115.56,40.95,9.29,6.41,17.92,13.77,26.86,20.7.46.36.89.76,1.31,1.17,1.09,1.04,2.41,2.31.76,3.58-.67.51-2.6.17-3.45-.46-3.37-2.49-6.54-5.25-9.78-7.9-38.19-31.3-81.95-49.59-130.78-56.06-1.39-.18-2.76-.52-4.13-.79.03-.4.07-.79.1-1.19Z"/>
  <path d="m600.21,293.64c-.18-.87-.44-1.73-.54-2.61-3.3-30.54-10.43-60.06-23.17-88.13-7.56-16.65-16.61-32.43-26.9-47.52-.49-.72-1.25-1.41-1.39-2.2-.19-1.07.09-2.23.17-3.35,1.08.37,2.61.42,3.15,1.17,3.25,4.5,6.4,9.09,9.35,13.79,17.3,27.59,30.05,57.09,36.05,89.18,2.23,11.94,3.13,24.14,4.59,36.23.13,1.07-.12,2.19-.2,3.29-.37.05-.75.09-1.12.14Z"/>
  <path d="m345.24,61.55c1.07-.1,2.14-.32,3.2-.27,18.14.89,35.69,4.65,52.82,10.66,26.06,9.13,49.36,23.06,70.89,40.16,1.21.96,2.41,2.03,1.16,3.62-1.41,1.8-2.7.56-3.97-.41-20.99-16.09-43.3-29.87-68.29-38.97-16.83-6.13-34.03-10.64-51.85-12.66-1.36-.15-2.7-.57-4.04-.87.03-.42.06-.83.09-1.25Z"/>
  <path d="m584.65,293.88c-.26-.95-.64-1.88-.75-2.84-4.78-43.38-18.6-83.52-42.85-119.94-.27-.41-.74-.82-.75-1.23-.03-1.2.13-2.41.22-3.61,1.11.43,2.75.54,3.25,1.35,5.33,8.73,10.92,17.34,15.6,26.41,14.04,27.21,22.49,56.17,25.95,86.58.4,3.48.54,7,.72,10.5.05.9-.22,1.81-.34,2.71-.35.02-.7.05-1.06.07Z"/>
  <path d="m570.13,294c-.25-.94-.64-1.87-.74-2.83-2.78-26.06-8.68-51.4-19.68-75.19-6.44-13.93-14.61-27.06-22.01-40.55-.23-.43-.53-.82-.8-1.22-.86-1.32-2.03-2.78-.19-4.05,1.93-1.34,2.8.49,3.63,1.73,21.27,31.96,35.61,66.57,40.1,104.94.55,4.74.74,9.52,1.02,14.29.05.94-.28,1.9-.44,2.85-.29.01-.58.03-.87.04Z"/>
  <path d="m576.92,446.01c-1.19,2.51-2.72,5.72-3.89,8.18,1.14,1.93,2.97,3.73,2.6,4.65-1.13,2.81-3-.06-4.88-.03-1.54,2.98-3.15,6.07-4.34,8.37.95,2.11,1.62,3.59,2.29,5.07-1.53.04-3.06.08-5.32.14-1.36,2.18-3.21,5.13-5,8.01.32,1.98,4.52,2.1,2.38,4.71-.59.72-3.12-.13-5.57-.33-2.27,3.84-4.95,8.42-7.69,12.97-.85,1.41-1.96,2.67-2.76,4.11-.36.63-.25,1.52-.36,2.3.33.09.65.18.98.27,1.44-1.78,2.89-3.56,4.38-5.39,1.59.8,2.1,1.59,1.02,3.2-1.36,2.03-2.41,4.26-3.64,6.39-.23.4-.59.82-1,1.03-4.45,2.33-7.24,5.96-8.83,10.69-.31.92-1.31,1.67-2.14,2.32-1.69,1.32-3.64,2.34-5.2,3.8-7.25,6.81-14.34,13.8-21.63,20.57-2.26,2.1-5.07,3.61-7.44,5.61-1.26,1.05-2.09,2.6-3.2,3.85-.63.71-1.35,1.6-2.19,1.84-4.46,1.24-7.58,4.1-10.48,7.55-1.14,1.36-3.29,1.9-5.05,2.66-.32.14-1.16-.34-1.38-.74-.21-.38-.12-1.32.17-1.51.81-.53,1.79-.8,2.71-1.17-.45-.49-.89-.98-1.34-1.47-6.71,4.44-13.42,8.88-19.41,12.85-.33,2.17-.56,3.75-.8,5.33-1.27-.74-2.54-1.48-4.4-2.56-2.34,1.22-5.41,2.83-7.69,4.01-.36,2.25-.61,3.83-.87,5.41-1.26-.69-2.52-1.38-3.78-2.07.06-.31.13-.63.19-.94-3.14,1.44-6.27,2.89-8.55,3.93-.6,2.3-1,3.85-1.41,5.4-1.21-.84-2.42-1.69-4.23-2.94-2.41.99-5.61,2.3-8.72,3.57-.46,1.8,2.02,4.16-.91,4.84-.94.22-2.35-1.55-4.2-2.89-2.33.81-5.59,1.95-8.24,2.88-.54,2-.94,3.51-1.34,5.02-1.22-.93-2.45-1.85-4.27-3.24-2.41.75-5.71,1.77-8.06,2.5-.86,2.19-1.42,3.62-1.98,5.05-1.18-.99-2.36-1.98-4.06-3.41-2.44.6-5.72,1.41-8.04,1.98-1.11,2.16-1.85,3.59-2.59,5.03-1.01-1.08-2.02-2.17-3.49-3.74-2.62.52-6.02,1.19-8.45,1.67-1.12,2.08-1.85,3.42-2.57,4.77-.99-1.08-1.97-2.16-3.46-3.79-2.56.4-5.98.94-9.39,1.47-.82,1.56,1.02,4.44-1.95,4.4-.95-.01-1.87-2.12-3.2-3.75-.39.05-1.55.41-2.65.25-.89-.13-1.69-.87-2.53-1.34.63-.73,1.13-1.76,1.92-2.12,1.1-.49,2.42-.47,3.79-.69-.62-5.21-1.23-10.21-1.76-14.67-2.01-.82-3.62-1.47-5.24-2.13,1.37-1.05,2.73-2.09,4.1-3.14.54-1.3,1.01-4.14,1.89-4.27,3.07-.46,1.5,2.86,2.93,4.54,2.85-.43,5.97-.9,8.31-1.25.78-2.19,1.09-5.02,2-5.23,3.05-.7,1.59,2.81,3.32,4.3,2.65-.47,5.67-1.01,8.6-1.53,1.08-1.85-1.87-4.9,1.6-5.37.84-.11,2.04,2.45,3.42,4.23,2.32-.57,5.3-1.31,8.13-2.01,1.01-1.9-1.92-4.64,1.25-5.35.84-.19,2.24,2.15,3.98,3.93,2.11-.62,5.12-1.51,7.98-2.36.62-2.04-2.36-4.51.82-5.43.79-.23,2.33,2.1,4.08,3.8,2.17-.74,5.15-1.75,7.99-2.71.46-2.08-2.57-4.45.58-5.45.87-.27,2.56,2.07,4.32,3.6,2.19-.91,5.1-2.12,7.82-3.26.34-2.1-2.75-4.24.07-5.44,2.96-1.26,2.29,2.73,4.15,3.71,2.64-1.28,5.42-2.64,8.1-3.94.24-2.08-2.92-4.17.02-5.48.81-.36,2.75,1.83,4.59,3.15,2.13-1.16,4.92-2.67,6.89-3.73,0-2.3-.62-4.97.11-5.41,2.73-1.64,2.55,1.98,4.32,2.99.83-.46,1.77-1.24,2.84-1.51.83-.21,1.82.22,2.74.37-.33.88-.44,1.96-1.03,2.6-.75.83-1.89,1.32-3.08,2.1,2.4,4.44,4.76,8.78,7.35,13.57,5.18-3.35,10.16-6.57,15.62-10.1-11.51-1.99-15.45-7.7-13.29-18.7,1.74-8.86,6.99-15.45,13.89-21.01,8.81-7.1,17.87-13.96,26.02-21.76,7.86-7.53,14.79-16.04,21.93-24.29,2.79-3.22,4.26-4.02,8.27-2.5,5.13,1.94,9.32,5.19,12.87,9.59-1.96,2.74-3.87,5.39-5.98,8.33-2.9-2.38-5.58-4.58-8.52-6.98,1.52-2.15,2.95-4.18,4.35-6.16-1.21-1.58-2.15-1.8-3.25-.13-10.42,15.84-24.11,28.58-38.56,40.6-.45.37-.9.75-1.32,1.16-.13.12-.18.33-.41.81,2.78,3.28,5.65,6.66,8.78,10.34-9.78,7.53-18.93,15.43-30.53,19.54-.14,2.57,1.04,3.21,3.01,2.1,5.85-3.28,12.01-6.18,17.37-10.14,20.92-15.45,39.54-33.28,54.63-54.61.62-.87,1.31-1.69,2.18-2.8.87,1.07,1.62,2,2.63,3.25,1.84-2.78,3.58-5.4,5.46-8.24-3.77-2.61-7.08-6.02-11.06-7.24-2.57-.79-4.35-.84-4.85-3.75-.08-.48-1.26-.7-1.54-1.24-.41-.8-.48-1.77-.69-2.67.93-.11,1.9-.43,2.77-.25.8.16,1.49.87,2.57,1.56,1.59-2.68,3.14-5.29,4.62-7.78-.89-1.88-4.79-1.82-3.11-4.61,1.49-2.47,3.1.68,5.33.64,1.31-2.49,2.78-5.27,4.15-7.89-.77-2.04-4.8-1.53-3.28-4.41.39-.74,3.26-.18,5.51-.23,1.05-2.21,2.42-5.11,3.74-7.91-.79-1.9-4.77-1.23-3.38-4.16.37-.77,3.07-.43,5.41-.67.88-2.12,2.1-5.04,3.3-7.91-.96-1.8-4.77-1.06-3.67-3.98.28-.75,3.03-.57,4.65-.81l.54.83c1.08-3.06,2.17-6.12,3.22-9.11-1.14-1.69-4.96-.82-3.98-3.83.95-2.94,3.34-.01,5.38-.63.86-2.83,1.78-5.87,2.66-8.77-1.15-1.74-4.98-.48-4-3.63.25-.82,3.04-.85,5.26-1.38.56-2.33,1.31-5.41,1.88-7.77-1.74-1.61-3.01-2.78-4.28-3.95,1.55-.54,3.09-1.08,5.46-1.91.41-2.18,1.02-5.36,1.58-8.35-1.47-1.55-5.11.06-4.41-3.25.18-.85,2.9-1.17,5.23-2.02.3-2.13.74-5.26,1.16-8.2-1.43-1.67-5.07.31-4.62-2.95.12-.89,2.93-1.41,4.69-2.19.71-1,1.71-2.42,2.72-3.84.66,1.52,1.32,3.03,2.25,5.16,3.79.41,8.41.91,13.39,1.45.13-1.19.01-2.31.41-3.21.4-.89,1.32-1.55,2.02-2.31.47.82,1.17,1.6,1.36,2.48.21,1-.04,2.09.51,2.72,1.12,1.03,2.24,2.06,3.36,3.09-1.24.73-2.48,1.45-3.71,2.18-.25-.23-.51-.46-.76-.69-.52,3.51-1.03,7.02-1.43,9.68,1.69,1.56,2.89,2.67,4.1,3.78-1.41.67-2.82,1.34-4.91,2.34-.48,2.53-1.13,5.94-1.66,8.71,1.48,1.55,2.61,2.75,3.75,3.94-1.43.58-2.86,1.17-4.93,2.02-.62,2.65-1.44,6.11-2.25,9.57.26-.1.52-.21.78-.31.92,1.22,1.85,2.44,2.77,3.66-1.39.46-2.78.92-4.91,1.63-.78,2.61-1.83,6.1-2.82,9.41,1.01,1.64,4.58.92,3.24,3.74-.4.84-2.65.8-4.84,1.37-.88,2.48-2.08,5.84-2.97,8.37,1.2,1.96,2.05,3.34,2.9,4.73-1.42.3-2.85.6-5.12,1.08-.96,2.33-2.32,5.61-3.64,8.81.65,1.82,4.5,1.53,2.87,4.24-.45.76-2.79.39-4.93.6Zm-104.01,86.11c-.19-.28-.38-.56-.57-.83-1.11.8-2.56,1.37-3.25,2.44-1.66,2.6-3.17,5.35-4.36,8.2-1.07,2.57-.19,3.57,2.59,3.64,5.93.15,13.75-6.49,14.56-12.35.37-2.67-.72-3.51-3.4-2.68-1.85.57-3.71,1.06-5.57,1.59Zm-124.32,78.05c3.75-.59,7.14-1.12,10.69-1.67-.94-5.37-1.81-10.3-2.71-15.42-3.43.51-6.56.96-9.97,1.47.67,5.23,1.3,10.2,1.99,15.62Zm24.87-4.31c-1.12-5.28-2.16-10.18-3.23-15.25-3.42.62-6.45,1.17-9.87,1.79.89,5.22,1.74,10.23,2.63,15.47,3.59-.69,6.8-1.31,10.47-2.02Zm26.97-23.38c1.58,5,3.11,9.83,4.68,14.79,3.63-1.31,6.79-2.46,10.02-3.63-1.82-5.03-3.53-9.74-5.28-14.59-3.21,1.17-6.19,2.25-9.42,3.42Zm-23.2,22.59c3.69-.94,6.95-1.76,10.4-2.64-1.39-5.16-2.7-10-4.06-15.04-3.38.87-6.42,1.65-9.65,2.47,1.12,5.16,2.17,9.99,3.31,15.21Zm45.47-31.05c-3.26,1.36-6.18,2.59-9.31,3.9,1.84,4.91,3.59,9.57,5.41,14.42,3.48-1.44,6.59-2.72,9.94-4.1-2.03-4.78-3.95-9.31-6.03-14.21Zm162.18-158.2c-4.77-1.6-9.23-3.11-13.94-4.69-1.21,3.44-2.31,6.58-3.46,9.86,4.69,1.88,9.06,3.62,13.61,5.44,1.29-3.62,2.46-6.89,3.79-10.61Zm-197.53,170.64c1.34,5.12,2.61,9.97,3.94,15.06,3.57-1.11,6.84-2.12,10.22-3.17-1.6-5.11-3.08-9.8-4.65-14.8-3.27,1-6.26,1.92-9.51,2.91Zm59.95-24.62c-3.08,1.66-5.87,3.16-8.8,4.73,2.35,4.75,4.56,9.23,6.86,13.87,3.31-1.75,6.27-3.32,9.37-4.96-2.55-4.67-4.91-9.01-7.43-13.64Zm-15.04,24.96c3.37-1.63,6.39-3.1,9.61-4.66-2.33-4.82-4.5-9.31-6.72-13.9-3.25,1.56-6.09,2.92-9.01,4.32,2.09,4.86,4.04,9.4,6.12,14.24Zm143.27-146.56c1.45-3.56,2.79-6.84,4.23-10.36-4.62-1.86-9.01-3.62-13.6-5.46-1.34,3.24-2.59,6.26-3.95,9.56,4.45,2.09,8.73,4.11,13.32,6.27Zm-19.15,6.48c4.31,2.3,8.54,4.55,12.95,6.9,1.69-3.58,3.21-6.77,4.8-10.13-4.63-2.13-8.92-4.1-13.34-6.13-1.47,3.13-2.79,5.93-4.41,9.36Zm29.6-34.33c1.1-3.85,2.08-7.25,3.1-10.82-4.9-1.32-9.44-2.55-14.13-3.82-1.02,3.52-1.92,6.64-2.85,9.87,4.71,1.62,9.1,3.13,13.88,4.77Zm-5.02-42.08c-.65,3.61-1.22,6.81-1.83,10.2,4.86,1.03,9.39,1.99,14.24,3.02.7-3.8,1.33-7.27,2-10.93-4.96-.78-9.46-1.5-14.42-2.28Zm11.68,16.83c-4.85-1.02-9.52-2.01-14.31-3.02-.82,3.56-1.54,6.65-2.32,10.03,4.76,1.3,9.29,2.53,14.03,3.82.9-3.74,1.71-7.12,2.6-10.83Zm-37.92,62.86c-1.68,3.16-3.17,5.95-4.75,8.92,4.26,2.53,8.32,4.95,12.67,7.53,1.73-3.25,3.35-6.28,5.09-9.54-4.39-2.33-8.57-4.55-13.01-6.91Zm41.28-81.09c.47-3.82.89-7.3,1.33-10.92-5.17-.5-9.76-.95-14.4-1.4-.47,3.52-.88,6.59-1.32,9.95,4.74.78,9.31,1.53,14.39,2.37Zm-35.09,100.72c-4.43-2.6-8.49-4.99-12.7-7.46-1.71,2.95-3.29,5.68-4.92,8.5,4.04,2.79,7.85,5.42,11.95,8.25,1.92-3.15,3.67-6.02,5.67-9.29Zm-65.66,82.95l1.02.38c12.18-9.29,23.54-19.49,33.97-30.7.57-.62.63-1.72.92-2.59-.7.31-1.55.46-2.09.95-10.95,9.93-21.88,19.89-32.77,29.88-.54.49-.71,1.38-1.05,2.08Zm-3.54,1.51c-2.68,1.8-5.25,3.39-7.63,5.22-.6.46-.59,1.71-1.07,3.27,6.85-3.59,9.52-6.15,8.7-8.49Zm50.73-47.21c-.3-.15-.6-.3-.89-.45-2.28,2.65-4.6,5.26-6.78,7.98-.4.5-.27,1.43-.39,2.17.29.09.58.18.87.27,2.3-3.38,6.15-5.72,7.2-9.96Z"/>
  <path d="m515.26,519.5c-3.01-3.2-5.08-5.25-6.94-7.48-.41-.49-.4-1.89,0-2.39,2.14-2.64,4.47-5.12,6.93-7.89,2.76,2.82,4.94,4.9,6.9,7.16.4.46.34,1.86-.07,2.4-2.02,2.63-4.22,5.12-6.83,8.2Z"/>
  <path d="m503.95,513.66c2.48,2.85,4.7,5.39,7.16,8.21-3.06,2.74-5.86,5.25-9.05,8.1-2.38-2.82-4.6-5.45-7.12-8.43,3-2.63,5.81-5.09,9.01-7.88Z"/>
  <path d="m526.53,506.55c-2.44-2.25-4.64-4.12-6.6-6.23-.46-.5-.1-1.78-.07-2.69,0-.15.24-.29.36-.44,6.44-7.99,6.67-7.99,13.8.44-2.38,2.84-4.81,5.74-7.49,8.93Z"/>
  </g>
</svg>
