<?xml version="1.0" encoding="UTF-8"?>
<svg id="Layer_1" data-name="Layer 1" xmlns="http://www.w3.org/2000/svg" viewBox="0 0 159.01 162.5">
  <path d="m159.01,79.46c-.19,22.98-6.95,41.29-20.92,56.78-11.65,12.92-26.07,21.31-43.14,24.69-15.82,3.13-31.33,1.59-46.21-4.79-10.04-4.31-18.86-10.46-26.38-18.43C10.22,124.86,2.99,109.67.72,92.14c-2.11-16.31.45-31.89,7.46-46.76,5.92-12.55,14.59-22.83,25.81-30.89C44.64,6.85,56.52,2.2,69.59.62c12.51-1.5,24.73-.32,36.57,3.95,10.78,3.89,20.29,9.91,28.45,18.02,12.46,12.37,19.97,27.33,23.12,44.48.88,4.77,1.01,9.68,1.28,12.39ZM77.01,22.01c-8.82.1-19.2,3.08-28.66,9.26-8.42,5.5-14.98,12.67-19.7,21.52-4.12,7.73-6.48,15.96-7.07,24.73-.87,12.9,2.05,24.85,8.92,35.76,6.83,10.86,16.2,18.82,28.2,23.56,12.76,5.04,25.69,5.42,38.68,1.12,9.42-3.11,17.5-8.39,24.28-15.7,8.19-8.83,13.24-19.18,15.27-30.99,1.39-8.08.89-16.12-1.05-24.08-3.51-14.36-11.21-25.96-23.21-34.59-9.9-7.11-21.03-10.57-35.66-10.59Zm5.14-2.19c2.47.28,4.66.46,6.82.79,10.06,1.52,19.05,5.54,27.06,11.77,12.01,9.35,19.29,21.62,22.45,36.4.64,3.01.8,6.13,1.33,9.17.81,4.57,4.94,7.57,9.43,6.98,4.46-.59,7.67-4.45,7.31-9.03-.25-3.16-.59-6.33-1.15-9.44-1.67-9.21-4.98-17.82-9.66-25.92-5.95-10.32-13.92-18.76-23.72-25.45-9.04-6.18-19.03-10.14-29.83-11.92-3.19-.53-6.44-.73-9.66-1.09-.07.12-.14.24-.2.36,2.84,2.2,4.17,5.17,4.18,8.61.01,3.48-1.44,6.4-4.35,8.77Zm-3.83,123.21c-.51-.03-.75-.05-.98-.06-6.83-.31-13.47-1.6-19.79-4.2-9.78-4.02-18.05-10.14-24.68-18.42-5.87-7.33-9.99-15.5-12-24.68-.79-3.63-1.15-7.35-1.76-11.02-.73-4.36-4.86-7.33-9.42-6.84-4.27.47-7.54,4.29-7.3,8.63.1,1.9.28,3.81.52,5.7,1.35,10.51,4.72,20.35,10.07,29.48,5.87,10.01,13.55,18.35,23.14,24.98,11.35,7.86,23.88,12.26,37.57,13.54,1.53.14,3.07.15,4.97.23-2.95-2.43-4.3-5.23-4.29-8.65,0-3.39,1.35-6.21,3.97-8.69Zm-59.28-63.61c.44-3.24.73-6.44,1.34-9.58,2.88-15,10.08-27.48,22.09-37.04,9.69-7.72,20.71-12.07,33.11-12.81,4.32-.26,7.78-3.09,8.61-7.03,1.25-5.89-3.21-11.04-9.34-10.68-11.51.68-22.32,3.82-32.39,9.46-12.51,7.01-22.27,16.82-29.45,29.17-5.57,9.6-8.96,19.98-10.27,31.01-.29,2.45-.37,4.93-.56,7.61,6.95-5.3,11.19-5.28,16.85-.12Zm120.97,4.07c-.35,2.98-.55,5.9-1.05,8.77-2,11.5-6.91,21.63-14.67,30.37-8.44,9.49-18.83,15.79-31.17,18.77-3.2.77-6.53.98-9.77,1.6-4.29.81-7.5,5.43-6.85,9.66.76,4.94,4.53,7.93,9.37,7.46,10.72-1.03,20.86-3.97,30.29-9.2,8.66-4.8,16.14-11.01,22.47-18.64,4.69-5.65,8.5-11.82,11.49-18.51,3.86-8.64,5.91-17.72,6.58-27.13.08-1.15.01-2.3.01-3.57-6.51,5.47-9.58,5.52-16.7.41Z"/>
  <path d="m126.41,25.23c.11.57.34,1.16.29,1.72-.09.99.23,1.65.95,2.32.73.67,1.26,1.56,1.88,2.35.15-.12.31-.24.46-.36.81-1.64,1.63-3.28,2.47-4.98.99.51,1.28,1.07,1.1,2.02-.34,1.78-.59,3.59-.8,5.39-.05.39.16.9.41,1.23.69.91,1.56,1.69,2.15,2.65.3.47.15,1.22.2,1.85-.63-.11-1.36-.05-1.85-.37-.73-.47-1.33-1.18-1.9-1.85-.6-.7-1.24-1.01-2.2-.92-1.77.16-3.55.25-5.33.22-.57,0-1.14-.47-1.71-.72.02-.18.05-.36.07-.55,1.76-.66,3.52-1.32,5.43-2.04-.91-1.11-1.69-2.25-2.68-3.18-.36-.34-1.19-.24-1.8-.25-.7-.01-1.39.03-1.53-1.12,2.06-.21,3.44-1.33,3.79-3.59.2.05.4.11.59.16Z"/>
  <path d="m148.32,82.55c-.18-2.56-.28-5.13-.57-7.68-1.11-9.79-4.12-18.97-9.01-27.54-.86-1.51-1.77-2.98-2.65-4.47-.34-.57-.69-1.18.07-1.65.76-.47,1.13.12,1.48.69,4.82,7.88,8.21,16.35,9.71,25.46.78,4.74.91,9.59,1.31,14.39.02.27-.07.54-.11.81-.08,0-.16,0-.23,0Z"/>
  <path d="m152.33,80.72c-.2-2.26-.35-4.53-.62-6.79-.86-7.19-2.51-14.19-5.57-20.76-2-4.28-4.39-8.39-6.61-12.57-.31-.59-.86-1.21.05-1.71.78-.43,1.15.2,1.48.75,5.97,9.89,9.76,20.53,10.98,32.05.28,2.61.37,5.24.53,7.86.02.39,0,.79,0,1.18h-.24Z"/>
  <path d="m87.35,6.77c3.11.53,6.24.96,9.32,1.62,9.84,2.1,18.72,6.34,26.81,12.26.56.41,1.76.74,1.03,1.79-.74,1.08-1.42.08-1.99-.35-6.61-5.04-13.73-9.19-21.68-11.67-4.06-1.26-8.29-2.01-12.44-2.98-.36-.08-.73-.12-1.1-.18.02-.17.04-.33.06-.5Z"/>
  <path d="m144.4,81.36c-.19-1.84-.36-3.67-.56-5.5-1.14-10.29-4.41-19.85-9.86-28.66-.45-.72-.98-1.41-1.28-2.18-.17-.43-.14-1.24.14-1.48.61-.51,1.03.07,1.36.61,3.41,5.55,5.98,11.45,7.77,17.72,1.74,6.11,2.56,12.33,2.67,18.66,0,.28-.05.56-.08.84-.05,0-.1,0-.15,0Z"/>
  <path d="m87.37,11.2c2.39.36,4.8.62,7.17,1.1,9.68,1.95,18.48,5.94,26.48,11.71.31.22.72.42.86.73.15.32.15.84-.03,1.12-.13.21-.67.29-.98.23-.3-.05-.55-.36-.82-.57-9.34-7.17-19.7-11.97-31.43-13.63-.44-.06-.87-.21-1.31-.31.02-.12.04-.25.06-.37Z"/>
  <path d="m86.85,15.6c.82.07,1.64.13,2.45.23,10.11,1.22,19.31,4.85,27.73,10.52.7.47,1.43.93,2.03,1.51.25.24.19.79.27,1.19-.44.06-1.02.34-1.31.16-1.28-.81-2.47-1.78-3.72-2.65-7.82-5.4-16.41-8.87-25.81-10.34-.57-.09-1.12-.23-1.68-.35.01-.09.02-.18.03-.27Z"/>
  <path d="m30.36,136.74c.96-1.47,1.02-2.75.2-3.67-.78-.89-1.83-.93-3.64-.08-1.69-1.86-3.41-3.76-5.12-5.65,1.17-1.39,1.35-2.37.7-3.39-.69-1.08-1.6-1.19-3.37-.8-.44.1-1.23-.55-1.55-1.05-.21-.33-.04-1.21.28-1.51,1.17-1.12,2.43-2.14,3.72-3.13,1.54-1.19,2.39-1.07,3.7.37,3.84,4.23,7.66,8.49,11.54,12.69.97,1.05,1,2.14.39,3.25-.7,1.27-1.28,2.7-2.85,3.23-.1.03-.21.13-.26.23-.98,1.63-1.8,1.7-3.11.26-.2-.22-.39-.45-.64-.74Zm-6.55-14.35c.85.9,1.56,1.66,2.32,2.46.58-.48,1.12-.83,1.52-1.3.19-.23.26-.81.1-1.02-.51-.7-1.15-1.31-1.84-2.06-.7.64-1.33,1.22-2.09,1.92Zm7.56,3.69c-.85-.72-1.66-1.42-2.47-2.11q-2.29,1.54-.47,3.45c.25.27.4.63.72,1.15.82-.92,1.36-1.53,2.22-2.49Zm.64,1.09c-.75.69-1.37,1.27-1.99,1.84,2.32,2.88,2.18,3.21,4.17.68-.69-.8-1.39-1.61-2.17-2.52Zm-6.93-7.51c-1.6-2.34-2.12-2.38-3.86-.35,1.78,2.54,2.02,2.57,3.86.35Zm7.91,12.76c.79.85,1.44,1.55,2.08,2.24,1.81-1.61,1.75-2.69-.18-4.02-.59.55-1.19,1.12-1.9,1.78Z"/>
  <path d="m74.09,157.21c-2.24-.27-4.42-.45-6.57-.82-11.94-2.06-22.74-6.74-32.36-14.11-.31-.24-.8-.71-.73-.9.36-.97.88-.33,1.35-.03,3.22,2.1,6.34,4.39,9.7,6.26,8.42,4.68,17.5,7.4,27.1,8.35q1.25.12,1.51,1.25Z"/>
  <path d="m6.07,81.74c.19,2.73.35,5.46.58,8.18.75,8.61,3.18,16.75,6.94,24.51.61,1.26,1.31,2.47,1.89,3.74.16.36.03.87.03,1.31-.17.04-.33.08-.5.11-1.1-2.17-2.26-4.31-3.28-6.52-4.28-9.32-6.35-19.15-6.58-29.38-.02-.68.35-1.38.55-2.07.13.04.25.08.38.11Z"/>
  <path d="m73.41,148.53c.16,1.16-.57,1.03-1.18.91-3.73-.75-7.51-1.32-11.17-2.32-7.72-2.11-14.7-5.8-21.08-10.63-.2-.15-.38-.34-.58-.52.26-1.09.75-.66,1.34-.29,3.14,1.99,6.22,4.13,9.48,5.9,6.85,3.7,14.23,5.84,21.95,6.77.41.05.82.13,1.23.19Z"/>
  <path d="m21.1,114.7c-6.12-10.75-8.61-22.36-8.35-34.67,1.12-.22,1.07.43,1.07,1.1.01,5.91.53,11.76,2.02,17.49,1.34,5.14,3.15,10.09,5.78,14.72.35.62.47,1.08-.52,1.35Z"/>
  <path d="m22.31,125.22c.01,1.13-.67,1.87-1.76,1.89-1.11.02-1.95-.78-1.96-1.87-.01-1.11.83-1.94,1.93-1.91,1.06.03,1.79.79,1.8,1.89Zm-1.95-.98c-.29.48-.64.8-.58,1.03.07.27.49.61.75.61.22,0,.61-.46.61-.71,0-.25-.4-.5-.77-.92Z"/>
  <path d="m30.7,134.73c.03,1.06-.72,1.87-1.78,1.91-1.05.04-1.88-.71-1.94-1.75-.06-1.1.74-1.97,1.84-1.99,1.05-.02,1.85.76,1.88,1.83Zm-1.84,1.06c.32-.47.68-.77.65-1.03-.03-.25-.46-.67-.68-.65-.27.03-.66.42-.69.69-.02.25.37.53.72.99Z"/>
  <path d="m10.65,91.93c-.08.11-.26.35-.44.6-.22-.21-.58-.38-.63-.62-.16-.73-.24-1.48-.27-2.23,0-.22.27-.45.41-.67.22.2.57.37.63.61.16.69.19,1.4.3,2.33Z"/>
  <path d="m10.11,95.27c.1-.15.27-.4.44-.65.22.2.57.36.65.6.22.68.37,1.38.46,2.09.03.22-.21.47-.33.71-.25-.16-.65-.26-.72-.48-.22-.68-.32-1.39-.5-2.28Z"/>
  <path d="m13.07,106.17c.1-.19.22-.57.32-.56.24,0,.62.14.7.32.32.72.57,1.48.78,2.24.05.18-.16.43-.24.64-.24-.12-.6-.17-.69-.36-.33-.72-.57-1.48-.87-2.29Z"/>
  <path d="m11.78,100.06c.18.07.37.09.39.17.29.99.56,1.98.84,2.97-.27.06-.77.19-.78.16-.31-.94-.58-1.9-.81-2.87-.03-.11.23-.29.36-.43Z"/>
  <path d="m10.3,85.12c-.27.66-.48,1.18-.69,1.7-.21-.52-.57-1.04-.58-1.57-.01-.63.28-1.26.43-1.89.27.58.55,1.15.84,1.76Z"/>
  <path d="m15.63,110.63c.23.19.45.29.53.45.37.7.72,1.41,1.01,2.15.07.17-.06.49-.19.65-.07.08-.49.04-.54-.06-.44-.85-.85-1.71-1.21-2.6-.05-.11.24-.36.4-.59Z"/>
  <path d="m41.1,140.56c.94.66,1.66,1.15,2.35,1.68.02.02-.3.48-.46.73-.73-.47-1.48-.92-2.17-1.44-.08-.06.14-.51.29-.98Z"/>
  <path d="m62.52,150.78c-.16.17-.33.47-.42.44-.88-.22-1.74-.48-2.6-.78-.09-.03-.13-.37-.08-.54.03-.11.28-.26.4-.24.81.2,1.62.42,2.42.67.11.04.17.26.28.44Z"/>
  <path d="m66.93,152.44c-.81-.19-1.43-.3-2.02-.5-.21-.07-.35-.39-.51-.59.23-.13.46-.4.67-.38.66.07,1.32.2,1.96.39.21.06.5.48.45.6-.1.23-.42.37-.55.48Z"/>
  <path d="m71.81,153.23c-.72-.13-1.23-.17-1.71-.32-.22-.07-.37-.37-.56-.56.26-.15.51-.41.78-.42.46-.03.95.03,1.38.18.37.13.67.45,1.01.68-.34.17-.69.34-.9.44Z"/>
  <path d="m48.31,144.98c-.87.63-3.08-.1-3.19-.86-.02-.16.53-.61.65-.55.84.4,1.63.89,2.54,1.41Z"/>
  <path d="m50.3,145.86c.76.36,1.49.68,2.18,1.06.13.07.24.42.18.52-.11.17-.43.39-.56.34-.74-.28-1.46-.61-2.16-.98-.13-.07-.26-.4-.2-.51.1-.18.35-.28.57-.43Z"/>
  <path d="m56.81,149.71c-.77-.27-1.39-.44-1.95-.72-.19-.09-.25-.45-.37-.68.25-.09.53-.3.74-.25.61.14,1.22.35,1.79.61.21.1.32.42.47.64-.26.15-.52.3-.68.4Z"/>
  <path d="m39.54,139.52c-.42.26-.72.52-.79.47-.55-.4-1.05-.85-1.57-1.29.17-.15.43-.47.49-.44.59.35,1.14.75,1.87,1.26Z"/>
  <path d="m24.35,39.25c-.65-.24-1.18-.43-1.97-.72,4.23-4.35,8.29-8.53,12.44-12.81.33.53.59.94.96,1.54.4-.91.76-1.69,1.1-2.47.93-2.14,2.45-3.28,4.88-3.01,1.51.17,2.61-.47,3.3-1.86,1.61-3.24,2.49-3.72,5.87-3.39.45-.45.72-.93,1.12-1.07,5.15-1.93,10.31-3.82,15.48-5.71.27-.1.56-.12.85-.19.25,1.75-.89,4.58-2.61,6.49,1.72.62,3.34.58,4.94-.17.65-.31,1.25-.74,1.93-.96.33-.11.78.13,1.17.21-.14.35-.17.88-.42,1.04-2.35,1.41-4.8,2.32-7.61,1.49-1.05-.31-2.13-.59-3.21-.78-1.76-.31-3.25.29-4.15,1.82-1.51,2.55-3.54,3.73-6.56,3.19-1.67-.3-2.34.23-3.05,1.83-1.16,2.6-2.23,3.27-5.13,3.22-1.75-.03-2.47.3-2.97,1.97-.85,2.83-2.72,4.2-5.55,4.66-2.53.42-3.57,1.74-3.82,4.35-.23,2.43-1.32,4.29-3.68,5.17-1.93.72-2.81,1.94-2.66,4.06.13,1.84-.72,3.29-2.41,4.14-1.79.9-2.71,2.14-2.17,4.29.55,2.21-.37,3.95-2.16,5.3-1.84,1.39-2.09,2.15-1.39,4.38.79,2.49.61,4.73-1.28,6.73-.59.63-.91,1.51-1.4,2.34-.34-.13-.68-.26-1.3-.49.61-1.11,1.03-2.23,1.75-3.11,1.19-1.47,1.45-2.97.89-4.74-1.03-3.26-.7-4.35,1.97-6.5,1.2-.97,1.76-2.1,1.42-3.66-.56-2.6.25-4.58,2.74-5.76,1.34-.63,1.93-1.76,1.85-3.2-.16-2.55.99-4.19,3.34-5.09,1.95-.75,2.98-2.15,2.88-4.29-.11-.03-.23-.09-.25-.06-1.75,1.86-3.9,3.07-6.27,3.96-1.27.48-1.84,1.55-1.7,2.84.28,2.63-.85,4.32-3.1,5.57-2.21,1.22-2.39,1.71-1.8,4.12.52,2.1-.06,3.7-1.64,5.11-2.47,2.19-2.62,3-1.51,6.12.65,1.83.56,3.58-.75,5.13-.05.06-.1.13-.15.21-.53.82-.92,1.8-1.63,2.4-.62.53-1.61.62-2.6.97.31-1.56.57-3.04.92-4.51.53-2.22,1.13-4.42,1.68-6.64.46-1.87,1.28-3.5,2.84-4.69,1.43-1.09,1.74-2.44,1.27-4.16-.64-2.37.06-4.08,2.25-5.2,1.93-.98,2.88-2.25,2.7-4.51-.15-1.93.85-3.41,2.7-4.19.53-.22,1.06-.43,1.67-.68Zm32.3-21.01c-1.87,0-3.73.21-5.53-.05-2.76-.4-3.49-.21-4.62,2.26-.97,2.11-2.56,3.03-4.85,2.92-2.01-.09-2.69.42-3.45,2.27-.38.93-.68,2.03-1.38,2.66-1.12,1.03-1.16,2.3-1.55,3.6,1.92-.26,3.19-1.11,3.68-2.94.09-.32.25-.62.38-.94.78-1.88,2.24-2.78,4.21-2.59,1.95.19,3.1-.62,3.9-2.32,1.15-2.48,2.46-3.11,5.19-2.71,1.96.29,3.14-.36,4.02-2.16Z"/>
  <path d="m58.38,7.61c.33,1.41,1.09,1.63,2.2.91.14-.09.32-.17.47-.16.88.06,1.77.15,2.94.25.09.22.32.78.62,1.5-3.76,1.38-7.42,2.72-11.06,4.06-1.04-1.64-.98-1.88.57-2.52.22-.09.43-.24.61-.39.35-.31.63-.75,1.03-.93.66-.3,1.22-.47.86-1.43-.25-.67-.13-.72,1.76-1.28Z"/>
  <path d="m23.68,35.93c-.39-.43-.78-.85-1.18-1.29.35-.85,1.39-1.29,1-2.46-.09-.27.96-.93,1.53-1.44-.41-.55-.73-.98-1.08-1.44.42-.39.81-.76,1.25-1.18.48.28.94.54,1.47.84.54-.57,1.07-1.12,1.64-1.72,1.3.99,1.56-.64,2.63-1.07.33.32.74.72,1.37,1.33-3.08,2.79-5.96,5.39-8.83,7.99.07.15.13.29.2.44Z"/>
  <path d="m8.38,69.66c-.89-.42-1.56-.81-1.25-1.83.35-1.17-.63-1.26-1.44-1.61.15-.58.29-1.13.44-1.75.6.06,1.13.12,1.66.17.8-.77.38-2.73,2.46-2.52-.65,2.61-1.25,5.04-1.87,7.54Z"/>
  <path d="m70.08,13.91c-.22-.17-.54-.3-.56-.46-.03-.3.01-.8.2-.9,1.18-.64,2.39-1.22,3.62-1.76.16-.07.59.16.69.36.1.2.05.7-.1.78-1.25.69-2.53,1.32-3.85,1.98Z"/>
  <path d="m136.18,121.97c-.71.88-1.25,1.56-1.79,2.23-1.91-1.17-1.92-1.2-1.02-3.53-3.43,3.66-6.8,7.26-10.26,10.96.29.37.71.93,1.15,1.47.59.73.54,1.39-.21,1.96-1.88,1.44-3.76,2.88-5.65,4.31-.28.21-.58.39-.7.78,7.6-4.42,13.57-10.62,18.83-17.61,1.9,1.22,1.06,2.78.39,4.29,1.53-.06,1.2-2.59,3.24-1.96-5.61,8.32-12.65,14.8-20.75,20.17-.92-.76-.4-1.08.21-1.44.54-.31,1.03-.7,1.48-1.39-.39,0-.8-.07-1.17.01-2.91.62-4.2-.55-3.91-3.51.31-3.19,1.56-5.77,4.13-7.83,3.74-3,7.14-6.37,10.07-10.2,1.13-1.48,1.67-1.52,3.29-.48.85.55,1.69,1.1,2.68,1.75Zm-18.99,15.89c2.48-.53,4.1-2.63,3.41-4.45-2.6.68-3.44,1.78-3.41,4.45Zm16.55-6.27c-.1-.15-.2-.3-.29-.45-.32.16-.7.26-.95.49-2.19,2.04-4.37,4.1-6.52,6.18-.26.26-.37.68-.54,1.03l.42.32c2.63-2.52,5.25-5.05,7.88-7.57Z"/>
  <path d="m118.8,143.42c-.82.58-1.6,1.14-2.4,1.71.19.64.94,1.4-.45,1.64-.2-.28-.44-.6-.72-.98-.73.41-1.42.8-2.16,1.21.14.41.26.76.41,1.17-.26.17-.53.34-.87.56-.27-.37-.51-.7-.82-1.13-.64.33-1.31.66-2.04,1.03.09.4.18.75.29,1.22-.26.16-.57.34-.91.54-.22-.4-.4-.73-.65-1.18-.74.32-1.46.63-2.23.96.13.43.24.78.35,1.15-.91.9-1.24.05-1.62-.62-.75.29-1.45.55-2.2.84-.05.62.56,1.59-.85,1.52-.15-.28-.34-.64-.59-1.13-.72.23-1.42.45-2.18.69.07.45.13.81.19,1.19-1.03.79-1.27-.03-1.53-.83-.78.21-1.5.41-1.88.51-.42.66-.67,1.06-.92,1.45-.34-.29-.67-.58-1.18-1.02-.46.09-1.16.22-1.92.36v1.27c-.39,0-1.01.08-1.03-.01-.52-1.91-1.78-.67-2.73-.76-.22.64.15,1.73-1.2,1.31-.08-.32-.17-.67-.26-1.05h-2.24c-.21.66-.01,1.78-1.35,1.23-.05-.3-.12-.66-.19-1.05h-2.03c-.41.53-.75.96-1.07,1.38-.7-.92-1.19-1.56-1.85-2.42,1.33.11,1.46-.56,1.39-1.41-.04-.55.09-1.12-.02-1.65-.07-.35-.44-.64-.66-.97-.17-.26-.32-.54-.48-.81.8-.19,1.2-.82,1.62-1.44l1.06.83c-.05.09-.11.18-.16.27h1.94c.05-.37.11-.73.23-1.55.58.54.96.89,1.33,1.24l-.16.32c.65-.07,1.31-.14,1.68-.19.47-.6.8-1.02,1.34-1.71.23.79.32,1.14.44,1.54.64-.07,1.22-.13,1.65-.17.33-.51.58-.91.82-1.3.34.26.67.53,1.24.97.3-.05.92-.14,1.6-.25v-1.72c.7.5,1.12.8,1.79,1.29.3-.07.94-.21,1.37-.3.26-.6.43-1.01.61-1.42.37.23.74.47,1.32.83.32-.09.92-.26,1.32-.38.22-.59.38-1.02.55-1.46.38.23.76.47,1.38.85.33-.11.96-.33,1.62-.56-.09-.43-.16-.8-.33-1.63.75.33,1.23.54,1.7.76-.02.1-.04.21-.07.31.6-.27,1.21-.54,1.86-.84-.1-.41-.18-.76-.26-1.09.87-.92,1.19-.06,1.6.54.61-.31,1.17-.59,1.39-.71.23-.82.38-1.33.6-2.14.54.63.78.91,1.06,1.23.83-.48,2.22-.46,1.39-2.05.69-.92,1.07-.31,1.45.38.51-.28.99-.53,1.46-.79q.41.88-.68,1.97c.52.96,1.06,1.95,1.59,2.92,1.16.06,1.89-1.65,3.25-.5Zm-35.78,10.74c-.11-1.55-.19-2.74-.3-4.18-.84.23-1.97.29-2.05.6-.25,1.03-.26,2.19-.02,3.21.06.27,1.4.23,2.36.36Zm3.64-.42c-.13-1.34-.26-2.53-.38-3.81-.85.1-1.5.18-2.1.25v3.75c.88-.07,1.62-.12,2.48-.19Zm13.34-6.46q-2.28.48-1.72,2.52c.14.52.3,1.03.48,1.68.82-.24,1.56-.45,2.4-.7-.42-1.25-.78-2.35-1.17-3.5Zm-8.45,5.88c.85-.15,1.57-.28,2.42-.44-.26-1.31-.5-2.48-.75-3.75-.86.17-1.54.31-2.27.46.2,1.26.38,2.37.6,3.73Zm21.28-11.62c-.77.4-1.39.73-2.07,1.08.58,1.16,1.12,2.22,1.71,3.4.79-.46,1.45-.85,2.14-1.25-.61-1.11-1.15-2.09-1.78-3.23Zm-6.36,3.16c-.77.35-1.4.63-2.07.93.47,1.23.89,2.32,1.35,3.51.85-.39,1.55-.71,2.3-1.06-.55-1.17-1.03-2.2-1.58-3.38Zm1.11-.44c.57,1.2,1.06,2.25,1.59,3.35.79-.39,1.46-.72,2.23-1.09-.62-1.16-1.18-2.21-1.75-3.29-.74.38-1.34.68-2.06,1.04Zm-19.73,9.4c.91-.14,1.67-.25,2.46-.37-.22-1.32-.41-2.47-.61-3.73-.77.12-1.45.22-2.2.34.12,1.32.23,2.48.35,3.76Zm7.36-1.17c.86-.25,1.59-.46,2.36-.69-.37-1.3-.68-2.41-1.02-3.6-.79.22-1.42.4-2.12.6.26,1.24.5,2.38.77,3.69Zm9.33-2.79c-.21-.67-.37-1.19-.55-1.71q-.68-2.02-2.68-1.14c-.06.03-.09.13-.16.24.39,1.06.79,2.15,1.21,3.31.75-.24,1.38-.45,2.18-.7Z"/>
  <path d="m137.36,114.72c.35-.64.62-1.11.82-1.47-.22-.55-.39-.98-.57-1.42.42-.11.84-.22,1.52-.4.15-.3.42-.86.73-1.46-.35-.26-.65-.48-.95-.69.02-1.08.62-1.04,1.42-.53.28-.7.51-1.26.7-1.71-.28-.54-.49-.96-.71-1.39.38-.11.77-.21,1.4-.39.14-.37.37-.99.62-1.67-.36-.23-.67-.42-1.29-.82.59-.33,1.01-.57,1.44-.81.08.08.17.17.25.25.17-.59.34-1.19.54-1.88-.3-.17-.61-.35-1.25-.71.61-.38,1.06-.66,1.71-1.07.02-.53,1.07-1.53-.56-2.02-.06-.02-.11-.51-.02-.57.35-.22.76-.35,1.31-.59.09-.43.21-1.04.35-1.72-.4-.14-.74-.26-1.45-.5.56-.46.97-.79,1.66-1.36.44-1.44.43-1.46-1.18-1.98.52-.46.9-.8,1.29-1.14.56-.28-.12-1.74,1.43-1.21v1.63c1.24.12,2.43.23,3.41.32.9-.6-.24-2.2,1.53-2.11v2.15c.45.13.8.24,1.56.46-.61.51-1.03.85-1.44,1.19-.08-.06-.16-.13-.23-.19-.11.7-.22,1.4-.29,1.87.46.55.79.94,1.12,1.33-.39.22-.78.43-1.37.76-.09.44-.23,1.13-.33,1.61.4.55.7.96,1,1.37-.38.17-.76.33-1.36.59-.08.28-.32.79-.35,1.31-.02.31.29.63.43.96.16.35.31.71.56,1.32-.76-.12-1.11-.18-1.55-.24-.22.78-.42,1.5-.63,2.25.41.21.74.38,1.47.74-.69.39-1.13.65-1.58.91-.08-.09-.15-.19-.23-.28-.29.69-.57,1.38-.89,2.14.38.24.73.46,1.11.7-.12.33-.24.64-.37.98-.41-.11-.76-.21-1.23-.34-.28.71-.56,1.4-.85,2.15.32.26.6.49,1.23,1-.7.27-1.18.46-1.66.64-.05-.09-.1-.18-.15-.26-.32.63-.65,1.27-1,1.97.31.27.62.53.98.85-.16.28-.31.56-.49.88-.36-.12-.67-.23-1.09-.37-.36.64-.73,1.29-1.14,2.01.29.26.55.51.89.82-.13.29-.26.61-.43,1.01-.4-.21-.73-.38-1.04-.54-1.48,1.51-1.56,1.91-.31,3.13-.73.17-1.25.28-1.76.4-.03-.1-.07-.2-.1-.3-.37.45-.75.9-1.12,1.34q-.76-.63.06-2.22c-.79-.54-1.56-1.12-2.4-1.61-.25-.15-.65-.06-.99-.04-.39.02-.78.08-.8.09-.23-.81-.38-1.27-.47-1.74-.04-.21,0-.64.06-.64.41-.05.83-.03,1.38-.03.29-.42.64-.93,1.02-1.49-.32-.29-.6-.54-.93-.84.15-.27.3-.54.48-.87.38.16.71.3,1.11.46Zm2.59-2.43c1.17.61,2.23,1.16,3.37,1.76.41-.79.75-1.44,1.14-2.18-1.21-.56-2.3-1.07-3.46-1.61-.36.7-.67,1.29-1.05,2.03Zm8.21-10.85c-1.26-.33-2.42-.63-3.67-.95-.23.75-.42,1.38-.64,2.15,1.21.39,2.34.76,3.6,1.18.25-.84.46-1.54.7-2.37Zm-11.62,16.95c1.09.71,2.09,1.36,3.18,2.07.46-.76.84-1.39,1.29-2.13-1.17-.65-2.22-1.23-3.32-1.84-.41.67-.75,1.24-1.16,1.91Zm12.68-21.69c.15-.65.34-1.17.38-1.7.02-.25-.2-.72-.38-.75-1.04-.21-2.1-.32-3.2-.48-.14.84-.25,1.48-.38,2.2,1.25.25,2.38.48,3.59.72Zm-5.68,7.11c-.28.75-.53,1.4-.83,2.2,1.24.44,2.36.83,3.56,1.25.32-.82.57-1.47.85-2.2-1.24-.43-2.37-.83-3.57-1.25Zm-2.24,5.27c1.34.59,2.43,1.08,3.74,1.66.19-.88.68-2.12.45-2.28-.88-.59-1.98-.95-3.04-1.11-.26-.04-.68,1-1.15,1.72Zm.37,8.25c.41-.8.74-1.45,1.11-2.18-1.2-.6-2.25-1.14-3.39-1.71-.38.73-.67,1.31-1.02,1.98,1.12.65,2.13,1.24,3.29,1.91Zm4.83-27.01c-.1.78-.19,1.46-.28,2.19,1.29.2,2.43.37,3.68.56.11-.84.19-1.54.3-2.38-1.26-.12-2.41-.24-3.7-.36Zm-1.16,6.87c-.09.29-.13.53-.23.75-.52,1.12-.08,1.59,1.05,1.74.73.09,1.45.33,2.32.53.17-.8.34-1.54.51-2.34-1.31-.24-2.46-.46-3.65-.68Z"/>
  <path d="m126.37,129.16c.62.68,1.18,1.3,1.73,1.91-1.45,2.46-2.32,2.51-3.86.25.16-.22.31-.48.52-.68.51-.49,1.05-.96,1.61-1.47Z"/>
  <path d="m127.15,128.6c1.99-2.52,1.86-2.87,3.94-.11-.71.58-1.45,1.19-2.36,1.94-.46-.53-1.02-1.18-1.58-1.83Z"/>
  <path d="m133.91,124.97c-.81.98-1.44,1.73-2.29,2.75-.62-.85-1.51-1.53-1.49-2.19.02-.65.88-1.7,1.5-1.8.63-.1,1.42.73,2.28,1.24Z"/>
</svg>