<?xml version="1.0" encoding="utf-8"?>
<!-- Generator: Adobe Illustrator 27.3.1, SVG Export Plug-In . SVG Version: 6.00 Build 0)  -->
<svg version="1.1" id="Layer_1" xmlns="http://www.w3.org/2000/svg" xmlns:xlink="http://www.w3.org/1999/xlink" x="0px" y="0px"
	 viewBox="0 0 800 800" style="enable-background:new 0 0 800 800;" xml:space="preserve">
<style type="text/css">
	.st0{fill:none;stroke:#000000;stroke-width:66.6667;stroke-linecap:round;stroke-linejoin:round;stroke-miterlimit:133.3333;}
	.st1{fill-rule:evenodd;clip-rule:evenodd;}
</style>
<g id="SVGRepo_bgCarrier">
</g>
<g id="SVGRepo_tracerCarrier">
</g>
<g id="SVGRepo_iconCarrier">
	<path class="st0" d="M600,533.9c41.5,17.6,66.7,40.8,66.7,66.1c0,55.2-119.4,100-266.7,100s-266.7-44.8-266.7-100
		c0-25.3,25.2-48.5,66.7-66.1"/>
	<path class="st1" d="M375.4,589.2l24.6-22.5L375.4,589.2z M424.6,589.2l0.2-0.2l0.4-0.5l1.5-1.7l5.5-6.2
		c27.7-31.5,53.8-64.4,78.3-98.6c21.4-30,43.3-64,60-97.8c16.3-33,29.5-69.3,29.5-102.9c0-119.1-87.3-214.8-200-214.8
		s-200,95.7-200,214.8c0,33.6,13.2,69.9,29.5,102.9c16.7,33.8,38.7,67.8,60,97.8c26.1,36.4,54.1,71.3,83.8,104.8l1.5,1.7l0.4,0.5
		l0.2,0.2c12.4,13.6,33.5,14.5,47.1,2.1C423.2,590.6,423.9,589.9,424.6,589.2L424.6,589.2z M400,566.7l24.6,22.5L400,566.7z
		 M400,200c-36.8,0-66.7,29.8-66.7,66.7s29.8,66.7,66.7,66.7s66.7-29.8,66.7-66.7S436.8,200,400,200z"/>
</g>
</svg>
