<?xml version="1.0" encoding="utf-8"?>
<!-- Generator: Adobe Illustrator 27.3.1, SVG Export Plug-In . SVG Version: 6.00 Build 0)  -->
<svg version="1.1" id="Layer_1" xmlns="http://www.w3.org/2000/svg" xmlns:xlink="http://www.w3.org/1999/xlink" x="0px" y="0px"
	 viewBox="0 0 24 24" style="enable-background:new 0 0 24 24;" xml:space="preserve">
<style type="text/css">
	.st0{fill-rule:evenodd;clip-rule:evenodd;fill:#FFFFFF;}
</style>
<g id="Page-1">
	<g id="Dribbble-Light-Preview" transform="translate(-60.000000, -2159.000000)">
		<g id="icons" transform="translate(56.000000, 160.000000)">
			<path id="profile_x5F_close_x5F_round-_x5B__x23_000000_x5D_" class="st0" d="M19.7,2007.5c0-1.9-1.6-3.5-3.7-3.5
				s-3.7,1.6-3.7,3.5s1.6,3.5,3.7,3.5S19.7,2009.4,19.7,2007.5 M23.1,2019.8h-1.6c-0.5,0-0.9-0.4-0.9-0.9s0.4-0.9,0.9-0.9h0.4
				c0.6,0,1.1-0.6,0.9-1.2c-1.1-2.6-3.7-4.1-6.8-4.1s-5.6,1.5-6.8,4.1c-0.2,0.6,0.2,1.2,0.9,1.2h0.4c0.5,0,0.9,0.4,0.9,0.9
				s-0.4,0.9-0.9,0.9H8.9c-1.1,0-2-1-1.8-2.1c0.7-3,2.8-5.1,5.5-6.1c-1.3-1-2.1-2.5-2.1-4.1c0-3.1,2.8-5.6,6.2-5.3
				c2.4,0.3,4.4,2.1,4.8,4.4c0.3,2-0.5,3.8-2,4.9c2.7,1,4.8,3.2,5.5,6.1C25.2,2018.8,24.3,2019.8,23.1,2019.8"/>
		</g>
	</g>
</g>
</svg>
