<?xml version="1.0" encoding="utf-8"?>
<!-- Generator: Adobe Illustrator 27.3.1, SVG Export Plug-In . SVG Version: 6.00 Build 0)  -->
<svg version="1.1" id="Layer_1" xmlns="http://www.w3.org/2000/svg" xmlns:xlink="http://www.w3.org/1999/xlink" x="0px" y="0px"
	 viewBox="0 0 150 150" style="enable-background:new 0 0 150 150;" xml:space="preserve">
<style type="text/css">
	.st0{fill-rule:evenodd;clip-rule:evenodd;}
</style>
<g id="SVGRepo_bgCarrier">
</g>
<g id="SVGRepo_tracerCarrier">
</g>
<g id="SVGRepo_iconCarrier">
	<g id="Page-1">
		<g id="Dribbble-Light-Preview" transform="translate(-420.000000, -2119.000000)">
			<g id="icons" transform="translate(56.000000, 160.000000)">
				<path id="profile_x5F_round-_x5B__x23_000000_x5D_" class="st0" d="M469.6,2004c0-16.5-13.7-30-30.6-30s-30.6,13.5-30.6,30
					c0,16.5,13.7,30,30.6,30S469.6,2020.5,469.6,2004 M498.6,2109h-13.7c-4.2,0-7.7-3.4-7.7-7.5s3.4-7.5,7.7-7.5h3.3
					c5.3,0,9.2-5.2,7.2-10c-9.3-22.2-31-35-56.4-35s-47.2,12.7-56.4,35c-2,4.8,1.9,10,7.2,10h3.3c4.2,0,7.7,3.4,7.7,7.5
					s-3.4,7.5-7.7,7.5h-13.7c-9.6,0-17.1-8.6-15.1-17.7c5.6-25.2,23-43.8,45.9-52.2c-10.5-8.2-17.2-20.9-17.2-35
					c0-26.6,23.6-47.9,51.4-44.7c20.2,2.3,36.9,18,39.9,37.7c2.6,17-4.5,32.4-16.6,42c22.9,8.4,40.3,27,45.9,52.2
					C515.7,2100.4,508.2,2109,498.6,2109"/>
			</g>
		</g>
	</g>
</g>
</svg>
