<?xml version="1.0" encoding="utf-8"?>
<!-- Generator: Adobe Illustrator 27.3.1, SVG Export Plug-In . SVG Version: 6.00 Build 0)  -->
<svg version="1.1" id="Layer_1" xmlns="http://www.w3.org/2000/svg" xmlns:xlink="http://www.w3.org/1999/xlink" x="0px" y="0px"
	 viewBox="0 0 24 24" style="enable-background:new 0 0 24 24;" xml:space="preserve">
<style type="text/css">
	.st0{fill:none;stroke:#FFFFFF;stroke-width:1.4194;stroke-miterlimit:133.3333;}
	.st1{fill:none;stroke:#FFFFFF;stroke-width:1.4194;stroke-linecap:round;stroke-miterlimit:133.3333;}
</style>
<g id="SVGRepo_iconCarrier">
	<circle class="st0" cx="12.5" cy="12.3" r="2.8"/>
	<path class="st1" d="M4.6,11c0.4,0.3,0.7,0.8,0.7,1.3c0,0.5-0.3,1-0.7,1.3c-0.3,0.2-0.5,0.3-0.6,0.5c-0.3,0.4-0.4,0.9-0.4,1.4
		c0,0.4,0.3,0.8,0.7,1.5c0.4,0.8,0.7,1.1,1,1.4c0.4,0.3,0.9,0.4,1.4,0.4c0.2,0,0.5-0.1,0.8-0.3c0.5-0.2,1-0.3,1.5,0
		c0.5,0.3,0.7,0.8,0.7,1.3c0,0.4,0,0.6,0.1,0.8c0.2,0.5,0.6,0.8,1,1c0.3,0.1,0.8,0.1,1.7,0.1c0.9,0,1.3,0,1.7-0.1
		c0.5-0.2,0.8-0.6,1-1c0.1-0.2,0.1-0.5,0.1-0.8c0-0.5,0.3-1,0.7-1.3c0.5-0.3,1-0.3,1.5,0c0.3,0.2,0.5,0.3,0.8,0.3
		c0.5,0.1,1-0.1,1.4-0.4c0.3-0.2,0.5-0.6,1-1.4c0.2-0.3,0.3-0.6,0.5-0.8 M20.4,13.6c-0.4-0.3-0.7-0.8-0.7-1.3c0-0.5,0.3-1,0.7-1.3
		c0.3-0.2,0.5-0.3,0.6-0.5c0.3-0.4,0.4-0.9,0.4-1.4c0-0.4-0.3-0.8-0.7-1.5c-0.4-0.8-0.7-1.1-1-1.4c-0.4-0.3-0.9-0.4-1.4-0.4
		c-0.2,0-0.5,0.1-0.8,0.3c-0.5,0.2-1,0.3-1.5,0c-0.5-0.3-0.7-0.8-0.7-1.3c0-0.4,0-0.6-0.1-0.8c-0.2-0.5-0.6-0.8-1-1
		c-0.3-0.1-0.8-0.1-1.7-0.1c-0.9,0-1.3,0-1.7,0.1c-0.5,0.2-0.8,0.6-1,1C9.7,4.2,9.7,4.4,9.7,4.8c0,0.5-0.3,1-0.7,1.3
		c-0.5,0.3-1,0.3-1.5,0C7.1,5.9,6.9,5.8,6.7,5.8c-0.5-0.1-1,0.1-1.4,0.4C5,6.4,4.8,6.8,4.3,7.5C4.1,7.9,4,8.1,3.9,8.4"/>
</g>
</svg>
