<?xml version="1.0" encoding="utf-8"?>
<!-- Generator: Adobe Illustrator 27.3.1, SVG Export Plug-In . SVG Version: 6.00 Build 0)  -->
<svg version="1.1" id="_x32_" xmlns="http://www.w3.org/2000/svg" xmlns:xlink="http://www.w3.org/1999/xlink" x="0px" y="0px"
	 viewBox="0 0 512 512" style="enable-background:new 0 0 512 512;" xml:space="preserve">
<style type="text/css">
	.st0{stroke:#000000;stroke-width:8.4615;stroke-miterlimit:10;}
</style>
<g>
	<path class="st0" d="M383.6,463.1V146.3c0-27-21.9-48.9-48.9-48.9h-45.3h-14.5l-2,14.3c-1.2,8.3-8.4,14.6-16.8,14.6
		c-8.3,0-15.6-6.2-16.8-14.6l-2.2-14.3h-14.5h-45.3c-27,0-48.9,21.9-48.9,48.9v316.8c0,27,21.9,48.9,48.9,48.9h45h16l0.7-16
		c0.4-9.1,7.9-16.2,16.9-16.2s16.5,7.1,16.9,16.2l0.7,16h16h45C361.7,512,383.6,490.1,383.6,463.1z M289.7,495.2
		c-0.8-17.9-15.5-32.1-33.7-32.1c-18.1,0-32.8,14.3-33.7,32.1h-45c-17.7,0-32.1-14.4-32.1-32.2V146.3c0-17.8,14.4-32.2,32.1-32.2
		h45.3C225,130.4,239,143,256,143s31-12.6,33.4-28.9h45.3c17.8,0,32.2,14.4,32.2,32.2v316.8c0,17.8-14.4,32.2-32.2,32.2L289.7,495.2
		L289.7,495.2z"/>
	<rect x="165.5" y="193.5" class="st0" width="28.9" height="11.1"/>
	<rect x="216.2" y="193.5" class="st0" width="28.9" height="11.1"/>
	<rect x="266.9" y="193.5" class="st0" width="28.9" height="11.1"/>
	<rect x="317.7" y="193.5" class="st0" width="28.9" height="11.1"/>
</g>
</svg>
