<?xml version="1.0" encoding="utf-8"?>
<!-- Generator: Adobe Illustrator 27.3.1, SVG Export Plug-In . SVG Version: 6.00 Build 0)  -->
<svg version="1.1" id="_x32_" xmlns="http://www.w3.org/2000/svg" xmlns:xlink="http://www.w3.org/1999/xlink" x="0px" y="0px"
	 viewBox="0 0 512 512" style="enable-background:new 0 0 512 512;" xml:space="preserve">
<style type="text/css">
	.st0{fill:#FFFFFF;}
</style>
<g>
	<path class="st0" d="M413.6,451.6V60.4c0-33.3-27.1-60.4-60.4-60.4h-56h-17.9l-2.5,17.7c-1.5,10.3-10.4,18-20.7,18
		c-10.3,0-19.3-7.7-20.7-18L232.7,0h-17.9h-56c-33.3,0-60.4,27.1-60.4,60.4v391.2c0,33.3,27.1,60.4,60.4,60.4h55.6h19.7l0.9-19.7
		c0.5-11.2,9.7-20,20.9-20s20.4,8.8,20.9,20l0.9,19.7h19.7H353C386.5,512,413.6,484.9,413.6,451.6z M297.6,491.3
		c-1-22.1-19.2-39.7-41.6-39.7c-22.3,0-40.5,17.6-41.6,39.7h-55.6c-21.9,0-39.7-17.8-39.7-39.8V60.4c0-22,17.8-39.8,39.7-39.8h56
		c2.9,20.2,20.2,35.7,41.2,35.7s38.3-15.5,41.2-35.7h56c22,0,39.8,17.8,39.8,39.8v391.2c0,22-17.8,39.8-39.8,39.8L297.6,491.3
		L297.6,491.3z"/>
	<rect x="144.2" y="118.7" class="st0" width="35.7" height="13.7"/>
	<rect x="206.8" y="118.7" class="st0" width="35.7" height="13.7"/>
	<rect x="269.5" y="118.7" class="st0" width="35.7" height="13.7"/>
	<rect x="332.2" y="118.7" class="st0" width="35.7" height="13.7"/>
</g>
</svg>
