<svg width="402" height="874" viewBox="0 0 402 874" fill="none" xmlns="http://www.w3.org/2000/svg">
<path d="M32.9846 62.1328H140.185C144.72 62.1328 148.431 65.8608 148.431 70.4172V86.9859C148.431 91.5423 144.72 95.2703 140.185 95.2703H32.9846C28.4492 95.2703 24.7385 91.5423 24.7385 86.9859V70.4172C24.7385 65.8608 28.4492 62.1328 32.9846 62.1328Z" fill="#E5E7EB"/>
<path d="M37.1077 113.91H94.8308C101.634 113.91 107.2 119.502 107.2 126.337C107.2 133.171 101.634 138.763 94.8308 138.763H37.1077C30.3046 138.763 24.7385 133.171 24.7385 126.337C24.7385 119.502 30.3046 113.91 37.1077 113.91Z" fill="#E5E7EB"/>
<path d="M41.2308 165.687H360.769C369.84 165.687 377.262 173.143 377.262 182.256V252.673C377.262 261.786 369.84 269.242 360.769 269.242H41.2308C32.16 269.242 24.7385 261.786 24.7385 252.673V182.256C24.7385 173.143 32.16 165.687 41.2308 165.687Z" fill="#E5E7EB"/>
<path d="M41.2308 283.739H360.769C369.84 283.739 377.262 291.195 377.262 300.308V370.725C377.262 379.838 369.84 387.294 360.769 387.294H41.2308C32.16 387.294 24.7385 379.838 24.7385 370.725V300.308C24.7385 291.195 32.16 283.739 41.2308 283.739Z" fill="#E5E7EB"/>
<path d="M41.2308 401.792H360.769C369.84 401.792 377.262 409.247 377.262 418.36V488.777C377.262 497.89 369.84 505.346 360.769 505.346H41.2308C32.16 505.346 24.7385 497.89 24.7385 488.777V418.36C24.7385 409.247 32.16 401.792 41.2308 401.792Z" fill="#E5E7EB"/>
</svg>
