<svg width="402" height="874" viewBox="0 0 402 874" fill="none" xmlns="http://www.w3.org/2000/svg">
<g clip-path="url(#clip0_3257_1039)">
<path d="M402 0H0.822754V1075.89H402V0Z" fill="#F3F4F6"/>
<path d="M213.107 33.6489H302.205C307.025 33.6489 310.904 38.4559 310.904 44.4283C310.904 50.4006 307.025 55.2076 302.205 55.2076H213.107C208.288 55.2076 204.409 50.4006 204.409 44.4283C204.291 38.4559 208.288 33.6489 213.107 33.6489Z" fill="#E5E7EB"/>
<path d="M210.168 62.4912H270.233C273.407 62.4912 275.993 65.6959 275.993 69.6289C275.993 73.5619 273.407 76.7665 270.233 76.7665H210.168C206.995 76.7665 204.409 73.5619 204.409 69.6289C204.291 65.6959 206.995 62.4912 210.168 62.4912Z" fill="#E5E7EB"/>
<path d="M47.9579 124.254H354.16C367.56 124.254 378.374 137.655 378.374 154.261C378.374 170.867 367.56 184.269 354.16 184.269H47.9579C34.5579 184.269 23.7439 170.867 23.7439 154.261C23.7439 137.655 34.5579 124.254 47.9579 124.254Z" fill="#E2E8F0"/>
<path d="M47.9579 129.061H176.786C188.07 129.061 197.121 140.277 197.121 154.261C197.121 168.245 188.07 179.461 176.786 179.461H47.9579C36.6737 179.461 27.6228 168.245 27.6228 154.261C27.6228 140.423 36.6737 129.061 47.9579 129.061Z" fill="white"/>
<path d="M49.8386 202.331H352.161C364.974 202.331 375.435 215.295 375.435 231.173V399.272C375.435 415.15 364.974 428.114 352.161 428.114H49.8386C37.0263 428.114 26.5649 415.15 26.5649 399.272V231.173C26.5649 215.15 37.0263 202.331 49.8386 202.331Z" fill="#E5E7EB"/>
<path d="M127.418 257.539H220.395C223.568 257.539 226.154 260.743 226.154 264.676C226.154 268.609 223.568 271.814 220.395 271.814H127.418C124.244 271.814 121.658 268.609 121.658 264.676C121.54 260.743 124.126 257.539 127.418 257.539Z" fill="#D8DEE8"/>
<path d="M108.023 299.636H239.789C245.196 299.636 249.428 305.026 249.428 311.581V328.333C249.428 335.033 245.079 340.277 239.789 340.277H108.023C102.616 340.277 98.3842 334.888 98.3842 328.333V311.581C98.2666 304.88 102.616 299.636 108.023 299.636Z" fill="#D8DEE8"/>
<path d="M123.539 352.368H224.274C227.447 352.368 230.033 355.572 230.033 359.505C230.033 363.438 227.447 366.643 224.274 366.643H123.539C120.365 366.643 117.779 363.438 117.779 359.505C117.661 355.572 120.247 352.368 123.539 352.368Z" fill="#D8DEE8"/>
<path d="M179.725 406.41H222.393C235.205 406.41 245.667 419.374 245.667 435.252C245.667 451.13 235.205 464.094 222.393 464.094H179.725C166.912 464.094 156.451 451.13 156.451 435.252C156.451 419.374 166.795 406.41 179.725 406.41Z" fill="white"/>
<path d="M187.824 431H214.976C217.68 431 219.796 433.622 219.796 436.972C219.796 440.323 217.68 442.945 214.976 442.945H187.824C185.12 442.945 183.004 440.323 183.004 436.972C182.887 433.768 185.12 431 187.824 431Z" fill="#E5E7EB"/>
<path d="M147.753 495.704H254.365C257.539 495.704 260.125 498.908 260.125 502.841C260.125 506.774 257.539 509.979 254.365 509.979H147.753C144.579 509.979 141.993 506.774 141.993 502.841C141.876 498.908 144.462 495.704 147.753 495.704Z" fill="#E5E7EB"/>
<path d="M0.470215 541.297C0.470215 517.408 16.1035 498.034 35.3807 498.034H366.737C386.014 498.034 401.647 517.408 401.647 541.297V1105.61H0.470215V541.297Z" fill="white"/>
<path d="M183.604 534.014H218.514C219.572 534.014 220.395 535.034 220.395 536.345C220.395 537.656 219.572 538.675 218.514 538.675H183.604C182.546 538.675 181.723 537.656 181.723 536.345C181.605 535.18 182.546 534.014 183.604 534.014Z" fill="#E5E7EB"/>
<path d="M35.2631 574.946H366.737C373.202 574.946 378.374 581.356 378.374 589.367V623.016C378.374 631.028 373.202 637.437 366.737 637.437H35.2631C28.7981 637.437 23.6262 631.028 23.6262 623.016V589.367C23.7438 581.356 28.9157 574.946 35.2631 574.946Z" fill="#F8FAFC"/>
<path d="M83.8087 595.34H176.786C179.96 595.34 182.546 598.545 182.546 602.478C182.546 606.411 179.96 609.615 176.786 609.615H83.8087C80.635 609.615 78.049 606.411 78.049 602.478C77.9315 598.545 80.5174 595.34 83.8087 595.34Z" fill="#E2E8F0"/>
<path d="M82.7509 616.898H142.816C145.519 616.898 147.635 619.52 147.635 622.871C147.635 626.221 145.519 628.843 142.816 628.843H82.7509C80.0474 628.843 77.9316 626.221 77.9316 622.871C77.9316 619.666 80.165 616.898 82.7509 616.898Z" fill="#E2E8F0"/>
<path d="M315.37 601.312H358.039C360.742 601.312 362.858 603.934 362.858 607.284C362.858 610.635 360.742 613.257 358.039 613.257H315.37C312.667 613.257 310.551 610.635 310.551 607.284C310.433 603.934 312.667 601.312 315.37 601.312Z" fill="#E2E8F0"/>
<path d="M35.2631 646.906H366.737C373.202 646.906 378.374 653.315 378.374 661.327V694.976C378.374 702.987 373.202 709.397 366.737 709.397H35.2631C28.7981 709.397 23.6262 702.987 23.6262 694.976V661.327C23.7438 653.461 28.9157 646.906 35.2631 646.906Z" fill="#F8FAFC"/>
<path d="M83.8087 667.299H192.302C195.475 667.299 198.061 670.503 198.061 674.436C198.061 678.369 195.475 681.574 192.302 681.574H83.8087C80.635 681.574 78.049 678.369 78.049 674.436C77.9315 670.503 80.5174 667.299 83.8087 667.299Z" fill="#E2E8F0"/>
<path d="M82.7509 689.003H138.937C141.64 689.003 143.756 691.625 143.756 694.976C143.756 698.326 141.64 700.948 138.937 700.948H82.7509C80.0474 700.948 77.9316 698.326 77.9316 694.976C77.9316 691.625 80.165 689.003 82.7509 689.003Z" fill="#E2E8F0"/>
<path d="M311.491 673.417H358.039C360.742 673.417 362.858 676.039 362.858 679.389C362.858 682.74 360.742 685.362 358.039 685.362H311.491C308.788 685.362 306.672 682.74 306.672 679.389C306.554 676.039 308.788 673.417 311.491 673.417Z" fill="#E2E8F0"/>
<path d="M54.5538 628.28C64.8009 628.28 73.1077 619.934 73.1077 609.64C73.1077 599.345 64.8009 591 54.5538 591C44.3068 591 36 599.345 36 609.64C36 619.934 44.3068 628.28 54.5538 628.28Z" fill="#E2E8F0"/>
<path d="M46.5538 701.28C56.8009 701.28 65.1077 692.934 65.1077 682.64C65.1077 672.345 56.8009 664 46.5538 664C36.3068 664 28 672.345 28 682.64C28 692.934 36.3068 701.28 46.5538 701.28Z" fill="#E2E8F0"/>
<path d="M153.5 86C169.792 86 183 72.7924 183 56.5C183 40.2076 169.792 27 153.5 27C137.208 27 124 40.2076 124 56.5C124 72.7924 137.208 86 153.5 86Z" fill="#E2E8F0"/>
</g>
<defs>
<clipPath id="clip0_3257_1039">
<rect width="402" height="874" fill="white"/>
</clipPath>
</defs>
</svg>
