<svg width="402" height="874" viewBox="0 0 402 874" fill="none" xmlns="http://www.w3.org/2000/svg">
<path d="M385.544 0H16.4561C7.36767 0 0 9.13041 0 20.3933V96.14C0 107.403 7.36767 116.533 16.4561 116.533H385.544C394.632 116.533 402 107.403 402 96.14V20.3933C402 9.13041 394.632 0 385.544 0Z" fill="#F1F5F9"/>
<path d="M277.404 29.1333H98.7369C96.1402 29.1333 94.0352 31.742 94.0352 34.96V46.6133C94.0352 49.8313 96.1402 52.44 98.7369 52.44H277.404C280 52.44 282.105 49.8313 282.105 46.6133V34.96C282.105 31.742 280 29.1333 277.404 29.1333Z" fill="#E2E8F0"/>
<path d="M195.123 67.0068H98.7369C96.1402 67.0068 94.0352 69.6155 94.0352 72.8335V78.6602C94.0352 81.8781 96.1402 84.4868 98.7369 84.4868H195.123C197.72 84.4868 199.825 81.8781 199.825 78.6602V72.8335C199.825 69.6155 197.72 67.0068 195.123 67.0068Z" fill="#E2E8F0"/>
<path d="M366.737 37.8735H315.018C309.824 37.8735 305.614 43.0909 305.614 49.5269V67.0069C305.614 73.4428 309.824 78.6602 315.018 78.6602H366.737C371.93 78.6602 376.14 73.4428 376.14 67.0069V49.5269C376.14 43.0909 371.93 37.8735 366.737 37.8735Z" fill="#E2E8F0"/>
<path d="M385.544 138.383H16.4561C7.36767 138.383 0 147.514 0 158.777V234.523C0 245.786 7.36767 254.917 16.4561 254.917H385.544C394.632 254.917 402 245.786 402 234.523V158.777C402 147.514 394.632 138.383 385.544 138.383Z" fill="#F1F5F9"/>
<path d="M300.912 167.517H98.7369C96.1402 167.517 94.0352 170.125 94.0352 173.343V184.997C94.0352 188.215 96.1402 190.823 98.7369 190.823H300.912C303.509 190.823 305.614 188.215 305.614 184.997V173.343C305.614 170.125 303.509 167.517 300.912 167.517Z" fill="#E2E8F0"/>
<path d="M206.877 205.39H98.7369C96.1402 205.39 94.0352 207.999 94.0352 211.217V217.043C94.0352 220.261 96.1402 222.87 98.7369 222.87H206.877C209.474 222.87 211.579 220.261 211.579 217.043V211.217C211.579 207.999 209.474 205.39 206.877 205.39Z" fill="#E2E8F0"/>
<path d="M366.737 176.257H315.018C309.824 176.257 305.614 181.474 305.614 187.91V205.39C305.614 211.826 309.824 217.044 315.018 217.044H366.737C371.93 217.044 376.14 211.826 376.14 205.39V187.91C376.14 181.474 371.93 176.257 366.737 176.257Z" fill="#E2E8F0"/>
<path d="M385.544 276.767H16.4561C7.36767 276.767 0 285.897 0 297.16V372.907C0 384.17 7.36767 393.3 16.4561 393.3H385.544C394.632 393.3 402 384.17 402 372.907V297.16C402 285.897 394.632 276.767 385.544 276.767Z" fill="#F1F5F9"/>
<path d="M230.386 305.9H98.7369C96.1402 305.9 94.0352 308.509 94.0352 311.727V323.38C94.0352 326.598 96.1402 329.207 98.7369 329.207H230.386C232.983 329.207 235.088 326.598 235.088 323.38V311.727C235.088 308.509 232.983 305.9 230.386 305.9Z" fill="#E2E8F0"/>
<path d="M183.368 343.773H98.7369C96.1402 343.773 94.0352 346.382 94.0352 349.6V355.427C94.0352 358.645 96.1402 361.253 98.7369 361.253H183.368C185.965 361.253 188.07 358.645 188.07 355.427V349.6C188.07 346.382 185.965 343.773 183.368 343.773Z" fill="#E2E8F0"/>
<path d="M366.737 314.64H315.018C309.824 314.64 305.614 319.858 305.614 326.293V343.773C305.614 350.209 309.824 355.427 315.018 355.427H366.737C371.93 355.427 376.14 350.209 376.14 343.773V326.293C376.14 319.858 371.93 314.64 366.737 314.64Z" fill="#E2E8F0"/>
<path d="M385.544 415.15H16.4561C7.36767 415.15 0 424.28 0 435.543V511.29C0 522.553 7.36767 531.683 16.4561 531.683H385.544C394.632 531.683 402 522.553 402 511.29V435.543C402 424.28 394.632 415.15 385.544 415.15Z" fill="#F1F5F9"/>
<path d="M253.895 444.283H98.7369C96.1402 444.283 94.0352 446.892 94.0352 450.11V461.763C94.0352 464.981 96.1402 467.59 98.7369 467.59H253.895C256.492 467.59 258.597 464.981 258.597 461.763V450.11C258.597 446.892 256.492 444.283 253.895 444.283Z" fill="#E2E8F0"/>
<path d="M195.123 482.157H98.7369C96.1402 482.157 94.0352 484.765 94.0352 487.983V493.81C94.0352 497.028 96.1402 499.637 98.7369 499.637H195.123C197.72 499.637 199.825 497.028 199.825 493.81V487.983C199.825 484.765 197.72 482.157 195.123 482.157Z" fill="#E2E8F0"/>
<path d="M366.737 453.023H315.018C309.824 453.023 305.614 458.241 305.614 464.677V482.157C305.614 488.593 309.824 493.81 315.018 493.81H366.737C371.93 493.81 376.14 488.593 376.14 482.157V464.677C376.14 458.241 371.93 453.023 366.737 453.023Z" fill="#E2E8F0"/>
<path d="M48.1304 83.5268C64.2187 83.5268 77.2609 70.4251 77.2609 54.2634C77.2609 38.1017 64.2187 25 48.1304 25C32.0421 25 19 38.1017 19 54.2634C19 70.4251 32.0421 83.5268 48.1304 83.5268Z" fill="#E6E8F0"/>
<path d="M44.1304 224.527C60.2187 224.527 73.2609 211.425 73.2609 195.263C73.2609 179.102 60.2187 166 44.1304 166C28.0421 166 15 179.102 15 195.263C15 211.425 28.0421 224.527 44.1304 224.527Z" fill="#E6E8F0"/>
<path d="M48.1304 364.527C64.2187 364.527 77.2609 351.425 77.2609 335.263C77.2609 319.102 64.2187 306 48.1304 306C32.0421 306 19 319.102 19 335.263C19 351.425 32.0421 364.527 48.1304 364.527Z" fill="#E6E8F0"/>
<path d="M44.1304 502.527C60.2187 502.527 73.2609 489.425 73.2609 473.263C73.2609 457.102 60.2187 444 44.1304 444C28.0421 444 15 457.102 15 473.263C15 489.425 28.0421 502.527 44.1304 502.527Z" fill="#E6E8F0"/>
</svg>
