<?xml version="1.0" encoding="utf-8"?>
<!-- Generator: Adobe Illustrator 27.3.1, SVG Export Plug-In . SVG Version: 6.00 Build 0)  -->
<svg version="1.1" id="Layer_1" xmlns="http://www.w3.org/2000/svg" xmlns:xlink="http://www.w3.org/1999/xlink" x="0px" y="0px"
	 viewBox="0 0 342 600" style="enable-background:new 0 0 342 600;" xml:space="preserve">
<style type="text/css">
	.st0{fill:#F3F4F6;}
	.st1{fill:#E5E7EB;}
	.st2{fill:#E2E8F0;}
	.st3{fill:#FFFFFF;}
	.st4{fill:#D8DEE8;}
	.st5{fill:#F8FAFC;}
</style>
<rect x="0.7" class="st0" width="341.3" height="738.6"/>
<circle class="st1" cx="135.9" cy="37.9" r="24.7"/>
<path class="st1" d="M181.3,23.1h75.8c4.1,0,7.4,3.3,7.4,7.4l0,0c0,4.1-3.3,7.4-7.4,7.4h-75.8c-4.1,0-7.4-3.3-7.4-7.4l0,0
	C173.8,26.4,177.2,23.1,181.3,23.1z"/>
<path class="st1" d="M178.8,42.9h51.1c2.7,0,4.9,2.2,4.9,4.9l0,0c0,2.7-2.2,4.9-4.9,4.9h-51.1c-2.7,0-4.9-2.2-4.9-4.9l0,0
	C173.8,45.1,176.1,42.9,178.8,42.9z"/>
<path class="st2" d="M40.8,85.3h260.5c11.4,0,20.6,9.2,20.6,20.6l0,0c0,11.4-9.2,20.6-20.6,20.6H40.8c-11.4,0-20.6-9.2-20.6-20.6
	l0,0C20.2,94.5,29.4,85.3,40.8,85.3z"/>
<path class="st3" d="M40.8,88.6h109.6c9.6,0,17.3,7.7,17.3,17.3l0,0c0,9.6-7.7,17.3-17.3,17.3H40.8c-9.6,0-17.3-7.7-17.3-17.3l0,0
	C23.5,96.4,31.2,88.6,40.8,88.6z"/>
<path class="st1" d="M42.4,138.9h257.2c10.9,0,19.8,8.9,19.8,19.8v115.4c0,10.9-8.9,19.8-19.8,19.8H42.4c-10.9,0-19.8-8.9-19.8-19.8
	V158.7C22.6,147.7,31.5,138.9,42.4,138.9z"/>
<path class="st4" d="M108.4,176.8h79.1c2.7,0,4.9,2.2,4.9,4.9l0,0c0,2.7-2.2,4.9-4.9,4.9h-79.1c-2.7,0-4.9-2.2-4.9-4.9l0,0
	C103.4,179,105.6,176.8,108.4,176.8z"/>
<path class="st4" d="M91.9,205.7H204c4.6,0,8.2,3.7,8.2,8.2v11.5c0,4.6-3.7,8.2-8.2,8.2H91.9c-4.6,0-8.2-3.7-8.2-8.2v-11.5
	C83.6,209.3,87.3,205.7,91.9,205.7z"/>
<path class="st4" d="M105.1,241.9h85.7c2.7,0,4.9,2.2,4.9,4.9l0,0c0,2.7-2.2,4.9-4.9,4.9h-85.7c-2.7,0-4.9-2.2-4.9-4.9l0,0
	C100.1,244.1,102.3,241.9,105.1,241.9z"/>
<path class="st4" d="M290.5,199.1L290.5,199.1c9.6,0,17.3,7.7,17.3,17.3l0,0c0,9.6-7.7,17.3-17.3,17.3l0,0
	c-9.6,0-17.3-7.7-17.3-17.3l0,0C273.2,206.8,281,199.1,290.5,199.1z"/>
<path class="st3" d="M152.9,279h36.3c10.9,0,19.8,8.9,19.8,19.8l0,0c0,10.9-8.9,19.8-19.8,19.8h-36.3c-10.9,0-19.8-8.9-19.8-19.8
	l0,0C133.1,287.9,141.9,279,152.9,279z"/>
<path class="st1" d="M159.5,293h23.1c2.3,0,4.1,1.8,4.1,4.1l0,0c0,2.3-1.8,4.1-4.1,4.1h-23.1c-2.3,0-4.1-1.8-4.1-4.1l0,0
	C155.3,294.9,157.2,293,159.5,293z"/>
<path class="st1" d="M125.7,340.3h90.7c2.7,0,4.9,2.2,4.9,4.9l0,0c0,2.7-2.2,4.9-4.9,4.9h-90.7c-2.7,0-4.9-2.2-4.9-4.9l0,0
	C120.7,342.5,122.9,340.3,125.7,340.3z"/>
<path class="st3" d="M0.4,371.6c0-16.4,13.3-29.7,29.7-29.7H312c16.4,0,29.7,13.3,29.7,29.7V759H0.4V371.6z"/>
<path class="st1" d="M156.2,366.6h29.7c0.9,0,1.6,0.7,1.6,1.6l0,0c0,0.9-0.7,1.6-1.6,1.6h-29.7c-0.9,0-1.6-0.7-1.6-1.6l0,0
	C154.5,367.4,155.3,366.6,156.2,366.6z"/>
<path class="st5" d="M30,394.7H312c5.5,0,9.9,4.4,9.9,9.9v23.1c0,5.5-4.4,9.9-9.9,9.9H30c-5.5,0-9.9-4.4-9.9-9.9v-23.1
	C20.2,399.1,24.6,394.7,30,394.7z"/>
<path class="st2" d="M43.2,401.3L43.2,401.3c8.2,0,14.8,6.6,14.8,14.8l0,0c0,8.2-6.6,14.8-14.8,14.8l0,0c-8.2,0-14.8-6.6-14.8-14.8
	l0,0C28.4,407.9,35,401.3,43.2,401.3z"/>
<path class="st2" d="M71.3,408.7h79.1c2.7,0,4.9,2.2,4.9,4.9l0,0c0,2.7-2.2,4.9-4.9,4.9H71.3c-2.7,0-4.9-2.2-4.9-4.9l0,0
	C66.3,410.9,68.5,408.7,71.3,408.7z"/>
<path class="st2" d="M70.4,423.5h51.1c2.3,0,4.1,1.8,4.1,4.1l0,0c0,2.3-1.8,4.1-4.1,4.1H70.4c-2.3,0-4.1-1.8-4.1-4.1l0,0
	C66.3,425.4,68.2,423.5,70.4,423.5z"/>
<path class="st2" d="M268.3,412.8h36.3c2.3,0,4.1,1.8,4.1,4.1l0,0c0,2.3-1.8,4.1-4.1,4.1h-36.3c-2.3,0-4.1-1.8-4.1-4.1l0,0
	C264.1,414.6,266,412.8,268.3,412.8z"/>
<path class="st5" d="M30,444.1H312c5.5,0,9.9,4.4,9.9,9.9v23.1c0,5.5-4.4,9.9-9.9,9.9H30c-5.5,0-9.9-4.4-9.9-9.9V454
	C20.2,448.6,24.6,444.1,30,444.1z"/>
<path class="st2" d="M43.2,450.7L43.2,450.7c8.2,0,14.8,6.6,14.8,14.8l0,0c0,8.2-6.6,14.8-14.8,14.8l0,0c-8.2,0-14.8-6.6-14.8-14.8
	l0,0C28.4,457.4,35,450.7,43.2,450.7z"/>
<path class="st2" d="M71.3,458.1h92.3c2.7,0,4.9,2.2,4.9,4.9l0,0c0,2.7-2.2,4.9-4.9,4.9H71.3c-2.7,0-4.9-2.2-4.9-4.9l0,0
	C66.3,460.3,68.5,458.1,71.3,458.1z"/>
<path class="st2" d="M70.4,473h47.8c2.3,0,4.1,1.8,4.1,4.1l0,0c0,2.3-1.8,4.1-4.1,4.1H70.4c-2.3,0-4.1-1.8-4.1-4.1l0,0
	C66.3,474.8,68.2,473,70.4,473z"/>
<path class="st2" d="M265,462.3h39.6c2.3,0,4.1,1.8,4.1,4.1l0,0c0,2.3-1.8,4.1-4.1,4.1H265c-2.3,0-4.1-1.8-4.1-4.1l0,0
	C260.8,464.1,262.7,462.3,265,462.3z"/>
</svg>
