<?xml version="1.0" encoding="utf-8"?>
<!-- Generator: Adobe Illustrator 27.3.1, SVG Export Plug-In . SVG Version: 6.00 Build 0)  -->
<svg version="1.1" id="Layer_1" xmlns="http://www.w3.org/2000/svg" xmlns:xlink="http://www.w3.org/1999/xlink" x="0px" y="0px"
	 viewBox="0 0 390 844" style="enable-background:new 0 0 390 844;" xml:space="preserve">
<style type="text/css">
	.st0{fill:#E5E7EB;}
</style>
<path class="st0" d="M32,60h104c4.4,0,8,3.6,8,8v16c0,4.4-3.6,8-8,8H32c-4.4,0-8-3.6-8-8V68C24,63.6,27.6,60,32,60z"/>
<path class="st0" d="M36,110h56c6.6,0,12,5.4,12,12l0,0c0,6.6-5.4,12-12,12H36c-6.6,0-12-5.4-12-12l0,0C24,115.4,29.4,110,36,110z"
	/>
<path class="st0" d="M40,160h310c8.8,0,16,7.2,16,16v68c0,8.8-7.2,16-16,16H40c-8.8,0-16-7.2-16-16v-68C24,167.2,31.2,160,40,160z"
	/>
<path class="st0" d="M40,274h310c8.8,0,16,7.2,16,16v68c0,8.8-7.2,16-16,16H40c-8.8,0-16-7.2-16-16v-68C24,281.2,31.2,274,40,274z"
	/>
<path class="st0" d="M40,388h310c8.8,0,16,7.2,16,16v68c0,8.8-7.2,16-16,16H40c-8.8,0-16-7.2-16-16v-68C24,395.2,31.2,388,40,388z"
	/>
</svg>
