<svg width="402" height="874" viewBox="0 0 402 874" fill="none" xmlns="http://www.w3.org/2000/svg">
<g clip-path="url(#clip0_3257_1066)">
<path d="M402 0H0V874H402V0Z" fill="url(#paint0_linear_3257_1066)"/>
<path d="M150.41 69.2568C166.498 69.2568 179.541 56.1551 179.541 39.9934C179.541 23.8316 166.498 10.73 150.41 10.73C134.322 10.73 121.28 23.8316 121.28 39.9934C121.28 56.1551 134.322 69.2568 150.41 69.2568Z" fill="#E6E8F0"/>
<path d="M202.845 22.4351H268.874C273.146 22.4351 276.642 25.9467 276.642 30.2386C276.642 34.5306 273.146 38.0422 268.874 38.0422H202.845C198.572 38.0422 195.077 34.5306 195.077 30.2386C195.077 25.9467 198.572 22.4351 202.845 22.4351Z" fill="#E6E8F0"/>
<path d="M199.932 45.8462H246.541C249.259 45.8462 251.396 47.9922 251.396 50.7234C251.396 53.4547 249.259 55.6007 246.541 55.6007H199.932C197.213 55.6007 195.077 53.4547 195.077 50.7234C195.077 47.9922 197.213 45.8462 199.932 45.8462Z" fill="#E6E8F0"/>
<path d="M47.5797 79.9868H354.42C367.82 79.9868 378.696 90.9118 378.696 104.373C378.696 117.834 367.82 128.759 354.42 128.759H47.5797C34.1797 128.759 23.3043 117.834 23.3043 104.373C23.3043 90.9118 34.1797 79.9868 47.5797 79.9868Z" fill="#E8EDF5"/>
<path d="M225.275 83.8882H354.42C365.684 83.8882 374.812 93.0574 374.812 104.373C374.812 115.688 365.684 124.857 354.42 124.857H225.275C214.012 124.857 204.884 115.688 204.884 104.373C204.884 93.0574 214.012 83.8882 225.275 83.8882Z" fill="#F8FAFC"/>
<path d="M88.3623 97.5444H134.971C138.175 97.5444 140.797 100.178 140.797 103.397C140.797 106.616 138.175 109.25 134.971 109.25H88.3623C85.158 109.25 82.5363 106.616 82.5363 103.397C82.5363 100.178 85.158 97.5444 88.3623 97.5444Z" fill="#D9DFEC"/>
<path d="M265.087 97.5444H315.58C318.784 97.5444 321.406 100.178 321.406 103.397C321.406 106.616 318.784 109.25 315.58 109.25H265.087C261.883 109.25 259.261 106.616 259.261 103.397C259.261 100.178 261.883 97.5444 265.087 97.5444Z" fill="#D9DFEC"/>
<path d="M27.1884 148.268H157.304C161.577 148.268 165.072 151.78 165.072 156.072C165.072 160.364 161.577 163.875 157.304 163.875H27.1884C22.9159 163.875 19.4203 160.364 19.4203 156.072C19.4203 151.78 22.9159 148.268 27.1884 148.268Z" fill="#D8DDEB"/>
<path d="M33.0145 175.581H368.986C376.462 175.581 382.58 181.726 382.58 189.237V265.322C382.58 272.833 376.462 278.978 368.986 278.978H33.0145C25.5377 278.978 19.4203 272.833 19.4203 265.322V189.237C19.4203 181.726 25.5377 175.581 33.0145 175.581Z" fill="#F8FAFC"/>
<path d="M37.1899 186.31H99.3348C102.054 186.31 104.19 188.456 104.19 191.187C104.19 193.919 102.054 196.065 99.3348 196.065H37.1899C34.4711 196.065 32.3348 193.919 32.3348 191.187C32.3348 188.456 34.5682 186.31 37.1899 186.31Z" fill="#E5E7EB"/>
<path d="M39.1319 203.868H120.697C124.484 203.868 127.494 206.892 127.494 210.696C127.494 214.501 124.484 217.524 120.697 217.524H39.1319C35.345 217.524 32.3348 214.501 32.3348 210.696C32.3348 206.892 35.4421 203.868 39.1319 203.868Z" fill="#D6DCE8"/>
<path d="M37.1899 233.132H120.697C123.416 233.132 125.552 235.278 125.552 238.009C125.552 240.74 123.416 242.886 120.697 242.886H37.1899C34.4711 242.886 32.3348 240.74 32.3348 238.009C32.3348 235.278 34.5682 233.132 37.1899 233.132Z" fill="#E5E7EB"/>
<path d="M39.1319 250.69H159.538C163.325 250.69 166.335 253.714 166.335 257.518C166.335 261.322 163.325 264.346 159.538 264.346H39.1319C35.345 264.346 32.3348 261.322 32.3348 257.518C32.3348 253.714 35.4421 250.69 39.1319 250.69Z" fill="#D6DCE8"/>
<path d="M33.0145 321.897H368.986C376.462 321.897 382.58 328.043 382.58 335.554V487.723C382.58 495.234 376.462 501.38 368.986 501.38H33.0145C25.5377 501.38 19.4203 495.234 19.4203 487.723V335.554C19.4203 328.043 25.5377 321.897 33.0145 321.897Z" fill="#F8FAFC"/>
<path d="M42.7247 361.891C48.0874 361.891 52.4348 357.524 52.4348 352.136C52.4348 346.749 48.0874 342.382 42.7247 342.382C37.3619 342.382 33.0145 346.749 33.0145 352.136C33.0145 357.524 37.3619 361.891 42.7247 361.891Z" fill="#D8DDEB"/>
<path d="M71.855 346.284H178.667C181.871 346.284 184.493 348.917 184.493 352.136C184.493 355.355 181.871 357.989 178.667 357.989H71.855C68.6507 357.989 66.0289 355.355 66.0289 352.136C66.0289 348.917 68.6507 346.284 71.855 346.284Z" fill="#D8DDEB"/>
<path d="M359.275 365.792C366.783 365.792 372.87 359.678 372.87 352.136C372.87 344.594 366.783 338.48 359.275 338.48C351.767 338.48 345.681 344.594 345.681 352.136C345.681 359.678 351.767 365.792 359.275 365.792Z" fill="#E8ECF3"/>
<path d="M363.159 368.719H38.8406V369.694H363.159V368.719Z" fill="#EEF2F6"/>
<path d="M42.7247 408.712C48.0874 408.712 52.4348 404.345 52.4348 398.958C52.4348 393.57 48.0874 389.203 42.7247 389.203C37.3619 389.203 33.0145 393.57 33.0145 398.958C33.0145 404.345 37.3619 408.712 42.7247 408.712Z" fill="#D8DDEB"/>
<path d="M71.855 393.105H201.971C205.175 393.105 207.797 395.739 207.797 398.958C207.797 402.177 205.175 404.81 201.971 404.81H71.855C68.6507 404.81 66.0289 402.177 66.0289 398.958C66.0289 395.739 68.6507 393.105 71.855 393.105Z" fill="#D8DDEB"/>
<path d="M359.275 412.614C366.783 412.614 372.87 406.5 372.87 398.958C372.87 391.415 366.783 385.301 359.275 385.301C351.767 385.301 345.681 391.415 345.681 398.958C345.681 406.5 351.767 412.614 359.275 412.614Z" fill="#E8ECF3"/>
<path d="M363.159 415.54H38.8406V416.515H363.159V415.54Z" fill="#EEF2F6"/>
<path d="M42.7247 455.533C48.0874 455.533 52.4348 451.166 52.4348 445.779C52.4348 440.392 48.0874 436.024 42.7247 436.024C37.3619 436.024 33.0145 440.392 33.0145 445.779C33.0145 451.166 37.3619 455.533 42.7247 455.533Z" fill="#D8DDEB"/>
<path d="M71.855 439.926H203.913C207.117 439.926 209.739 442.56 209.739 445.779C209.739 448.998 207.117 451.632 203.913 451.632H71.855C68.6507 451.632 66.0289 448.998 66.0289 445.779C66.0289 442.56 68.6507 439.926 71.855 439.926Z" fill="#D8DDEB"/>
<path d="M359.275 459.435C366.783 459.435 372.87 453.321 372.87 445.779C372.87 438.237 366.783 432.123 359.275 432.123C351.767 432.123 345.681 438.237 345.681 445.779C345.681 453.321 351.767 459.435 359.275 459.435Z" fill="#E8ECF3"/>
<path d="M363.159 462.362H38.8406V463.337H363.159V462.362Z" fill="#EEF2F6"/>
<path d="M42.7247 496.502C48.0874 496.502 52.4348 492.135 52.4348 486.748C52.4348 481.36 48.0874 476.993 42.7247 476.993C37.3619 476.993 33.0145 481.36 33.0145 486.748C33.0145 492.135 37.3619 496.502 42.7247 496.502Z" fill="#D8DDEB"/>
<path d="M71.855 480.895H198.087C201.291 480.895 203.913 483.529 203.913 486.748C203.913 489.967 201.291 492.6 198.087 492.6H71.855C68.6507 492.6 66.0289 489.967 66.0289 486.748C66.0289 483.529 68.6507 480.895 71.855 480.895Z" fill="#D8DDEB"/>
<path d="M359.275 506.257C366.783 506.257 372.87 500.143 372.87 492.601C372.87 485.058 366.783 478.944 359.275 478.944C351.767 478.944 345.681 485.058 345.681 492.601C345.681 500.143 351.767 506.257 359.275 506.257Z" fill="#E8ECF3"/>
<path d="M38.8406 544.299H363.159C373.841 544.299 382.58 553.078 382.58 563.808V667.206C382.58 677.935 373.841 686.714 363.159 686.714H38.8406C28.1594 686.714 19.4203 677.935 19.4203 667.206V563.808C19.4203 553.078 28.1594 544.299 38.8406 544.299Z" fill="#F8FAFC"/>
<path d="M42.7247 586.243C48.0874 586.243 52.4348 581.876 52.4348 576.489C52.4348 571.102 48.0874 566.734 42.7247 566.734C37.3619 566.734 33.0145 571.102 33.0145 576.489C33.0145 581.876 37.3619 586.243 42.7247 586.243Z" fill="#D8DDEB"/>
<path d="M71.855 570.636H184.493C187.697 570.636 190.319 573.27 190.319 576.489C190.319 579.708 187.697 582.342 184.493 582.342H71.855C68.6507 582.342 66.0289 579.708 66.0289 576.489C66.0289 573.27 68.6507 570.636 71.855 570.636Z" fill="#D8DDEB"/>
<path d="M359.275 590.145C366.783 590.145 372.87 584.031 372.87 576.489C372.87 568.947 366.783 562.833 359.275 562.833C351.767 562.833 345.681 568.947 345.681 576.489C345.681 584.031 351.767 590.145 359.275 590.145Z" fill="#E8ECF3"/>
<path d="M363.159 593.071H38.8406V594.047H363.159V593.071Z" fill="#EEF2F6"/>
<path d="M42.7247 633.065C48.0874 633.065 52.4348 628.697 52.4348 623.31C52.4348 617.923 48.0874 613.556 42.7247 613.556C37.3619 613.556 33.0145 617.923 33.0145 623.31C33.0145 628.697 37.3619 633.065 42.7247 633.065Z" fill="#D8DDEB" fill-opacity="0.75"/>
<path d="M71.855 617.458H190.319C193.523 617.458 196.145 620.091 196.145 623.31C196.145 626.529 193.523 629.163 190.319 629.163H71.855C68.6507 629.163 66.0289 626.529 66.0289 623.31C66.0289 620.091 68.6507 617.458 71.855 617.458Z" fill="#D8DDEB"/>
<path d="M359.275 636.966C366.783 636.966 372.87 630.852 372.87 623.31C372.87 615.768 366.783 609.654 359.275 609.654C351.767 609.654 345.681 615.768 345.681 623.31C345.681 630.852 351.767 636.966 359.275 636.966Z" fill="#E8ECF3"/>
<path d="M363.159 639.893H38.8406V640.869H363.159V639.893Z" fill="#EEF2F6"/>
<path d="M42.7247 679.886C48.0874 679.886 52.4348 675.519 52.4348 670.132C52.4348 664.745 48.0874 660.377 42.7247 660.377C37.3619 660.377 33.0145 664.745 33.0145 670.132C33.0145 675.519 37.3619 679.886 42.7247 679.886Z" fill="#F0D6D6"/>
<path d="M71.855 664.279H143.71C146.914 664.279 149.536 666.913 149.536 670.131C149.536 673.35 146.914 675.984 143.71 675.984H71.855C68.6507 675.984 66.0289 673.35 66.0289 670.131C66.0289 666.913 68.6507 664.279 71.855 664.279Z" fill="#F0D6D6"/>
</g>
<defs>
<linearGradient id="paint0_linear_3257_1066" x1="32.4823" y1="27.8035" x2="351.503" y2="795.429" gradientUnits="userSpaceOnUse">
<stop stop-color="#D9E7FF"/>
<stop offset="0.55" stop-color="#F2ECFF"/>
<stop offset="1" stop-color="#E2D4FF"/>
</linearGradient>
<clipPath id="clip0_3257_1066">
<rect width="402" height="874" fill="white"/>
</clipPath>
</defs>
</svg>
