<?xml version="1.0" encoding="utf-8"?>
<!-- Generator: Adobe Illustrator 27.3.1, SVG Export Plug-In . SVG Version: 6.00 Build 0)  -->
<svg version="1.1" id="Layer_1" xmlns:serif="http://www.serif.com/"
	 xmlns="http://www.w3.org/2000/svg" xmlns:xlink="http://www.w3.org/1999/xlink" x="0px" y="0px" viewBox="0 0 456 456"
	 style="enable-background:new 0 0 456 456;" xml:space="preserve">
<g>
	<path d="M227.1,127.8c0,4.5,0,9.1,0,13.7c0,1.4-0.4,1.8-1.7,1.8c-26.2,1.4-47.1,12.8-62.9,33.5c-9.2,12.1-14.7,25.9-16.7,41
		c-0.3,2-0.4,4.1-0.6,6.1c-0.1,1.1-0.5,1.5-1.6,1.5c-8.9,0-17.8,0-26.8,0c-1.3,0-1.7-0.4-1.7-1.8c0.1-10.1,1.6-20,4.5-29.6
		c5.9-20.1,16.5-37.4,31.7-51.9c14.2-13.5,31.3-22.1,50.3-26.8c7.7-1.9,15.5-2.9,23.5-3c1.7,0,2,0.4,2,2
		C227.1,118.8,227.1,123.3,227.1,127.8L227.1,127.8z M224.5,115c-31.5,2.1-58.1,13.8-78.9,37.9c-17.3,20-26.2,43.3-27.5,69.8h24.4
		c1.9-22,10.1-41,25.6-56.6c15.4-15.7,34.3-24.3,56.4-25.6V115L224.5,115z"/>
	<path d="M226.9,328.3c0,4.4,0,8.9,0,13.4c0,1.6-0.4,2-2.1,1.9c-15.8-0.5-30.9-4.4-45-11.4c-20.9-10.3-37.3-25.6-49-45.7
		c-9.8-16.8-15-34.9-15.5-54.3c-0.1-1.8,0.3-2.1,2.1-2.1c8.7,0,17.3,0,26,0c1.5,0,1.9,0.4,1.9,1.7c0.5,14.4,4.4,27.9,11.9,40.2
		c9.3,15.1,22.1,26.4,38.3,33.9c9.5,4.3,19.5,6.7,29.9,7.1c1.1,0.1,1.5,0.5,1.6,1.8C226.9,319.2,226.9,323.7,226.9,328.3
		L226.9,328.3L226.9,328.3z M224.1,340.6v-25c-22.2-1.4-41-10.2-56.7-25.9c-15.7-15.7-23.8-34.9-25.1-57h-24.1
		C119.3,289.6,167.5,338.7,224.1,340.6L224.1,340.6z"/>
	<path d="M231.5,127.8c0-4.5,0-8.9,0-13.4c0-1.6,0.4-2.1,2.1-2c19.7,0.4,37.9,6.1,54.6,16.4c10.1,6.1,18.8,13.8,26.3,22.8
		c5.1,6.1,9.4,12.8,13.1,19.8c8.5,16.3,13.1,33.4,13.2,51.8c0,1.6-0.3,1.9-1.9,1.9c-8.6,0-17.1,0.1-25.7,0.1c-1.4,0-1.8-0.4-1.9-1.8
		c-0.9-16.3-5.5-31.4-15.1-44.7c-13.2-18.4-30.7-30.3-53.2-34.4c-3.1-0.6-6.3-0.7-9.5-1c-1.7-0.1-2-0.4-2-2.1
		C231.5,136.8,231.5,132.3,231.5,127.8L231.5,127.8L231.5,127.8z M234.2,140.6c0.3,0,0.5,0.1,0.7,0.1c6.4,0.3,12.7,1.5,18.7,3.4
		c12.1,3.7,22.7,10.1,32,18.7c17.3,15.8,26.5,35.5,28.1,58.8c0.1,0.9,0.4,1.2,1.2,1.1c7.2-0.1,14.4-0.1,21.6-0.1
		c0.4,0,0.8-0.1,1.3-0.1c-1.4-32.1-13.8-58.9-37.4-80.4c-18.7-17-41.2-25.5-66.5-26.8v25.4L234.2,140.6L234.2,140.6z"/>
	<path d="M231.2,328.2c0-4.5,0-9,0-13.5c0-1.4,0.3-1.7,1.7-1.8c10.6-0.6,20.7-3.2,30.3-7.8c14.2-6.8,25.6-17,34.3-30
		c7.2-10.8,11.6-22.7,13.2-35.6c0.4-2.6,0.4-5.2,0.5-7.8c0.1-1.4,0.4-1.7,1.8-1.7c8.7,0,17.4,0,26,0c1.3,0,1.7,0.4,1.7,1.8
		c0.1,14.3-2.5,28.1-7.8,41.3c-9.4,23.4-24.9,41.6-46.5,54.6c-16.1,9.7-33.7,15-52.5,16c-2.9,0.2-3,0.1-3-2.8
		C231.2,336.6,231.2,332.4,231.2,328.2L231.2,328.2L231.2,328.2z M234,340.8c31-2.4,57.2-14.5,77.7-38c17.4-20,26-43.6,26.6-70.1
		h-24.1c-1.1,22-9.2,40.9-24.4,56.7c-15.2,15.8-33.9,24.5-55.8,26.3L234,340.8L234,340.8z"/>
	<path d="M150.1,167.8c-1.2-0.2-2.2-0.5-3.2-0.6c5.9-6.1,11.8-12,17.6-18c1.8,1.5,1.9,4.1,0.6,7.9c2.1,0.4,4.2-0.9,5.1-3.1
		c0.3-0.7,0.5-1.4,0.8-2.1c1.2-2.6,3.4-3.9,6.2-3.7c2,0.1,3.4-0.7,4.4-2.4c0.5-0.8,0.9-1.7,1.4-2.5c1.4-1.9,3.2-2.6,5.5-2.3
		c0.9,0.2,1.8,0.3,2.7,0.2c1.8-0.2,2.8-1.6,3.7-3.3c-0.7,0.1-1.2,0-1.8,0.1c-2.2,0.4-4.4,0.4-6.5-0.2c-2.3-0.6-3.7,0-4.8,2.1
		c-0.4,0.6-0.6,1.3-1,1.9c-1.4,2.5-3.5,3.5-6.3,3.3c-2.2-0.2-3.3,0.4-4.3,2.4c-0.2,0.4-0.4,0.8-0.6,1.2c-0.2,0.7-0.8,1.2-1.4,0.8
		c-0.4-0.3-0.8-1.1-0.8-1.5c0.3-2.4,2.7-4.8,5-5.2c0.5-0.1,1.1,0,1.6,0.1c2.2,0.3,3.9-0.5,5-2.5c0.3-0.5,0.5-1.1,0.8-1.7
		c1.5-3,3.7-4.1,7-3.2c0.2,0.1,0.4,0.1,0.5-0.1c0.5-0.4,1-0.9,1.6-1.1c7.4-2.6,14.7-5.2,22.1-7.8c0.4-0.1,0.7-0.1,1.1-0.2
		c-0.1,0.4,0,0.8-0.1,1.2c-0.3,1-0.6,1.9-0.9,2.9c-0.6,1.9-1.4,3.8-3.4,5.1c1.9,1.1,3.9,1.4,5.8,0.7c1.3-0.4,2.5-0.9,3.8-1.4
		c0.4-0.1,1-0.1,1.4,0.1c0.6,0.4,0.5,1.4-0.4,1.8c-3.9,1.9-7.9,2.8-12.2,0.8c-1.3-0.6-2.8-0.9-4.2-1c-1.9-0.1-3.5,0.9-4.7,2.5
		c-0.4,0.6-0.8,1.2-1.3,1.8c-1.6,2.2-3.8,3.2-6.6,2.8c-3.2-0.5-4-0.1-5.4,2.9c-1.4,2.9-3.6,4.4-6.9,4.2c-1.9-0.1-3.1,0.7-3.9,2.4
		c-0.4,0.8-0.6,1.5-1,2.3c-1.2,2.7-3.4,4-6.2,4.3c-3.9,0.4-5.7,2.1-6.1,6.1c-0.2,2.4-0.8,4.5-2.6,6.1c-0.9,0.8-2,1.3-3.1,1.8
		c-2.7,1.1-3.5,2.2-3.5,5.1c0,3.1-1.4,5.2-3.9,6.7c-0.7,0.4-1.4,0.9-1.9,1.5c-0.8,0.9-1.1,2.1-0.8,3.2c1.1,3.7-0.2,6.5-3.2,8.8
		c-2.4,1.8-2.8,3.5-1.8,6.2c1.4,3.4,0.8,6.4-1.5,9.2c-0.8,0.9-1.2,2.1-1.7,3.3c-0.3,0.6-0.6,1-1.3,0.9s-1.1-0.6-0.8-1.3
		c0.4-1.2,0.9-2.4,1.4-3.4c0.4-0.6,0.9-1.2,1.4-1.8c1.1-1.5,1.4-3.2,0.8-5c-0.3-0.8-0.6-1.6-0.8-2.5c-0.6-2.7,0.2-4.9,2.2-6.8
		c0.4-0.4,0.8-0.6,1.2-1c1.8-1.5,2.7-3.4,2.1-5.7c-0.9-3.4,0.6-6.2,3.7-7.7c1.9-0.9,2.8-2.5,2.8-4.7c0.1-4.2,1.2-5.8,5.1-7.3
		c2.9-1.1,4.1-3.1,3.7-6.7c-0.8,0.9-1.6,1.6-2.4,2.4c-1.5,1.5-3.3,2.6-5.4,3.2c-2.9,0.8-4.1,2.5-3.9,5.5c0.2,3.1-1.2,5.2-3.8,6.6
		c-0.6,0.4-1.4,0.7-1.9,1.2c-1.3,1.1-1.7,2.5-1.4,4.1c0.1,0.6,0.3,1.3,0.4,1.9c0.4,2.1-0.2,3.8-1.5,5.4c-0.6,0.6-1.2,1.2-1.9,1.8
		c-2.1,1.8-2.8,4-1.9,6.7c0.4,1.1,0.8,2.2,0.9,3.3c0.4,2.4-0.4,4.6-2.2,6.2c-1.2,1.1-1.9,2.4-2.1,4c-0.2,1.1-1.6,1.8-2.6,1.3
		c-0.6-0.3-0.6-0.8-0.4-1.4c1-3.9,1.9-7.8,2.9-11.7c0.4-1.8,0.8-3.5,1.2-5.3c0.4-1.9,1.3-3.6,2.9-4.7c2.5-1.7,3.2-3.9,2.4-6.8
		c-0.8-3.1,0.5-5.8,3.4-7.2c0.6-0.3,1.2-0.6,1.8-0.9c1.3-0.8,2-2.1,1.8-3.5c-0.5-4.8,2.3-7.8,6.4-8.5
		C149.6,168,149.9,167.9,150.1,167.8L150.1,167.8z"/>
	<path d="M148.5,163.2c-0.6-0.6-1.1-1.1-1.4-1.6c-0.1-0.2,0-0.7,0.2-0.9c0.5-0.6,1.4-1.1,1.3-2.2c0-0.5,0.8-1,1.2-1.5
		c0.4-0.4,0.8-0.9,1.2-1.3c-0.4-0.9-1.8-1.4-0.4-2.7c1.4-1.2,1.8,0.5,3,0.6c0.3-0.4,0.6-0.9,1.1-1.4s0.9-1.2,1.9-1
		c0.3,0.1,0.8-0.6,1.2-0.9c1.2-1.1,1.2-1.1,2.4-0.1c0.2,0.1,0.4,0.2,0.5,0.4C156.5,154.8,152.5,158.9,148.5,163.2L148.5,163.2z
		 M156,152.9c0.3,0.8,0.7,0.6,1,0.2c0.4-0.4,1.2-0.6,0.5-1.5C157,152.1,156.5,152.5,156,152.9z M149.2,160.6
		c1.4-1.1,1.5-1.1,0.9-1.8C149,159.7,148.9,159.9,149.2,160.6z M152.6,156.1c-0.6,0.5-0.9,0.8-1.2,1.1c-0.1,0.1-0.1,0.4-0.1,0.5
		s0.3,0.2,0.3,0.2c0.4-0.2,0.7-0.5,1-0.8C152.9,156.9,152.8,156.6,152.6,156.1L152.6,156.1z M155.2,154.8c-0.1-0.2-0.1-0.3-0.1-0.5
		c-0.3,0.1-0.6-0.1-0.9,0.1c-0.2,0.2-0.1,0.5-0.2,0.8C154.5,155.2,155,155,155.2,154.8z"/>
	<path d="M190.2,132.1c-0.2-0.5-0.3-0.7-0.4-1c-0.3-0.9,0.1-1.5,0.9-1.9c0.6-0.2,1-0.4,1.4-1.1c0.4-0.5,1.3-0.8,2-1.1
		c0.9-0.3,1.4-0.8,0.9-1.8c-0.5-1.1,0.5-1.2,1.1-1.5c0.7-0.3,1.2-0.2,1.5,0.6c0.1,0.4,0.3,0.7,0.5,1.1c0.9-0.3,1.8-0.6,2.8-0.9
		c0.4-0.1,0.8,0.1,1.2,0.1s0.7,0.1,1.1-0.1c2.1-0.6,2.1-0.6,2.5,1.7C200.8,128.3,195.5,130.1,190.2,132.1L190.2,132.1z M192.2,129.3
		c0.2,1.2,0.8,0.8,1.2,0.5c0.2-0.1,0.2-0.4,0.4-0.6C193.4,129.2,192.9,129.3,192.2,129.3z M197.5,128.3c-0.4-0.2-0.6-0.5-0.8-0.5
		c-0.4,0.1-0.8,0.4-1.2,0.6c0.2,0.2,0.4,0.5,0.5,0.5C196.5,128.8,196.9,128.6,197.5,128.3L197.5,128.3z M199,128
		c0.5-0.3,0.8-0.5,1.2-0.8c-0.2-0.2-0.4-0.5-0.5-0.5c-0.4,0.2-0.8,0.4-1.1,0.6C198.8,127.5,198.9,127.7,199,128L199,128z
		 M203.4,126.2c-0.5-0.2-0.7-0.4-0.8-0.4c-0.4,0.1-0.7,0.4-1,0.6c0.2,0.2,0.4,0.5,0.5,0.4C202.5,126.7,202.8,126.5,203.4,126.2
		L203.4,126.2z"/>
	<path d="M126.5,211c-0.5-0.5-1.1-0.8-1.4-1.2c-0.2-0.3-0.1-0.9,0.1-1.3c0.4-1.4,0.4-1.5-1.1-1.9c-0.9-0.2-1-0.8-0.8-1.5
		c0.2-0.8,0.5-1.4,1.5-1.1c1.4,0.4,1.5,0.3,1.9-1.2c0.2-0.6,0.3-1.4,0.6-1.9c0.2-0.4,0.9-0.8,1.3-0.7c0.6,0.1,0.6,0.7,0.4,1.2
		c-0.8,2.9-1.5,5.8-2.2,8.8C126.8,210.5,126.7,210.7,126.5,211L126.5,211z"/>
	<path d="M213.9,132.9c-0.2-0.2-0.7-0.5-0.6-0.6c0.1-0.5,0.3-1.3,0.7-1.5c1.4-0.7,2.9-1.2,4.4-1.7c0.7-0.2,1.3-0.1,1.5,0.6
		c0.3,0.7-0.2,1.1-0.8,1.4c-1.3,0.5-2.6,1.1-3.9,1.5C214.9,132.7,214.4,132.8,213.9,132.9L213.9,132.9z"/>
	<path d="M140.4,283.1c0.3,0.2,0.5,0.4,0.8,0.6c0.3-0.2,0.5-0.4,0.8-0.6c-0.2-0.3-0.4-0.5-0.5-0.8c0.1-0.1,0.1-0.2,0.2-0.2
		c1.3-1.1,2.6-2.2,3.9-3.4c1.2-1.1,2.5-1,3.7,0.1c1.1,1.1,2.1,2.2,3.1,3.3c5.1,5.5,10.3,10.9,15.4,16.4c1.6,1.6,1.7,2.8,0.4,4.7
		c-1,1.4-2.2,2.6-3.4,3.9c-0.4-0.3-0.6-0.4-0.9-0.6c-0.1,0.1-0.4,0.2-0.4,0.4c-0.1,0.4,0,0.7,0,1.3c-0.8,1-1.7,1.1-2.8,0.1
		c-0.7-0.6-1.4-1.2-2.1-1.8c1.5-2.2,1.5-3.6,0.4-4.8c-1.1-1.2-2.4-1.1-4.4,0.2c-2.7-2.9-5.4-5.8-8.1-8.7c1.5-2.3,1.6-3.6,0.4-4.8
		c-1.3-1.3-2.5-1.3-4.6,0.1c-0.8-0.8-1.6-1.6-2.3-2.5C139,284.8,139.2,284.1,140.4,283.1L140.4,283.1z M154.6,287.6
		c-1.3-1.4-2.5-2.6-3.8-4c-1,0.9-1.9,1.8-2.9,2.7c1.2,1.2,2.2,2.4,3.4,3.5c0.2,0.2,0.7,0.2,0.8,0.1
		C153,289.2,153.8,288.4,154.6,287.6z M161.4,299.8c0.8-0.8,1.6-1.6,2.7-2.5c-1.5-1.2-2.8-2.4-4.2-3.7c-0.7,0.6-1.6,1.5-2.6,2.5
		C158.6,297.4,160,298.5,161.4,299.8z M159.2,292.5c-1.3-1.4-2.4-2.6-3.7-3.9c-1,0.9-1.9,1.8-2.9,2.8c1.4,1.2,2.7,2.4,4.1,3.6
		C157.4,294.2,158.2,293.4,159.2,292.5L159.2,292.5z M150,282.7c-1-1.1-1.9-2.1-2.8-3c-0.1-0.1-0.6-0.1-0.8,0
		c-0.9,0.7-1.7,1.4-2.6,2.2c1.2,1.1,2.4,2.2,3.5,3.2C148,284.4,149,283.6,150,282.7L150,282.7z M164.9,298.2c-1,0.9-1.9,1.8-2.8,2.6
		c1.1,1,2.2,1.9,3.4,2.9c0.5-0.6,1.1-1.4,1.7-2.2c0.2-0.2,0.1-0.8-0.1-1.1C166.5,299.8,165.6,299.1,164.9,298.2L164.9,298.2z"/>
	<path d="M218,335.6c-7.1-0.5-13.7-1.9-20.3-3.9c-12-3.7-23-9.4-32.8-17.4c-0.1-0.1-0.2-0.1-0.2-0.2c-0.4-0.4-1-0.6-0.5-1.2
		c0.1-0.2,0.9,0,1.3,0.3c7.9,6.4,16.7,11.3,26.2,15c8.2,3.2,16.7,5.2,25.4,6.1c0.2,0,0.5,0,0.7,0.1c0.3,0.2,0.6,0.5,0.9,0.7
		C218.5,335.3,218.1,335.5,218,335.6L218,335.6z"/>
	<path d="M220.4,326.3c-6.5-0.5-12.6-1.8-18.6-3.7c-11.1-3.5-21.2-8.7-30.1-16.1c-0.1-0.1-0.2-0.1-0.2-0.2c-0.4-0.3-0.9-0.6-0.5-1.1
		c0.1-0.2,0.9,0,1.2,0.3c7.3,5.9,15.4,10.5,24.1,13.9c7.5,2.9,15.3,4.8,23.4,5.7c0.2,0,0.5,0,0.6,0.1c0.3,0.2,0.5,0.4,0.8,0.6
		C220.8,325.9,220.5,326.1,220.4,326.3L220.4,326.3z"/>
	<path d="M122.5,241.1c0-0.6-0.1-1.1-0.1-1.6c0.1-0.3,0.4-0.6,0.5-0.9c0.2,0.3,0.6,0.6,0.6,0.9c0.3,2.4,0.5,4.8,0.8,7.2
		c1.3,9.5,4.1,18.5,8.1,27.2c0.8,1.6,1.6,3.2,2.4,4.9c0.2,0.5,0.6,1.1-0.1,1.3c-0.2,0.1-0.8-0.4-1-0.7
		C127.5,267.3,123.5,254.6,122.5,241.1L122.5,241.1z"/>
	<path d="M133.8,239.2c0-0.5-0.1-1.1-0.1-1.5c0.1-0.3,0.3-0.5,0.5-0.8c0.2,0.3,0.6,0.5,0.6,0.8c0.3,2.2,0.4,4.4,0.8,6.7
		c1.2,8.8,3.8,17.1,7.5,25.1c0.7,1.5,1.5,3,2.2,4.5c0.2,0.4,0.5,0.9-0.1,1.2c-0.2,0.1-0.8-0.4-0.9-0.6
		C138.4,263.4,134.8,251.7,133.8,239.2z"/>
	<path d="M142,290.2c0-1.3,1.1-2.4,2.4-2.4c1.4,0,2.4,1.1,2.4,2.6c0,1.3-1.1,2.3-2.4,2.3C143,292.6,142,291.6,142,290.2L142,290.2z
		 M144.5,289.1c-0.1,0-0.3,0-0.4,0c-0.2,0.4-0.7,0.8-0.6,1.2c0.1,0.4,0.6,0.8,1,0.8c0.2,0,0.8-0.6,0.8-0.9
		C145.2,289.8,144.8,289.5,144.5,289.1L144.5,289.1z"/>
	<path d="M154.2,303.7c0-1.4,1.1-2.4,2.4-2.5c1.2-0.1,2.4,1.1,2.4,2.4c0,1.2-1.2,2.4-2.4,2.4C155.2,306,154.2,305,154.2,303.7
		L154.2,303.7z M156.5,304.9c0.4-0.6,0.9-1,0.8-1.3c-0.1-0.4-0.6-0.6-0.9-1c-0.3,0.4-0.8,0.6-0.8,1S156.1,304.3,156.5,304.9z"/>
	<g>
		<path d="M127.7,239.9c0.2-0.5,0.4-1.5,0.6-1.5c1,0.1,0.6,0.9,0.7,1.5c0.2,1.1,0.3,2.3,0.4,3.4c0,0.4-0.2,0.7-0.4,1.1
			c-0.2-0.3-0.6-0.5-0.6-0.9c-0.2-1.2-0.3-2.4-0.5-3.5C127.8,240,127.7,239.9,127.7,239.9L127.7,239.9z"/>
		<path d="M130.9,254.3c0.4,0.5,0.6,0.6,0.6,0.9c0.4,1.4,0.8,2.8,1.2,4.2c0.1,0.2-0.2,0.6-0.3,0.9c-0.2-0.2-0.6-0.3-0.7-0.5
			c-0.5-1.5-0.9-2.9-1.2-4.4C130.5,255.1,130.6,254.8,130.9,254.3L130.9,254.3z"/>
		<path d="M130.8,251.8c-0.1,0.1-0.2,0.5-0.5,0.5c-0.2,0-0.6-0.2-0.6-0.4c-0.4-1.6-0.6-3.1-0.9-4.7c0-0.2,0.3-0.4,0.5-0.6
			c0.2,0.2,0.5,0.3,0.6,0.5C130,248.7,130.4,250.2,130.8,251.8L130.8,251.8z"/>
		<path d="M133.5,262.4c0.2,0.2,0.4,0.5,0.5,0.7c0.5,1.2,1,2.5,1.4,3.7c0.1,0.3-0.1,0.6-0.1,1c-0.3-0.2-0.7-0.3-0.8-0.5
			c-0.5-1.3-1.1-2.6-1.5-3.9c-0.1-0.3,0.1-0.6,0.2-0.9C133.4,262.4,133.5,262.4,133.5,262.4z"/>
		<path d="M139,274.8c-0.1,0.1-0.2,0.3-0.3,0.3c-0.2,0-0.5-0.1-0.6-0.2c-0.7-1.4-1.4-2.8-2.1-4.2c-0.1-0.2,0.1-0.6,0.2-0.6
			c0.2-0.1,0.6,0.1,0.6,0.2c0.7,1.4,1.4,2.8,2.1,4.2C139,274.5,139,274.6,139,274.8L139,274.8z"/>
	</g>
	<g>
		<path d="M213.1,328.7c1.6,0.2,2.9,0.4,4.2,0.6c0.2,0.1,0.5,0.4,0.7,0.6c-0.3,0.2-0.5,0.5-0.8,0.4c-1.4-0.1-2.7-0.3-4-0.5
			c-0.2-0.1-0.5-0.4-0.6-0.6C212.9,329,213,328.9,213.1,328.7L213.1,328.7z"/>
		<path d="M206,327.4c1.4,0.3,2.6,0.5,3.9,0.8c0.2,0.1,0.4,0.4,0.6,0.6c-0.2,0.1-0.5,0.4-0.7,0.4c-1.2-0.2-2.5-0.4-3.7-0.7
			c-0.2-0.1-0.4-0.4-0.6-0.6C205.6,327.6,205.9,327.4,206,327.4L206,327.4z"/>
		<path d="M202.6,327.7c-1.4-0.4-2.6-0.7-3.8-1.1c-0.2-0.1-0.3-0.4-0.5-0.6c0.3-0.1,0.6-0.4,0.8-0.3c1.2,0.3,2.4,0.6,3.6,1
			c0.2,0.1,0.5,0.5,0.4,0.7C203.2,327.4,202.8,327.6,202.6,327.7L202.6,327.7z"/>
		<path d="M192.1,323c1.4,0.5,2.6,1,3.9,1.6c0.1,0.1,0.3,0.5,0.2,0.6c-0.2,0.2-0.5,0.4-0.6,0.3c-1.2-0.4-2.4-0.9-3.7-1.4
			c-0.2-0.1-0.4-0.4-0.4-0.6C191.8,323.3,192,323.1,192.1,323L192.1,323z"/>
		<path d="M173.5,312.9c0.2,0.1,0.4,0.2,0.6,0.3c0.9,0.6,1.9,1.2,2.8,1.9c0.2,0.2,0.2,0.5,0.4,0.8c-0.3,0-0.6,0.2-0.8,0.1
			c-1.1-0.6-2.1-1.4-3.1-2.1c-0.2-0.1-0.3-0.5-0.3-0.7C173,313.1,173.2,313,173.5,312.9L173.5,312.9z"/>
		<path d="M189.9,322.6c-0.3,0.1-0.6,0.4-0.8,0.3c-1.2-0.5-2.4-1.1-3.6-1.6c-0.1-0.1-0.3-0.4-0.2-0.6s0.4-0.4,0.5-0.3
			c1.2,0.5,2.5,1.1,3.7,1.7C189.8,322,189.8,322.3,189.9,322.6L189.9,322.6z"/>
		<path d="M179.5,316.8c0.3,0.2,0.6,0.3,0.9,0.5c0.9,0.5,1.8,1,2.7,1.5c0.2,0.1,0.2,0.5,0.3,0.8c-0.2,0.1-0.5,0.2-0.7,0.1
			c-1.1-0.6-2.2-1.2-3.4-1.9c-0.2-0.1-0.2-0.4-0.2-0.6C179,317,179.4,316.9,179.5,316.8L179.5,316.8z"/>
		<path d="M169.5,309.7c0.7,0.6,1.4,1.1,1.9,1.7c0.1,0.1,0,0.5-0.2,0.5c-0.2,0.1-0.5,0.2-0.6,0.1c-0.5-0.4-1.1-0.8-1.6-1.2
			c-0.1-0.1-0.2-0.5-0.1-0.6C169,310,169.1,309.8,169.5,309.7L169.5,309.7z"/>
	</g>
	<path d="M296.4,159.7c-1.4-1.6-2.7-3.2-4.1-4.7c-0.2-0.2-0.5-0.3-0.8-0.4c-0.6-0.1-1.3-0.1-1.9-0.2c-0.5-0.2-0.8-0.6-1.2-0.9
		c0.4-0.2,0.6-0.7,1-0.8c1.2-0.2,1.9-0.9,2.4-1.9c0.1-0.4,0.4-0.6,0.7-1.1c1.1,1.4,2,2.7,3.1,3.8c1.1,1.2,2.5,2.1,3.8,3.2
		c-0.1,0.2-0.2,0.3-0.2,0.5c0.2-0.3,0.4-0.6,0.5-0.9c0.6-1.5,1.2-2.9,1.8-4.4c0.1-0.3,0.3-0.6,0.5-0.9c0.5-0.6,1-0.7,1.4,0.1
		c0.3,0.6,0.6,1.3,0.6,1.9c-0.1,1.7-0.2,3.4-0.5,5.1c-0.4,1.9,0.1,3.5,1.4,4.9c1.1,1.2,2,2.6,3,3.9c0.2,0.2,0.4,0.5,0.4,0.8
		c0,0.5,0,1.1-0.3,1.4c-0.2,0.3-1,0.4-1.3,0.2c-1.2-0.6-2.4-1.2-3.3-2.1c-3.7-3.7-2.6-3.1-7.5-3.2c-1.3,0-2.6,0-3.9-0.1
		c-0.5,0-0.9,0-1.4-0.2s-0.9-0.6-1.1-1.1c-0.1-0.2,0.5-0.8,0.9-1c1.6-0.6,3.3-1.1,4.9-1.6C295.8,159.9,296,159.8,296.4,159.7
		L296.4,159.7z"/>
	<path d="M239,128.1c0.4,0,0.7-0.1,1.1-0.1c11.2,0.8,21.8,3.9,31.9,9.2c5.7,3,11,6.7,15.9,10.7c0.5,0.4,1.6,0.9,0.9,1.8
		c-0.7,0.9-1.3-0.1-1.8-0.5c-6.7-5.2-13.6-10-21.4-13.3c-8.1-3.5-16.5-5.9-25.3-7c-0.4-0.1-0.8-0.2-1.2-0.3
		C239,128.4,239,128.3,239,128.1L239,128.1z"/>
	<path d="M239.1,121.8c0.4,0,0.9-0.1,1.3,0c15.1,1.3,29,6.1,41.4,14.7c3.4,2.3,6.4,4.9,9.7,7.4c0.2,0.1,0.3,0.3,0.5,0.4
		c0.4,0.4,0.9,0.8,0.3,1.3c-0.2,0.2-0.9,0.1-1.2-0.2c-1.2-0.9-2.4-1.9-3.5-2.8c-13.7-11.2-29.4-17.8-46.9-20.1
		c-0.5-0.1-1-0.2-1.5-0.3C239.1,122.1,239.1,122,239.1,121.8L239.1,121.8z"/>
	<path d="M330.4,217.7c-0.1-0.3-0.2-0.6-0.2-0.9c-1.2-11-3.8-21.5-8.3-31.6c-2.7-5.9-5.9-11.7-9.7-17.1c-0.2-0.2-0.5-0.5-0.5-0.8
		c-0.1-0.4,0.1-0.8,0.1-1.2c0.4,0.1,0.9,0.2,1.1,0.4c1.2,1.6,2.3,3.2,3.4,4.9c6.2,9.9,10.8,20.5,13,32c0.8,4.3,1.1,8.7,1.6,13
		c0.1,0.4-0.1,0.8-0.1,1.2C330.8,217.6,330.6,217.7,330.4,217.7L330.4,217.7z"/>
	<path d="M239,134.4c0.4-0.1,0.8-0.1,1.1-0.1c6.5,0.3,12.8,1.6,19,3.8c9.4,3.3,17.7,8.3,25.4,14.4c0.4,0.4,0.9,0.7,0.4,1.3
		s-0.9,0.2-1.4-0.1c-7.5-5.8-15.5-10.7-24.5-14c-6.1-2.2-12.2-3.8-18.6-4.5c-0.5-0.1-0.9-0.2-1.5-0.3C239,134.7,239,134.6,239,134.4
		L239,134.4z"/>
	<path d="M324.9,217.8c-0.1-0.4-0.2-0.6-0.3-1c-1.7-15.5-6.7-30-15.4-43c-0.1-0.1-0.3-0.3-0.3-0.4c0-0.4,0.1-0.9,0.1-1.3
		c0.4,0.2,1,0.2,1.2,0.5c1.9,3.1,3.9,6.2,5.6,9.5c5.1,9.8,8.1,20.1,9.3,31.1c0.1,1.2,0.2,2.5,0.2,3.8c0,0.3-0.1,0.6-0.1,1
		C325.1,217.8,325,217.8,324.9,217.8L324.9,217.8z"/>
	<path d="M319.8,217.8c-0.1-0.4-0.2-0.6-0.3-1c-1-9.4-3.1-18.4-7.1-27c-2.3-5-5.2-9.7-7.9-14.5c-0.1-0.2-0.2-0.3-0.3-0.4
		c-0.3-0.5-0.7-1-0.1-1.5c0.7-0.5,1,0.2,1.3,0.6c7.7,11.5,12.8,23.9,14.4,37.6c0.2,1.7,0.3,3.4,0.4,5.1c0,0.4-0.1,0.7-0.2,1
		C319.9,217.8,319.8,217.8,319.8,217.8L319.8,217.8z"/>
	<path d="M322.1,272.3c-0.4,0.9-1,2.1-1.4,2.9c0.4,0.7,1.1,1.4,0.9,1.6c-0.4,1-1.1,0-1.8,0c-0.5,1.1-1.1,2.2-1.5,3
		c0.4,0.8,0.6,1.3,0.8,1.8c-0.5,0-1.1,0-1.9,0.1c-0.5,0.8-1.2,1.8-1.8,2.9c0.1,0.7,1.6,0.8,0.9,1.7c-0.2,0.2-1.1-0.1-2-0.1
		c-0.8,1.4-1.8,3-2.8,4.7c-0.3,0.5-0.7,0.9-1,1.5c-0.1,0.2-0.1,0.5-0.1,0.8c0.1,0.1,0.2,0.1,0.4,0.1c0.5-0.6,1.1-1.3,1.6-1.9
		c0.6,0.3,0.8,0.6,0.4,1.1c-0.5,0.7-0.9,1.5-1.3,2.3c-0.1,0.1-0.2,0.3-0.4,0.4c-1.6,0.8-2.6,2.1-3.2,3.8c-0.1,0.4-0.5,0.6-0.8,0.8
		c-0.6,0.5-1.3,0.8-1.9,1.4c-2.6,2.4-5.1,4.9-7.8,7.4c-0.8,0.8-1.8,1.3-2.6,2c-0.5,0.4-0.8,0.9-1.1,1.4c-0.2,0.2-0.5,0.6-0.8,0.6
		c-1.6,0.5-2.7,1.5-3.8,2.7c-0.4,0.5-1.2,0.7-1.8,0.9c-0.1,0.1-0.4-0.1-0.5-0.3c-0.1-0.1-0.1-0.5,0.1-0.5c0.3-0.2,0.6-0.3,1-0.4
		c-0.2-0.2-0.3-0.4-0.5-0.5c-2.4,1.6-4.8,3.2-6.9,4.6c-0.1,0.8-0.2,1.4-0.3,1.9c-0.5-0.3-0.9-0.5-1.6-0.9c-0.8,0.4-1.9,1-2.8,1.4
		c-0.1,0.8-0.2,1.4-0.3,1.9c-0.5-0.2-0.9-0.5-1.4-0.8c0-0.1,0.1-0.2,0.1-0.4c-1.1,0.5-2.2,1.1-3.1,1.4c-0.2,0.8-0.4,1.4-0.5,1.9
		c-0.4-0.3-0.9-0.6-1.5-1.1c-0.9,0.4-2,0.8-3.1,1.3c-0.2,0.6,0.7,1.5-0.4,1.7c-0.4,0.1-0.8-0.5-1.5-1.1c-0.8,0.3-2,0.7-2.9,1.1
		c-0.2,0.7-0.4,1.2-0.5,1.8c-0.4-0.4-0.9-0.6-1.5-1.2c-0.9,0.3-2.1,0.6-2.9,0.9c-0.3,0.8-0.5,1.3-0.7,1.8c-0.4-0.4-0.8-0.7-1.5-1.2
		c-0.9,0.2-2.1,0.5-2.9,0.7c-0.4,0.8-0.6,1.3-0.9,1.8c-0.4-0.4-0.7-0.8-1.2-1.4c-0.9,0.2-2.2,0.4-3,0.6c-0.4,0.8-0.6,1.2-0.9,1.7
		c-0.4-0.4-0.7-0.8-1.2-1.4c-0.9,0.1-2.1,0.4-3.4,0.5c-0.3,0.6,0.4,1.6-0.7,1.6c-0.4,0-0.6-0.8-1.1-1.4c-0.1,0-0.5,0.1-0.9,0.1
		c-0.3-0.1-0.6-0.3-0.9-0.5c0.2-0.2,0.4-0.6,0.7-0.8c0.4-0.2,0.9-0.2,1.4-0.2c-0.2-1.9-0.4-3.7-0.6-5.2c-0.7-0.3-1.3-0.5-1.9-0.8
		c0.5-0.4,1-0.8,1.5-1.1c0.2-0.5,0.4-1.5,0.7-1.5c1.1-0.2,0.5,1,1.1,1.6c1-0.2,2.1-0.3,3-0.5c0.3-0.8,0.4-1.8,0.7-1.9
		c1.1-0.2,0.6,1,1.2,1.5c0.9-0.2,2.1-0.4,3.1-0.5c0.4-0.6-0.6-1.8,0.6-1.9c0.3-0.1,0.7,0.9,1.2,1.5c0.8-0.2,1.9-0.5,2.9-0.7
		c0.4-0.7-0.7-1.6,0.5-1.9c0.3-0.1,0.8,0.8,1.4,1.4c0.8-0.2,1.8-0.5,2.9-0.8c0.2-0.7-0.8-1.6,0.3-1.9c0.3-0.1,0.8,0.8,1.5,1.4
		c0.8-0.3,1.8-0.6,2.9-1c0.2-0.8-0.9-1.6,0.2-1.9c0.3-0.1,0.9,0.8,1.5,1.3c0.8-0.4,1.8-0.8,2.8-1.2c0.1-0.8-1-1.5,0-1.9
		c1.1-0.5,0.8,1,1.5,1.4c0.9-0.5,1.9-0.9,2.9-1.4c0.1-0.8-1.1-1.5,0-1.9c0.3-0.1,1,0.6,1.6,1.1c0.8-0.4,1.8-0.9,2.5-1.4
		c0-0.8-0.2-1.8,0.1-1.9c1-0.6,0.9,0.7,1.5,1.1c0.3-0.2,0.6-0.5,1-0.5c0.3-0.1,0.6,0.1,1,0.1c-0.1,0.3-0.2,0.7-0.4,0.9
		c-0.3,0.3-0.7,0.5-1.1,0.8c0.9,1.6,1.7,3.1,2.6,4.9c1.9-1.2,3.7-2.4,5.6-3.7c-4.1-0.7-5.5-2.8-4.8-6.7c0.6-3.2,2.5-5.5,5-7.5
		c3.2-2.5,6.4-5,9.4-7.8c2.8-2.7,5.3-5.8,7.9-8.7c1-1.2,1.5-1.4,2.9-0.9c1.8,0.7,3.4,1.9,4.6,3.4c-0.7,1-1.4,1.9-2.1,3
		c-1.1-0.9-2-1.6-3.1-2.5c0.5-0.8,1.1-1.5,1.6-2.2c-0.4-0.6-0.8-0.6-1.2-0.1c-3.7,5.7-8.7,10.2-13.8,14.5c-0.2,0.1-0.3,0.3-0.5,0.4
		c-0.1,0.1-0.1,0.1-0.1,0.3c1,1.2,2,2.4,3.1,3.7c-3.5,2.7-6.8,5.5-11,7c-0.1,0.9,0.4,1.2,1.1,0.8c2.1-1.2,4.3-2.2,6.2-3.7
		c7.5-5.5,14.2-12,19.6-19.6c0.2-0.3,0.5-0.6,0.8-1c0.3,0.4,0.6,0.7,0.9,1.2c0.6-1,1.3-1.9,1.9-2.9c-1.4-0.9-2.5-2.2-3.9-2.6
		c-0.9-0.3-1.6-0.3-1.8-1.4c0-0.2-0.5-0.2-0.5-0.5c-0.1-0.3-0.2-0.6-0.2-0.9c0.4-0.1,0.7-0.2,1-0.1s0.5,0.3,0.9,0.6
		c0.6-0.9,1.1-1.9,1.6-2.8c-0.3-0.6-1.7-0.6-1.1-1.6c0.5-0.9,1.1,0.2,1.9,0.2c0.5-0.9,1-1.9,1.5-2.8c-0.3-0.7-1.7-0.5-1.2-1.6
		c0.1-0.3,1.2-0.1,2-0.1c0.4-0.8,0.9-1.8,1.4-2.8c-0.3-0.7-1.7-0.4-1.2-1.5c0.1-0.3,1.1-0.2,1.9-0.2c0.3-0.8,0.8-1.8,1.2-2.8
		c-0.4-0.6-1.7-0.4-1.3-1.4c0.1-0.3,1.1-0.2,1.6-0.3l0.2,0.3c0.4-1.1,0.8-2.2,1.2-3.3c-0.4-0.6-1.8-0.3-1.4-1.4s1.2,0,1.9-0.2
		c0.3-1,0.6-2.1,0.9-3.1c-0.4-0.6-1.8-0.2-1.4-1.3c0.1-0.3,1.1-0.3,1.9-0.5c0.2-0.8,0.5-1.9,0.6-2.8c-0.6-0.6-1.1-1-1.5-1.4
		c0.5-0.2,1.1-0.4,1.9-0.7c0.1-0.8,0.4-1.9,0.6-3c-0.5-0.5-1.8,0-1.6-1.2c0.1-0.3,1.1-0.4,1.9-0.7c0.1-0.8,0.3-1.9,0.4-2.9
		c-0.5-0.6-1.8,0.1-1.6-1.1c0.1-0.3,1.1-0.5,1.7-0.8c0.2-0.4,0.6-0.9,1-1.4c0.2,0.5,0.5,1.1,0.8,1.8c1.4,0.1,3,0.4,4.8,0.5
		c0.1-0.4,0-0.8,0.1-1.2c0.1-0.3,0.5-0.5,0.7-0.8c0.2,0.3,0.4,0.6,0.5,0.9c0.1,0.4,0,0.8,0.2,1c0.4,0.4,0.8,0.8,1.2,1.1
		c-0.5,0.2-0.9,0.5-1.4,0.8c-0.1-0.1-0.2-0.2-0.3-0.2c-0.2,1.2-0.4,2.5-0.5,3.5c0.6,0.6,1.1,0.9,1.5,1.4c-0.5,0.2-1,0.5-1.8,0.8
		c-0.2,0.9-0.4,2.1-0.6,3.1c0.5,0.5,0.9,1,1.4,1.4c-0.5,0.2-1,0.4-1.8,0.7c-0.2,0.9-0.5,2.2-0.8,3.4c0.1-0.1,0.2-0.1,0.3-0.1
		c0.4,0.4,0.6,0.9,1,1.3c-0.5,0.2-1,0.4-1.8,0.6c-0.3,0.9-0.6,2.2-1,3.4c0.4,0.6,1.6,0.4,1.2,1.4c-0.1,0.3-0.9,0.3-1.7,0.5
		c-0.3,0.9-0.8,2.1-1.1,3c0.4,0.7,0.7,1.2,1.1,1.7c-0.5,0.1-1,0.2-1.8,0.4c-0.4,0.8-0.8,2-1.3,3.2c0.2,0.6,1.6,0.5,1,1.5
		C323.8,272.4,322.9,272.3,322.1,272.3L322.1,272.3z M284.9,303.2c-0.1-0.1-0.1-0.2-0.2-0.3c-0.4,0.3-0.9,0.5-1.2,0.9
		c-0.6,0.9-1.1,1.9-1.6,2.9c-0.4,0.9-0.1,1.3,0.9,1.3c2.1,0.1,4.9-2.4,5.2-4.4c0.1-0.9-0.2-1.2-1.2-0.9
		C286.1,302.9,285.4,303.1,284.9,303.2L284.9,303.2z M240.2,331.3c1.4-0.2,2.6-0.4,3.8-0.6c-0.4-1.9-0.6-3.7-1-5.5
		c-1.2,0.2-2.4,0.4-3.6,0.5C239.8,327.5,240,329.3,240.2,331.3z M249.1,329.7c-0.4-1.9-0.8-3.7-1.2-5.5c-1.2,0.2-2.3,0.4-3.5,0.6
		c0.3,1.9,0.6,3.7,0.9,5.5C246.6,330.2,247.9,330,249.1,329.7L249.1,329.7z M258.8,321.3c0.6,1.8,1.1,3.5,1.7,5.3
		c1.3-0.5,2.4-0.9,3.6-1.3c-0.6-1.8-1.3-3.5-1.9-5.2C261,320.5,259.9,320.9,258.8,321.3L258.8,321.3z M250.4,329.4
		c1.3-0.4,2.5-0.6,3.7-0.9c-0.5-1.8-0.9-3.6-1.5-5.4c-1.2,0.3-2.3,0.6-3.5,0.9C249.8,325.8,250,327.6,250.4,329.4z M266.8,318.3
		c-1.2,0.5-2.2,0.9-3.4,1.4c0.6,1.8,1.3,3.4,1.9,5.2c1.2-0.5,2.4-1,3.6-1.5C268.2,321.7,267.5,320,266.8,318.3L266.8,318.3z
		 M324.9,261.5c-1.7-0.6-3.3-1.1-5-1.7c-0.4,1.2-0.8,2.4-1.2,3.5c1.7,0.6,3.2,1.3,4.9,1.9C324,264,324.4,262.9,324.9,261.5
		L324.9,261.5z M254.1,322.7c0.5,1.8,0.9,3.6,1.4,5.4c1.3-0.4,2.5-0.8,3.7-1.1c-0.6-1.8-1.1-3.5-1.6-5.3
		C256.4,322,255.4,322.4,254.1,322.7z M275.6,313.9c-1.1,0.6-2.1,1.1-3.2,1.7c0.8,1.7,1.6,3.3,2.5,5c1.2-0.6,2.2-1.2,3.4-1.8
		C277.4,317.1,276.5,315.5,275.6,313.9L275.6,313.9z M270.2,322.9c1.2-0.6,2.3-1.1,3.5-1.6c-0.8-1.7-1.6-3.4-2.4-5
		c-1.2,0.6-2.2,1.1-3.2,1.5C268.8,319.5,269.5,321.1,270.2,322.9L270.2,322.9z M321.6,270.3c0.5-1.3,1-2.5,1.5-3.7
		c-1.6-0.6-3.2-1.3-4.9-1.9c-0.5,1.2-0.9,2.2-1.4,3.4C318.4,268.8,319.9,269.5,321.6,270.3L321.6,270.3z M314.8,272.6
		c1.5,0.8,3.1,1.6,4.7,2.5c0.6-1.3,1.2-2.4,1.7-3.7c-1.6-0.8-3.2-1.5-4.8-2.2C315.9,270.4,315.4,271.4,314.8,272.6L314.8,272.6z
		 M325.4,260.3c0.4-1.4,0.8-2.6,1.1-3.9c-1.8-0.5-3.4-0.9-5.1-1.4c-0.4,1.2-0.7,2.4-1,3.5C322,259.1,323.6,259.7,325.4,260.3
		L325.4,260.3z M323.5,245.2c-0.2,1.3-0.4,2.4-0.6,3.7c1.8,0.4,3.4,0.7,5.1,1.1c0.2-1.4,0.5-2.6,0.7-3.9
		C326.9,245.7,325.4,245.5,323.5,245.2L323.5,245.2z M327.8,251.3c-1.8-0.4-3.4-0.7-5.1-1.1c-0.3,1.3-0.5,2.4-0.8,3.6
		c1.7,0.5,3.4,0.9,5,1.4C327.1,253.8,327.4,252.6,327.8,251.3L327.8,251.3z M314.1,273.8c-0.6,1.1-1.1,2.1-1.7,3.2
		c1.5,0.9,3,1.8,4.5,2.7c0.6-1.2,1.2-2.2,1.8-3.4C317.2,275.5,315.8,274.6,314.1,273.8z M328.9,244.7c0.2-1.4,0.3-2.6,0.5-3.9
		c-1.9-0.2-3.5-0.4-5.2-0.5c-0.2,1.2-0.3,2.4-0.5,3.6C325.4,244.1,327.1,244.4,328.9,244.7z M316.4,280.8c-1.6-0.9-3.1-1.8-4.5-2.6
		c-0.6,1.1-1.2,2.1-1.8,3.1c1.5,1,2.8,1.9,4.3,2.9C315,283,315.6,282,316.4,280.8z M292.9,310.6l0.4,0.1c4.4-3.4,8.4-7,12.2-11
		c0.2-0.2,0.2-0.6,0.4-0.9c-0.2,0.1-0.5,0.2-0.8,0.4c-3.9,3.6-7.8,7.1-11.8,10.7C292.9,310,292.9,310.3,292.9,310.6z M291.5,311.1
		c-0.9,0.6-1.9,1.2-2.7,1.9c-0.2,0.2-0.2,0.6-0.4,1.2C290.9,312.9,291.9,312,291.5,311.1z M309.8,294.2c-0.1-0.1-0.2-0.1-0.3-0.2
		c-0.8,0.9-1.6,1.9-2.4,2.9c-0.1,0.2-0.1,0.5-0.1,0.8c0.1,0.1,0.2,0.1,0.3,0.1C308,296.5,309.4,295.7,309.8,294.2L309.8,294.2z"/>
	<path d="M299.9,298.7c-1.1-1.1-1.8-1.9-2.5-2.7c-0.1-0.2-0.1-0.7,0-0.9c0.8-0.9,1.6-1.8,2.5-2.8c1,1,1.8,1.8,2.5,2.6
		c0.1,0.2,0.1,0.6,0,0.9C301.8,296.7,300.9,297.6,299.9,298.7L299.9,298.7z"/>
	<path d="M295.9,296.7c0.9,1,1.7,1.9,2.6,2.9c-1.1,1-2.1,1.9-3.2,2.9c-0.9-1-1.6-1.9-2.5-3C293.9,298.5,294.9,297.7,295.9,296.7
		L295.9,296.7z"/>
	<path d="M304,294.1c-0.9-0.8-1.6-1.5-2.4-2.2c-0.2-0.2-0.1-0.6,0-0.9c0-0.1,0.1-0.1,0.1-0.2c2.3-2.9,2.4-2.9,4.9,0.2
		C305.9,291.9,305,292.9,304,294.1L304,294.1z"/>
</g>
</svg>
