<?xml version="1.0" encoding="utf-8"?>
<!-- Generator: Adobe Illustrator 27.3.1, SVG Export Plug-In . SVG Version: 6.00 Build 0)  -->
<svg version="1.1" id="Layer_1" xmlns:serif="http://www.serif.com/"
	 xmlns="http://www.w3.org/2000/svg" xmlns:xlink="http://www.w3.org/1999/xlink" x="0px" y="0px" viewBox="0 0 456 456"
	 style="enable-background:new 0 0 456 456;" xml:space="preserve">
<style type="text/css">
	.st0{fill:#111827;}
</style>
<g>
	<path class="st0" d="M226.3,48.1c0,8.2,0,16.3,0,24.5c0,2.5-0.7,3.2-3,3.3c-47.1,2.5-84.6,23-113,60.2
		c-16.6,21.8-26.4,46.5-30,73.7c-0.5,3.6-0.7,7.2-1,10.9c-0.2,1.9-0.9,2.7-2.8,2.7c-16,0-32.1,0-48.1,0c-2.4,0-3.1-0.8-3.1-3.3
		c0.1-18.1,2.9-35.8,8-53.2c10.7-36.1,29.7-67.2,57-93.1c25.6-24.3,56.1-39.8,90.3-48.2c13.8-3.4,27.9-5.3,42.2-5.4
		c3,0,3.6,0.6,3.6,3.6C226.3,32,226.3,40,226.3,48.1C226.3,48.1,226.3,48.1,226.3,48.1z M221.4,25.1C164.8,28.9,117,50,79.7,93.2
		c-31.1,36-47.1,77.8-49.4,125.3h43.8c3.4-39.4,18.2-73.6,45.9-101.8c27.8-28.2,61.6-43.5,101.3-45.9L221.4,25.1L221.4,25.1z"/>
	<path class="st0" d="M225.9,408.2c0,8,0,16,0,24c0,3-0.7,3.6-3.7,3.5c-28.5-1-55.4-7.9-80.9-20.4c-37.6-18.5-66.9-46.1-88.1-82.2
		c-17.6-30.1-26.8-62.7-27.8-97.6c-0.1-3.2,0.5-3.7,3.7-3.7c15.5,0,31.1,0,46.6,0c2.6,0,3.3,0.7,3.4,3.1
		c0.9,25.9,7.8,50.1,21.4,72.2c16.7,27.2,39.7,47.5,68.8,60.8c17.1,7.8,35,12,53.8,12.8c2.1,0.1,2.8,0.9,2.8,3.1
		C225.9,391.9,225.9,400,225.9,408.2L225.9,408.2L225.9,408.2z M221,430.4v-44.8c-39.9-2.5-73.7-18.3-101.8-46.5
		c-28.2-28.3-42.8-62.6-45-102.3H30.8C32.7,338.7,119.3,426.8,221,430.4L221,430.4z"/>
	<path class="st0" d="M234.2,48.2c0-8,0-16.1,0-24.1c0-2.9,0.8-3.7,3.7-3.6c35.4,0.8,68,11,98.2,29.4c18,11,33.8,24.8,47.2,41
		c9.1,11,16.9,23,23.5,35.7c15.3,29.1,23.4,60.1,23.8,93c0,3-0.5,3.5-3.5,3.5c-15.4,0-30.8,0.1-46.2,0.1c-2.6,0-3.2-0.6-3.3-3.2
		c-1.7-29.3-10-56.5-27.1-80.4c-23.7-33-55.1-54.4-95.5-61.8c-5.6-1-11.4-1.3-17.1-1.8c-3-0.3-3.6-0.7-3.6-3.8
		C234.2,64.3,234.2,56.2,234.2,48.2L234.2,48.2L234.2,48.2z M239.1,71c0.5,0.1,0.9,0.1,1.3,0.1c11.5,0.5,22.7,2.6,33.7,6
		c21.8,6.7,40.8,18.2,57.5,33.5c31,28.4,47.5,63.8,50.6,105.6c0.1,1.7,0.6,2.1,2.2,2.1c13-0.1,25.9-0.1,38.9-0.1
		c0.7,0,1.4-0.1,2.4-0.2c-2.5-57.6-24.8-105.9-67.1-144.4c-33.6-30.6-73.9-45.8-119.4-48.2V71z"/>
	<path class="st0" d="M233.8,408.1c0-8.1,0-16.2,0-24.3c0-2.5,0.5-3.1,3-3.3c19.1-1.1,37.2-5.7,54.4-13.9c25.6-12.2,46-30.4,61.7-54
		c13-19.4,20.8-40.8,23.8-63.9c0.6-4.7,0.7-9.4,1-14.1c0.1-2.4,0.8-3.1,3.2-3.1c15.6,0,31.2,0,46.8,0c2.3,0,3.1,0.8,3.1,3.2
		c0.2,25.7-4.4,50.4-13.9,74.2c-16.8,42-44.7,74.7-83.4,98c-29,17.4-60.5,26.9-94.3,28.7c-5.3,0.3-5.4,0.2-5.4-5.1
		C233.8,423,233.8,415.5,233.8,408.1L233.8,408.1L233.8,408.1z M238.7,430.7c55.8-4.2,102.8-26.1,139.6-68.3
		c31.3-36,46.7-78.3,47.7-126h-43.3c-1.9,39.5-16.5,73.5-43.8,101.9c-27.4,28.5-60.9,44-100.2,47.2L238.7,430.7L238.7,430.7z"/>
	<path class="st0" d="M88,119.9c-2.1-0.4-4-0.8-5.9-1.2c10.7-10.9,21.2-21.6,31.7-32.2c3.2,2.6,3.5,7.4,1.1,14.2
		c3.8,0.6,7.5-1.7,9.1-5.6c0.5-1.2,0.8-2.5,1.4-3.7c2.1-4.7,6.1-7,11.2-6.7c3.6,0.3,6.2-1.3,7.9-4.4c0.8-1.5,1.6-3,2.5-4.4
		c2.4-3.4,5.7-4.8,9.8-4.1c1.6,0.3,3.3,0.6,4.8,0.4c3.3-0.4,5-2.8,6.6-5.9c-1.2,0.1-2.2,0-3.2,0.2c-4,0.8-7.8,0.7-11.7-0.4
		c-4.2-1.2-6.6,0-8.7,3.8c-0.6,1.2-1.2,2.4-1.8,3.5c-2.5,4.4-6.3,6.3-11.3,5.9c-4-0.3-6,0.7-7.7,4.3c-0.4,0.7-0.8,1.4-1,2.2
		c-0.4,1.3-1.4,2.1-2.5,1.4c-0.8-0.5-1.5-1.9-1.4-2.8c0.5-4.3,4.9-8.7,9-9.3c0.9-0.1,1.9,0,2.8,0.1c4,0.5,7-0.9,9-4.5
		c0.5-1,1-2,1.5-3c2.7-5.4,6.7-7.3,12.6-5.8c0.4,0.1,0.7,0.2,0.9-0.2c1-0.7,1.8-1.6,2.9-2c13.2-4.7,26.4-9.4,39.6-14.1
		c0.6-0.2,1.3-0.2,2-0.3c-0.1,0.7,0,1.4-0.2,2.1c-0.5,1.8-1.1,3.5-1.6,5.2c-1.1,3.5-2.5,6.9-6,9.1c3.5,2,6.9,2.4,10.5,1.3
		c2.3-0.7,4.5-1.7,6.7-2.4c0.7-0.2,1.8-0.2,2.4,0.2c1.2,0.7,0.9,2.4-0.6,3.2c-7.1,3.5-14.2,5.1-21.9,1.4c-2.3-1.1-5-1.7-7.6-1.8
		c-3.5-0.1-6.4,1.7-8.5,4.5c-0.8,1.1-1.5,2.2-2.3,3.2c-3,4-6.7,5.8-11.8,4.9c-5.7-1-7.2-0.1-9.8,5.2c-2.5,5.3-6.5,7.9-12.5,7.5
		c-3.4-0.2-5.6,1.3-7,4.4c-0.6,1.4-1.2,2.8-1.8,4.2c-2.1,4.9-6.1,7.2-11.2,7.8c-7,0.8-10.2,3.7-10.9,10.8c-0.4,4.2-1.4,8.1-4.8,10.9
		c-1.6,1.3-3.6,2.3-5.5,3.2c-4.8,2.1-6.3,3.9-6.2,9.1c0,5.5-2.4,9.3-7.1,12c-1.3,0.7-2.5,1.7-3.5,2.8c-1.4,1.6-1.9,3.7-1.3,5.8
		c1.9,6.7-0.5,11.7-5.9,15.8c-4.2,3.1-5.1,6.3-3.1,11.2c2.5,6.2,1.5,11.6-2.8,16.6c-1.4,1.7-2.2,3.9-3.1,5.9
		c-0.5,1.2-1.1,1.8-2.3,1.7c-1.3-0.2-1.9-1.1-1.5-2.3c0.7-2.1,1.6-4.2,2.6-6.2c0.6-1.2,1.7-2.2,2.5-3.3c1.9-2.7,2.5-5.7,1.4-8.9
		c-0.5-1.5-1-3-1.4-4.5c-1.2-4.9,0.3-8.9,3.9-12.3c0.7-0.6,1.5-1.2,2.2-1.8c3.3-2.6,4.8-6,3.7-10.2c-1.7-6.1,1-11.2,6.5-13.9
		c3.4-1.7,5.1-4.5,5.1-8.3c0.1-7.6,2.2-10.5,9.2-13.1c5.2-2,7.3-5.6,6.7-12c-1.5,1.6-2.8,3-4.2,4.3c-2.7,2.8-6,4.7-9.8,5.8
		c-5.1,1.5-7.3,4.6-7,9.9c0.3,5.5-2.1,9.3-6.8,11.8c-1.2,0.7-2.5,1.3-3.5,2.2c-2.3,1.9-3,4.4-2.5,7.3c0.2,1.2,0.5,2.3,0.7,3.5
		c0.7,3.7-0.3,6.9-2.7,9.6c-1,1.2-2.2,2.2-3.4,3.2c-3.8,3.2-5,7.2-3.5,12c0.6,2,1.4,3.9,1.6,6c0.6,4.4-0.7,8.2-4,11.3
		c-2.1,2-3.4,4.3-3.9,7.1c-0.3,1.9-2.9,3.2-4.7,2.4c-1.2-0.6-1-1.5-0.8-2.6c1.8-7,3.5-14,5.2-21c0.8-3.2,1.4-6.4,2.1-9.6
		c0.7-3.5,2.3-6.5,5.2-8.5c4.5-3.1,5.8-7,4.3-12.3c-1.5-5.5,0.9-10.3,6.1-13c1.1-0.6,2.1-1.1,3.1-1.7c2.3-1.5,3.6-3.7,3.3-6.4
		c-0.9-8.6,4.2-13.9,11.5-15.4C87.3,120.3,87.5,120.2,88,119.9L88,119.9z"/>
	<path class="st0" d="M84.9,111.5c-1-1.2-1.9-2-2.4-2.9c-0.2-0.4-0.1-1.3,0.3-1.7c0.9-1.2,2.4-1.9,2.3-3.9c0-0.9,1.4-1.8,2.2-2.7
		c0.7-0.8,1.4-1.5,2.2-2.3c-0.7-1.6-3.3-2.6-0.7-4.8c2.5-2.2,3.1,0.9,5.4,1.1c0.5-0.6,1.2-1.6,2-2.4c0.9-0.9,1.6-2.2,3.4-1.7
		c0.5,0.1,1.4-1,2.1-1.7c2.2-2,2.2-2,4.3-0.1c0.3,0.3,0.6,0.5,0.9,0.7C99.5,96.6,92.3,104,84.9,111.5L84.9,111.5z M98.5,93.1
		c0.5,1.4,1.2,1.2,1.8,0.4c0.6-0.7,2.2-1.1,0.9-2.6C100.3,91.7,99.4,92.4,98.5,93.1z M86.4,106.9c2.6-1.9,2.6-2,1.6-3.2
		C85.9,105.4,85.7,105.7,86.4,106.9z M92.6,98.8c-1,0.9-1.6,1.4-2.1,1.9c-0.2,0.2-0.2,0.7-0.1,1c0,0.2,0.5,0.4,0.5,0.4
		c0.6-0.5,1.3-0.9,1.8-1.5C92.9,100.3,92.7,99.7,92.6,98.8L92.6,98.8z M97.3,96.6c-0.1-0.3-0.1-0.6-0.2-0.8
		c-0.5,0.1-1.2-0.1-1.5,0.2c-0.3,0.3-0.2,1-0.3,1.5C95.9,97.2,96.6,96.9,97.3,96.6z"/>
	<path class="st0" d="M160.1,55.7c-0.3-0.8-0.5-1.3-0.6-1.8c-0.5-1.7,0.1-2.8,1.7-3.4c1-0.4,1.8-0.8,2.5-1.9c0.7-1,2.3-1.4,3.6-1.9
		c1.7-0.6,2.4-1.4,1.7-3.2c-0.8-2,0.9-2.1,2-2.6c1.3-0.6,2.2-0.4,2.7,1.1c0.2,0.6,0.6,1.2,1,2c1.7-0.5,3.3-1.2,5-1.6
		c0.7-0.2,1.5,0.2,2.2,0.2c0.6,0,1.3,0.1,1.9-0.1c3.7-1.2,3.8-1.1,4.6,3C178.9,49,169.6,52.3,160.1,55.7L160.1,55.7z M163.7,50.7
		c0.4,2.2,1.5,1.3,2.2,1c0.3-0.2,0.5-0.8,0.7-1.2C165.6,50.6,164.7,50.7,163.7,50.7z M173,48.9c-0.7-0.5-1.2-0.9-1.4-0.8
		c-0.8,0.3-1.5,0.7-2.2,1.1c0.3,0.3,0.7,0.9,0.9,0.8C171.1,49.8,171.9,49.4,173,48.9L173,48.9z M175.9,48.3c0.8-0.5,1.4-0.9,2.1-1.4
		c-0.3-0.3-0.7-0.9-0.9-0.9c-0.7,0.3-1.3,0.7-2,1.1C175.3,47.5,175.5,47.8,175.9,48.3L175.9,48.3z M183.7,45.2
		c-0.8-0.4-1.2-0.8-1.5-0.7c-0.6,0.2-1.2,0.7-1.8,1c0.3,0.3,0.7,0.8,1,0.8C182,46.1,182.6,45.7,183.7,45.2L183.7,45.2z"/>
	<path class="st0" d="M45.6,197.5c-1-0.8-2-1.3-2.4-2.1c-0.3-0.5-0.1-1.5,0.1-2.3c0.6-2.6,0.6-2.8-2-3.4c-1.7-0.4-1.8-1.4-1.5-2.8
		c0.4-1.4,0.9-2.4,2.7-2c2.6,0.6,2.6,0.5,3.3-2.1c0.3-1.1,0.5-2.4,1.2-3.4c0.5-0.7,1.6-1.4,2.3-1.3c1.2,0.1,1,1.2,0.8,2.3
		c-1.3,5.2-2.6,10.5-3.9,15.7C46.1,196.6,45.9,197,45.6,197.5L45.6,197.5z"/>
	<path class="st0" d="M202.5,57.2c-0.3-0.3-1.2-0.8-1.2-1.2c0.2-1,0.5-2.3,1.2-2.6c2.5-1.2,5.2-2.1,7.8-3.1c1.2-0.5,2.3-0.2,2.8,1.1
		c0.5,1.3-0.4,2-1.4,2.4c-2.3,0.9-4.6,1.9-7,2.8C204.2,56.9,203.5,57,202.5,57.2L202.5,57.2z"/>
	<path class="st0" d="M70.5,327c0.5,0.4,0.9,0.7,1.5,1.1c0.5-0.4,0.9-0.7,1.4-1.1c-0.3-0.5-0.6-1-0.9-1.5c0.1-0.2,0.2-0.3,0.3-0.5
		c2.3-2,4.6-4.1,7-6.1c2.2-1.9,4.4-1.8,6.5,0.2c1.9,1.9,3.7,3.9,5.6,5.9c9.2,9.8,18.5,19.6,27.7,29.4c2.8,3,3.1,5,0.6,8.3
		c-1.8,2.5-4,4.7-6,7c-0.7-0.5-1.2-0.8-1.7-1.2c-0.3,0.2-0.7,0.4-0.8,0.6c-0.1,0.6,0,1.3,0,2.3c-1.4,1.8-3,2-5.1,0.2
		c-1.3-1.1-2.5-2.2-3.7-3.3c2.6-4,2.7-6.5,0.7-8.6c-2-2.1-4.3-2-7.9,0.3c-4.9-5.2-9.8-10.4-14.6-15.6c2.8-4.1,2.9-6.4,0.7-8.7
		c-2.3-2.3-4.6-2.3-8.2,0.2c-1.4-1.5-2.8-3-4.1-4.6C68,330.1,68.4,328.7,70.5,327L70.5,327z M96.1,335.1c-2.3-2.4-4.5-4.7-6.7-7.2
		c-1.8,1.7-3.5,3.2-5.2,4.9c2.2,2.3,4.1,4.3,6.1,6.3c0.3,0.3,1.2,0.3,1.5,0.1C93.2,337.9,94.5,336.5,96.1,335.1z M108.1,357
		c1.4-1.3,3-2.8,4.8-4.5c-2.6-2.3-5-4.3-7.5-6.5c-1.2,1.2-2.8,2.7-4.6,4.4C103.3,352.6,105.6,354.7,108.1,357z M104.3,343.8
		c-2.3-2.5-4.4-4.7-6.6-7.1c-1.8,1.7-3.4,3.2-5.3,5c2.5,2.2,4.8,4.3,7.3,6.5C101,346.9,102.6,345.4,104.3,343.8L104.3,343.8z
		 M87.8,326.2c-1.8-1.9-3.4-3.7-5-5.3c-0.3-0.3-1.1-0.3-1.4,0c-1.6,1.2-3.1,2.6-4.7,4c2.2,2,4.2,3.9,6.4,5.8
		C84.4,329.4,86,327.8,87.8,326.2L87.8,326.2z M114.5,354.2c-1.8,1.7-3.3,3.2-5,4.8c2.1,1.8,4,3.5,6.1,5.3c0.8-1.1,2-2.4,3-3.9
		c0.3-0.5,0.2-1.5-0.1-1.9C117.3,357,115.9,355.7,114.5,354.2L114.5,354.2z"/>
	<path class="st0" d="M210,421.3c-12.7-1-24.7-3.5-36.3-7.1c-21.6-6.7-41.4-16.9-58.9-31.2c-0.1-0.1-0.3-0.2-0.4-0.4
		c-0.7-0.6-1.8-1.2-1-2.2c0.2-0.3,1.7,0.1,2.3,0.5c14.3,11.4,30,20.3,47.1,26.9c14.7,5.7,29.9,9.4,45.7,11c0.4,0,0.9,0,1.3,0.2
		c0.6,0.3,1,0.8,1.6,1.2C210.7,420.7,210.2,421.2,210,421.3L210,421.3z"/>
	<path class="st0" d="M214.2,404.5c-11.7-0.9-22.7-3.2-33.4-6.6c-19.8-6.2-38-15.6-54.2-28.9c-0.1-0.1-0.3-0.2-0.4-0.3
		c-0.6-0.6-1.7-1.1-0.9-2c0.2-0.3,1.6,0,2.1,0.5c13.1,10.6,27.6,18.9,43.3,25c13.5,5.3,27.5,8.7,42,10.2c0.4,0,0.9,0,1.2,0.2
		c0.5,0.3,1,0.7,1.4,1.1C214.8,403.9,214.3,404.3,214.2,404.5L214.2,404.5z"/>
	<path class="st0" d="M38.5,251.5c0-1-0.2-2-0.1-3c0.1-0.6,0.6-1.1,1-1.6c0.4,0.5,1.1,1,1.2,1.6c0.5,4.3,0.8,8.6,1.4,12.9
		c2.4,17,7.3,33.3,14.6,48.9c1.4,3,2.9,5.8,4.4,8.8c0.4,0.9,1.1,1.9-0.2,2.4c-0.4,0.2-1.5-0.7-1.8-1.3
		C47.2,298.7,40.3,275.9,38.5,251.5L38.5,251.5z"/>
	<path class="st0" d="M58.7,248.1c0-0.9-0.2-1.9-0.1-2.8c0.1-0.5,0.6-1,0.9-1.5c0.4,0.5,1,0.9,1.1,1.5c0.5,4,0.8,8,1.3,11.9
		c2.2,15.7,6.7,30.8,13.5,45.2c1.3,2.7,2.7,5.4,4,8.1c0.4,0.8,1,1.7-0.2,2.2c-0.4,0.1-1.4-0.6-1.7-1.2
		C66.8,291.7,60.4,270.6,58.7,248.1z"/>
	<path class="st0" d="M73.3,339.8c0-2.4,2-4.4,4.3-4.4c2.4,0,4.2,2,4.2,4.6c0,2.3-1.9,4.1-4.3,4.1C75.2,344.2,73.3,342.2,73.3,339.8
		L73.3,339.8z M77.9,337.8c-0.3,0-0.5,0-0.8,0c-0.4,0.7-1.3,1.5-1.1,2.1c0.1,0.6,1.1,1.4,1.8,1.5c0.5,0,1.5-1.1,1.5-1.6
		C79.3,339.1,78.4,338.4,77.9,337.8L77.9,337.8z"/>
	<path class="st0" d="M95.4,364c0-2.4,1.9-4.4,4.2-4.4c2.2-0.1,4.2,2,4.2,4.2c0,2.3-2.1,4.3-4.3,4.3C97.2,368.1,95.4,366.2,95.4,364
		L95.4,364z M99.6,366.2c0.7-1.1,1.6-1.8,1.5-2.3c-0.2-0.7-1.1-1.2-1.7-1.8c-0.5,0.6-1.4,1.2-1.4,1.8
		C97.9,364.5,98.8,365.1,99.6,366.2z"/>
	<g>
		<path class="st0" d="M47.6,249.4c0.3-1,0.7-2.8,1-2.8c1.8,0.1,1.1,1.7,1.3,2.8c0.3,2,0.6,4.1,0.7,6.2c0,0.6-0.5,1.2-0.7,1.9
			c-0.4-0.5-1.1-1-1.2-1.6c-0.4-2.1-0.6-4.2-0.8-6.3C47.8,249.4,47.7,249.4,47.6,249.4L47.6,249.4z"/>
		<path class="st0" d="M53.4,275.2c0.6,0.8,1.1,1.2,1.2,1.7c0.8,2.5,1.5,5,2.1,7.6c0.1,0.5-0.3,1.1-0.5,1.6
			c-0.5-0.3-1.2-0.5-1.3-0.9c-0.8-2.6-1.6-5.3-2.3-7.9C52.6,276.7,53,276.1,53.4,275.2L53.4,275.2z"/>
		<path class="st0" d="M53.1,270.9c-0.2,0.2-0.5,0.8-0.8,0.8c-0.4,0-1.1-0.4-1.1-0.7c-0.6-2.8-1.1-5.6-1.6-8.5
			c-0.1-0.3,0.5-0.7,0.8-1.1c0.4,0.3,1,0.5,1,0.9C52,265.1,52.5,267.9,53.1,270.9L53.1,270.9z"/>
		<path class="st0" d="M58.2,289.8c0.3,0.4,0.7,0.8,0.9,1.3c0.9,2.2,1.8,4.4,2.5,6.7c0.2,0.5-0.1,1.2-0.2,1.8
			c-0.5-0.3-1.3-0.5-1.5-1c-1-2.3-1.9-4.6-2.7-7c-0.2-0.5,0.2-1.2,0.3-1.7C57.8,289.8,58,289.8,58.2,289.8z"/>
		<path class="st0" d="M68.2,312.1c-0.2,0.2-0.4,0.6-0.6,0.6c-0.4,0-1-0.1-1.1-0.4c-1.3-2.5-2.6-5-3.8-7.5c-0.1-0.3,0.2-1,0.4-1.2
			c0.3-0.1,1.1,0.1,1.2,0.3c1.3,2.5,2.5,5,3.7,7.6C68.1,311.6,68.1,311.8,68.2,312.1L68.2,312.1z"/>
	</g>
	<g>
		<path class="st0" d="M201.2,409c2.8,0.4,5.2,0.6,7.6,1c0.5,0.1,0.8,0.7,1.2,1.1c-0.5,0.3-1,0.8-1.4,0.8c-2.4-0.2-4.8-0.5-7.2-0.9
			c-0.4-0.1-0.8-0.7-1.2-1.1C200.6,409.5,201,409.1,201.2,409L201.2,409z"/>
		<path class="st0" d="M188.3,406.5c2.6,0.5,4.8,0.9,7,1.4c0.4,0.1,0.7,0.7,1,1.1c-0.4,0.2-0.9,0.7-1.3,0.7
			c-2.2-0.3-4.4-0.8-6.6-1.3c-0.5-0.1-0.8-0.7-1.2-1.1C187.6,407,188.1,406.7,188.3,406.5L188.3,406.5z"/>
		<path class="st0" d="M182.4,407c-2.4-0.7-4.6-1.3-6.7-2c-0.4-0.1-0.6-0.8-0.9-1.2c0.5-0.2,1-0.6,1.4-0.5c2.2,0.5,4.4,1.1,6.5,1.8
			c0.4,0.1,0.8,0.9,0.7,1.2C183.3,406.6,182.6,406.8,182.4,407L182.4,407z"/>
		<path class="st0" d="M163.6,398.7c2.5,1,4.8,1.8,7.1,2.8c0.2,0.1,0.5,0.9,0.4,1.1c-0.3,0.3-0.9,0.6-1.2,0.5
			c-2.2-0.7-4.4-1.6-6.5-2.4c-0.3-0.1-0.6-0.8-0.6-1.2C162.7,399.2,163.3,399,163.6,398.7L163.6,398.7z"/>
		<path class="st0" d="M129.9,380.5c0.4,0.2,0.8,0.4,1.1,0.6c1.7,1.1,3.4,2.3,5.1,3.5c0.4,0.3,0.4,1,0.6,1.5c-0.5,0-1.1,0.3-1.5,0.1
			c-1.9-1.2-3.8-2.4-5.6-3.7c-0.3-0.2-0.5-0.8-0.5-1.3C129.1,380.9,129.6,380.7,129.9,380.5L129.9,380.5z"/>
		<path class="st0" d="M159.5,397.8c-0.6,0.2-1.1,0.7-1.4,0.5c-2.2-0.9-4.3-1.9-6.5-3c-0.3-0.1-0.5-0.8-0.4-1.1
			c0.1-0.3,0.8-0.7,1-0.6c2.2,0.9,4.4,2,6.6,3C159.1,396.9,159.2,397.3,159.5,397.8L159.5,397.8z"/>
		<path class="st0" d="M140.7,387.5c0.6,0.3,1.1,0.5,1.6,0.8c1.6,0.9,3.3,1.8,4.9,2.8c0.3,0.2,0.3,0.9,0.5,1.4
			c-0.4,0.1-1,0.4-1.3,0.2c-2-1.1-4-2.2-6-3.4c-0.3-0.2-0.5-0.7-0.4-1.1C140,388,140.5,387.8,140.7,387.5L140.7,387.5z"/>
		<path class="st0" d="M122.7,374.7c1.2,1.1,2.4,2,3.5,3.1c0.1,0.1-0.1,0.8-0.3,1c-0.3,0.2-0.9,0.3-1.1,0.1c-1-0.6-1.9-1.4-2.8-2.2
			c-0.2-0.2-0.3-0.8-0.2-1.2C121.8,375.2,122.3,375,122.7,374.7L122.7,374.7z"/>
	</g>
	<path class="st0" d="M350.8,105.3c-2.5-2.9-4.9-5.8-7.4-8.5c-0.3-0.4-1-0.5-1.5-0.6c-1.1-0.2-2.3-0.1-3.3-0.5
		c-0.8-0.3-1.4-1.1-2.1-1.6c0.6-0.5,1.2-1.2,1.8-1.3c2.2-0.4,3.4-1.6,4.3-3.5c0.3-0.6,0.7-1.1,1.3-2c1.9,2.4,3.5,4.8,5.5,6.9
		c2.1,2.1,4.5,3.8,6.8,5.7c-0.1,0.3-0.3,0.5-0.4,0.8c0.3-0.6,0.7-1.1,0.9-1.7c1.1-2.6,2.1-5.2,3.2-7.9c0.2-0.6,0.5-1.1,0.9-1.6
		c0.8-1.1,1.8-1.3,2.4,0.1c0.5,1.1,1.1,2.3,1.1,3.5c-0.1,3.1-0.3,6.2-0.8,9.2c-0.6,3.4,0.3,6.3,2.5,8.9c1.9,2.2,3.6,4.6,5.4,7
		c0.3,0.4,0.7,1,0.7,1.5c0,0.9,0,2-0.5,2.6c-0.4,0.5-1.8,0.7-2.3,0.4c-2.1-1.1-4.3-2.2-6-3.8c-6.5-6.6-4.8-5.6-13.5-5.7
		c-2.3,0-4.7,0-7-0.1c-0.8,0-1.7,0-2.4-0.3c-0.8-0.4-1.7-1.2-1.9-2c-0.1-0.4,1-1.5,1.7-1.8c2.9-1.1,5.9-2,8.9-3
		C349.5,105.8,350.1,105.6,350.8,105.3L350.8,105.3z"/>
	<path class="st0" d="M247.6,48.6c0.6-0.1,1.3-0.2,1.9-0.1c20.2,1.4,39.2,7.1,57.2,16.5c10.2,5.4,19.6,11.9,28.6,19.2
		c1,0.8,2.9,1.6,1.6,3.2c-1.3,1.6-2.3-0.2-3.3-0.9c-12-9.3-24.5-17.8-38.5-23.9c-14.6-6.3-29.6-10.7-45.4-12.6
		c-0.7-0.1-1.5-0.4-2.2-0.6C247.6,49.1,247.6,48.9,247.6,48.6L247.6,48.6z"/>
	<path class="st0" d="M247.9,37.4c0.8,0,1.5-0.1,2.3,0c27.1,2.4,52,10.9,74.5,26.4c6,4.1,11.5,8.9,17.3,13.3
		c0.3,0.2,0.6,0.5,0.8,0.8c0.7,0.7,1.6,1.5,0.5,2.3c-0.4,0.3-1.7,0.1-2.2-0.3c-2.2-1.6-4.2-3.4-6.3-5.1
		c-24.6-20.2-52.8-32-84.3-36.1c-0.9-0.1-1.8-0.3-2.7-0.5C247.8,37.9,247.9,37.6,247.9,37.4L247.9,37.4z"/>
	<path class="st0" d="M412,209.5c-0.1-0.6-0.3-1.1-0.3-1.7c-2.1-19.7-6.7-38.7-14.9-56.8c-4.9-10.7-10.7-20.9-17.3-30.6
		c-0.3-0.5-0.8-0.9-0.9-1.4c-0.1-0.7,0.1-1.4,0.1-2.2c0.7,0.2,1.7,0.3,2,0.8c2.1,2.9,4.1,5.9,6,8.9c11.1,17.8,19.4,36.8,23.2,57.5
		c1.4,7.7,2,15.6,3,23.3c0.1,0.7-0.1,1.4-0.1,2.1C412.4,209.4,412.2,209.5,412,209.5L412,209.5z"/>
	<path class="st0" d="M247.7,60c0.7-0.1,1.4-0.2,2.1-0.2c11.7,0.6,23,3,34,6.9c16.8,5.9,31.8,14.9,45.7,25.9
		c0.8,0.6,1.6,1.3,0.7,2.3c-0.9,1.2-1.7,0.4-2.6-0.3c-13.5-10.4-27.9-19.2-44-25.1c-10.8-4-21.9-6.9-33.4-8.2
		c-0.9-0.1-1.7-0.4-2.6-0.6C247.6,60.5,247.6,60.2,247.7,60L247.7,60z"/>
	<path class="st0" d="M401.9,209.7c-0.2-0.6-0.4-1.2-0.5-1.8c-3.1-28-12-53.8-27.6-77.3c-0.2-0.3-0.5-0.5-0.5-0.8
		c0-0.8,0.1-1.6,0.1-2.3c0.7,0.3,1.8,0.3,2.1,0.9c3.4,5.6,7,11.2,10.1,17c9,17.5,14.5,36.2,16.7,55.8c0.3,2.2,0.3,4.5,0.5,6.8
		c0,0.6-0.1,1.2-0.2,1.7C402.4,209.6,402.2,209.6,401.9,209.7L401.9,209.7z"/>
	<path class="st0" d="M392.6,209.7c-0.2-0.6-0.4-1.2-0.5-1.8c-1.8-16.8-5.6-33.1-12.7-48.5c-4.1-9-9.4-17.4-14.2-26.1
		c-0.1-0.3-0.3-0.5-0.5-0.8c-0.6-0.9-1.3-1.8-0.1-2.6c1.2-0.9,1.8,0.3,2.3,1.1c13.7,20.6,22.9,42.9,25.8,67.6
		c0.4,3.1,0.5,6.1,0.7,9.2c0,0.6-0.2,1.2-0.3,1.8C393,209.7,392.8,209.7,392.6,209.7L392.6,209.7z"/>
	<path class="st0" d="M396.9,307.7c-0.8,1.6-1.8,3.7-2.5,5.3c0.7,1.2,1.9,2.4,1.7,3c-0.7,1.8-1.9,0-3.1,0c-1,1.9-2,3.9-2.8,5.4
		c0.6,1.4,1,2.3,1.5,3.3c-1,0-2,0.1-3.4,0.1c-0.9,1.4-2.1,3.3-3.2,5.2c0.2,1.3,2.9,1.4,1.5,3c-0.4,0.5-2-0.1-3.6-0.2
		c-1.5,2.5-3.2,5.4-5,8.4c-0.5,0.9-1.3,1.7-1.8,2.6c-0.2,0.4-0.2,1-0.2,1.5c0.2,0.1,0.4,0.1,0.6,0.2c0.9-1.1,1.9-2.3,2.8-3.5
		c1,0.5,1.4,1,0.7,2.1c-0.9,1.3-1.6,2.7-2.3,4.1c-0.1,0.3-0.4,0.5-0.6,0.7c-2.9,1.5-4.7,3.8-5.7,6.9c-0.2,0.6-0.8,1.1-1.4,1.5
		c-1.1,0.9-2.3,1.5-3.4,2.4c-4.7,4.4-9.2,8.9-13.9,13.3c-1.5,1.4-3.3,2.3-4.8,3.6c-0.8,0.7-1.3,1.7-2.1,2.5c-0.4,0.5-0.9,1-1.4,1.2
		c-2.9,0.8-4.9,2.6-6.8,4.9c-0.7,0.9-2.1,1.2-3.3,1.7c-0.2,0.1-0.7-0.2-0.9-0.5c-0.1-0.2-0.1-0.9,0.1-1c0.5-0.3,1.2-0.5,1.7-0.8
		c-0.3-0.3-0.6-0.6-0.9-0.9c-4.3,2.9-8.6,5.7-12.5,8.3c-0.2,1.4-0.4,2.4-0.5,3.4c-0.8-0.5-1.6-1-2.8-1.6c-1.5,0.8-3.5,1.8-5,2.6
		c-0.2,1.4-0.4,2.5-0.6,3.5c-0.8-0.4-1.6-0.9-2.4-1.3c0-0.2,0.1-0.4,0.1-0.6c-2,0.9-4,1.9-5.5,2.5c-0.4,1.5-0.6,2.5-0.9,3.5
		c-0.8-0.5-1.6-1.1-2.7-1.9c-1.6,0.6-3.6,1.5-5.6,2.3c-0.3,1.2,1.3,2.7-0.6,3.1c-0.6,0.1-1.5-1-2.7-1.9c-1.5,0.5-3.6,1.3-5.3,1.9
		c-0.3,1.3-0.6,2.3-0.9,3.2c-0.8-0.6-1.6-1.2-2.8-2.1c-1.6,0.5-3.7,1.1-5.2,1.6c-0.6,1.4-0.9,2.3-1.3,3.3c-0.8-0.6-1.5-1.3-2.6-2.2
		c-1.6,0.4-3.7,0.9-5.2,1.3c-0.7,1.4-1.2,2.3-1.7,3.2c-0.7-0.7-1.3-1.4-2.2-2.4c-1.7,0.3-3.9,0.8-5.4,1.1c-0.7,1.3-1.2,2.2-1.7,3.1
		c-0.6-0.7-1.3-1.4-2.2-2.4c-1.6,0.3-3.9,0.6-6.1,0.9c-0.5,1,0.7,2.9-1.3,2.8c-0.6,0-1.2-1.4-2.1-2.4c-0.3,0-1,0.3-1.7,0.2
		c-0.6-0.1-1.1-0.6-1.6-0.9c0.4-0.5,0.7-1.1,1.2-1.4c0.7-0.3,1.6-0.3,2.4-0.4c-0.4-3.4-0.8-6.6-1.1-9.5c-1.3-0.5-2.3-0.9-3.4-1.4
		c0.9-0.7,1.8-1.3,2.6-2c0.3-0.8,0.7-2.7,1.2-2.8c2-0.3,1,1.8,1.9,2.9c1.8-0.3,3.8-0.6,5.4-0.8c0.5-1.4,0.7-3.2,1.3-3.4
		c2-0.5,1,1.8,2.1,2.8c1.7-0.3,3.7-0.7,5.5-1c0.7-1.2-1.2-3.2,1-3.5c0.5-0.1,1.3,1.6,2.2,2.7c1.5-0.4,3.4-0.8,5.2-1.3
		c0.7-1.2-1.2-3,0.8-3.4c0.5-0.1,1.4,1.4,2.6,2.5c1.4-0.4,3.3-1,5.1-1.5c0.4-1.3-1.5-2.9,0.5-3.5c0.5-0.1,1.5,1.4,2.6,2.4
		c1.4-0.5,3.3-1.1,5.1-1.7c0.3-1.3-1.7-2.9,0.4-3.5c0.6-0.2,1.6,1.3,2.8,2.3c1.4-0.6,3.3-1.4,5-2.1c0.2-1.4-1.8-2.7,0-3.5
		c1.9-0.8,1.5,1.8,2.7,2.4c1.7-0.8,3.5-1.7,5.2-2.5c0.2-1.3-1.9-2.7,0-3.5c0.5-0.2,1.8,1.2,3,2c1.4-0.7,3.2-1.7,4.4-2.4
		c0-1.5-0.4-3.2,0.1-3.5c1.8-1.1,1.6,1.3,2.8,1.9c0.5-0.3,1.1-0.8,1.8-1c0.5-0.1,1.2,0.1,1.8,0.2c-0.2,0.6-0.3,1.3-0.7,1.7
		c-0.5,0.5-1.2,0.9-2,1.4c1.5,2.9,3.1,5.7,4.7,8.7c3.3-2.2,6.5-4.2,10.1-6.5c-7.4-1.3-10-5-8.6-12c1.1-5.7,4.5-10,9-13.5
		c5.7-4.6,11.5-9,16.8-14c5.1-4.9,9.5-10.3,14.1-15.7c1.8-2.1,2.7-2.6,5.3-1.6c3.3,1.3,6,3.3,8.3,6.2c-1.3,1.8-2.5,3.5-3.9,5.4
		c-1.9-1.5-3.6-3-5.5-4.5c1-1.4,1.9-2.7,2.8-4c-0.8-1-1.4-1.2-2.1-0.1c-6.7,10.2-15.5,18.4-24.8,26.2c-0.3,0.2-0.6,0.5-0.9,0.7
		c-0.1,0.1-0.1,0.2-0.3,0.5c1.8,2.1,3.6,4.3,5.7,6.7c-6.3,4.9-12.2,9.9-19.7,12.6c-0.1,1.7,0.7,2.1,1.9,1.4c3.8-2.1,7.7-4,11.2-6.5
		c13.5-10,25.5-21.4,35.2-35.2c0.4-0.6,0.8-1.1,1.4-1.8c0.6,0.7,1,1.3,1.7,2.1c1.2-1.8,2.3-3.5,3.5-5.3c-2.4-1.7-4.6-3.9-7.1-4.7
		c-1.7-0.5-2.8-0.5-3.1-2.4c-0.1-0.3-0.8-0.5-1-0.8c-0.3-0.5-0.3-1.1-0.4-1.7c0.6-0.1,1.2-0.3,1.8-0.2c0.5,0.1,1,0.6,1.7,1
		c1-1.7,2-3.4,3-5c-0.6-1.2-3.1-1.2-2-3c1-1.6,2,0.4,3.4,0.4c0.8-1.6,1.8-3.4,2.7-5.1c-0.5-1.3-3.1-1-2.1-2.8
		c0.3-0.5,2.1-0.1,3.6-0.1c0.7-1.4,1.6-3.3,2.4-5.1c-0.5-1.2-3.1-0.8-2.2-2.7c0.2-0.5,2-0.3,3.5-0.4c0.6-1.4,1.4-3.2,2.1-5.1
		c-0.6-1.2-3.1-0.7-2.4-2.6c0.2-0.5,2-0.4,3-0.5l0.3,0.5c0.7-2,1.4-3.9,2.1-5.9c-0.7-1.1-3.2-0.5-2.6-2.5c0.6-1.9,2.2,0,3.5-0.4
		c0.6-1.8,1.1-3.8,1.7-5.7c-0.7-1.1-3.2-0.3-2.6-2.3c0.2-0.5,2-0.5,3.4-0.9c0.4-1.5,0.8-3.5,1.2-5c-1.1-1-1.9-1.8-2.8-2.5
		c1-0.3,2-0.7,3.5-1.2c0.3-1.4,0.7-3.5,1-5.4c-0.9-1-3.3,0-2.8-2.1c0.1-0.5,1.9-0.8,3.4-1.3c0.2-1.4,0.5-3.4,0.7-5.3
		c-0.9-1.1-3.3,0.2-3-1.9c0.1-0.6,1.9-0.9,3-1.4c0.5-0.6,1.1-1.6,1.8-2.5c0.4,1,0.9,2,1.4,3.3c2.4,0.3,5.4,0.6,8.6,0.9
		c0.1-0.8,0-1.5,0.3-2.1c0.3-0.6,0.9-1,1.3-1.5c0.3,0.5,0.8,1,0.9,1.6c0.1,0.6,0,1.3,0.3,1.8c0.7,0.7,1.4,1.3,2.2,2
		c-0.8,0.5-1.6,0.9-2.4,1.4c-0.2-0.1-0.3-0.3-0.5-0.4c-0.3,2.3-0.7,4.5-0.9,6.2c1.1,1,1.9,1.7,2.6,2.4c-0.9,0.4-1.8,0.9-3.2,1.5
		c-0.3,1.6-0.7,3.8-1.1,5.6c1,1,1.7,1.8,2.4,2.5c-0.9,0.4-1.8,0.8-3.2,1.3c-0.4,1.7-0.9,3.9-1.4,6.2c0.2-0.1,0.3-0.1,0.5-0.2
		c0.6,0.8,1.2,1.6,1.8,2.4c-0.9,0.3-1.8,0.6-3.2,1.1c-0.5,1.7-1.2,3.9-1.8,6.1c0.7,1.1,3,0.6,2.1,2.4c-0.3,0.5-1.7,0.5-3.1,0.9
		c-0.6,1.6-1.3,3.8-1.9,5.4c0.8,1.3,1.3,2.2,1.9,3c-0.9,0.2-1.8,0.4-3.3,0.7c-0.6,1.5-1.5,3.6-2.3,5.7c0.4,1.2,2.9,1,1.8,2.7
		C399.8,307.8,398.3,307.6,396.9,307.7L396.9,307.7z M329.9,363.2c-0.1-0.2-0.2-0.4-0.4-0.5c-0.7,0.5-1.6,0.9-2.1,1.6
		c-1.1,1.7-2,3.4-2.8,5.3c-0.7,1.7-0.1,2.3,1.7,2.3c3.8,0.1,8.9-4.2,9.4-8c0.2-1.7-0.5-2.3-2.2-1.7
		C332.3,362.5,331.1,362.8,329.9,363.2L329.9,363.2z M249.8,413.5c2.4-0.4,4.6-0.7,6.9-1.1c-0.6-3.5-1.2-6.6-1.7-9.9
		c-2.2,0.3-4.2,0.6-6.4,0.9C249,406.8,249.4,410,249.8,413.5z M265.8,410.7c-0.7-3.4-1.4-6.6-2.1-9.8c-2.2,0.4-4.2,0.8-6.4,1.2
		c0.6,3.4,1.1,6.6,1.7,10C261.4,411.5,263.5,411.1,265.8,410.7L265.8,410.7z M283.2,395.6c1,3.2,2,6.3,3,9.5
		c2.3-0.8,4.4-1.6,6.5-2.3c-1.2-3.2-2.3-6.3-3.4-9.4C287.2,394.2,285.3,394.9,283.2,395.6L283.2,395.6z M268.3,410.2
		c2.4-0.6,4.5-1.1,6.7-1.7c-0.9-3.3-1.7-6.4-2.6-9.7c-2.2,0.6-4.1,1.1-6.2,1.6C266.9,403.7,267.5,406.8,268.3,410.2z M297.6,390.2
		c-2.1,0.9-4,1.7-6,2.5c1.2,3.2,2.3,6.2,3.5,9.3c2.2-0.9,4.2-1.8,6.4-2.6C300.2,396.3,298.9,393.3,297.6,390.2L297.6,390.2z
		 M402.1,288.2c-3.1-1-5.9-2-9-3c-0.8,2.2-1.5,4.2-2.2,6.4c3,1.2,5.8,2.3,8.8,3.5C400.5,292.7,401.2,290.6,402.1,288.2L402.1,288.2z
		 M274.8,398.2c0.9,3.3,1.7,6.4,2.5,9.7c2.3-0.7,4.4-1.4,6.6-2c-1-3.3-2-6.3-3-9.5C278.8,397,276.9,397.6,274.8,398.2z M313.4,382.3
		c-2,1.1-3.8,2-5.7,3c1.5,3.1,2.9,5.9,4.4,8.9c2.1-1.1,4-2.1,6-3.2C316.6,388.1,315,385.3,313.4,382.3L313.4,382.3z M303.7,398.4
		c2.2-1.1,4.1-2,6.2-3c-1.5-3.1-2.9-6-4.3-9c-2.1,1-3.9,1.9-5.8,2.8C301.1,392.4,302.4,395.3,303.7,398.4L303.7,398.4z M396,304
		c0.9-2.3,1.8-4.4,2.7-6.7c-3-1.2-5.8-2.3-8.8-3.5c-0.9,2.1-1.7,4-2.5,6.2C390.3,301.3,393.1,302.6,396,304L396,304z M383.7,308.1
		c2.8,1.5,5.5,2.9,8.3,4.4c1.1-2.3,2.1-4.4,3.1-6.5c-3-1.4-5.7-2.6-8.6-4C385.6,304.1,384.8,305.9,383.7,308.1L383.7,308.1z
		 M402.8,286c0.7-2.5,1.3-4.7,2-7c-3.2-0.9-6.1-1.6-9.1-2.5c-0.7,2.3-1.2,4.3-1.8,6.4C396.9,284,399.7,285,402.8,286L402.8,286z
		 M399.5,258.9c-0.4,2.3-0.8,4.4-1.2,6.6c3.1,0.7,6.1,1.3,9.2,1.9c0.5-2.4,0.9-4.7,1.3-7C405.6,259.9,402.7,259.4,399.5,258.9
		L399.5,258.9z M407.1,269.8c-3.1-0.7-6.1-1.3-9.2-1.9c-0.5,2.3-1,4.3-1.5,6.5c3.1,0.8,6,1.6,9,2.5
		C406,274.3,406.5,272.1,407.1,269.8L407.1,269.8z M382.6,310.3c-1.1,2-2,3.8-3.1,5.7c2.7,1.6,5.4,3.2,8.2,4.9
		c1.1-2.1,2.2-4,3.3-6.1C388.2,313.2,385.5,311.8,382.6,310.3z M409.2,258c0.3-2.5,0.6-4.7,0.9-7c-3.3-0.3-6.3-0.6-9.3-0.9
		c-0.3,2.3-0.6,4.2-0.9,6.4C403,257,406,257.5,409.2,258z M386.6,322.9c-2.9-1.7-5.5-3.2-8.2-4.8c-1.1,1.9-2.1,3.7-3.2,5.5
		c2.6,1.8,5.1,3.5,7.7,5.3C384.2,326.9,385.3,325,386.6,322.9z M344.3,376.4l0.7,0.2c7.8-6,15.2-12.6,21.9-19.8
		c0.4-0.4,0.4-1.1,0.6-1.7c-0.5,0.2-1,0.3-1.3,0.6c-7.1,6.4-14.1,12.8-21.1,19.3C344.6,375.3,344.5,375.9,344.3,376.4z M342,377.3
		c-1.7,1.2-3.4,2.2-4.9,3.4c-0.4,0.3-0.4,1.1-0.7,2.1C340.8,380.5,342.6,378.8,342,377.3z M374.7,346.9c-0.2-0.1-0.4-0.2-0.6-0.3
		c-1.5,1.7-3,3.4-4.4,5.1c-0.3,0.3-0.2,0.9-0.3,1.4c0.2,0.1,0.4,0.1,0.6,0.2C371.6,351.2,374.1,349.7,374.7,346.9L374.7,346.9z"/>
	<path class="st0" d="M357.2,355c-1.9-2.1-3.3-3.4-4.5-4.8c-0.3-0.3-0.3-1.2,0-1.5c1.4-1.7,2.9-3.3,4.5-5.1c1.8,1.8,3.2,3.2,4.4,4.6
		c0.3,0.3,0.2,1.2,0,1.5C360.3,351.5,358.9,353.1,357.2,355L357.2,355z"/>
	<path class="st0" d="M349.9,351.3c1.6,1.8,3,3.5,4.6,5.3c-2,1.8-3.8,3.4-5.8,5.2c-1.5-1.8-3-3.5-4.6-5.4
		C346.1,354.7,347.9,353.1,349.9,351.3L349.9,351.3z"/>
	<path class="st0" d="M364.5,346.7c-1.6-1.4-3-2.7-4.3-4c-0.3-0.3-0.1-1.1,0-1.7c0-0.1,0.2-0.2,0.2-0.3c4.1-5.1,4.3-5.1,8.9,0.3
		C367.8,342.8,366.2,344.7,364.5,346.7L364.5,346.7z"/>
</g>
</svg>
