<?xml version="1.0" encoding="utf-8"?>
<!-- Generator: Adobe Illustrator 27.3.1, SVG Export Plug-In . SVG Version: 6.00 Build 0)  -->
<svg version="1.1" id="Layer_1" xmlns:serif="http://www.serif.com/"
	 xmlns="http://www.w3.org/2000/svg" xmlns:xlink="http://www.w3.org/1999/xlink" x="0px" y="0px" viewBox="0 0 456 456"
	 style="enable-background:new 0 0 456 456;" xml:space="preserve">
<g>
	<path d="M307.5,226.2c-0.2,23-6.9,41.3-20.9,56.8c-11.7,12.9-26.1,21.3-43.1,24.7c-15.8,3.1-31.3,1.6-46.2-4.8
		c-10-4.3-18.9-10.5-26.4-18.4c-12.1-12.9-19.4-28-21.6-45.6c-2.1-16.3,0.5-31.9,7.5-46.8c5.9-12.6,14.6-22.8,25.8-30.9
		c10.6-7.6,22.5-12.3,35.6-13.9c12.5-1.5,24.7-0.3,36.6,3.9c10.8,3.9,20.3,9.9,28.5,18c12.5,12.4,20,27.3,23.1,44.5
		C307.1,218.6,307.2,223.5,307.5,226.2z M225.5,168.8c-8.8,0.1-19.2,3.1-28.7,9.3c-8.4,5.5-15,12.7-19.7,21.5
		c-4.1,7.7-6.5,16-7.1,24.7c-0.9,12.9,2.1,24.8,8.9,35.8c6.8,10.9,16.2,18.8,28.2,23.6c12.8,5,25.7,5.4,38.7,1.1
		c9.4-3.1,17.5-8.4,24.3-15.7c8.2-8.8,13.2-19.2,15.3-31c1.4-8.1,0.9-16.1-1.1-24.1c-3.5-14.4-11.2-26-23.2-34.6
		C251.3,172.2,240.1,168.8,225.5,168.8z M230.6,166.6c2.5,0.3,4.7,0.5,6.8,0.8c10.1,1.5,19,5.5,27.1,11.8
		c12,9.3,19.3,21.6,22.4,36.4c0.6,3,0.8,6.1,1.3,9.2c0.8,4.6,4.9,7.6,9.4,7c4.5-0.6,7.7-4.4,7.3-9c-0.2-3.2-0.6-6.3-1.2-9.4
		c-1.7-9.2-5-17.8-9.7-25.9c-6-10.3-13.9-18.8-23.7-25.5c-9-6.2-19-10.1-29.8-11.9c-3.2-0.5-6.4-0.7-9.7-1.1
		c-0.1,0.1-0.1,0.2-0.2,0.4c2.8,2.2,4.2,5.2,4.2,8.6C235,161.3,233.6,164.2,230.6,166.6z M226.8,289.8c-0.5,0-0.7,0-1-0.1
		c-6.8-0.3-13.5-1.6-19.8-4.2c-9.8-4-18-10.1-24.7-18.4c-5.9-7.3-10-15.5-12-24.7c-0.8-3.6-1.2-7.3-1.8-11c-0.7-4.4-4.9-7.3-9.4-6.8
		c-4.3,0.5-7.5,4.3-7.3,8.6c0.1,1.9,0.3,3.8,0.5,5.7c1.3,10.5,4.7,20.4,10.1,29.5c5.9,10,13.5,18.3,23.1,25
		c11.4,7.9,23.9,12.3,37.6,13.5c1.5,0.1,3.1,0.1,5,0.2c-2.9-2.4-4.3-5.2-4.3-8.7C222.8,295.1,224.2,292.3,226.8,289.8z M167.5,226.2
		c0.4-3.2,0.7-6.4,1.3-9.6c2.9-15,10.1-27.5,22.1-37c9.7-7.7,20.7-12.1,33.1-12.8c4.3-0.3,7.8-3.1,8.6-7c1.3-5.9-3.2-11-9.3-10.7
		c-11.5,0.7-22.3,3.8-32.4,9.5c-12.5,7-22.3,16.8-29.4,29.2c-5.6,9.6-9,20-10.3,31c-0.3,2.5-0.4,4.9-0.6,7.6
		C157.6,221,161.9,221,167.5,226.2z M288.5,230.3c-0.3,3-0.6,5.9-1.1,8.8c-2,11.5-6.9,21.6-14.7,30.4c-8.4,9.5-18.8,15.8-31.2,18.8
		c-3.2,0.8-6.5,1-9.8,1.6c-4.3,0.8-7.5,5.4-6.8,9.7c0.8,4.9,4.5,7.9,9.4,7.5c10.7-1,20.9-4,30.3-9.2c8.7-4.8,16.1-11,22.5-18.6
		c4.7-5.6,8.5-11.8,11.5-18.5c3.9-8.6,5.9-17.7,6.6-27.1c0.1-1.1,0-2.3,0-3.6C298.7,235.3,295.6,235.4,288.5,230.3z"/>
	<path d="M274.9,172c0.1,0.6,0.3,1.2,0.3,1.7c-0.1,1,0.2,1.7,1,2.3c0.7,0.7,1.3,1.6,1.9,2.4c0.2-0.1,0.3-0.2,0.5-0.4
		c0.8-1.6,1.6-3.3,2.5-5c1,0.5,1.3,1.1,1.1,2c-0.3,1.8-0.6,3.6-0.8,5.4c0,0.4,0.2,0.9,0.4,1.2c0.7,0.9,1.6,1.7,2.2,2.7
		c0.3,0.5,0.1,1.2,0.2,1.8c-0.6-0.1-1.4,0-1.9-0.4c-0.7-0.5-1.3-1.2-1.9-1.9c-0.6-0.7-1.2-1-2.2-0.9c-1.8,0.2-3.6,0.3-5.3,0.2
		c-0.6,0-1.1-0.5-1.7-0.7c0-0.2,0-0.4,0.1-0.5c1.8-0.7,3.5-1.3,5.4-2c-0.9-1.1-1.7-2.3-2.7-3.2c-0.4-0.3-1.2-0.2-1.8-0.2
		c-0.7,0-1.4,0-1.5-1.1c2.1-0.2,3.4-1.3,3.8-3.6C274.5,171.9,274.7,171.9,274.9,172z"/>
	<path d="M296.8,229.3c-0.2-2.6-0.3-5.1-0.6-7.7c-1.1-9.8-4.1-19-9-27.5c-0.9-1.5-1.8-3-2.7-4.5c-0.3-0.6-0.7-1.2,0.1-1.6
		c0.8-0.5,1.1,0.1,1.5,0.7c4.8,7.9,8.2,16.3,9.7,25.5c0.8,4.7,0.9,9.6,1.3,14.4c0,0.3-0.1,0.5-0.1,0.8
		C297,229.3,296.9,229.3,296.8,229.3z"/>
	<path d="M300.8,227.5c-0.2-2.3-0.4-4.5-0.6-6.8c-0.9-7.2-2.5-14.2-5.6-20.8c-2-4.3-4.4-8.4-6.6-12.6c-0.3-0.6-0.9-1.2,0.1-1.7
		c0.8-0.4,1.1,0.2,1.5,0.8c6,9.9,9.8,20.5,11,32c0.3,2.6,0.4,5.2,0.5,7.9c0,0.4,0,0.8,0,1.2C301,227.5,300.9,227.5,300.8,227.5z"/>
	<path d="M235.8,153.5c3.1,0.5,6.2,1,9.3,1.6c9.8,2.1,18.7,6.3,26.8,12.3c0.6,0.4,1.8,0.7,1,1.8c-0.7,1.1-1.4,0.1-2-0.4
		c-6.6-5-13.7-9.2-21.7-11.7c-4.1-1.3-8.3-2-12.4-3c-0.4-0.1-0.7-0.1-1.1-0.2C235.8,153.9,235.8,153.7,235.8,153.5z"/>
	<path d="M292.9,228.1c-0.2-1.8-0.4-3.7-0.6-5.5c-1.1-10.3-4.4-19.9-9.9-28.7c-0.4-0.7-1-1.4-1.3-2.2c-0.2-0.4-0.1-1.2,0.1-1.5
		c0.6-0.5,1,0.1,1.4,0.6c3.4,5.5,6,11.4,7.8,17.7c1.7,6.1,2.6,12.3,2.7,18.7c0,0.3-0.1,0.6-0.1,0.8
		C293,228.1,292.9,228.1,292.9,228.1z"/>
	<path d="M235.9,158c2.4,0.4,4.8,0.6,7.2,1.1c9.7,1.9,18.5,5.9,26.5,11.7c0.3,0.2,0.7,0.4,0.9,0.7c0.1,0.3,0.1,0.8,0,1.1
		c-0.1,0.2-0.7,0.3-1,0.2c-0.3-0.1-0.6-0.4-0.8-0.6c-9.3-7.2-19.7-12-31.4-13.6c-0.4-0.1-0.9-0.2-1.3-0.3
		C235.8,158.2,235.8,158.1,235.9,158z"/>
	<path d="M235.3,162.4c0.8,0.1,1.6,0.1,2.5,0.2c10.1,1.2,19.3,4.9,27.7,10.5c0.7,0.5,1.4,0.9,2,1.5c0.2,0.2,0.2,0.8,0.3,1.2
		c-0.4,0.1-1,0.3-1.3,0.2c-1.3-0.8-2.5-1.8-3.7-2.6c-7.8-5.4-16.4-8.9-25.8-10.3c-0.6-0.1-1.1-0.2-1.7-0.4
		C235.3,162.5,235.3,162.4,235.3,162.4z"/>
	<path d="M178.9,283.5c1-1.5,1-2.8,0.2-3.7c-0.8-0.9-1.8-0.9-3.6-0.1c-1.7-1.9-3.4-3.8-5.1-5.7c1.2-1.4,1.4-2.4,0.7-3.4
		c-0.7-1.1-1.6-1.2-3.4-0.8c-0.4,0.1-1.2-0.5-1.5-1.1c-0.2-0.3,0-1.2,0.3-1.5c1.2-1.1,2.4-2.1,3.7-3.1c1.5-1.2,2.4-1.1,3.7,0.4
		c3.8,4.2,7.7,8.5,11.5,12.7c1,1.1,1,2.1,0.4,3.3c-0.7,1.3-1.3,2.7-2.9,3.2c-0.1,0-0.2,0.1-0.3,0.2c-1,1.6-1.8,1.7-3.1,0.3
		C179.3,284,179.1,283.8,178.9,283.5z M172.3,269.1c0.9,0.9,1.6,1.7,2.3,2.5c0.6-0.5,1.1-0.8,1.5-1.3c0.2-0.2,0.3-0.8,0.1-1
		c-0.5-0.7-1.2-1.3-1.8-2.1C173.7,267.9,173.1,268.4,172.3,269.1z M179.9,272.8c-0.8-0.7-1.7-1.4-2.5-2.1c-2.3,1.5-2.3,1.5-0.5,3.5
		c0.3,0.3,0.4,0.6,0.7,1.1C178.5,274.4,179,273.8,179.9,272.8z M180.5,273.9c-0.7,0.7-1.4,1.3-2,1.8c2.3,2.9,2.2,3.2,4.2,0.7
		C182,275.6,181.3,274.8,180.5,273.9z M173.6,266.4c-1.6-2.3-2.1-2.4-3.9-0.4C171.5,268.6,171.7,268.6,173.6,266.4z M181.5,279.2
		c0.8,0.9,1.4,1.6,2.1,2.2c1.8-1.6,1.7-2.7-0.2-4C182.8,277.9,182.2,278.5,181.5,279.2z"/>
	<path d="M222.6,304c-2.2-0.3-4.4-0.4-6.6-0.8c-11.9-2.1-22.7-6.7-32.4-14.1c-0.3-0.2-0.8-0.7-0.7-0.9c0.4-1,0.9-0.3,1.4,0
		c3.2,2.1,6.3,4.4,9.7,6.3c8.4,4.7,17.5,7.4,27.1,8.3C222.3,302.8,222.3,302.8,222.6,304z"/>
	<path d="M154.6,228.5c0.2,2.7,0.3,5.5,0.6,8.2c0.7,8.6,3.2,16.7,6.9,24.5c0.6,1.3,1.3,2.5,1.9,3.7c0.2,0.4,0,0.9,0,1.3
		c-0.2,0-0.3,0.1-0.5,0.1c-1.1-2.2-2.3-4.3-3.3-6.5c-4.3-9.3-6.4-19.2-6.6-29.4c0-0.7,0.4-1.4,0.5-2.1
		C154.3,228.4,154.4,228.5,154.6,228.5z"/>
	<path d="M221.9,295.3c0.2,1.2-0.6,1-1.2,0.9c-3.7-0.7-7.5-1.3-11.2-2.3c-7.7-2.1-14.7-5.8-21.1-10.6c-0.2-0.2-0.4-0.3-0.6-0.5
		c0.3-1.1,0.8-0.7,1.3-0.3c3.1,2,6.2,4.1,9.5,5.9c6.8,3.7,14.2,5.8,22,6.8C221.1,295.1,221.5,295.2,221.9,295.3z"/>
	<path d="M169.6,261.5c-6.1-10.7-8.6-22.4-8.3-34.7c1.1-0.2,1.1,0.4,1.1,1.1c0,5.9,0.5,11.8,2,17.5c1.3,5.1,3.2,10.1,5.8,14.7
		C170.5,260.7,170.6,261.2,169.6,261.5z"/>
	<path d="M170.8,272c0,1.1-0.7,1.9-1.8,1.9c-1.1,0-2-0.8-2-1.9c0-1.1,0.8-1.9,1.9-1.9C170.1,270.1,170.8,270.9,170.8,272z
		 M168.9,271c-0.3,0.5-0.6,0.8-0.6,1c0.1,0.3,0.5,0.6,0.8,0.6c0.2,0,0.6-0.5,0.6-0.7C169.6,271.7,169.2,271.4,168.9,271z"/>
	<path d="M179.2,281.5c0,1.1-0.7,1.9-1.8,1.9c-1,0-1.9-0.7-1.9-1.7c-0.1-1.1,0.7-2,1.8-2C178.4,279.6,179.2,280.4,179.2,281.5z
		 M177.4,282.5c0.3-0.5,0.7-0.8,0.7-1c0-0.3-0.5-0.7-0.7-0.6c-0.3,0-0.7,0.4-0.7,0.7C176.6,281.8,177,282.1,177.4,282.5z"/>
	<path d="M159.1,238.7c-0.1,0.1-0.3,0.4-0.4,0.6c-0.2-0.2-0.6-0.4-0.6-0.6c-0.2-0.7-0.2-1.5-0.3-2.2c0-0.2,0.3-0.4,0.4-0.7
		c0.2,0.2,0.6,0.4,0.6,0.6C159,237,159,237.8,159.1,238.7z"/>
	<path d="M158.6,242c0.1-0.1,0.3-0.4,0.4-0.6c0.2,0.2,0.6,0.4,0.6,0.6c0.2,0.7,0.4,1.4,0.5,2.1c0,0.2-0.2,0.5-0.3,0.7
		c-0.3-0.2-0.7-0.3-0.7-0.5C158.9,243.6,158.8,242.9,158.6,242z"/>
	<path d="M161.6,252.9c0.1-0.2,0.2-0.6,0.3-0.6c0.2,0,0.6,0.1,0.7,0.3c0.3,0.7,0.6,1.5,0.8,2.2c0,0.2-0.2,0.4-0.2,0.6
		c-0.2-0.1-0.6-0.2-0.7-0.4C162.1,254.5,161.9,253.7,161.6,252.9z"/>
	<path d="M160.3,246.8c0.2,0.1,0.4,0.1,0.4,0.2c0.3,1,0.6,2,0.8,3c-0.3,0.1-0.8,0.2-0.8,0.2c-0.3-0.9-0.6-1.9-0.8-2.9
		C159.9,247.1,160.1,247,160.3,246.8z"/>
	<path d="M158.8,231.9c-0.3,0.7-0.5,1.2-0.7,1.7c-0.2-0.5-0.6-1-0.6-1.6c0-0.6,0.3-1.3,0.4-1.9C158.2,230.7,158.5,231.3,158.8,231.9
		z"/>
	<path d="M164.1,257.4c0.2,0.2,0.4,0.3,0.5,0.5c0.4,0.7,0.7,1.4,1,2.1c0.1,0.2-0.1,0.5-0.2,0.6c-0.1,0.1-0.5,0-0.5-0.1
		c-0.4-0.8-0.8-1.7-1.2-2.6C163.7,257.9,164,257.6,164.1,257.4z"/>
	<path d="M189.6,287.3c0.9,0.7,1.7,1.1,2.3,1.7c0,0-0.3,0.5-0.5,0.7c-0.7-0.5-1.5-0.9-2.2-1.4C189.2,288.2,189.5,287.8,189.6,287.3z
		"/>
	<path d="M211,297.5c-0.2,0.2-0.3,0.5-0.4,0.4c-0.9-0.2-1.7-0.5-2.6-0.8c-0.1,0-0.1-0.4-0.1-0.5c0-0.1,0.3-0.3,0.4-0.2
		c0.8,0.2,1.6,0.4,2.4,0.7C210.8,297.1,210.9,297.4,211,297.5z"/>
	<path d="M215.4,299.2c-0.8-0.2-1.4-0.3-2-0.5c-0.2-0.1-0.3-0.4-0.5-0.6c0.2-0.1,0.5-0.4,0.7-0.4c0.7,0.1,1.3,0.2,2,0.4
		c0.2,0.1,0.5,0.5,0.4,0.6C215.9,298.9,215.6,299.1,215.4,299.2z"/>
	<path d="M220.3,300c-0.7-0.1-1.2-0.2-1.7-0.3c-0.2-0.1-0.4-0.4-0.6-0.6c0.3-0.1,0.5-0.4,0.8-0.4c0.5,0,0.9,0,1.4,0.2
		c0.4,0.1,0.7,0.4,1,0.7C220.9,299.7,220.5,299.9,220.3,300z"/>
	<path d="M196.8,291.7c-0.9,0.6-3.1-0.1-3.2-0.9c0-0.2,0.5-0.6,0.6-0.6C195.1,290.7,195.9,291.2,196.8,291.7z"/>
	<path d="M198.8,292.6c0.8,0.4,1.5,0.7,2.2,1.1c0.1,0.1,0.2,0.4,0.2,0.5c-0.1,0.2-0.4,0.4-0.6,0.3c-0.7-0.3-1.5-0.6-2.2-1
		c-0.1-0.1-0.3-0.4-0.2-0.5C198.3,292.9,198.6,292.8,198.8,292.6z"/>
	<path d="M205.3,296.5c-0.8-0.3-1.4-0.4-2-0.7c-0.2-0.1-0.2-0.4-0.4-0.7c0.2-0.1,0.5-0.3,0.7-0.3c0.6,0.1,1.2,0.4,1.8,0.6
		c0.2,0.1,0.3,0.4,0.5,0.6C205.7,296.2,205.5,296.4,205.3,296.5z"/>
	<path d="M188,286.3c-0.4,0.3-0.7,0.5-0.8,0.5c-0.5-0.4-1.1-0.9-1.6-1.3c0.2-0.2,0.4-0.5,0.5-0.4C186.8,285.4,187.3,285.8,188,286.3
		z"/>
	<path d="M172.8,186c-0.6-0.2-1.2-0.4-2-0.7c4.2-4.3,8.3-8.5,12.4-12.8c0.3,0.5,0.6,0.9,1,1.5c0.4-0.9,0.8-1.7,1.1-2.5
		c0.9-2.1,2.4-3.3,4.9-3c1.5,0.2,2.6-0.5,3.3-1.9c1.6-3.2,2.5-3.7,5.9-3.4c0.5-0.4,0.7-0.9,1.1-1.1c5.1-1.9,10.3-3.8,15.5-5.7
		c0.3-0.1,0.6-0.1,0.8-0.2c0.2,1.7-0.9,4.6-2.6,6.5c1.7,0.6,3.3,0.6,4.9-0.2c0.7-0.3,1.3-0.7,1.9-1c0.3-0.1,0.8,0.1,1.2,0.2
		c-0.1,0.4-0.2,0.9-0.4,1c-2.3,1.4-4.8,2.3-7.6,1.5c-1.1-0.3-2.1-0.6-3.2-0.8c-1.8-0.3-3.2,0.3-4.2,1.8c-1.5,2.6-3.5,3.7-6.6,3.2
		c-1.7-0.3-2.3,0.2-3.1,1.8c-1.2,2.6-2.2,3.3-5.1,3.2c-1.8,0-2.5,0.3-3,2c-0.8,2.8-2.7,4.2-5.5,4.7c-2.5,0.4-3.6,1.7-3.8,4.3
		c-0.2,2.4-1.3,4.3-3.7,5.2c-1.9,0.7-2.8,1.9-2.7,4.1c0.1,1.8-0.7,3.3-2.4,4.1c-1.8,0.9-2.7,2.1-2.2,4.3c0.5,2.2-0.4,3.9-2.2,5.3
		c-1.8,1.4-2.1,2.1-1.4,4.4c0.8,2.5,0.6,4.7-1.3,6.7c-0.6,0.6-0.9,1.5-1.4,2.3c-0.3-0.1-0.7-0.3-1.3-0.5c0.6-1.1,1-2.2,1.7-3.1
		c1.2-1.5,1.4-3,0.9-4.7c-1-3.3-0.7-4.4,2-6.5c1.2-1,1.8-2.1,1.4-3.7c-0.6-2.6,0.3-4.6,2.7-5.8c1.3-0.6,1.9-1.8,1.8-3.2
		c-0.2-2.5,1-4.2,3.3-5.1c2-0.8,3-2.1,2.9-4.3c-0.1,0-0.2-0.1-0.3-0.1c-1.7,1.9-3.9,3.1-6.3,4c-1.3,0.5-1.8,1.5-1.7,2.8
		c0.3,2.6-0.9,4.3-3.1,5.6c-2.2,1.2-2.4,1.7-1.8,4.1c0.5,2.1-0.1,3.7-1.6,5.1c-2.5,2.2-2.6,3-1.5,6.1c0.7,1.8,0.6,3.6-0.7,5.1
		c-0.1,0.1-0.1,0.1-0.2,0.2c-0.5,0.8-0.9,1.8-1.6,2.4c-0.6,0.5-1.6,0.6-2.6,1c0.3-1.6,0.6-3,0.9-4.5c0.5-2.2,1.1-4.4,1.7-6.6
		c0.5-1.9,1.3-3.5,2.8-4.7c1.4-1.1,1.7-2.4,1.3-4.2c-0.6-2.4,0.1-4.1,2.3-5.2c1.9-1,2.9-2.2,2.7-4.5c-0.2-1.9,0.8-3.4,2.7-4.2
		C171.7,186.5,172.2,186.2,172.8,186z M205.1,165c-1.9,0-3.7,0.2-5.5,0c-2.8-0.4-3.5-0.2-4.6,2.3c-1,2.1-2.6,3-4.8,2.9
		c-2-0.1-2.7,0.4-3.5,2.3c-0.4,0.9-0.7,2-1.4,2.7c-1.1,1-1.2,2.3-1.6,3.6c1.9-0.3,3.2-1.1,3.7-2.9c0.1-0.3,0.3-0.6,0.4-0.9
		c0.8-1.9,2.2-2.8,4.2-2.6c1.9,0.2,3.1-0.6,3.9-2.3c1.2-2.5,2.5-3.1,5.2-2.7C203.1,167.4,204.3,166.8,205.1,165z"/>
	<path d="M206.9,154.4c0.3,1.4,1.1,1.6,2.2,0.9c0.1-0.1,0.3-0.2,0.5-0.2c0.9,0.1,1.8,0.1,2.9,0.3c0.1,0.2,0.3,0.8,0.6,1.5
		c-3.8,1.4-7.4,2.7-11.1,4.1c-1-1.6-1-1.9,0.6-2.5c0.2-0.1,0.4-0.2,0.6-0.4c0.4-0.3,0.6-0.7,1-0.9c0.7-0.3,1.2-0.5,0.9-1.4
		C204.9,155,205,154.9,206.9,154.4z"/>
	<path d="M172.2,182.7c-0.4-0.4-0.8-0.9-1.2-1.3c0.4-0.8,1.4-1.3,1-2.5c-0.1-0.3,1-0.9,1.5-1.4c-0.4-0.5-0.7-1-1.1-1.4
		c0.4-0.4,0.8-0.8,1.3-1.2c0.5,0.3,0.9,0.5,1.5,0.8c0.5-0.6,1.1-1.1,1.6-1.7c1.3,1,1.6-0.6,2.6-1.1c0.3,0.3,0.7,0.7,1.4,1.3
		c-3.1,2.8-6,5.4-8.8,8C172,182.4,172.1,182.5,172.2,182.7z"/>
	<path d="M156.9,216.4c-0.9-0.4-1.6-0.8-1.3-1.8c0.4-1.2-0.6-1.3-1.4-1.6c0.1-0.6,0.3-1.1,0.4-1.7c0.6,0.1,1.1,0.1,1.7,0.2
		c0.8-0.8,0.4-2.7,2.5-2.5C158.1,211.5,157.5,213.9,156.9,216.4z"/>
	<path d="M218.6,160.7c-0.2-0.2-0.5-0.3-0.6-0.5c0-0.3,0-0.8,0.2-0.9c1.2-0.6,2.4-1.2,3.6-1.8c0.2-0.1,0.6,0.2,0.7,0.4
		c0.1,0.2,0,0.7-0.1,0.8C221.2,159.4,219.9,160,218.6,160.7z"/>
	<path d="M284.7,268.7c-0.7,0.9-1.3,1.6-1.8,2.2c-1.9-1.2-1.9-1.2-1-3.5c-3.4,3.7-6.8,7.3-10.3,11c0.3,0.4,0.7,0.9,1.2,1.5
		c0.6,0.7,0.5,1.4-0.2,2c-1.9,1.4-3.8,2.9-5.6,4.3c-0.3,0.2-0.6,0.4-0.7,0.8c7.6-4.4,13.6-10.6,18.8-17.6c1.9,1.2,1.1,2.8,0.4,4.3
		c1.5-0.1,1.2-2.6,3.2-2c-5.6,8.3-12.7,14.8-20.8,20.2c-0.9-0.8-0.4-1.1,0.2-1.4c0.5-0.3,1-0.7,1.5-1.4c-0.4,0-0.8-0.1-1.2,0
		c-2.9,0.6-4.2-0.5-3.9-3.5c0.3-3.2,1.6-5.8,4.1-7.8c3.7-3,7.1-6.4,10.1-10.2c1.1-1.5,1.7-1.5,3.3-0.5
		C282.8,267.5,283.7,268.1,284.7,268.7z M265.7,284.6c2.5-0.5,4.1-2.6,3.4-4.4C266.5,280.9,265.7,281.9,265.7,284.6z M282.2,278.3
		c-0.1-0.1-0.2-0.3-0.3-0.4c-0.3,0.2-0.7,0.3-0.9,0.5c-2.2,2-4.4,4.1-6.5,6.2c-0.3,0.3-0.4,0.7-0.5,1c0.1,0.1,0.3,0.2,0.4,0.3
		C277,283.4,279.6,280.9,282.2,278.3z"/>
	<path d="M267.3,290.2c-0.8,0.6-1.6,1.1-2.4,1.7c0.2,0.6,0.9,1.4-0.5,1.6c-0.2-0.3-0.4-0.6-0.7-1c-0.7,0.4-1.4,0.8-2.2,1.2
		c0.1,0.4,0.3,0.8,0.4,1.2c-0.3,0.2-0.5,0.3-0.9,0.6c-0.3-0.4-0.5-0.7-0.8-1.1c-0.6,0.3-1.3,0.7-2,1c0.1,0.4,0.2,0.8,0.3,1.2
		c-0.3,0.2-0.6,0.3-0.9,0.5c-0.2-0.4-0.4-0.7-0.7-1.2c-0.7,0.3-1.5,0.6-2.2,1c0.1,0.4,0.2,0.8,0.3,1.1c-0.9,0.9-1.2,0-1.6-0.6
		c-0.8,0.3-1.5,0.6-2.2,0.8c-0.1,0.6,0.6,1.6-0.9,1.5c-0.1-0.3-0.3-0.6-0.6-1.1c-0.7,0.2-1.4,0.5-2.2,0.7c0.1,0.5,0.1,0.8,0.2,1.2
		c-1,0.8-1.3,0-1.5-0.8c-0.8,0.2-1.5,0.4-1.9,0.5c-0.4,0.7-0.7,1.1-0.9,1.5c-0.3-0.3-0.7-0.6-1.2-1c-0.5,0.1-1.2,0.2-1.9,0.4
		c0,0.4,0,0.8,0,1.3c-0.4,0-1,0.1-1,0c-0.5-1.9-1.8-0.7-2.7-0.8c-0.2,0.6,0.2,1.7-1.2,1.3c-0.1-0.3-0.2-0.7-0.3-1
		c-0.8,0-1.5,0-2.2,0c-0.2,0.7,0,1.8-1.3,1.2c-0.1-0.3-0.1-0.7-0.2-1c-0.8,0-1.5,0-2,0c-0.4,0.5-0.7,1-1.1,1.4
		c-0.7-0.9-1.2-1.6-1.9-2.4c1.3,0.1,1.5-0.6,1.4-1.4c0-0.5,0.1-1.1,0-1.6c-0.1-0.4-0.4-0.6-0.7-1c-0.2-0.3-0.3-0.5-0.5-0.8
		c0.8-0.2,1.2-0.8,1.6-1.4c0.4,0.3,0.7,0.6,1.1,0.8c-0.1,0.1-0.1,0.2-0.2,0.3c0.6,0,1.2,0,1.9,0c0.1-0.4,0.1-0.7,0.2-1.5
		c0.6,0.5,1,0.9,1.3,1.2c-0.1,0.1-0.1,0.2-0.2,0.3c0.7-0.1,1.3-0.1,1.7-0.2c0.5-0.6,0.8-1,1.3-1.7c0.2,0.8,0.3,1.1,0.4,1.5
		c0.6-0.1,1.2-0.1,1.7-0.2c0.3-0.5,0.6-0.9,0.8-1.3c0.3,0.3,0.7,0.5,1.2,1c0.3,0,0.9-0.1,1.6-0.3c0-0.4,0-0.8,0-1.7
		c0.7,0.5,1.1,0.8,1.8,1.3c0.3-0.1,0.9-0.2,1.4-0.3c0.3-0.6,0.4-1,0.6-1.4c0.4,0.2,0.7,0.5,1.3,0.8c0.3-0.1,0.9-0.3,1.3-0.4
		c0.2-0.6,0.4-1,0.5-1.5c0.4,0.2,0.8,0.5,1.4,0.9c0.3-0.1,1-0.3,1.6-0.6c-0.1-0.4-0.2-0.8-0.3-1.6c0.8,0.3,1.2,0.5,1.7,0.8
		c0,0.1,0,0.2-0.1,0.3c0.6-0.3,1.2-0.5,1.9-0.8c-0.1-0.4-0.2-0.8-0.3-1.1c0.9-0.9,1.2-0.1,1.6,0.5c0.6-0.3,1.2-0.6,1.4-0.7
		c0.2-0.8,0.4-1.3,0.6-2.1c0.5,0.6,0.8,0.9,1.1,1.2c0.8-0.5,2.2-0.5,1.4-2c0.7-0.9,1.1-0.3,1.5,0.4c0.5-0.3,1-0.5,1.5-0.8
		c0.4,0.9,0.4,0.9-0.7,2c0.5,1,1.1,2,1.6,2.9C265.2,290.7,265.9,289,267.3,290.2z M231.5,300.9c-0.1-1.6-0.2-2.7-0.3-4.2
		c-0.8,0.2-2,0.3-2,0.6c-0.2,1-0.3,2.2,0,3.2C229.2,300.8,230.5,300.8,231.5,300.9z M235.1,300.5c-0.1-1.3-0.3-2.5-0.4-3.8
		c-0.8,0.1-1.5,0.2-2.1,0.2c0,1.3,0,2.5,0,3.7C233.5,300.6,234.3,300.6,235.1,300.5z M248.5,294c-2.3,0.5-2.3,0.5-1.7,2.5
		c0.1,0.5,0.3,1,0.5,1.7c0.8-0.2,1.6-0.5,2.4-0.7C249.2,296.3,248.9,295.2,248.5,294z M240,299.9c0.9-0.2,1.6-0.3,2.4-0.4
		c-0.3-1.3-0.5-2.5-0.8-3.7c-0.9,0.2-1.5,0.3-2.3,0.5C239.6,297.4,239.8,298.6,240,299.9z M261.3,288.3c-0.8,0.4-1.4,0.7-2.1,1.1
		c0.6,1.2,1.1,2.2,1.7,3.4c0.8-0.5,1.5-0.8,2.1-1.2C262.5,290.4,261.9,289.4,261.3,288.3z M255,291.5c-0.8,0.3-1.4,0.6-2.1,0.9
		c0.5,1.2,0.9,2.3,1.3,3.5c0.8-0.4,1.5-0.7,2.3-1.1C256,293.7,255.5,292.6,255,291.5z M256.1,291c0.6,1.2,1.1,2.2,1.6,3.3
		c0.8-0.4,1.5-0.7,2.2-1.1c-0.6-1.2-1.2-2.2-1.8-3.3C257.4,290.3,256.8,290.6,256.1,291z M236.3,300.4c0.9-0.1,1.7-0.2,2.5-0.4
		c-0.2-1.3-0.4-2.5-0.6-3.7c-0.8,0.1-1.4,0.2-2.2,0.3C236.1,298,236.2,299.1,236.3,300.4z M243.7,299.2c0.9-0.3,1.6-0.5,2.4-0.7
		c-0.4-1.3-0.7-2.4-1-3.6c-0.8,0.2-1.4,0.4-2.1,0.6C243.2,296.8,243.4,297.9,243.7,299.2z M253,296.4c-0.2-0.7-0.4-1.2-0.5-1.7
		c-0.7-2-0.7-2-2.7-1.1c-0.1,0-0.1,0.1-0.2,0.2c0.4,1.1,0.8,2.2,1.2,3.3C251.6,296.9,252.2,296.7,253,296.4z"/>
	<path d="M285.9,261.5c0.4-0.6,0.6-1.1,0.8-1.5c-0.2-0.5-0.4-1-0.6-1.4c0.4-0.1,0.8-0.2,1.5-0.4c0.1-0.3,0.4-0.9,0.7-1.5
		c-0.4-0.3-0.7-0.5-0.9-0.7c0-1.1,0.6-1,1.4-0.5c0.3-0.7,0.5-1.3,0.7-1.7c-0.3-0.5-0.5-1-0.7-1.4c0.4-0.1,0.8-0.2,1.4-0.4
		c0.1-0.4,0.4-1,0.6-1.7c-0.4-0.2-0.7-0.4-1.3-0.8c0.6-0.3,1-0.6,1.4-0.8c0.1,0.1,0.2,0.2,0.3,0.2c0.2-0.6,0.3-1.2,0.5-1.9
		c-0.3-0.2-0.6-0.3-1.3-0.7c0.6-0.4,1.1-0.7,1.7-1.1c0-0.5,1.1-1.5-0.6-2c-0.1,0-0.1-0.5,0-0.6c0.4-0.2,0.8-0.4,1.3-0.6
		c0.1-0.4,0.2-1,0.4-1.7c-0.4-0.1-0.7-0.3-1.5-0.5c0.6-0.5,1-0.8,1.7-1.4c0.4-1.4,0.4-1.5-1.2-2c0.5-0.5,0.9-0.8,1.3-1.1
		c0.6-0.3-0.1-1.7,1.4-1.2c0,0.5,0,1,0,1.6c1.2,0.1,2.4,0.2,3.4,0.3c0.9-0.6-0.2-2.2,1.5-2.1c0,0.7,0,1.4,0,2.2
		c0.4,0.1,0.8,0.2,1.6,0.5c-0.6,0.5-1,0.8-1.4,1.2c-0.1-0.1-0.2-0.1-0.2-0.2c-0.1,0.7-0.2,1.4-0.3,1.9c0.5,0.6,0.8,0.9,1.1,1.3
		c-0.4,0.2-0.8,0.4-1.4,0.8c-0.1,0.4-0.2,1.1-0.3,1.6c0.4,0.6,0.7,1,1,1.4c-0.4,0.2-0.8,0.3-1.4,0.6c-0.1,0.3-0.3,0.8-0.4,1.3
		c0,0.3,0.3,0.6,0.4,1c0.2,0.4,0.3,0.7,0.6,1.3c-0.8-0.1-1.1-0.2-1.5-0.2c-0.2,0.8-0.4,1.5-0.6,2.3c0.4,0.2,0.7,0.4,1.5,0.7
		c-0.7,0.4-1.1,0.7-1.6,0.9c-0.1-0.1-0.2-0.2-0.2-0.3c-0.3,0.7-0.6,1.4-0.9,2.1c0.4,0.2,0.7,0.5,1.1,0.7c-0.1,0.3-0.2,0.6-0.4,1
		c-0.4-0.1-0.8-0.2-1.2-0.3c-0.3,0.7-0.6,1.4-0.9,2.2c0.3,0.3,0.6,0.5,1.2,1c-0.7,0.3-1.2,0.5-1.7,0.6c-0.1-0.1-0.1-0.2-0.2-0.3
		c-0.3,0.6-0.6,1.3-1,2c0.3,0.3,0.6,0.5,1,0.8c-0.2,0.3-0.3,0.6-0.5,0.9c-0.4-0.1-0.7-0.2-1.1-0.4c-0.4,0.6-0.7,1.3-1.1,2
		c0.3,0.3,0.6,0.5,0.9,0.8c-0.1,0.3-0.3,0.6-0.4,1c-0.4-0.2-0.7-0.4-1-0.5c-1.5,1.5-1.6,1.9-0.3,3.1c-0.7,0.2-1.2,0.3-1.8,0.4
		c0-0.1-0.1-0.2-0.1-0.3c-0.4,0.4-0.7,0.9-1.1,1.3c-0.8-0.6-0.8-0.6,0.1-2.2c-0.8-0.5-1.6-1.1-2.4-1.6c-0.3-0.1-0.7-0.1-1,0
		c-0.4,0-0.8,0.1-0.8,0.1c-0.2-0.8-0.4-1.3-0.5-1.7c0-0.2,0-0.6,0.1-0.6c0.4-0.1,0.8,0,1.4,0c0.3-0.4,0.6-0.9,1-1.5
		c-0.3-0.3-0.6-0.5-0.9-0.8c0.1-0.3,0.3-0.5,0.5-0.9C285.1,261.2,285.5,261.3,285.9,261.5z M288.4,259c1.2,0.6,2.2,1.2,3.4,1.8
		c0.4-0.8,0.8-1.4,1.1-2.2c-1.2-0.6-2.3-1.1-3.5-1.6C289.1,257.7,288.8,258.3,288.4,259z M296.6,248.2c-1.3-0.3-2.4-0.6-3.7-1
		c-0.2,0.8-0.4,1.4-0.6,2.1c1.2,0.4,2.3,0.8,3.6,1.2C296.2,249.7,296.4,249,296.6,248.2z M285,265.1c1.1,0.7,2.1,1.4,3.2,2.1
		c0.5-0.8,0.8-1.4,1.3-2.1c-1.2-0.7-2.2-1.2-3.3-1.8C285.8,263.9,285.4,264.5,285,265.1z M297.7,243.4c0.2-0.6,0.3-1.2,0.4-1.7
		c0-0.3-0.2-0.7-0.4-0.8c-1-0.2-2.1-0.3-3.2-0.5c-0.1,0.8-0.3,1.5-0.4,2.2C295.4,243,296.5,243.2,297.7,243.4z M292,250.6
		c-0.3,0.7-0.5,1.4-0.8,2.2c1.2,0.4,2.4,0.8,3.6,1.3c0.3-0.8,0.6-1.5,0.8-2.2C294.4,251.4,293.2,251,292,250.6z M289.8,255.8
		c1.3,0.6,2.4,1.1,3.7,1.7c0.2-0.9,0.7-2.1,0.4-2.3c-0.9-0.6-2-0.9-3-1.1C290.7,254.1,290.3,255.1,289.8,255.8z M290.2,264.1
		c0.4-0.8,0.7-1.4,1.1-2.2c-1.2-0.6-2.3-1.1-3.4-1.7c-0.4,0.7-0.7,1.3-1,2C288,262.8,289,263.4,290.2,264.1z M295,237.1
		c-0.1,0.8-0.2,1.5-0.3,2.2c1.3,0.2,2.4,0.4,3.7,0.6c0.1-0.8,0.2-1.5,0.3-2.4C297.4,237.3,296.3,237.2,295,237.1z M293.8,243.9
		c-0.1,0.3-0.1,0.5-0.2,0.7c-0.5,1.1-0.1,1.6,1.1,1.7c0.7,0.1,1.5,0.3,2.3,0.5c0.2-0.8,0.3-1.5,0.5-2.3
		C296.2,244.4,295,244.2,293.8,243.9z"/>
	<path d="M274.9,275.9c0.6,0.7,1.2,1.3,1.7,1.9c-1.4,2.5-2.3,2.5-3.9,0.2c0.2-0.2,0.3-0.5,0.5-0.7
		C273.8,276.9,274.3,276.4,274.9,275.9z"/>
	<path d="M275.6,275.4c2-2.5,1.9-2.9,3.9-0.1c-0.7,0.6-1.4,1.2-2.4,1.9C276.8,276.6,276.2,276,275.6,275.4z"/>
	<path d="M282.4,271.7c-0.8,1-1.4,1.7-2.3,2.7c-0.6-0.8-1.5-1.5-1.5-2.2c0-0.7,0.9-1.7,1.5-1.8C280.8,270.4,281.5,271.2,282.4,271.7
		z"/>
</g>
</svg>
