<?xml version="1.0" encoding="utf-8"?>
<!-- Generator: Adobe Illustrator 27.3.1, SVG Export Plug-In . SVG Version: 6.00 Build 0)  -->
<svg version="1.1" id="Layer_1" xmlns:serif="http://www.serif.com/"
	 xmlns="http://www.w3.org/2000/svg" xmlns:xlink="http://www.w3.org/1999/xlink" x="0px" y="0px" viewBox="0 0 456 456"
	 style="enable-background:new 0 0 456 456;" xml:space="preserve">
<style type="text/css">
	.st0{fill:#111827;}
</style>
<g>
	<path class="st0" d="M228.2,56c0,7.7,0,15.5,0,23.2c0,2.3-0.6,3-2.9,3.1c-44.5,2.4-80,21.7-106.9,56.9c-15.7,20.6-25,44-28.4,69.7
		c-0.5,3.4-0.7,6.9-1,10.3c-0.2,1.8-0.8,2.5-2.7,2.6c-15.2,0-30.3,0-45.5,0c-2.2,0-2.9-0.7-2.9-3.1c0.1-17.1,2.7-33.9,7.6-50.3
		c10.1-34.2,28.1-63.5,53.9-88.1c24.2-23,53.1-37.6,85.4-45.6c13.1-3.2,26.4-5,39.9-5.1c2.9,0,3.4,0.6,3.4,3.4
		C228.3,40.8,228.3,48.4,228.2,56C228.3,56,228.2,56,228.2,56z M223.6,34.3c-53.5,3.5-98.7,23.5-134,64.4
		c-29.4,34-44.5,73.6-46.7,118.5h41.5c3.2-37.3,17.2-69.6,43.4-96.2C154,94.3,186,79.8,223.6,77.6L223.6,34.3L223.6,34.3z"/>
	<path class="st0" d="M227.8,396.6c0,7.5,0,15.1,0,22.7c0,2.8-0.6,3.4-3.5,3.3c-26.9-0.9-52.4-7.4-76.5-19.3
		c-35.5-17.5-63.3-43.5-83.3-77.7c-16.7-28.5-25.4-59.3-26.3-92.3c-0.1-3,0.5-3.5,3.5-3.5c14.7,0,29.4,0,44.1,0
		c2.5,0,3.2,0.7,3.2,2.9c0.9,24.5,7.4,47.4,20.2,68.3c15.8,25.7,37.5,44.9,65,57.5c16.1,7.3,33.1,11.3,50.8,12.1
		c1.9,0.1,2.6,0.8,2.7,3C227.8,381.1,227.8,388.8,227.8,396.6L227.8,396.6L227.8,396.6z M223.2,417.5v-42.4
		c-37.7-2.4-69.7-17.3-96.3-44c-26.6-26.7-40.5-59.2-42.6-96.8h-41C45.2,330.9,127.1,414.2,223.2,417.5L223.2,417.5z"/>
	<path class="st0" d="M235.7,56.1c0-7.6,0-15.2,0-22.8c0-2.8,0.7-3.5,3.5-3.4c33.5,0.7,64.3,10.4,92.8,27.8
		c17.1,10.4,31.9,23.5,44.6,38.8c8.6,10.4,16,21.7,22.2,33.7c14.4,27.6,22.2,56.8,22.5,87.9c0,2.8-0.5,3.3-3.3,3.3
		c-14.6,0-29.1,0.1-43.7,0.1c-2.4,0-3-0.6-3.2-3c-1.6-27.7-9.4-53.4-25.7-76c-22.4-31.2-52.1-51.4-90.3-58.4
		c-5.3-1-10.7-1.2-16.1-1.7c-2.9-0.2-3.4-0.7-3.4-3.5C235.7,71.3,235.7,63.7,235.7,56.1L235.7,56.1L235.7,56.1z M240.4,77.8
		c0.5,0,0.9,0.1,1.2,0.1c10.9,0.5,21.5,2.5,31.8,5.7c20.6,6.3,38.6,17.2,54.4,31.7c29.3,26.8,45,60.3,47.8,99.8
		c0.1,1.6,0.6,2,2.1,1.9c12.2-0.1,24.5-0.1,36.7-0.1c0.7,0,1.4-0.1,2.2-0.1c-2.3-54.5-23.4-100.1-63.5-136.6
		c-31.8-28.9-69.9-43.3-112.9-45.6V77.8z"/>
	<path class="st0" d="M235.3,396.4c0-7.7,0-15.3,0-23c0-2.4,0.5-2.9,2.9-3.1c18-1,35.2-5.4,51.5-13.2c24.2-11.5,43.5-28.8,58.3-51
		c12.3-18.3,19.7-38.5,22.5-60.4c0.6-4.4,0.7-8.9,0.9-13.3c0.1-2.3,0.7-2.9,3-2.9c14.7,0,29.5,0,44.2,0c2.2,0,2.9,0.7,2.9,3
		c0.2,24.3-4.2,47.7-13.2,70.2c-15.9,39.7-42.3,70.6-78.9,92.7c-27.4,16.5-57.2,25.4-89.2,27.2c-5,0.3-5.1,0.2-5.1-4.8
		C235.3,410.6,235.3,403.5,235.3,396.4L235.3,396.4L235.3,396.4z M239.9,417.8c52.7-4,97.2-24.6,132-64.6
		c29.6-34,44.1-74,45.1-119.1h-40.9c-1.8,37.4-15.6,69.5-41.4,96.3c-25.9,26.9-57.6,41.6-94.8,44.6L239.9,417.8L239.9,417.8z"/>
	<path class="st0" d="M97.5,124c-2-0.4-3.8-0.8-5.5-1.1c10.1-10.3,20-20.4,29.9-30.5c3,2.5,3.3,7,1,13.4c3.6,0.6,7.1-1.6,8.6-5.3
		c0.5-1.2,0.8-2.4,1.3-3.5c2-4.4,5.8-6.6,10.6-6.3c3.4,0.2,5.8-1.2,7.4-4.1c0.8-1.4,1.5-2.9,2.4-4.2c2.3-3.2,5.4-4.5,9.3-3.9
		c1.5,0.3,3.1,0.5,4.6,0.4c3.1-0.3,4.7-2.7,6.3-5.6c-1.2,0.1-2.1,0-3,0.2c-3.7,0.7-7.4,0.7-11.1-0.4c-3.9-1.1-6.3,0-8.2,3.6
		c-0.6,1.1-1.1,2.2-1.7,3.3c-2.3,4.2-6,6-10.7,5.6c-3.8-0.3-5.6,0.7-7.3,4c-0.3,0.7-0.7,1.4-1,2.1c-0.4,1.2-1.3,2-2.4,1.3
		c-0.7-0.5-1.4-1.8-1.3-2.6c0.5-4.1,4.6-8.2,8.5-8.8c0.9-0.1,1.8,0,2.7,0.1c3.8,0.5,6.6-0.9,8.5-4.3c0.5-0.9,0.9-1.9,1.4-2.9
		c2.6-5.1,6.3-6.9,11.9-5.5c0.3,0.1,0.7,0.2,0.8-0.2c0.9-0.6,1.7-1.5,2.8-1.9c12.5-4.5,25-8.9,37.5-13.3c0.6-0.2,1.2-0.2,1.9-0.3
		c-0.1,0.7,0,1.4-0.2,2c-0.5,1.7-1,3.3-1.5,4.9c-1,3.3-2.4,6.5-5.7,8.6c3.3,1.9,6.6,2.3,9.9,1.2c2.2-0.7,4.2-1.6,6.4-2.3
		c0.7-0.2,1.7-0.2,2.3,0.2c1.1,0.7,0.8,2.3-0.6,3c-6.7,3.3-13.5,4.8-20.7,1.3c-2.2-1.1-4.8-1.6-7.2-1.7c-3.3-0.1-6,1.6-8,4.3
		c-0.7,1-1.4,2-2.2,3c-2.8,3.8-6.4,5.5-11.2,4.7c-5.4-0.9-6.8-0.1-9.2,4.9c-2.4,5-6.1,7.5-11.8,7.1c-3.2-0.2-5.3,1.2-6.6,4.1
		c-0.6,1.3-1.1,2.6-1.7,3.9c-2,4.6-5.8,6.8-10.6,7.3c-6.7,0.7-9.6,3.5-10.3,10.3c-0.4,4-1.3,7.7-4.5,10.3c-1.5,1.3-3.4,2.2-5.2,3
		c-4.6,1.9-5.9,3.7-5.9,8.6c0,5.2-2.3,8.8-6.7,11.4c-1.2,0.7-2.4,1.6-3.3,2.6c-1.4,1.5-1.8,3.5-1.3,5.5c1.8,6.3-0.4,11.1-5.5,14.9
		c-4,3-4.8,6-3,10.6c2.4,5.8,1.4,10.9-2.6,15.7c-1.3,1.6-2.1,3.6-2.9,5.6c-0.5,1.1-1.1,1.7-2.2,1.6c-1.2-0.2-1.8-1.1-1.4-2.2
		c0.7-2,1.5-4,2.4-5.8c0.6-1.1,1.6-2,2.4-3.1c1.8-2.6,2.4-5.4,1.4-8.5c-0.5-1.4-1-2.8-1.3-4.3c-1.1-4.6,0.3-8.4,3.7-11.6
		c0.7-0.6,1.4-1.1,2.1-1.7c3.1-2.5,4.6-5.7,3.5-9.6c-1.6-5.8,1-10.5,6.2-13.1c3.2-1.6,4.8-4.3,4.8-7.9c0.1-7.1,2.1-9.9,8.7-12.4
		c4.9-1.9,6.9-5.3,6.3-11.3c-1.4,1.5-2.7,2.8-4,4.1c-2.6,2.6-5.6,4.5-9.2,5.5c-4.9,1.4-6.9,4.3-6.6,9.4c0.3,5.2-2,8.8-6.4,11.2
		c-1.1,0.6-2.3,1.2-3.3,2c-2.2,1.8-2.9,4.2-2.3,6.9c0.2,1.1,0.5,2.2,0.7,3.3c0.7,3.5-0.3,6.5-2.6,9.1c-1,1.1-2.1,2.1-3.2,3.1
		c-3.6,3.1-4.8,6.8-3.3,11.3c0.6,1.9,1.3,3.7,1.5,5.6c0.6,4.1-0.7,7.8-3.8,10.6c-2,1.9-3.2,4.1-3.6,6.8c-0.3,1.8-2.8,3-4.5,2.2
		c-1.1-0.5-1-1.4-0.7-2.4c1.7-6.6,3.3-13.3,4.9-19.9c0.7-3,1.4-6,2-9c0.7-3.3,2.2-6.1,4.9-8c4.2-2.9,5.5-6.6,4.1-11.6
		c-1.4-5.2,0.9-9.8,5.7-12.3c1-0.5,2-1,3-1.6c2.2-1.4,3.4-3.5,3.1-6c-0.9-8.1,3.9-13.2,10.8-14.5C96.7,124.3,97,124.2,97.5,124
		L97.5,124z"/>
	<path class="st0" d="M94.6,116.1c-1-1.1-1.8-1.9-2.3-2.8c-0.2-0.4,0-1.2,0.3-1.6c0.9-1.1,2.3-1.8,2.2-3.7c0-0.8,1.3-1.7,2-2.6
		c0.7-0.7,1.4-1.5,2.1-2.2c-0.6-1.5-3.1-2.4-0.7-4.6c2.3-2.1,3,0.8,5.1,1c0.5-0.6,1.1-1.5,1.9-2.3c0.9-0.9,1.5-2.1,3.2-1.7
		c0.5,0.1,1.4-1,2-1.6c2.1-1.9,2.1-1.9,4.1-0.1c0.3,0.2,0.6,0.4,0.8,0.6C108.3,101.9,101.5,108.9,94.6,116.1L94.6,116.1z
		 M107.4,98.6c0.5,1.3,1.2,1.1,1.7,0.4c0.6-0.6,2.1-1,0.8-2.5C109.1,97.3,108.2,97.9,107.4,98.6z M96,111.7c2.4-1.8,2.5-1.9,1.5-3
		C95.5,110.2,95.3,110.6,96,111.7z M101.8,104c-1,0.9-1.5,1.3-2,1.8c-0.2,0.2-0.2,0.6-0.1,0.9c0,0.2,0.5,0.4,0.5,0.4
		c0.6-0.4,1.2-0.9,1.7-1.4C102.1,105.5,101.9,104.9,101.8,104L101.8,104z M106.2,101.9c-0.1-0.3-0.1-0.5-0.2-0.8
		c-0.5,0.1-1.1-0.1-1.5,0.2c-0.3,0.3-0.2,0.9-0.3,1.4C104.9,102.5,105.6,102.2,106.2,101.9z"/>
	<path class="st0" d="M165.6,63.3c-0.3-0.8-0.5-1.2-0.6-1.7c-0.5-1.6,0.1-2.6,1.6-3.2c1-0.3,1.7-0.7,2.4-1.8
		c0.6-0.9,2.2-1.3,3.4-1.8c1.6-0.5,2.3-1.4,1.6-3c-0.8-1.9,0.8-2,1.9-2.5c1.2-0.5,2.1-0.3,2.5,1c0.2,0.6,0.5,1.2,0.9,1.9
		c1.6-0.5,3.1-1.1,4.7-1.5c0.6-0.2,1.4,0.2,2.1,0.2c0.6,0,1.2,0.1,1.8-0.1c3.5-1.1,3.6-1.1,4.3,2.9C183.4,56.9,174.6,60,165.6,63.3
		L165.6,63.3z M169,58.6c0.4,2.1,1.4,1.3,2.1,0.9c0.3-0.2,0.4-0.7,0.6-1.1C170.9,58.4,170,58.5,169,58.6z M177.9,56.9
		c-0.7-0.4-1.1-0.9-1.3-0.8c-0.7,0.2-1.4,0.7-2.1,1c0.3,0.3,0.7,0.8,0.9,0.8C176.1,57.7,176.8,57.3,177.9,56.9L177.9,56.9z
		 M180.5,56.3c0.8-0.5,1.4-0.9,2-1.3c-0.3-0.3-0.7-0.9-0.8-0.8c-0.7,0.3-1.3,0.7-1.9,1.1C180,55.5,180.2,55.8,180.5,56.3L180.5,56.3
		z M187.9,53.3c-0.8-0.4-1.2-0.7-1.4-0.7c-0.6,0.2-1.2,0.6-1.7,1c0.3,0.3,0.7,0.8,0.9,0.7C186.3,54.2,186.9,53.8,187.9,53.3
		L187.9,53.3z"/>
	<path class="st0" d="M57.4,197.4c-0.9-0.8-1.8-1.3-2.3-2c-0.3-0.5-0.1-1.5,0.1-2.2c0.6-2.4,0.6-2.6-1.9-3.2
		c-1.6-0.4-1.7-1.3-1.4-2.6c0.3-1.4,0.8-2.3,2.5-1.9c2.4,0.6,2.5,0.5,3.2-2c0.3-1.1,0.5-2.3,1.1-3.2c0.4-0.6,1.5-1.3,2.2-1.2
		c1.1,0.1,1,1.2,0.7,2.1c-1.3,4.9-2.5,9.9-3.7,14.9C57.9,196.5,57.6,196.8,57.4,197.4L57.4,197.4z"/>
	<path class="st0" d="M205.7,64.7c-0.3-0.3-1.2-0.8-1.1-1.1c0.2-0.9,0.5-2.2,1.2-2.5c2.4-1.2,4.9-2,7.4-2.9c1.2-0.4,2.2-0.2,2.6,1
		c0.5,1.2-0.3,1.9-1.3,2.3c-2.2,0.9-4.4,1.8-6.6,2.6C207.3,64.4,206.6,64.5,205.7,64.7L205.7,64.7z"/>
	<path class="st0" d="M80.9,319.8c0.5,0.4,0.9,0.7,1.4,1c0.5-0.4,0.9-0.7,1.3-1.1c-0.3-0.5-0.6-0.9-0.9-1.4c0.1-0.2,0.2-0.3,0.3-0.4
		c2.2-1.9,4.4-3.8,6.6-5.7c2.1-1.8,4.2-1.7,6.2,0.2c1.8,1.8,3.5,3.7,5.3,5.6c8.7,9.3,17.5,18.5,26.2,27.8c2.7,2.8,2.9,4.7,0.6,7.9
		c-1.7,2.3-3.8,4.4-5.7,6.6c-0.7-0.5-1.1-0.7-1.6-1.1c-0.2,0.2-0.7,0.3-0.7,0.6c-0.1,0.6,0,1.2,0,2.2c-1.3,1.7-2.9,1.9-4.8,0.2
		c-1.2-1-2.4-2.1-3.5-3.1c2.5-3.8,2.6-6.1,0.7-8.1c-1.9-2-4-1.9-7.5,0.3c-4.6-4.9-9.2-9.9-13.8-14.8c2.6-3.9,2.8-6.1,0.6-8.2
		c-2.2-2.2-4.3-2.2-7.8,0.2c-1.3-1.4-2.7-2.8-3.9-4.3C78.5,322.7,78.9,321.4,80.9,319.8L80.9,319.8z M105.1,327.4
		c-2.2-2.3-4.2-4.5-6.4-6.8c-1.7,1.6-3.3,3.1-5,4.6c2,2.1,3.8,4.1,5.7,6c0.3,0.3,1.2,0.3,1.4,0.1
		C102.3,330.1,103.6,328.8,105.1,327.4z M116.5,348.1c1.3-1.3,2.8-2.7,4.6-4.3c-2.5-2.1-4.7-4.1-7.1-6.2c-1.2,1.1-2.7,2.5-4.4,4.2
		C111.9,344,114.1,346,116.5,348.1z M112.9,335.7c-2.2-2.3-4.1-4.4-6.2-6.7c-1.7,1.6-3.2,3-5,4.7c2.4,2.1,4.6,4.1,6.9,6.1
		C109.8,338.6,111.3,337.2,112.9,335.7L112.9,335.7z M97.3,319.1c-1.7-1.8-3.2-3.5-4.8-5.1c-0.2-0.2-1.1-0.2-1.3,0
		c-1.5,1.2-2.9,2.4-4.5,3.8c2.1,1.9,4,3.7,6,5.5C94,322,95.6,320.6,97.3,319.1L97.3,319.1z M122.5,345.5c-1.7,1.6-3.2,3-4.8,4.5
		c1.9,1.7,3.8,3.3,5.8,5c0.8-1,1.9-2.3,2.9-3.7c0.3-0.4,0.2-1.4-0.1-1.8C125.1,348.2,123.8,347,122.5,345.5L122.5,345.5z"/>
	<path class="st0" d="M212.8,409c-12.1-0.9-23.3-3.3-34.4-6.7c-20.4-6.3-39.1-15.9-55.7-29.5c-0.1-0.1-0.3-0.2-0.4-0.3
		c-0.6-0.6-1.7-1.1-0.9-2.1c0.2-0.3,1.6,0,2.2,0.5c13.5,10.8,28.4,19.2,44.5,25.5c13.9,5.4,28.3,8.9,43.2,10.4c0.4,0,0.9,0,1.2,0.2
		c0.5,0.3,1,0.8,1.5,1.2C213.5,408.4,213,408.8,212.8,409L212.8,409z"/>
	<path class="st0" d="M216.7,393.1c-11.1-0.9-21.4-3-31.6-6.2c-18.8-5.9-36-14.8-51.2-27.3c-0.1-0.1-0.3-0.2-0.4-0.3
		c-0.6-0.5-1.6-1-0.8-1.9c0.2-0.3,1.5,0,2,0.5c12.4,10,26.1,17.8,40.9,23.6c12.8,5,26,8.2,39.7,9.6c0.4,0,0.8,0,1.1,0.2
		c0.5,0.3,0.9,0.7,1.4,1.1C217.4,392.5,216.9,392.9,216.7,393.1L216.7,393.1z"/>
	<path class="st0" d="M50.6,248.4c0-1-0.2-1.9-0.1-2.8c0.1-0.5,0.6-1,0.9-1.5c0.4,0.5,1,1,1.1,1.5c0.5,4.1,0.8,8.2,1.4,12.2
		c2.2,16.1,6.9,31.5,13.8,46.2c1.3,2.8,2.7,5.5,4.1,8.3c0.4,0.8,1,1.8-0.2,2.2c-0.4,0.1-1.4-0.6-1.7-1.2
		C58.9,293,52.3,271.4,50.6,248.4L50.6,248.4z"/>
	<path class="st0" d="M69.7,245.2c0-0.9-0.2-1.8-0.1-2.6c0.1-0.5,0.5-0.9,0.8-1.4c0.4,0.5,1,0.9,1,1.4c0.5,3.8,0.7,7.5,1.3,11.3
		c2.1,14.9,6.4,29.1,12.7,42.7c1.2,2.6,2.5,5.1,3.8,7.7c0.4,0.7,0.9,1.6-0.2,2.1c-0.3,0.1-1.3-0.6-1.6-1.1
		C77.4,286.4,71.3,266.5,69.7,245.2z"/>
	<path class="st0" d="M83.6,331.9c0-2.2,1.9-4.1,4.1-4.1c2.3,0,4,1.9,4,4.4c0,2.2-1.8,3.9-4,3.9C85.3,336,83.5,334.2,83.6,331.9
		L83.6,331.9z M87.9,330c-0.2,0-0.5,0-0.7,0c-0.4,0.7-1.2,1.4-1.1,2c0.1,0.6,1.1,1.4,1.7,1.4c0.4,0,1.4-1,1.4-1.5
		C89.2,331.2,88.4,330.6,87.9,330L87.9,330z"/>
	<path class="st0" d="M104.4,354.8c0-2.3,1.8-4.1,4-4.2c2.1-0.1,4,1.9,4,4c0,2.1-2,4.1-4.1,4.1C106.2,358.7,104.4,356.9,104.4,354.8
		L104.4,354.8z M108.4,356.8c0.7-1,1.6-1.7,1.4-2.2c-0.2-0.6-1.1-1.1-1.6-1.7c-0.5,0.6-1.3,1.1-1.4,1.7
		C106.8,355.2,107.6,355.8,108.4,356.8z"/>
	<g>
		<path class="st0" d="M59.2,246.4c0.3-0.9,0.7-2.6,1-2.6c1.7,0.1,1.1,1.6,1.2,2.6c0.3,1.9,0.5,3.9,0.6,5.8c0,0.6-0.4,1.2-0.7,1.8
			c-0.4-0.5-1-0.9-1.1-1.5c-0.4-2-0.5-4-0.8-6C59.4,246.5,59.3,246.4,59.2,246.4L59.2,246.4z"/>
		<path class="st0" d="M64.7,270.8c0.6,0.8,1,1.1,1.1,1.6c0.7,2.4,1.4,4.7,2,7.1c0.1,0.4-0.3,1-0.5,1.5c-0.4-0.3-1.1-0.5-1.2-0.9
			c-0.8-2.5-1.5-5-2.1-7.5C64,272.2,64.4,271.7,64.7,270.8L64.7,270.8z"/>
		<path class="st0" d="M64.5,266.7c-0.2,0.2-0.4,0.8-0.8,0.8c-0.3,0-1-0.4-1.1-0.7c-0.6-2.7-1.1-5.3-1.5-8c0-0.3,0.5-0.7,0.8-1
			c0.3,0.3,0.9,0.5,1,0.8C63.4,261.3,63.9,263.9,64.5,266.7L64.5,266.7z"/>
		<path class="st0" d="M69.3,284.6c0.3,0.4,0.6,0.8,0.8,1.2c0.8,2.1,1.7,4.2,2.4,6.3c0.2,0.5-0.1,1.1-0.2,1.7
			c-0.5-0.3-1.2-0.5-1.4-0.9c-0.9-2.2-1.8-4.4-2.6-6.6c-0.2-0.5,0.2-1.1,0.3-1.6C68.9,284.7,69.1,284.6,69.3,284.6z"/>
		<path class="st0" d="M78.7,305.7c-0.2,0.2-0.3,0.5-0.5,0.5c-0.4,0-0.9-0.1-1-0.4c-1.2-2.3-2.4-4.7-3.6-7.1c-0.1-0.3,0.1-1,0.4-1.1
			c0.3-0.1,1,0.1,1.1,0.3c1.2,2.4,2.3,4.8,3.5,7.2C78.7,305.2,78.6,305.4,78.7,305.7L78.7,305.7z"/>
	</g>
	<g>
		<path class="st0" d="M204.5,397.3c2.7,0.3,5,0.6,7.2,1c0.4,0.1,0.8,0.7,1.2,1c-0.5,0.3-0.9,0.8-1.4,0.7c-2.3-0.2-4.6-0.5-6.8-0.8
			c-0.4-0.1-0.8-0.7-1.1-1.1C203.9,397.8,204.3,397.5,204.5,397.3L204.5,397.3z"/>
		<path class="st0" d="M192.3,395c2.4,0.5,4.5,0.9,6.6,1.4c0.4,0.1,0.6,0.7,1,1.1c-0.4,0.2-0.9,0.7-1.2,0.6
			c-2.1-0.3-4.2-0.7-6.2-1.2c-0.4-0.1-0.7-0.7-1.1-1.1C191.7,395.4,192.1,395.1,192.3,395L192.3,395z"/>
		<path class="st0" d="M186.7,395.5c-2.3-0.7-4.4-1.2-6.4-1.9c-0.4-0.1-0.5-0.7-0.8-1.1c0.5-0.2,1-0.6,1.3-0.5
			c2.1,0.5,4.1,1.1,6.1,1.7c0.3,0.1,0.8,0.8,0.7,1.2C187.6,395.1,186.9,395.3,186.7,395.5L186.7,395.5z"/>
		<path class="st0" d="M168.9,387.6c2.3,0.9,4.5,1.7,6.7,2.7c0.2,0.1,0.5,0.9,0.3,1c-0.3,0.3-0.8,0.6-1.1,0.5
			c-2.1-0.7-4.1-1.5-6.2-2.3c-0.3-0.1-0.6-0.7-0.6-1.1C168.1,388.1,168.6,387.8,168.9,387.6L168.9,387.6z"/>
		<path class="st0" d="M137,370.4c0.4,0.2,0.7,0.3,1,0.5c1.6,1.1,3.3,2.1,4.8,3.3c0.3,0.3,0.4,0.9,0.6,1.4c-0.5,0-1.1,0.3-1.4,0.1
			c-1.8-1.1-3.6-2.3-5.3-3.5c-0.3-0.2-0.5-0.8-0.5-1.2C136.3,370.8,136.8,370.6,137,370.4L137,370.4z"/>
		<path class="st0" d="M165,386.8c-0.5,0.2-1,0.6-1.3,0.5c-2.1-0.9-4.1-1.8-6.1-2.8c-0.2-0.1-0.5-0.7-0.4-1c0.1-0.3,0.7-0.6,0.9-0.5
			c2.1,0.9,4.2,1.9,6.3,2.9C164.7,385.9,164.7,386.3,165,386.8L165,386.8z"/>
		<path class="st0" d="M147.3,377c0.5,0.3,1,0.5,1.5,0.8c1.5,0.9,3.1,1.7,4.6,2.6c0.3,0.2,0.3,0.8,0.5,1.3c-0.4,0.1-0.9,0.4-1.2,0.2
			c-1.9-1-3.8-2.1-5.7-3.2c-0.3-0.2-0.4-0.7-0.4-1C146.6,377.4,147.1,377.2,147.3,377L147.3,377z"/>
		<path class="st0" d="M130.3,364.9c1.2,1,2.3,1.9,3.3,2.9c0.1,0.1,0,0.8-0.3,0.9c-0.3,0.2-0.8,0.3-1.1,0.1c-0.9-0.6-1.8-1.3-2.7-2
			c-0.2-0.2-0.3-0.8-0.2-1.1C129.4,365.4,129.8,365.2,130.3,364.9L130.3,364.9z"/>
	</g>
	<path class="st0" d="M346,110.2c-2.4-2.8-4.6-5.4-7-8c-0.3-0.4-0.9-0.5-1.4-0.6c-1.1-0.2-2.2-0.1-3.2-0.4c-0.8-0.3-1.3-1-2-1.5
		c0.6-0.4,1.1-1.2,1.7-1.3c2-0.4,3.3-1.5,4.1-3.3c0.2-0.6,0.7-1.1,1.2-1.9c1.8,2.3,3.4,4.6,5.2,6.5c1.9,2,4.2,3.6,6.4,5.4
		c-0.1,0.3-0.3,0.5-0.4,0.8c0.3-0.5,0.6-1,0.9-1.6c1-2.5,2-5,3-7.4c0.2-0.5,0.5-1.1,0.8-1.6c0.8-1.1,1.7-1.2,2.3,0.1
		c0.5,1,1,2.2,1,3.3c-0.1,2.9-0.3,5.8-0.8,8.7c-0.6,3.3,0.2,5.9,2.3,8.4c1.8,2.1,3.4,4.4,5.1,6.6c0.3,0.4,0.7,0.9,0.7,1.4
		c0,0.8,0,1.9-0.5,2.4c-0.4,0.5-1.7,0.7-2.2,0.4c-2-1-4.1-2.1-5.6-3.6c-6.2-6.3-4.5-5.3-12.8-5.4c-2.2,0-4.4,0-6.6-0.1
		c-0.8,0-1.6,0-2.3-0.3c-0.8-0.4-1.6-1.1-1.8-1.9c-0.1-0.4,0.9-1.4,1.6-1.7c2.8-1,5.6-1.9,8.4-2.8
		C344.8,110.6,345.3,110.4,346,110.2L346,110.2z"/>
	<path class="st0" d="M248.4,56.6c0.6,0,1.2-0.2,1.8-0.1c19.1,1.3,37.1,6.7,54.1,15.6c9.7,5.1,18.6,11.3,27,18.1
		c0.9,0.7,2.7,1.5,1.5,3c-1.2,1.5-2.2-0.1-3.1-0.8c-11.3-8.8-23.1-16.9-36.4-22.6c-13.8-6-28-10.1-43-11.9c-0.7-0.1-1.4-0.4-2.1-0.5
		C248.3,57,248.4,56.8,248.4,56.6L248.4,56.6z"/>
	<path class="st0" d="M248.6,45.9c0.7,0,1.5-0.1,2.2,0c25.6,2.2,49.2,10.3,70.4,25c5.7,3.9,10.9,8.4,16.4,12.6
		c0.3,0.2,0.5,0.5,0.8,0.7c0.7,0.6,1.5,1.4,0.5,2.2c-0.4,0.3-1.6,0.1-2.1-0.3c-2.1-1.5-4-3.2-6-4.8c-23.3-19.1-49.9-30.2-79.7-34.2
		c-0.8-0.1-1.7-0.3-2.5-0.5C248.6,46.4,248.6,46.2,248.6,45.9L248.6,45.9z"/>
	<path class="st0" d="M403.8,208.7c-0.1-0.5-0.3-1.1-0.3-1.6c-2-18.6-6.4-36.6-14.1-53.7c-4.6-10.1-10.1-19.8-16.4-29
		c-0.3-0.4-0.8-0.9-0.8-1.3c-0.1-0.7,0.1-1.4,0.1-2c0.7,0.2,1.6,0.3,1.9,0.7c2,2.7,3.9,5.5,5.7,8.4c10.5,16.8,18.3,34.8,22,54.3
		c1.4,7.3,1.9,14.7,2.8,22.1c0.1,0.7-0.1,1.3-0.1,2C404.2,208.6,404,208.7,403.8,208.7L403.8,208.7z"/>
	<path class="st0" d="M248.4,67.3c0.7-0.1,1.3-0.2,1.9-0.2c11.1,0.5,21.7,2.8,32.2,6.5c15.9,5.6,30.1,14.1,43.2,24.5
		c0.7,0.6,1.5,1.2,0.7,2.2c-0.9,1.1-1.6,0.3-2.4-0.2c-12.8-9.8-26.4-18.2-41.6-23.7c-10.3-3.7-20.7-6.5-31.6-7.7
		c-0.8-0.1-1.6-0.3-2.5-0.5C248.4,67.8,248.4,67.5,248.4,67.3L248.4,67.3z"/>
	<path class="st0" d="M394.3,208.8c-0.2-0.6-0.4-1.1-0.5-1.7c-2.9-26.4-11.3-50.9-26.1-73.1c-0.2-0.2-0.5-0.5-0.5-0.7
		c0-0.7,0.1-1.5,0.1-2.2c0.7,0.3,1.7,0.3,2,0.8c3.2,5.3,6.7,10.6,9.5,16.1c8.6,16.6,13.7,34.2,15.8,52.8c0.2,2.1,0.3,4.3,0.4,6.4
		c0,0.5-0.1,1.1-0.2,1.7C394.7,208.8,394.5,208.8,394.3,208.8L394.3,208.8z"/>
	<path class="st0" d="M385.5,208.9c-0.2-0.6-0.4-1.1-0.5-1.7c-1.7-15.9-5.3-31.3-12-45.8c-3.9-8.5-8.9-16.5-13.4-24.7
		c-0.1-0.3-0.3-0.5-0.5-0.7c-0.5-0.8-1.2-1.7-0.1-2.5c1.2-0.8,1.7,0.3,2.2,1.1c13,19.5,21.7,40.6,24.4,63.9c0.3,2.9,0.5,5.8,0.6,8.7
		c0,0.6-0.2,1.2-0.3,1.7C385.8,208.9,385.6,208.9,385.5,208.9L385.5,208.9z"/>
	<path class="st0" d="M389.6,301.5c-0.7,1.5-1.7,3.5-2.4,5c0.7,1.2,1.8,2.3,1.6,2.8c-0.7,1.7-1.8,0-3,0c-0.9,1.8-1.9,3.7-2.6,5.1
		c0.6,1.3,1,2.2,1.4,3.1c-0.9,0-1.9,0-3.2,0.1c-0.8,1.3-2,3.1-3,4.9c0.2,1.2,2.8,1.3,1.5,2.9c-0.4,0.4-1.9-0.1-3.4-0.2
		c-1.4,2.3-3,5.1-4.7,7.9c-0.5,0.9-1.2,1.6-1.7,2.5c-0.2,0.4-0.2,0.9-0.2,1.4c0.2,0.1,0.4,0.1,0.6,0.2c0.9-1.1,1.8-2.2,2.7-3.3
		c1,0.5,1.3,1,0.6,1.9c-0.8,1.2-1.5,2.6-2.2,3.9c-0.1,0.2-0.4,0.5-0.6,0.6c-2.7,1.4-4.4,3.6-5.4,6.5c-0.2,0.6-0.8,1-1.3,1.4
		c-1,0.8-2.2,1.4-3.2,2.3c-4.4,4.1-8.7,8.4-13.2,12.5c-1.4,1.3-3.1,2.2-4.5,3.4c-0.8,0.6-1.3,1.6-1.9,2.3c-0.4,0.4-0.8,1-1.3,1.1
		c-2.7,0.8-4.6,2.5-6.4,4.6c-0.7,0.8-2,1.2-3.1,1.6c-0.2,0.1-0.7-0.2-0.8-0.5c-0.1-0.2-0.1-0.8,0.1-0.9c0.5-0.3,1.1-0.5,1.7-0.7
		c-0.3-0.3-0.5-0.6-0.8-0.9c-4.1,2.7-8.2,5.4-11.8,7.8c-0.2,1.3-0.3,2.3-0.5,3.2c-0.8-0.5-1.5-0.9-2.7-1.6c-1.4,0.7-3.3,1.7-4.7,2.4
		c-0.2,1.4-0.4,2.3-0.5,3.3c-0.8-0.4-1.5-0.8-2.3-1.3c0-0.2,0.1-0.4,0.1-0.6c-1.9,0.9-3.8,1.8-5.2,2.4c-0.4,1.4-0.6,2.3-0.9,3.3
		c-0.7-0.5-1.5-1-2.6-1.8c-1.5,0.6-3.4,1.4-5.3,2.2c-0.3,1.1,1.2,2.5-0.6,2.9c-0.6,0.1-1.4-0.9-2.6-1.8c-1.4,0.5-3.4,1.2-5,1.8
		c-0.3,1.2-0.6,2.1-0.8,3.1c-0.7-0.6-1.5-1.1-2.6-2c-1.5,0.5-3.5,1.1-4.9,1.5c-0.5,1.3-0.9,2.2-1.2,3.1c-0.7-0.6-1.4-1.2-2.5-2.1
		c-1.5,0.4-3.5,0.9-4.9,1.2c-0.7,1.3-1.1,2.2-1.6,3.1c-0.6-0.7-1.2-1.3-2.1-2.3c-1.6,0.3-3.7,0.7-5.1,1c-0.7,1.3-1.1,2.1-1.6,2.9
		c-0.6-0.7-1.2-1.3-2.1-2.3c-1.6,0.2-3.6,0.6-5.7,0.9c-0.5,1,0.6,2.7-1.2,2.7c-0.6,0-1.1-1.3-1.9-2.3c-0.2,0-0.9,0.2-1.6,0.2
		c-0.5-0.1-1-0.5-1.5-0.8c0.4-0.4,0.7-1.1,1.2-1.3c0.7-0.3,1.5-0.3,2.3-0.4c-0.4-3.2-0.7-6.2-1.1-8.9c-1.2-0.5-2.2-0.9-3.2-1.3
		c0.8-0.6,1.7-1.3,2.5-1.9c0.3-0.8,0.6-2.5,1.2-2.6c1.9-0.3,0.9,1.7,1.8,2.8c1.7-0.3,3.6-0.5,5.1-0.8c0.5-1.3,0.7-3.1,1.2-3.2
		c1.9-0.4,1,1.7,2,2.6c1.6-0.3,3.5-0.6,5.2-0.9c0.7-1.1-1.1-3,1-3.3c0.5-0.1,1.2,1.5,2.1,2.6c1.4-0.3,3.2-0.8,5-1.2
		c0.6-1.2-1.2-2.8,0.8-3.3c0.5-0.1,1.4,1.3,2.4,2.4c1.3-0.4,3.1-0.9,4.9-1.4c0.4-1.2-1.4-2.7,0.5-3.3c0.5-0.1,1.4,1.3,2.5,2.3
		c1.3-0.5,3.1-1.1,4.9-1.7c0.3-1.3-1.6-2.7,0.4-3.3c0.5-0.2,1.6,1.3,2.6,2.2c1.3-0.6,3.1-1.3,4.8-2c0.2-1.3-1.7-2.6,0-3.3
		c1.8-0.8,1.4,1.7,2.5,2.3c1.6-0.8,3.3-1.6,4.9-2.4c0.1-1.3-1.8-2.5,0-3.3c0.5-0.2,1.7,1.1,2.8,1.9c1.3-0.7,3-1.6,4.2-2.3
		c0-1.4-0.4-3,0.1-3.3c1.7-1,1.6,1.2,2.6,1.8c0.5-0.3,1.1-0.8,1.7-0.9c0.5-0.1,1.1,0.1,1.7,0.2c-0.2,0.5-0.3,1.2-0.6,1.6
		c-0.5,0.5-1.2,0.8-1.9,1.3c1.5,2.7,2.9,5.3,4.5,8.3c3.2-2,6.2-4,9.5-6.2c-7-1.2-9.4-4.7-8.1-11.4c1.1-5.4,4.3-9.4,8.5-12.8
		c5.4-4.3,10.9-8.5,15.9-13.3c4.8-4.6,9-9.8,13.4-14.8c1.7-2,2.6-2.4,5-1.5c3.1,1.2,5.7,3.2,7.8,5.8c-1.2,1.7-2.4,3.3-3.6,5.1
		c-1.8-1.5-3.4-2.8-5.2-4.3c0.9-1.3,1.8-2.5,2.7-3.8c-0.7-1-1.3-1.1-2-0.1c-6.3,9.7-14.7,17.4-23.5,24.7c-0.3,0.2-0.5,0.5-0.8,0.7
		c-0.1,0.1-0.1,0.2-0.2,0.5c1.7,2,3.4,4.1,5.3,6.3c-6,4.6-11.5,9.4-18.6,11.9c-0.1,1.6,0.6,2,1.8,1.3c3.6-2,7.3-3.8,10.6-6.2
		c12.7-9.4,24.1-20.3,33.3-33.3c0.4-0.5,0.8-1,1.3-1.7c0.5,0.7,1,1.2,1.6,2c1.1-1.7,2.2-3.3,3.3-5c-2.3-1.6-4.3-3.7-6.7-4.4
		c-1.6-0.5-2.7-0.5-3-2.3c0-0.3-0.8-0.4-0.9-0.8c-0.2-0.5-0.3-1.1-0.4-1.6c0.6-0.1,1.2-0.3,1.7-0.2c0.5,0.1,0.9,0.5,1.6,1
		c1-1.6,1.9-3.2,2.8-4.7c-0.5-1.1-2.9-1.1-1.9-2.8c0.9-1.5,1.9,0.4,3.2,0.4c0.8-1.5,1.7-3.2,2.5-4.8c-0.5-1.2-2.9-0.9-2-2.7
		c0.2-0.5,2-0.1,3.4-0.1c0.6-1.3,1.5-3.1,2.3-4.8c-0.5-1.2-2.9-0.7-2.1-2.5c0.2-0.5,1.9-0.3,3.3-0.4c0.5-1.3,1.3-3.1,2-4.8
		c-0.6-1.1-2.9-0.6-2.2-2.4c0.2-0.5,1.8-0.3,2.8-0.5l0.3,0.5c0.7-1.9,1.3-3.7,2-5.6c-0.7-1-3-0.5-2.4-2.3c0.6-1.8,2,0,3.3-0.4
		c0.5-1.7,1.1-3.6,1.6-5.3c-0.7-1.1-3-0.3-2.4-2.2c0.2-0.5,1.9-0.5,3.2-0.8c0.3-1.4,0.8-3.3,1.1-4.7c-1.1-1-1.8-1.7-2.6-2.4
		c0.9-0.3,1.9-0.7,3.3-1.2c0.2-1.3,0.6-3.3,1-5.1c-0.9-0.9-3.1,0-2.7-2c0.1-0.5,1.8-0.7,3.2-1.2c0.2-1.3,0.5-3.2,0.7-5
		c-0.9-1-3.1,0.2-2.8-1.8c0.1-0.5,1.8-0.9,2.9-1.3c0.4-0.6,1-1.5,1.7-2.3c0.4,0.9,0.8,1.8,1.4,3.1c2.3,0.2,5.1,0.6,8.2,0.9
		c0.1-0.7,0-1.4,0.2-2c0.2-0.5,0.8-0.9,1.2-1.4c0.3,0.5,0.7,1,0.8,1.5c0.1,0.6,0,1.3,0.3,1.7c0.7,0.6,1.4,1.3,2,1.9
		c-0.8,0.4-1.5,0.9-2.3,1.3c-0.2-0.1-0.3-0.3-0.5-0.4c-0.3,2.1-0.6,4.3-0.9,5.9c1,1,1.8,1.6,2.5,2.3c-0.9,0.4-1.7,0.8-3,1.4
		c-0.3,1.5-0.7,3.6-1,5.3c0.9,0.9,1.6,1.7,2.3,2.4c-0.9,0.4-1.7,0.7-3,1.2c-0.4,1.6-0.9,3.7-1.4,5.8c0.2-0.1,0.3-0.1,0.5-0.2
		c0.6,0.7,1.1,1.5,1.7,2.2c-0.8,0.3-1.7,0.6-3,1c-0.5,1.6-1.1,3.7-1.7,5.7c0.6,1,2.8,0.6,2,2.3c-0.2,0.5-1.6,0.5-2.9,0.8
		c-0.5,1.5-1.3,3.6-1.8,5.1c0.7,1.2,1.2,2,1.8,2.9c-0.9,0.2-1.7,0.4-3.1,0.7c-0.6,1.4-1.4,3.4-2.2,5.4c0.4,1.1,2.7,0.9,1.7,2.6
		C392.3,301.6,390.9,301.4,389.6,301.5L389.6,301.5z M326.2,354c-0.1-0.2-0.2-0.3-0.3-0.5c-0.7,0.5-1.6,0.8-2,1.5
		c-1,1.6-1.9,3.3-2.7,5c-0.7,1.6-0.1,2.2,1.6,2.2c3.6,0.1,8.4-4,8.9-7.5c0.2-1.6-0.4-2.1-2.1-1.6C328.5,353.4,327.3,353.7,326.2,354
		L326.2,354z M250.5,401.6c2.3-0.4,4.4-0.7,6.5-1c-0.6-3.3-1.1-6.3-1.7-9.4c-2.1,0.3-4,0.6-6.1,0.9
		C249.7,395.2,250,398.3,250.5,401.6z M265.6,398.9c-0.7-3.2-1.3-6.2-2-9.3c-2.1,0.4-3.9,0.7-6,1.1c0.5,3.2,1.1,6.2,1.6,9.4
		C261.4,399.7,263.4,399.4,265.6,398.9L265.6,398.9z M282,384.7c1,3,1.9,6,2.9,9c2.2-0.8,4.1-1.5,6.1-2.2c-1.1-3.1-2.2-5.9-3.2-8.9
		C285.8,383.3,284,384,282,384.7L282,384.7z M267.9,398.5c2.2-0.6,4.2-1.1,6.3-1.6c-0.8-3.1-1.6-6.1-2.5-9.2c-2.1,0.5-3.9,1-5.9,1.5
		C266.6,392.3,267.2,395.3,267.9,398.5z M295.6,379.5c-2,0.8-3.8,1.6-5.7,2.4c1.1,3,2.2,5.8,3.3,8.8c2.1-0.9,4-1.7,6.1-2.5
		C298.1,385.3,296.9,382.5,295.6,379.5L295.6,379.5z M394.4,283.1c-2.9-1-5.6-1.9-8.5-2.9c-0.7,2.1-1.4,4-2.1,6
		c2.9,1.1,5.5,2.2,8.3,3.3C392.9,287.4,393.6,285.4,394.4,283.1L394.4,283.1z M274.1,387.1c0.8,3.1,1.6,6.1,2.4,9.2
		c2.2-0.7,4.2-1.3,6.2-1.9c-1-3.1-1.9-6-2.8-9C277.9,385.9,276.1,386.5,274.1,387.1z M310.6,372.1c-1.9,1-3.6,1.9-5.4,2.9
		c1.4,2.9,2.8,5.6,4.2,8.5c2-1.1,3.8-2,5.7-3C313.6,377.6,312.1,374.9,310.6,372.1L310.6,372.1z M301.4,387.3c2.1-1,3.9-1.9,5.9-2.8
		c-1.4-2.9-2.7-5.7-4.1-8.5c-2,1-3.7,1.8-5.5,2.6C299,381.6,300.2,384.4,301.4,387.3L301.4,387.3z M388.7,298
		c0.9-2.2,1.7-4.2,2.6-6.3c-2.8-1.1-5.5-2.2-8.3-3.3c-0.8,2-1.6,3.8-2.4,5.8C383.3,295.5,385.9,296.7,388.7,298L388.7,298z
		 M377.1,302c2.6,1.4,5.2,2.8,7.9,4.2c1-2.2,2-4.1,2.9-6.2c-2.8-1.3-5.4-2.5-8.1-3.7C378.9,298.2,378.1,299.9,377.1,302L377.1,302z
		 M395.1,281c0.7-2.3,1.3-4.4,1.9-6.6c-3-0.8-5.8-1.6-8.6-2.3c-0.6,2.1-1.2,4-1.7,6C389.5,279.1,392.2,280,395.1,281L395.1,281z
		 M392,255.4c-0.4,2.2-0.7,4.1-1.1,6.2c3,0.6,5.7,1.2,8.7,1.8c0.4-2.3,0.8-4.4,1.2-6.7C397.8,256.3,395.1,255.9,392,255.4L392,255.4
		z M399.2,265.7c-3-0.6-5.8-1.2-8.7-1.8c-0.5,2.2-0.9,4.1-1.4,6.1c2.9,0.8,5.7,1.5,8.5,2.3C398.1,270,398.6,267.9,399.2,265.7
		L399.2,265.7z M376.1,304c-1,1.9-1.9,3.6-2.9,5.4c2.6,1.5,5.1,3,7.7,4.6c1.1-2,2-3.8,3.1-5.8C381.3,306.8,378.8,305.4,376.1,304z
		 M401.2,254.6c0.3-2.3,0.5-4.4,0.8-6.7c-3.2-0.3-5.9-0.6-8.8-0.9c-0.3,2.1-0.5,4-0.8,6.1C395.3,253.6,398.1,254,401.2,254.6z
		 M379.8,315.9c-2.7-1.6-5.2-3-7.7-4.5c-1,1.8-2,3.5-3,5.2c2.5,1.7,4.8,3.3,7.3,5C377.5,319.7,378.6,317.9,379.8,315.9z
		 M339.8,366.5l0.6,0.2c7.4-5.7,14.3-11.9,20.7-18.7c0.3-0.4,0.4-1,0.6-1.6c-0.4,0.2-0.9,0.3-1.3,0.6c-6.7,6.1-13.3,12.1-20,18.2
		C340.1,365.5,340,366,339.8,366.5z M337.7,367.4c-1.6,1.1-3.2,2.1-4.6,3.2c-0.4,0.3-0.4,1-0.7,2
		C336.5,370.4,338.2,368.8,337.7,367.4z M368.6,338.6c-0.2-0.1-0.4-0.2-0.5-0.3c-1.4,1.6-2.8,3.2-4.1,4.9c-0.2,0.3-0.2,0.9-0.2,1.3
		c0.2,0.1,0.4,0.1,0.5,0.2C365.6,342.6,367.9,341.2,368.6,338.6L368.6,338.6z"/>
	<path class="st0" d="M352,346.3c-1.8-1.9-3.1-3.2-4.2-4.6c-0.2-0.3-0.2-1.2,0-1.5c1.3-1.6,2.7-3.1,4.2-4.8c1.7,1.7,3,3,4.2,4.4
		c0.2,0.3,0.2,1.1,0,1.5C354.9,342.9,353.6,344.4,352,346.3L352,346.3z"/>
	<path class="st0" d="M345.1,342.8c1.5,1.7,2.9,3.3,4.4,5c-1.9,1.7-3.6,3.2-5.5,4.9c-1.5-1.7-2.8-3.3-4.3-5.1
		C341.5,346,343.2,344.5,345.1,342.8L345.1,342.8z"/>
	<path class="st0" d="M358.9,338.4c-1.5-1.4-2.8-2.5-4-3.8c-0.3-0.3-0.1-1.1,0-1.6c0-0.1,0.1-0.2,0.2-0.3c3.9-4.9,4.1-4.9,8.4,0.3
		C362,334.7,360.5,336.5,358.9,338.4L358.9,338.4z"/>
</g>
</svg>
