<?xml version="1.0" encoding="utf-8"?>
<!-- Generator: Adobe Illustrator 27.3.1, SVG Export Plug-In . SVG Version: 6.00 Build 0)  -->
<svg version="1.1" id="Layer_1" xmlns:serif="http://www.serif.com/"
	 xmlns="http://www.w3.org/2000/svg" xmlns:xlink="http://www.w3.org/1999/xlink" x="0px" y="0px" viewBox="0 0 456 456"
	 style="enable-background:new 0 0 456 456;" xml:space="preserve">
<g>
	<path d="M237.5,117.9c0,4.5,0,9.1,0,13.7c0,1.4-0.4,1.8-1.7,1.8c-26.2,1.4-47.1,12.8-62.9,33.5c-9.2,12.1-14.7,25.9-16.7,41
		c-0.3,2-0.4,4.1-0.6,6.1c-0.1,1.1-0.5,1.5-1.6,1.5c-8.9,0-17.8,0-26.8,0c-1.3,0-1.7-0.4-1.7-1.8c0.1-10.1,1.6-20,4.5-29.6
		c5.9-20.1,16.5-37.4,31.7-51.9c14.2-13.5,31.3-22.1,50.3-26.8c7.7-1.9,15.5-2.9,23.5-3c1.7,0,2,0.4,2,2
		C237.5,108.9,237.5,113.4,237.5,117.9L237.5,117.9z M234.8,105.1c-31.5,2.1-58.1,13.8-78.9,37.9c-17.3,20-26.2,43.3-27.5,69.8h24.4
		c1.9-22,10.1-41,25.6-56.6c15.4-15.7,34.3-24.3,56.4-25.6L234.8,105.1L234.8,105.1z"/>
	<path d="M237.2,318.4c0,4.4,0,8.9,0,13.4c0,1.6-0.4,2-2.1,1.9c-15.8-0.5-30.9-4.4-45-11.4c-20.9-10.3-37.3-25.6-49-45.7
		c-9.8-16.8-15-34.9-15.5-54.3c-0.1-1.8,0.3-2.1,2.1-2.1c8.7,0,17.3,0,26,0c1.5,0,1.9,0.4,1.9,1.7c0.5,14.4,4.4,27.9,11.9,40.2
		c9.3,15.1,22.1,26.4,38.3,33.9c9.5,4.3,19.5,6.7,29.9,7.1c1.1,0.1,1.5,0.5,1.6,1.8C237.2,309.3,237.2,313.8,237.2,318.4
		L237.2,318.4L237.2,318.4z M234.5,330.7v-25c-22.2-1.4-41-10.2-56.7-25.9s-23.8-34.9-25.1-57h-24.1
		C129.7,279.7,177.9,328.8,234.5,330.7L234.5,330.7z"/>
	<path d="M241.9,117.9c0-4.5,0-8.9,0-13.4c0-1.6,0.4-2.1,2.1-2c19.7,0.4,37.9,6.1,54.6,16.4c10.1,6.1,18.8,13.8,26.3,22.8
		c5.1,6.1,9.4,12.8,13.1,19.8c8.5,16.3,13.1,33.4,13.2,51.8c0,1.6-0.3,1.9-1.9,1.9c-8.6,0-17.1,0.1-25.7,0.1c-1.4,0-1.8-0.4-1.9-1.8
		c-0.9-16.3-5.5-31.4-15.1-44.7c-13.2-18.4-30.7-30.3-53.2-34.4c-3.1-0.6-6.3-0.7-9.5-1c-1.7-0.1-2-0.4-2-2.1
		C241.9,126.9,241.9,122.4,241.9,117.9L241.9,117.9L241.9,117.9z M244.6,130.7c0.3,0,0.5,0.1,0.7,0.1c6.4,0.3,12.7,1.5,18.7,3.4
		c12.1,3.7,22.7,10.1,32,18.7c17.3,15.8,26.5,35.5,28.1,58.8c0.1,0.9,0.4,1.2,1.2,1.1c7.2-0.1,14.4-0.1,21.6-0.1
		c0.4,0,0.8-0.1,1.3-0.1c-1.4-32.1-13.8-58.9-37.4-80.4c-18.7-17-41.2-25.5-66.5-26.8v25.4L244.6,130.7L244.6,130.7z"/>
	<path d="M241.6,318.3c0-4.5,0-9,0-13.5c0-1.4,0.3-1.7,1.7-1.8c10.6-0.6,20.7-3.2,30.3-7.8c14.2-6.8,25.6-17,34.3-30
		c7.2-10.8,11.6-22.7,13.2-35.6c0.4-2.6,0.4-5.2,0.5-7.8c0.1-1.4,0.4-1.7,1.8-1.7c8.7,0,17.4,0,26,0c1.3,0,1.7,0.4,1.7,1.8
		c0.1,14.3-2.5,28.1-7.8,41.3c-9.4,23.4-24.9,41.6-46.5,54.6c-16.1,9.7-33.7,15-52.5,16c-2.9,0.2-3,0.1-3-2.8
		C241.6,326.7,241.6,322.5,241.6,318.3L241.6,318.3L241.6,318.3z M244.3,330.9c31-2.4,57.2-14.5,77.7-38c17.4-20,26-43.6,26.6-70.1
		h-24.1c-1.1,22-9.2,40.9-24.4,56.7c-15.2,15.8-33.9,24.5-55.8,26.3V330.9L244.3,330.9z"/>
	<path d="M160.5,157.9c-1.2-0.2-2.2-0.5-3.2-0.6c5.9-6.1,11.8-12,17.6-18c1.8,1.5,1.9,4.1,0.6,7.9c2.1,0.4,4.2-0.9,5.1-3.1
		c0.3-0.7,0.5-1.4,0.8-2.1c1.2-2.6,3.4-3.9,6.2-3.7c2,0.1,3.4-0.7,4.4-2.4c0.5-0.8,0.9-1.7,1.4-2.5c1.4-1.9,3.2-2.6,5.5-2.3
		c0.9,0.2,1.8,0.3,2.7,0.2c1.8-0.2,2.8-1.6,3.7-3.3c-0.7,0.1-1.2,0-1.8,0.1c-2.2,0.4-4.4,0.4-6.5-0.2c-2.3-0.6-3.7,0-4.8,2.1
		c-0.4,0.6-0.6,1.3-1,1.9c-1.4,2.5-3.5,3.5-6.3,3.3c-2.2-0.2-3.3,0.4-4.3,2.4c-0.2,0.4-0.4,0.8-0.6,1.2c-0.2,0.7-0.8,1.2-1.4,0.8
		c-0.4-0.3-0.8-1.1-0.8-1.5c0.3-2.4,2.7-4.8,5-5.2c0.5-0.1,1.1,0,1.6,0.1c2.2,0.3,3.9-0.5,5-2.5c0.3-0.5,0.5-1.1,0.8-1.7
		c1.5-3,3.7-4.1,7-3.2c0.2,0.1,0.4,0.1,0.5-0.1c0.5-0.4,1-0.9,1.6-1.1c7.4-2.6,14.7-5.2,22.1-7.8c0.4-0.1,0.7-0.1,1.1-0.2
		c-0.1,0.4,0,0.8-0.1,1.2c-0.3,1-0.6,1.9-0.9,2.9c-0.6,1.9-1.4,3.8-3.4,5.1c1.9,1.1,3.9,1.4,5.8,0.7c1.3-0.4,2.5-0.9,3.8-1.4
		c0.4-0.1,1-0.1,1.4,0.1c0.6,0.4,0.5,1.4-0.4,1.8c-3.9,1.9-7.9,2.8-12.2,0.8c-1.3-0.6-2.8-0.9-4.2-1c-1.9-0.1-3.5,0.9-4.7,2.5
		c-0.4,0.6-0.8,1.2-1.3,1.8c-1.6,2.2-3.8,3.2-6.6,2.8c-3.2-0.5-4-0.1-5.4,2.9c-1.4,2.9-3.6,4.4-6.9,4.2c-1.9-0.1-3.1,0.7-3.9,2.4
		c-0.4,0.8-0.6,1.5-1,2.3c-1.2,2.7-3.4,4-6.2,4.3c-3.9,0.4-5.7,2.1-6.1,6.1c-0.2,2.4-0.8,4.5-2.6,6.1c-0.9,0.8-2,1.3-3.1,1.8
		c-2.7,1.1-3.5,2.2-3.5,5.1c0,3.1-1.4,5.2-3.9,6.7c-0.7,0.4-1.4,0.9-1.9,1.5c-0.8,0.9-1.1,2.1-0.8,3.2c1.1,3.7-0.2,6.5-3.2,8.8
		c-2.4,1.8-2.8,3.5-1.8,6.2c1.4,3.4,0.8,6.4-1.5,9.2c-0.8,0.9-1.2,2.1-1.7,3.3c-0.3,0.6-0.6,1-1.3,0.9s-1.1-0.6-0.8-1.3
		c0.4-1.2,0.9-2.4,1.4-3.4c0.4-0.6,0.9-1.2,1.4-1.8c1.1-1.5,1.4-3.2,0.8-5c-0.3-0.8-0.6-1.6-0.8-2.5c-0.6-2.7,0.2-4.9,2.2-6.8
		c0.4-0.4,0.8-0.6,1.2-1c1.8-1.5,2.7-3.4,2.1-5.7c-0.9-3.4,0.6-6.2,3.7-7.7c1.9-0.9,2.8-2.5,2.8-4.7c0.1-4.2,1.2-5.8,5.1-7.3
		c2.9-1.1,4.1-3.1,3.7-6.7c-0.8,0.9-1.6,1.6-2.4,2.4c-1.5,1.5-3.3,2.6-5.4,3.2c-2.9,0.8-4.1,2.5-3.9,5.5c0.2,3.1-1.2,5.2-3.8,6.6
		c-0.6,0.4-1.4,0.7-1.9,1.2c-1.3,1.1-1.7,2.5-1.4,4.1c0.1,0.6,0.3,1.3,0.4,1.9c0.4,2.1-0.2,3.8-1.5,5.4c-0.6,0.6-1.2,1.2-1.9,1.8
		c-2.1,1.8-2.8,4-1.9,6.7c0.4,1.1,0.8,2.2,0.9,3.3c0.4,2.4-0.4,4.6-2.2,6.2c-1.2,1.1-1.9,2.4-2.1,4c-0.2,1.1-1.6,1.8-2.6,1.3
		c-0.6-0.3-0.6-0.8-0.4-1.4c1-3.9,1.9-7.8,2.9-11.7c0.4-1.8,0.8-3.5,1.2-5.3c0.4-1.9,1.3-3.6,2.9-4.7c2.5-1.7,3.2-3.9,2.4-6.8
		c-0.8-3.1,0.5-5.8,3.4-7.2c0.6-0.3,1.2-0.6,1.8-0.9c1.3-0.8,2-2.1,1.8-3.5c-0.5-4.8,2.3-7.8,6.4-8.5
		C160,158.1,160.2,158,160.5,157.9L160.5,157.9z"/>
	<path d="M158.8,153.3c-0.6-0.6-1.1-1.1-1.4-1.6c-0.1-0.2,0-0.7,0.2-0.9c0.5-0.6,1.4-1.1,1.3-2.2c0-0.5,0.8-1,1.2-1.5
		c0.4-0.4,0.8-0.9,1.2-1.3c-0.4-0.9-1.8-1.4-0.4-2.7c1.4-1.2,1.8,0.5,3,0.6c0.3-0.4,0.6-0.9,1.1-1.4s0.9-1.2,1.9-1
		c0.3,0.1,0.8-0.6,1.2-0.9c1.2-1.1,1.2-1.1,2.4-0.1c0.2,0.1,0.4,0.2,0.5,0.4C166.9,144.9,162.9,149,158.8,153.3L158.8,153.3z
		 M166.3,143c0.3,0.8,0.7,0.6,1,0.2c0.4-0.4,1.2-0.6,0.5-1.5C167.3,142.2,166.8,142.6,166.3,143z M159.6,150.7
		c1.4-1.1,1.5-1.1,0.9-1.8C159.3,149.8,159.2,150,159.6,150.7z M163,146.2c-0.6,0.5-0.9,0.8-1.2,1.1c-0.1,0.1-0.1,0.4-0.1,0.5
		s0.3,0.2,0.3,0.2c0.4-0.2,0.7-0.5,1-0.8C163.2,147,163.1,146.7,163,146.2L163,146.2z M165.6,144.9c-0.1-0.2-0.1-0.3-0.1-0.5
		c-0.3,0.1-0.6-0.1-0.9,0.1c-0.2,0.2-0.1,0.5-0.2,0.8C164.9,145.3,165.3,145.1,165.6,144.9z"/>
	<path d="M200.6,122.2c-0.2-0.5-0.3-0.7-0.4-1c-0.3-0.9,0.1-1.5,0.9-1.9c0.6-0.2,1-0.4,1.4-1.1c0.4-0.5,1.3-0.8,2-1.1
		c0.9-0.3,1.4-0.8,0.9-1.8c-0.5-1.1,0.5-1.2,1.1-1.5c0.7-0.3,1.2-0.2,1.5,0.6c0.1,0.4,0.3,0.7,0.5,1.1c0.9-0.3,1.8-0.6,2.8-0.9
		c0.4-0.1,0.8,0.1,1.2,0.1s0.7,0.1,1.1-0.1c2.1-0.6,2.1-0.6,2.5,1.7C211.1,118.4,205.9,120.2,200.6,122.2L200.6,122.2z M202.6,119.4
		c0.2,1.2,0.8,0.8,1.2,0.5c0.2-0.1,0.2-0.4,0.4-0.6C203.7,119.3,203.2,119.4,202.6,119.4z M207.8,118.4c-0.4-0.2-0.6-0.5-0.8-0.5
		c-0.4,0.1-0.8,0.4-1.2,0.6c0.2,0.2,0.4,0.5,0.5,0.5C206.8,118.9,207.2,118.7,207.8,118.4L207.8,118.4z M209.4,118.1
		c0.5-0.3,0.8-0.5,1.2-0.8c-0.2-0.2-0.4-0.5-0.5-0.5c-0.4,0.2-0.8,0.4-1.1,0.6C209.1,117.6,209.2,117.8,209.4,118.1L209.4,118.1z
		 M213.7,116.3c-0.5-0.2-0.7-0.4-0.8-0.4c-0.4,0.1-0.7,0.4-1,0.6c0.2,0.2,0.4,0.5,0.5,0.4C212.8,116.8,213.1,116.6,213.7,116.3
		L213.7,116.3z"/>
	<path d="M136.9,201.1c-0.5-0.5-1.1-0.8-1.4-1.2c-0.2-0.3-0.1-0.9,0.1-1.3c0.4-1.4,0.4-1.5-1.1-1.9c-0.9-0.2-1-0.8-0.8-1.5
		c0.2-0.8,0.5-1.4,1.5-1.1c1.4,0.4,1.5,0.3,1.9-1.2c0.2-0.6,0.3-1.4,0.6-1.9c0.2-0.4,0.9-0.8,1.3-0.7c0.6,0.1,0.6,0.7,0.4,1.2
		c-0.8,2.9-1.5,5.8-2.2,8.8C137.2,200.6,137,200.8,136.9,201.1L136.9,201.1z"/>
	<path d="M224.2,123c-0.2-0.2-0.7-0.5-0.6-0.6c0.1-0.5,0.3-1.3,0.7-1.5c1.4-0.7,2.9-1.2,4.4-1.7c0.7-0.2,1.3-0.1,1.5,0.6
		c0.3,0.7-0.2,1.1-0.8,1.4c-1.3,0.5-2.6,1.1-3.9,1.5C225.2,122.8,224.7,122.9,224.2,123L224.2,123z"/>
	<path d="M150.7,273.2c0.3,0.2,0.5,0.4,0.8,0.6c0.3-0.2,0.5-0.4,0.8-0.6c-0.2-0.3-0.4-0.5-0.5-0.8c0.1-0.1,0.1-0.2,0.2-0.2
		c1.3-1.1,2.6-2.2,3.9-3.4c1.2-1.1,2.5-1,3.7,0.1c1.1,1.1,2.1,2.2,3.1,3.3c5.1,5.5,10.3,10.9,15.4,16.4c1.6,1.6,1.7,2.8,0.4,4.7
		c-1,1.4-2.2,2.6-3.4,3.9c-0.4-0.3-0.6-0.4-0.9-0.6c-0.1,0.1-0.4,0.2-0.4,0.4c-0.1,0.4,0,0.7,0,1.3c-0.8,1-1.7,1.1-2.8,0.1
		c-0.7-0.6-1.4-1.2-2.1-1.8c1.5-2.2,1.5-3.6,0.4-4.8c-1.1-1.2-2.4-1.1-4.4,0.2c-2.7-2.9-5.4-5.8-8.1-8.7c1.5-2.3,1.6-3.6,0.4-4.8
		c-1.3-1.3-2.5-1.3-4.6,0.1c-0.8-0.8-1.6-1.6-2.3-2.5C149.3,274.9,149.6,274.2,150.7,273.2L150.7,273.2z M165,277.7
		c-1.3-1.4-2.5-2.6-3.8-4c-1,0.9-1.9,1.8-2.9,2.7c1.2,1.2,2.2,2.4,3.4,3.5c0.2,0.2,0.7,0.2,0.8,0.1
		C163.3,279.3,164.1,278.5,165,277.7z M171.7,289.9c0.8-0.8,1.6-1.6,2.7-2.5c-1.5-1.2-2.8-2.4-4.2-3.7c-0.7,0.6-1.6,1.5-2.6,2.5
		C169,287.5,170.3,288.6,171.7,289.9z M169.6,282.6c-1.3-1.4-2.4-2.6-3.7-3.9c-1,0.9-1.9,1.8-2.9,2.8c1.4,1.2,2.7,2.4,4.1,3.6
		C167.7,284.3,168.6,283.5,169.6,282.6L169.6,282.6z M160.4,272.8c-1-1.1-1.9-2.1-2.8-3c-0.1-0.1-0.6-0.1-0.8,0
		c-0.9,0.7-1.7,1.4-2.6,2.2c1.2,1.1,2.4,2.2,3.5,3.2C158.4,274.5,159.4,273.7,160.4,272.8L160.4,272.8z M175.2,288.3
		c-1,0.9-1.9,1.8-2.8,2.6c1.1,1,2.2,1.9,3.4,2.9c0.5-0.6,1.1-1.4,1.7-2.2c0.2-0.2,0.1-0.8-0.1-1.1
		C176.8,289.9,176,289.2,175.2,288.3L175.2,288.3z"/>
	<path d="M228.4,325.7c-7.1-0.5-13.7-1.9-20.3-3.9c-12-3.7-23-9.4-32.8-17.4c-0.1-0.1-0.2-0.1-0.2-0.2c-0.4-0.4-1-0.6-0.5-1.2
		c0.1-0.2,0.9,0,1.3,0.3c7.9,6.4,16.7,11.3,26.2,15c8.2,3.2,16.7,5.2,25.4,6.1c0.2,0,0.5,0,0.7,0.1c0.3,0.2,0.6,0.5,0.9,0.7
		C228.8,325.4,228.5,325.6,228.4,325.7L228.4,325.7z"/>
	<path d="M230.7,316.4c-6.5-0.5-12.6-1.8-18.6-3.7c-11.1-3.5-21.2-8.7-30.1-16.1c-0.1-0.1-0.2-0.1-0.2-0.2c-0.4-0.3-0.9-0.6-0.5-1.1
		c0.1-0.2,0.9,0,1.2,0.3c7.3,5.9,15.4,10.5,24.1,13.9c7.5,2.9,15.3,4.8,23.4,5.7c0.2,0,0.5,0,0.6,0.1c0.3,0.2,0.5,0.4,0.8,0.6
		C231.1,316,230.8,316.2,230.7,316.4L230.7,316.4z"/>
	<path d="M132.9,231.2c0-0.6-0.1-1.1-0.1-1.6c0.1-0.3,0.4-0.6,0.5-0.9c0.2,0.3,0.6,0.6,0.6,0.9c0.3,2.4,0.5,4.8,0.8,7.2
		c1.3,9.5,4.1,18.5,8.1,27.2c0.8,1.6,1.6,3.2,2.4,4.9c0.2,0.5,0.6,1.1-0.1,1.3c-0.2,0.1-0.8-0.4-1-0.7
		C137.8,257.4,133.9,244.7,132.9,231.2L132.9,231.2z"/>
	<path d="M144.1,229.3c0-0.5-0.1-1.1-0.1-1.5c0.1-0.3,0.3-0.5,0.5-0.8c0.2,0.3,0.6,0.5,0.6,0.8c0.3,2.2,0.4,4.4,0.8,6.7
		c1.2,8.8,3.8,17.1,7.5,25.1c0.7,1.5,1.5,3,2.2,4.5c0.2,0.4,0.5,0.9-0.1,1.2c-0.2,0.1-0.8-0.4-0.9-0.6
		C148.7,253.5,145.1,241.8,144.1,229.3z"/>
	<path d="M152.3,280.3c0-1.3,1.1-2.4,2.4-2.4c1.4,0,2.4,1.1,2.4,2.6c0,1.3-1.1,2.3-2.4,2.3C153.3,282.7,152.3,281.7,152.3,280.3
		L152.3,280.3z M154.9,279.2c-0.1,0-0.3,0-0.4,0c-0.2,0.4-0.7,0.8-0.6,1.2c0.1,0.4,0.6,0.8,1,0.8c0.2,0,0.8-0.6,0.8-0.9
		C155.6,279.9,155.1,279.6,154.9,279.2L154.9,279.2z"/>
	<path d="M164.6,293.8c0-1.4,1.1-2.4,2.4-2.5c1.2-0.1,2.4,1.1,2.4,2.4c0,1.2-1.2,2.4-2.4,2.4C165.6,296.1,164.6,295.1,164.6,293.8
		L164.6,293.8z M166.9,295c0.4-0.6,0.9-1,0.8-1.3c-0.1-0.4-0.6-0.6-0.9-1c-0.3,0.4-0.8,0.6-0.8,1S166.5,294.4,166.9,295z"/>
	<g>
		<path d="M138,230c0.2-0.5,0.4-1.5,0.6-1.5c1,0.1,0.6,0.9,0.7,1.5c0.2,1.1,0.3,2.3,0.4,3.4c0,0.4-0.2,0.7-0.4,1.1
			c-0.2-0.3-0.6-0.5-0.6-0.9c-0.2-1.2-0.3-2.4-0.5-3.5C138.1,230.1,138,230,138,230L138,230z"/>
		<path d="M141.2,244.4c0.4,0.5,0.6,0.6,0.6,0.9c0.4,1.4,0.8,2.8,1.2,4.2c0.1,0.2-0.2,0.6-0.3,0.9c-0.2-0.2-0.6-0.3-0.7-0.5
			c-0.5-1.5-0.9-2.9-1.2-4.4C140.8,245.2,141,244.9,141.2,244.4L141.2,244.4z"/>
		<path d="M141.1,241.9c-0.1,0.1-0.2,0.5-0.5,0.5c-0.2,0-0.6-0.2-0.6-0.4c-0.4-1.6-0.6-3.1-0.9-4.7c0-0.2,0.3-0.4,0.5-0.6
			c0.2,0.2,0.5,0.3,0.6,0.5C140.4,238.8,140.7,240.3,141.1,241.9L141.1,241.9z"/>
		<path d="M143.9,252.5c0.2,0.2,0.4,0.5,0.5,0.7c0.5,1.2,1,2.5,1.4,3.7c0.1,0.3-0.1,0.6-0.1,1c-0.3-0.2-0.7-0.3-0.8-0.5
			c-0.5-1.3-1.1-2.6-1.5-3.9c-0.1-0.3,0.1-0.6,0.2-0.9C143.7,252.5,143.8,252.5,143.9,252.5z"/>
		<path d="M149.4,264.9c-0.1,0.1-0.2,0.3-0.3,0.3c-0.2,0-0.5-0.1-0.6-0.2c-0.7-1.4-1.4-2.8-2.1-4.2c-0.1-0.2,0.1-0.6,0.2-0.6
			c0.2-0.1,0.6,0.1,0.6,0.2c0.7,1.4,1.4,2.8,2.1,4.2C149.4,264.6,149.4,264.7,149.4,264.9L149.4,264.9z"/>
	</g>
	<g>
		<path d="M223.5,318.8c1.6,0.2,2.9,0.4,4.2,0.6c0.2,0.1,0.5,0.4,0.7,0.6c-0.3,0.2-0.5,0.5-0.8,0.4c-1.4-0.1-2.7-0.3-4-0.5
			c-0.2-0.1-0.5-0.4-0.6-0.6C223.2,319.1,223.4,319,223.5,318.8L223.5,318.8z"/>
		<path d="M216.3,317.5c1.4,0.3,2.6,0.5,3.9,0.8c0.2,0.1,0.4,0.4,0.6,0.6c-0.2,0.1-0.5,0.4-0.7,0.4c-1.2-0.2-2.5-0.4-3.7-0.7
			c-0.2-0.1-0.4-0.4-0.6-0.6C216,317.7,216.2,317.5,216.3,317.5L216.3,317.5z"/>
		<path d="M213,317.8c-1.4-0.4-2.6-0.7-3.8-1.1c-0.2-0.1-0.3-0.4-0.5-0.6c0.3-0.1,0.6-0.4,0.8-0.3c1.2,0.3,2.4,0.6,3.6,1
			c0.2,0.1,0.5,0.5,0.4,0.7C213.6,317.5,213.1,317.7,213,317.8L213,317.8z"/>
		<path d="M202.5,313.1c1.4,0.5,2.6,1,3.9,1.6c0.1,0.1,0.3,0.5,0.2,0.6c-0.2,0.2-0.5,0.4-0.6,0.3c-1.2-0.4-2.4-0.9-3.7-1.4
			c-0.2-0.1-0.4-0.4-0.4-0.6C202.1,313.4,202.4,313.2,202.5,313.1L202.5,313.1z"/>
		<path d="M183.8,303c0.2,0.1,0.4,0.2,0.6,0.3c0.9,0.6,1.9,1.2,2.8,1.9c0.2,0.2,0.2,0.5,0.4,0.8c-0.3,0-0.6,0.2-0.8,0.1
			c-1.1-0.6-2.1-1.4-3.1-2.1c-0.2-0.1-0.3-0.5-0.3-0.7C183.4,303.2,183.6,303.1,183.8,303L183.8,303z"/>
		<path d="M200.2,312.7c-0.3,0.1-0.6,0.4-0.8,0.3c-1.2-0.5-2.4-1.1-3.6-1.6c-0.1-0.1-0.3-0.4-0.2-0.6s0.4-0.4,0.5-0.3
			c1.2,0.5,2.5,1.1,3.7,1.7C200.1,312.1,200.1,312.4,200.2,312.7L200.2,312.7z"/>
		<path d="M189.8,306.9c0.3,0.2,0.6,0.3,0.9,0.5c0.9,0.5,1.8,1,2.7,1.5c0.2,0.1,0.2,0.5,0.3,0.8c-0.2,0.1-0.5,0.2-0.7,0.1
			c-1.1-0.6-2.2-1.2-3.4-1.9c-0.2-0.1-0.2-0.4-0.2-0.6C189.4,307.1,189.7,307,189.8,306.9L189.8,306.9z"/>
		<path d="M179.8,299.8c0.7,0.6,1.4,1.1,1.9,1.7c0.1,0.1,0,0.5-0.2,0.5c-0.2,0.1-0.5,0.2-0.6,0.1c-0.5-0.4-1.1-0.8-1.6-1.2
			c-0.1-0.1-0.2-0.5-0.1-0.6C179.3,300.1,179.5,299.9,179.8,299.8L179.8,299.8z"/>
	</g>
	<path d="M306.8,149.8c-1.4-1.6-2.7-3.2-4.1-4.7c-0.2-0.2-0.5-0.3-0.8-0.4c-0.6-0.1-1.3-0.1-1.9-0.2c-0.5-0.2-0.8-0.6-1.2-0.9
		c0.4-0.2,0.6-0.7,1-0.8c1.2-0.2,1.9-0.9,2.4-1.9c0.1-0.4,0.4-0.6,0.7-1.1c1.1,1.4,2,2.7,3.1,3.8c1.1,1.2,2.5,2.1,3.8,3.2
		c-0.1,0.2-0.2,0.3-0.2,0.5c0.2-0.3,0.4-0.6,0.5-0.9c0.6-1.5,1.2-2.9,1.8-4.4c0.1-0.3,0.3-0.6,0.5-0.9c0.5-0.6,1-0.7,1.4,0.1
		c0.3,0.6,0.6,1.3,0.6,1.9c-0.1,1.7-0.2,3.4-0.5,5.1c-0.4,1.9,0.1,3.5,1.4,4.9c1.1,1.2,2,2.6,3,3.9c0.2,0.2,0.4,0.5,0.4,0.8
		c0,0.5,0,1.1-0.3,1.4c-0.2,0.3-1,0.4-1.3,0.2c-1.2-0.6-2.4-1.2-3.3-2.1c-3.7-3.7-2.6-3.1-7.5-3.2c-1.3,0-2.6,0-3.9-0.1
		c-0.5,0-0.9,0-1.4-0.2s-0.9-0.6-1.1-1.1c-0.1-0.2,0.5-0.8,0.9-1c1.6-0.6,3.3-1.1,4.9-1.6C306.1,150,306.4,149.9,306.8,149.8
		L306.8,149.8z"/>
	<path d="M249.4,118.2c0.4,0,0.7-0.1,1.1-0.1c11.2,0.8,21.8,3.9,31.9,9.2c5.7,3,11,6.7,15.9,10.7c0.5,0.4,1.6,0.9,0.9,1.8
		c-0.7,0.9-1.3-0.1-1.8-0.5c-6.7-5.2-13.6-10-21.4-13.3c-8.1-3.5-16.5-5.9-25.3-7c-0.4-0.1-0.8-0.2-1.2-0.3
		C249.3,118.5,249.4,118.4,249.4,118.2L249.4,118.2z"/>
	<path d="M249.5,111.9c0.4,0,0.9-0.1,1.3,0c15.1,1.3,29,6.1,41.4,14.7c3.4,2.3,6.4,4.9,9.7,7.4c0.2,0.1,0.3,0.3,0.5,0.4
		c0.4,0.4,0.9,0.8,0.3,1.3c-0.2,0.2-0.9,0.1-1.2-0.2c-1.2-0.9-2.4-1.9-3.5-2.8c-13.7-11.2-29.4-17.8-46.9-20.1
		c-0.5-0.1-1-0.2-1.5-0.3C249.5,112.2,249.5,112.1,249.5,111.9L249.5,111.9z"/>
	<path d="M340.8,207.8c-0.1-0.3-0.2-0.6-0.2-0.9c-1.2-11-3.8-21.5-8.3-31.6c-2.7-5.9-5.9-11.7-9.7-17.1c-0.2-0.2-0.5-0.5-0.5-0.8
		c-0.1-0.4,0.1-0.8,0.1-1.2c0.4,0.1,0.9,0.2,1.1,0.4c1.2,1.6,2.3,3.2,3.4,4.9c6.2,9.9,10.8,20.5,13,32c0.8,4.3,1.1,8.7,1.6,13
		c0.1,0.4-0.1,0.8-0.1,1.2C341.1,207.7,341,207.8,340.8,207.8L340.8,207.8z"/>
	<path d="M249.4,124.5c0.4-0.1,0.8-0.1,1.1-0.1c6.5,0.3,12.8,1.6,19,3.8c9.4,3.3,17.7,8.3,25.4,14.4c0.4,0.4,0.9,0.7,0.4,1.3
		s-0.9,0.2-1.4-0.1c-7.5-5.8-15.5-10.7-24.5-14c-6.1-2.2-12.2-3.8-18.6-4.5c-0.5-0.1-0.9-0.2-1.5-0.3
		C249.4,124.8,249.4,124.7,249.4,124.5L249.4,124.5z"/>
	<path d="M335.3,207.9c-0.1-0.4-0.2-0.6-0.3-1c-1.7-15.5-6.7-30-15.4-43c-0.1-0.1-0.3-0.3-0.3-0.4c0-0.4,0.1-0.9,0.1-1.3
		c0.4,0.2,1,0.2,1.2,0.5c1.9,3.1,3.9,6.2,5.6,9.5c5.1,9.8,8.1,20.1,9.3,31.1c0.1,1.2,0.2,2.5,0.2,3.8c0,0.3-0.1,0.6-0.1,1
		C335.5,207.9,335.4,207.9,335.3,207.9L335.3,207.9z"/>
	<path d="M330.1,207.9c-0.1-0.4-0.2-0.6-0.3-1c-1-9.4-3.1-18.4-7.1-27c-2.3-5-5.2-9.7-7.9-14.5c-0.1-0.2-0.2-0.3-0.3-0.4
		c-0.3-0.5-0.7-1-0.1-1.5c0.7-0.5,1,0.2,1.3,0.6c7.7,11.5,12.8,23.9,14.4,37.6c0.2,1.7,0.3,3.4,0.4,5.1c0,0.4-0.1,0.7-0.2,1
		C330.2,207.9,330.1,207.9,330.1,207.9L330.1,207.9z"/>
	<path d="M332.5,262.4c-0.4,0.9-1,2.1-1.4,2.9c0.4,0.7,1.1,1.4,0.9,1.6c-0.4,1-1.1,0-1.8,0c-0.5,1.1-1.1,2.2-1.5,3
		c0.4,0.8,0.6,1.3,0.8,1.8c-0.5,0-1.1,0-1.9,0.1c-0.5,0.8-1.2,1.8-1.8,2.9c0.1,0.7,1.6,0.8,0.9,1.7c-0.2,0.2-1.1-0.1-2-0.1
		c-0.8,1.4-1.8,3-2.8,4.7c-0.3,0.5-0.7,0.9-1,1.5c-0.1,0.2-0.1,0.5-0.1,0.8c0.1,0.1,0.2,0.1,0.4,0.1c0.5-0.6,1.1-1.3,1.6-1.9
		c0.6,0.3,0.8,0.6,0.4,1.1c-0.5,0.7-0.9,1.5-1.3,2.3c-0.1,0.1-0.2,0.3-0.4,0.4c-1.6,0.8-2.6,2.1-3.2,3.8c-0.1,0.4-0.5,0.6-0.8,0.8
		c-0.6,0.5-1.3,0.8-1.9,1.4c-2.6,2.4-5.1,4.9-7.8,7.4c-0.8,0.8-1.8,1.3-2.6,2c-0.5,0.4-0.8,0.9-1.1,1.4c-0.2,0.2-0.5,0.6-0.8,0.6
		c-1.6,0.5-2.7,1.5-3.8,2.7c-0.4,0.5-1.2,0.7-1.8,0.9c-0.1,0.1-0.4-0.1-0.5-0.3c-0.1-0.1-0.1-0.5,0.1-0.5c0.3-0.2,0.6-0.3,1-0.4
		c-0.2-0.2-0.3-0.4-0.5-0.5c-2.4,1.6-4.8,3.2-6.9,4.6c-0.1,0.8-0.2,1.4-0.3,1.9c-0.5-0.3-0.9-0.5-1.6-0.9c-0.8,0.4-1.9,1-2.8,1.4
		c-0.1,0.8-0.2,1.4-0.3,1.9c-0.5-0.2-0.9-0.5-1.4-0.8c0-0.1,0.1-0.2,0.1-0.4c-1.1,0.5-2.2,1.1-3.1,1.4c-0.2,0.8-0.4,1.4-0.5,1.9
		c-0.4-0.3-0.9-0.6-1.5-1.1c-0.9,0.4-2,0.8-3.1,1.3c-0.2,0.6,0.7,1.5-0.4,1.7c-0.4,0.1-0.8-0.5-1.5-1.1c-0.8,0.3-2,0.7-2.9,1.1
		c-0.2,0.7-0.4,1.2-0.5,1.8c-0.4-0.4-0.9-0.6-1.5-1.2c-0.9,0.3-2.1,0.6-2.9,0.9c-0.3,0.8-0.5,1.3-0.7,1.8c-0.4-0.4-0.8-0.7-1.5-1.2
		c-0.9,0.2-2.1,0.5-2.9,0.7c-0.4,0.8-0.6,1.3-0.9,1.8c-0.4-0.4-0.7-0.8-1.2-1.4c-0.9,0.2-2.2,0.4-3,0.6c-0.4,0.8-0.6,1.2-0.9,1.7
		c-0.4-0.4-0.7-0.8-1.2-1.4c-0.9,0.1-2.1,0.4-3.4,0.5c-0.3,0.6,0.4,1.6-0.7,1.6c-0.4,0-0.6-0.8-1.1-1.4c-0.1,0-0.5,0.1-0.9,0.1
		c-0.3-0.1-0.6-0.3-0.9-0.5c0.2-0.2,0.4-0.6,0.7-0.8c0.4-0.2,0.9-0.2,1.4-0.2c-0.2-1.9-0.4-3.7-0.6-5.2c-0.7-0.3-1.3-0.5-1.9-0.8
		c0.5-0.4,1-0.8,1.5-1.1c0.2-0.5,0.4-1.5,0.7-1.5c1.1-0.2,0.5,1,1.1,1.6c1-0.2,2.1-0.3,3-0.5c0.3-0.8,0.4-1.8,0.7-1.9
		c1.1-0.2,0.6,1,1.2,1.5c0.9-0.2,2.1-0.4,3.1-0.5c0.4-0.6-0.6-1.8,0.6-1.9c0.3-0.1,0.7,0.9,1.2,1.5c0.8-0.2,1.9-0.5,2.9-0.7
		c0.4-0.7-0.7-1.6,0.5-1.9c0.3-0.1,0.8,0.8,1.4,1.4c0.8-0.2,1.8-0.5,2.9-0.8c0.2-0.7-0.8-1.6,0.3-1.9c0.3-0.1,0.8,0.8,1.5,1.4
		c0.8-0.3,1.8-0.6,2.9-1c0.2-0.8-0.9-1.6,0.2-1.9c0.3-0.1,0.9,0.8,1.5,1.3c0.8-0.4,1.8-0.8,2.8-1.2c0.1-0.8-1-1.5,0-1.9
		c1.1-0.5,0.8,1,1.5,1.4c0.9-0.5,1.9-0.9,2.9-1.4c0.1-0.8-1.1-1.5,0-1.9c0.3-0.1,1,0.6,1.6,1.1c0.8-0.4,1.8-0.9,2.5-1.4
		c0-0.8-0.2-1.8,0.1-1.9c1-0.6,0.9,0.7,1.5,1.1c0.3-0.2,0.6-0.5,1-0.5c0.3-0.1,0.6,0.1,1,0.1c-0.1,0.3-0.2,0.7-0.4,0.9
		c-0.3,0.3-0.7,0.5-1.1,0.8c0.9,1.6,1.7,3.1,2.6,4.9c1.9-1.2,3.7-2.4,5.6-3.7c-4.1-0.7-5.5-2.8-4.8-6.7c0.6-3.2,2.5-5.5,5-7.5
		c3.2-2.5,6.4-5,9.4-7.8c2.8-2.7,5.3-5.8,7.9-8.7c1-1.2,1.5-1.4,2.9-0.9c1.8,0.7,3.4,1.9,4.6,3.4c-0.7,1-1.4,1.9-2.1,3
		c-1.1-0.9-2-1.6-3.1-2.5c0.5-0.8,1.1-1.5,1.6-2.2c-0.4-0.6-0.8-0.6-1.2-0.1c-3.7,5.7-8.7,10.2-13.8,14.5c-0.2,0.1-0.3,0.3-0.5,0.4
		c-0.1,0.1-0.1,0.1-0.1,0.3c1,1.2,2,2.4,3.1,3.7c-3.5,2.7-6.8,5.5-11,7c-0.1,0.9,0.4,1.2,1.1,0.8c2.1-1.2,4.3-2.2,6.2-3.7
		c7.5-5.5,14.2-12,19.6-19.6c0.2-0.3,0.5-0.6,0.8-1c0.3,0.4,0.6,0.7,0.9,1.2c0.6-1,1.3-1.9,1.9-2.9c-1.4-0.9-2.5-2.2-3.9-2.6
		c-0.9-0.3-1.6-0.3-1.8-1.4c0-0.2-0.5-0.2-0.5-0.5c-0.1-0.3-0.2-0.6-0.2-0.9c0.4-0.1,0.7-0.2,1-0.1s0.5,0.3,0.9,0.6
		c0.6-0.9,1.1-1.9,1.6-2.8c-0.3-0.6-1.7-0.6-1.1-1.6c0.5-0.9,1.1,0.2,1.9,0.2c0.5-0.9,1-1.9,1.5-2.8c-0.3-0.7-1.7-0.5-1.2-1.6
		c0.1-0.3,1.2-0.1,2-0.1c0.4-0.8,0.9-1.8,1.4-2.8c-0.3-0.7-1.7-0.4-1.2-1.5c0.1-0.3,1.1-0.2,1.9-0.2c0.3-0.8,0.8-1.8,1.2-2.8
		c-0.4-0.6-1.7-0.4-1.3-1.4c0.1-0.3,1.1-0.2,1.6-0.3l0.2,0.3c0.4-1.1,0.8-2.2,1.2-3.3c-0.4-0.6-1.8-0.3-1.4-1.4s1.2,0,1.9-0.2
		c0.3-1,0.6-2.1,0.9-3.1c-0.4-0.6-1.8-0.2-1.4-1.3c0.1-0.3,1.1-0.3,1.9-0.5c0.2-0.8,0.5-1.9,0.6-2.8c-0.6-0.6-1.1-1-1.5-1.4
		c0.5-0.2,1.1-0.4,1.9-0.7c0.1-0.8,0.4-1.9,0.6-3c-0.5-0.5-1.8,0-1.6-1.2c0.1-0.3,1.1-0.4,1.9-0.7c0.1-0.8,0.3-1.9,0.4-2.9
		c-0.5-0.6-1.8,0.1-1.6-1.1c0.1-0.3,1.1-0.5,1.7-0.8c0.2-0.4,0.6-0.9,1-1.4c0.2,0.5,0.5,1.1,0.8,1.8c1.4,0.1,3,0.4,4.8,0.5
		c0.1-0.4,0-0.8,0.1-1.2c0.1-0.3,0.5-0.5,0.7-0.8c0.2,0.3,0.4,0.6,0.5,0.9c0.1,0.4,0,0.8,0.2,1c0.4,0.4,0.8,0.8,1.2,1.1
		c-0.5,0.2-0.9,0.5-1.4,0.8c-0.1-0.1-0.2-0.2-0.3-0.2c-0.2,1.2-0.4,2.5-0.5,3.5c0.6,0.6,1.1,0.9,1.5,1.4c-0.5,0.2-1,0.5-1.8,0.8
		c-0.2,0.9-0.4,2.1-0.6,3.1c0.5,0.5,0.9,1,1.4,1.4c-0.5,0.2-1,0.4-1.8,0.7c-0.2,0.9-0.5,2.2-0.8,3.4c0.1-0.1,0.2-0.1,0.3-0.1
		c0.4,0.4,0.6,0.9,1,1.3c-0.5,0.2-1,0.4-1.8,0.6c-0.3,0.9-0.6,2.2-1,3.4c0.4,0.6,1.6,0.4,1.2,1.4c-0.1,0.3-0.9,0.3-1.7,0.5
		c-0.3,0.9-0.8,2.1-1.1,3c0.4,0.7,0.7,1.2,1.1,1.7c-0.5,0.1-1,0.2-1.8,0.4c-0.4,0.8-0.8,2-1.3,3.2c0.2,0.6,1.6,0.5,1,1.5
		C334.1,262.5,333.3,262.4,332.5,262.4L332.5,262.4z M295.2,293.3c-0.1-0.1-0.1-0.2-0.2-0.3c-0.4,0.3-0.9,0.5-1.2,0.9
		c-0.6,0.9-1.1,1.9-1.6,2.9c-0.4,0.9-0.1,1.3,0.9,1.3c2.1,0.1,4.9-2.4,5.2-4.4c0.1-0.9-0.2-1.2-1.2-0.9
		C296.5,293,295.8,293.2,295.2,293.3L295.2,293.3z M250.6,321.4c1.4-0.2,2.6-0.4,3.8-0.6c-0.4-1.9-0.6-3.7-1-5.5
		c-1.2,0.2-2.4,0.4-3.6,0.5C250.1,317.6,250.3,319.4,250.6,321.4z M259.5,319.8c-0.4-1.9-0.8-3.7-1.2-5.5c-1.2,0.2-2.3,0.4-3.5,0.6
		c0.3,1.9,0.6,3.7,0.9,5.5C257,320.3,258.2,320.1,259.5,319.8L259.5,319.8z M269.1,311.4c0.6,1.8,1.1,3.5,1.7,5.3
		c1.3-0.5,2.4-0.9,3.6-1.3c-0.6-1.8-1.3-3.5-1.9-5.2C271.4,310.6,270.3,311,269.1,311.4L269.1,311.4z M260.8,319.5
		c1.3-0.4,2.5-0.6,3.7-0.9c-0.5-1.8-0.9-3.6-1.5-5.4c-1.2,0.3-2.3,0.6-3.5,0.9C260.1,315.9,260.4,317.7,260.8,319.5z M277.1,308.4
		c-1.2,0.5-2.2,0.9-3.4,1.4c0.6,1.8,1.3,3.4,1.9,5.2c1.2-0.5,2.4-1,3.6-1.5C278.6,311.8,277.9,310.1,277.1,308.4L277.1,308.4z
		 M335.3,251.6c-1.7-0.6-3.3-1.1-5-1.7c-0.4,1.2-0.8,2.4-1.2,3.5c1.7,0.6,3.2,1.3,4.9,1.9C334.4,254.1,334.8,253,335.3,251.6
		L335.3,251.6z M264.5,312.8c0.5,1.8,0.9,3.6,1.4,5.4c1.3-0.4,2.5-0.8,3.7-1.1c-0.6-1.8-1.1-3.5-1.6-5.3
		C266.7,312.1,265.7,312.5,264.5,312.8z M286,304c-1.1,0.6-2.1,1.1-3.2,1.7c0.8,1.7,1.6,3.3,2.5,5c1.2-0.6,2.2-1.2,3.4-1.8
		C287.7,307.2,286.9,305.6,286,304L286,304z M280.6,313c1.2-0.6,2.3-1.1,3.5-1.6c-0.8-1.7-1.6-3.4-2.4-5c-1.2,0.6-2.2,1.1-3.2,1.5
		C279.1,309.6,279.9,311.2,280.6,313L280.6,313z M332,260.4c0.5-1.3,1-2.5,1.5-3.7c-1.6-0.6-3.2-1.3-4.9-1.9
		c-0.5,1.2-0.9,2.2-1.4,3.4C328.8,258.9,330.3,259.6,332,260.4L332,260.4z M325.1,262.7c1.5,0.8,3.1,1.6,4.7,2.5
		c0.6-1.3,1.2-2.4,1.7-3.7c-1.6-0.8-3.2-1.5-4.8-2.2C326.2,260.5,325.7,261.5,325.1,262.7L325.1,262.7z M335.7,250.4
		c0.4-1.4,0.8-2.6,1.1-3.9c-1.8-0.5-3.4-0.9-5.1-1.4c-0.4,1.2-0.7,2.4-1,3.5C332.4,249.2,334,249.8,335.7,250.4L335.7,250.4z
		 M333.9,235.3c-0.2,1.3-0.4,2.4-0.6,3.7c1.8,0.4,3.4,0.7,5.1,1.1c0.2-1.4,0.5-2.6,0.7-3.9C337.3,235.8,335.7,235.6,333.9,235.3
		L333.9,235.3z M338.1,241.4c-1.8-0.4-3.4-0.7-5.1-1.1c-0.3,1.3-0.5,2.4-0.8,3.6c1.7,0.5,3.4,0.9,5,1.4
		C337.5,243.9,337.8,242.7,338.1,241.4L338.1,241.4z M324.5,263.9c-0.6,1.1-1.1,2.1-1.7,3.2c1.5,0.9,3,1.8,4.5,2.7
		c0.6-1.2,1.2-2.2,1.8-3.4C327.6,265.6,326.1,264.7,324.5,263.9z M339.3,234.8c0.2-1.4,0.3-2.6,0.5-3.9c-1.9-0.2-3.5-0.4-5.2-0.5
		c-0.2,1.2-0.3,2.4-0.5,3.6C335.8,234.2,337.5,234.5,339.3,234.8z M326.7,270.9c-1.6-0.9-3.1-1.8-4.5-2.6c-0.6,1.1-1.2,2.1-1.8,3.1
		c1.5,1,2.8,1.9,4.3,2.9C325.4,273.1,326,272.1,326.7,270.9z M303.2,300.7l0.4,0.1c4.4-3.4,8.4-7,12.2-11c0.2-0.2,0.2-0.6,0.4-0.9
		c-0.2,0.1-0.5,0.2-0.8,0.4c-3.9,3.6-7.8,7.1-11.8,10.7C303.3,300.1,303.3,300.4,303.2,300.7z M301.9,301.2
		c-0.9,0.6-1.9,1.2-2.7,1.9c-0.2,0.2-0.2,0.6-0.4,1.2C301.2,303,302.2,302.1,301.9,301.2z M320.1,284.3c-0.1-0.1-0.2-0.1-0.3-0.2
		c-0.8,0.9-1.6,1.9-2.4,2.9c-0.1,0.2-0.1,0.5-0.1,0.8c0.1,0.1,0.2,0.1,0.3,0.1C318.4,286.6,319.7,285.8,320.1,284.3L320.1,284.3z"/>
	<path d="M310.3,288.8c-1.1-1.1-1.8-1.9-2.5-2.7c-0.1-0.2-0.1-0.7,0-0.9c0.8-0.9,1.6-1.8,2.5-2.8c1,1,1.8,1.8,2.5,2.6
		c0.1,0.2,0.1,0.6,0,0.9C312.1,286.8,311.3,287.7,310.3,288.8L310.3,288.8z"/>
	<path d="M306.3,286.8c0.9,1,1.7,1.9,2.6,2.9c-1.1,1-2.1,1.9-3.2,2.9c-0.9-1-1.6-1.9-2.5-3C304.2,288.6,305.2,287.8,306.3,286.8
		L306.3,286.8z"/>
	<path d="M314.4,284.2c-0.9-0.8-1.6-1.5-2.4-2.2c-0.2-0.2-0.1-0.6,0-0.9c0-0.1,0.1-0.1,0.1-0.2c2.3-2.9,2.4-2.9,4.9,0.2
		C316.2,282,315.4,283,314.4,284.2L314.4,284.2z"/>
</g>
</svg>
